M48
; DRILL file {KiCad 8.0.3} date 2024-07-13T16:12:32+0200
; FORMAT={-:-/ absolute / inch / decimal}
; #@! TF.CreationDate,2024-07-13T16:12:32+02:00
; #@! TF.GenerationSoftware,Kicad,Pcbnew,8.0.3
; #@! TF.FileFunction,Plated,1,2,PTH
FMAT,2
INCH
; #@! TA.AperFunction,Plated,PTH,ViaDrill
T1C0.0118
; #@! TA.AperFunction,Plated,PTH,ComponentDrill
T2C0.0256
; #@! TA.AperFunction,Plated,PTH,ComponentDrill
T3C0.0433
; #@! TA.AperFunction,Plated,PTH,ComponentDrill
T4C0.1260
%
G90
G05
T1
X1.7795Y-1.1025
X1.7795Y-1.8525
X1.8745Y-4.8525
X1.9645Y-2.6025
X2.0595Y-3.3475
X2.1345Y-4.6425
X2.2495Y-4.1025
X2.5295Y-1.1075
X2.5295Y-1.8575
X2.7195Y-4.8525
X2.8995Y-2.6025
X3.0695Y-4.6025
X3.0895Y-3.3525
X3.2795Y-1.1025
X3.2795Y-1.8525
X3.4645Y-4.1025
X3.5595Y-4.8525
X3.6545Y-2.6025
X3.8445Y-3.3575
X3.9545Y-4.6075
X4.0295Y-1.1075
X4.0295Y-1.8575
X4.2195Y-4.1025
X4.4045Y-2.6025
X4.5945Y-3.3525
X4.7795Y-1.1025
X4.7795Y-1.8625
X4.9645Y-4.1025
X4.9945Y-4.6105
X5.1545Y-2.6025
X5.3445Y-3.3575
X5.41Y-5.15
X5.42Y-4.88
X5.42Y-5.095
X5.445Y-5.15
X5.455Y-4.88
X5.48Y-5.15
X5.49Y-4.88
X5.5295Y-1.1075
X5.5295Y-1.8525
X5.7195Y-4.1025
X5.7395Y-4.6325
X5.9045Y-2.6075
X6.0945Y-3.3525
X6.2795Y-1.1025
X6.2795Y-1.8525
X6.2795Y-4.8525
X6.305Y-0.985
X6.3095Y-1.5425
X6.3472Y-0.988
X6.362Y-0.962
X6.3768Y-0.988
X6.415Y-0.985
X6.4249Y-2.3061
X6.4695Y-4.1025
X6.5636Y-0.877
X6.615Y-5.185
X6.6545Y-2.6025
X6.66Y-5.33
X6.686Y-5.194
X6.6999Y-5.4168
X6.705Y-0.73
X6.705Y-5.08
X6.714Y-5.22
X6.7228Y-3.047
X6.73Y-5.04
X6.735Y-4.98
X6.7565Y-5.3065
X6.7636Y-0.875
X6.785Y-5.33
X6.795Y-5.065
X6.8Y-5.02
X6.8345Y-4.8805
X6.842Y-4.746
X6.8445Y-3.3525
X6.8599Y-5.5008
X6.87Y-0.865
X6.87Y-4.72
X6.875Y-5.06
X6.875Y-5.375
X6.88Y-4.815
X6.89Y-0.89
X6.904Y-4.686
X6.9199Y-5.4148
X6.925Y-0.905
X6.93Y-4.662
X6.94Y-0.94
X6.94Y-5.057
X6.945Y-5.145
X6.95Y-4.955
X6.955Y-5.44
X6.955Y-5.49
X6.975Y-5.15
X6.9789Y-5.0314
X6.985Y-0.925
X7.001Y-0.9011
X7.0055Y-5.1891
X7.01Y-0.94
X7.01Y-5.435
X7.015Y-5.07
X7.025Y-5.505
X7.0295Y-1.1075
X7.0295Y-1.8525
X7.03Y-0.905
X7.03Y-4.7
X7.04Y-4.87
X7.045Y-5.41
X7.0487Y-3.8083
X7.055Y-5.195
X7.06Y-4.625
X7.09Y-4.7
X7.09Y-5.25
X7.1005Y-5.1252
X7.105Y-5.41
X7.1096Y-4.877
X7.11Y-4.625
X7.11Y-5.355
X7.11Y-5.45
X7.115Y-4.85
X7.1374Y-5.1247
X7.14Y-4.7
X7.14Y-5.04
X7.1481Y-0.9031
X7.1494Y-5.0956
X7.15Y-5.515
X7.1544Y-5.1512
X7.155Y-4.625
X7.16Y-0.94
X7.165Y-5.455
X7.17Y-4.931
X7.172Y-5.58
X7.175Y-5.175
X7.185Y-0.9
X7.195Y-0.935
X7.195Y-5.515
X7.2Y-5.45
X7.2083Y-5.4167
X7.2095Y-4.5675
X7.2195Y-4.1025
X7.225Y-5.07
X7.23Y-0.905
X7.23Y-0.945
X7.2344Y-5.0008
X7.2345Y-4.5425
X7.2443Y-5.4555
X7.245Y-5.515
X7.2581Y-4.5675
X7.26Y-0.925
X7.26Y-5.07
X7.2845Y-4.5425
X7.29Y-0.95
X7.29Y-5.515
X7.3Y-4.7
X7.3054Y-4.5681
X7.3069Y-5.3203
X7.31Y-5.42
X7.32Y-4.865
X7.33Y-0.87
X7.3434Y-5.3275
X7.3513Y-4.8309
X7.3661Y-4.805
X7.3808Y-4.8309
X7.3937Y-5.3563
X7.3946Y-5.321
X7.405Y-4.77
X7.4095Y-2.6025
X7.415Y-5.4274
X7.43Y-5.1656
X7.43Y-5.3203
X7.44Y-4.785
X7.44Y-5.4019
X7.465Y-5.3763
X7.48Y-0.73
X7.482Y-4.834
X7.49Y-5.35
X7.5101Y-5.3251
X7.525Y-4.8
X7.525Y-5.1056
X7.526Y-4.874
X7.55Y-5.08
X7.556Y-5.578
X7.592Y-3.35
X7.72Y-4.81
X7.7549Y-4.8288
X7.76Y-5.01
X7.7795Y-1.1075
X7.7795Y-1.8525
X7.785Y-4.98
X7.79Y-4.8544
X7.82Y-4.9646
X7.866Y-3.999
X7.915Y-4.56
X8.055Y-3.135
X8.055Y-3.1822
X8.085Y-3.11
X8.085Y-3.1586
X8.1595Y-2.6025
X8.22Y-3.86
X8.22Y-3.9112
X8.22Y-3.9624
X8.22Y-4.0135
X8.25Y-3.8856
X8.25Y-3.9368
X8.25Y-3.988
X8.25Y-4.045
X8.3445Y-3.3525
X8.5295Y-1.1025
X8.5295Y-1.8575
X8.7145Y-4.6225
X8.7195Y-4.1025
X8.9045Y-2.6125
X8.9995Y-4.8575
X9.0945Y-3.3575
X9.2795Y-1.1025
X9.2845Y-1.8575
X9.4695Y-4.1025
X9.5895Y-4.6425
X9.6595Y-2.6075
X9.8445Y-3.3525
X9.8445Y-4.8525
X10.0295Y-1.1025
X10.0295Y-1.8525
X10.2145Y-4.1025
X10.4045Y-2.6025
X10.5245Y-4.6648
X10.5945Y-3.3525
X10.6845Y-4.8525
X10.7795Y-1.1025
X10.7795Y-1.8525
X11.1545Y-2.6025
X11.2345Y-4.6845
X11.2495Y-4.1025
X11.3495Y-4.7042
X11.5295Y-1.1025
X11.5345Y-4.8525
X11.7395Y-3.2475
X11.9045Y-1.8575
X12.0945Y-2.6025
X12.226Y-0.934
X12.23Y-1.728
X12.234Y-1.644
X12.2495Y-4.7225
X12.26Y-2.785
X12.26Y-2.88
X12.26Y-3.035
X12.265Y-2.39
X12.2795Y-4.1025
X12.2795Y-4.8525
X12.292Y-0.88
X12.315Y-1.1
X12.316Y-1.0
X12.33Y-1.905
X12.36Y-0.944
X12.368Y-1.652
X12.375Y-2.945
X12.4006Y-2.975
X12.415Y-2.0
X12.4252Y-2.3071
X12.4262Y-2.945
X12.435Y-1.915
X12.436Y-1.47
X12.436Y-1.652
X12.4518Y-2.975
X12.4606Y-2.3268
X12.462Y-3.25
X12.462Y-3.404
X12.4774Y-2.945
X12.48Y-1.915
X12.508Y-2.896
X12.5118Y-2.2087
X12.52Y-1.915
X12.5236Y-2.0551
X12.526Y-3.614
X12.53Y-2.742
X12.535Y-2.955
X12.55Y-2.245
X12.552Y-3.572
X12.565Y-1.915
X12.61Y-1.925
X12.62Y-1.12
X12.654Y-1.714
X12.66Y-1.9
X12.67Y-2.265
X12.715Y-1.99
X12.805Y-1.92
X12.81Y-2.665
X12.855Y-1.99
X12.905Y-2.65
X12.925Y-1.865
X12.9395Y-4.7525
X12.99Y-1.99
X13.005Y-2.65
X13.008Y-1.458
X13.012Y-1.532
X13.094Y-1.162
X13.098Y-1.048
X13.1355Y-1.6873
X13.144Y-0.966
X13.178Y-1.578
X13.18Y-1.12
T3
X12.9173Y-2.1535
X12.9173Y-2.4767
X12.9175Y-2.7985
X12.9175Y-3.1201
X12.9175Y-3.4435
X12.9175Y-3.7685
X12.9175Y-4.0935
X12.9175Y-4.4185
X13.0157Y-2.0551
X13.0157Y-2.3783
X13.0159Y-2.7001
X13.0159Y-3.0217
X13.0159Y-3.3451
X13.0159Y-3.6701
X13.0159Y-3.9951
X13.0159Y-4.3201
T4
X1.9882Y-0.7677
X1.9882Y-5.374
X11.437Y-4.311
X11.5945Y-0.7677
T2
G00X6.8575Y-0.6358
M15
G01X6.8575Y-0.6634
M16
G05
G00X6.9075Y-0.8118
M15
G01X6.9075Y-0.8276
M16
G05
G00X7.2736Y-0.8118
M15
G01X7.2736Y-0.8276
M16
G05
G00X7.3236Y-0.6358
M15
G01X7.3236Y-0.6634
M16
G05
M30
