%TF.GenerationSoftware,KiCad,Pcbnew,8.0.3*%
%TF.CreationDate,2024-07-13T16:12:33+02:00*%
%TF.ProjectId,DevKeyboard,4465764b-6579-4626-9f61-72642e6b6963,1.0*%
%TF.SameCoordinates,Original*%
%TF.FileFunction,Legend,Bot*%
%TF.FilePolarity,Positive*%
%FSLAX46Y46*%
G04 Gerber Fmt 4.6, Leading zero omitted, Abs format (unit mm)*
G04 Created by KiCad (PCBNEW 8.0.3) date 2024-07-13 16:12:33*
%MOMM*%
%LPD*%
G01*
G04 APERTURE LIST*
%ADD10C,0.100000*%
%ADD11C,0.300000*%
%ADD12C,0.150000*%
%ADD13C,0.120000*%
%ADD14C,0.508000*%
%ADD15C,0.200000*%
%ADD16C,0.250000*%
%ADD17C,0.127000*%
G04 APERTURE END LIST*
D10*
X179026371Y-124713074D02*
X179454942Y-124713074D01*
X179454942Y-124713074D02*
X179540657Y-124684503D01*
X179540657Y-124684503D02*
X179597800Y-124627360D01*
X179597800Y-124627360D02*
X179626371Y-124541646D01*
X179626371Y-124541646D02*
X179626371Y-124484503D01*
X179626371Y-125284503D02*
X179626371Y-124998789D01*
X179626371Y-124998789D02*
X179026371Y-124998789D01*
X179569228Y-125827360D02*
X179597800Y-125798788D01*
X179597800Y-125798788D02*
X179626371Y-125713074D01*
X179626371Y-125713074D02*
X179626371Y-125655931D01*
X179626371Y-125655931D02*
X179597800Y-125570217D01*
X179597800Y-125570217D02*
X179540657Y-125513074D01*
X179540657Y-125513074D02*
X179483514Y-125484503D01*
X179483514Y-125484503D02*
X179369228Y-125455931D01*
X179369228Y-125455931D02*
X179283514Y-125455931D01*
X179283514Y-125455931D02*
X179169228Y-125484503D01*
X179169228Y-125484503D02*
X179112085Y-125513074D01*
X179112085Y-125513074D02*
X179054942Y-125570217D01*
X179054942Y-125570217D02*
X179026371Y-125655931D01*
X179026371Y-125655931D02*
X179026371Y-125713074D01*
X179026371Y-125713074D02*
X179054942Y-125798788D01*
X179054942Y-125798788D02*
X179083514Y-125827360D01*
X179026371Y-126255931D02*
X179454942Y-126255931D01*
X179454942Y-126255931D02*
X179540657Y-126227360D01*
X179540657Y-126227360D02*
X179597800Y-126170217D01*
X179597800Y-126170217D02*
X179626371Y-126084503D01*
X179626371Y-126084503D02*
X179626371Y-126027360D01*
X179626371Y-126827360D02*
X179626371Y-126541646D01*
X179626371Y-126541646D02*
X179026371Y-126541646D01*
X179569228Y-127370217D02*
X179597800Y-127341645D01*
X179597800Y-127341645D02*
X179626371Y-127255931D01*
X179626371Y-127255931D02*
X179626371Y-127198788D01*
X179626371Y-127198788D02*
X179597800Y-127113074D01*
X179597800Y-127113074D02*
X179540657Y-127055931D01*
X179540657Y-127055931D02*
X179483514Y-127027360D01*
X179483514Y-127027360D02*
X179369228Y-126998788D01*
X179369228Y-126998788D02*
X179283514Y-126998788D01*
X179283514Y-126998788D02*
X179169228Y-127027360D01*
X179169228Y-127027360D02*
X179112085Y-127055931D01*
X179112085Y-127055931D02*
X179054942Y-127113074D01*
X179054942Y-127113074D02*
X179026371Y-127198788D01*
X179026371Y-127198788D02*
X179026371Y-127255931D01*
X179026371Y-127255931D02*
X179054942Y-127341645D01*
X179054942Y-127341645D02*
X179083514Y-127370217D01*
X179026371Y-127798788D02*
X179454942Y-127798788D01*
X179454942Y-127798788D02*
X179540657Y-127770217D01*
X179540657Y-127770217D02*
X179597800Y-127713074D01*
X179597800Y-127713074D02*
X179626371Y-127627360D01*
X179626371Y-127627360D02*
X179626371Y-127570217D01*
X179626371Y-128370217D02*
X179626371Y-128084503D01*
X179626371Y-128084503D02*
X179026371Y-128084503D01*
X179569228Y-128913074D02*
X179597800Y-128884502D01*
X179597800Y-128884502D02*
X179626371Y-128798788D01*
X179626371Y-128798788D02*
X179626371Y-128741645D01*
X179626371Y-128741645D02*
X179597800Y-128655931D01*
X179597800Y-128655931D02*
X179540657Y-128598788D01*
X179540657Y-128598788D02*
X179483514Y-128570217D01*
X179483514Y-128570217D02*
X179369228Y-128541645D01*
X179369228Y-128541645D02*
X179283514Y-128541645D01*
X179283514Y-128541645D02*
X179169228Y-128570217D01*
X179169228Y-128570217D02*
X179112085Y-128598788D01*
X179112085Y-128598788D02*
X179054942Y-128655931D01*
X179054942Y-128655931D02*
X179026371Y-128741645D01*
X179026371Y-128741645D02*
X179026371Y-128798788D01*
X179026371Y-128798788D02*
X179054942Y-128884502D01*
X179054942Y-128884502D02*
X179083514Y-128913074D01*
X179026371Y-129341645D02*
X179454942Y-129341645D01*
X179454942Y-129341645D02*
X179540657Y-129313074D01*
X179540657Y-129313074D02*
X179597800Y-129255931D01*
X179597800Y-129255931D02*
X179626371Y-129170217D01*
X179626371Y-129170217D02*
X179626371Y-129113074D01*
X179626371Y-129913074D02*
X179626371Y-129627360D01*
X179626371Y-129627360D02*
X179026371Y-129627360D01*
X179569228Y-130455931D02*
X179597800Y-130427359D01*
X179597800Y-130427359D02*
X179626371Y-130341645D01*
X179626371Y-130341645D02*
X179626371Y-130284502D01*
X179626371Y-130284502D02*
X179597800Y-130198788D01*
X179597800Y-130198788D02*
X179540657Y-130141645D01*
X179540657Y-130141645D02*
X179483514Y-130113074D01*
X179483514Y-130113074D02*
X179369228Y-130084502D01*
X179369228Y-130084502D02*
X179283514Y-130084502D01*
X179283514Y-130084502D02*
X179169228Y-130113074D01*
X179169228Y-130113074D02*
X179112085Y-130141645D01*
X179112085Y-130141645D02*
X179054942Y-130198788D01*
X179054942Y-130198788D02*
X179026371Y-130284502D01*
X179026371Y-130284502D02*
X179026371Y-130341645D01*
X179026371Y-130341645D02*
X179054942Y-130427359D01*
X179054942Y-130427359D02*
X179083514Y-130455931D01*
D11*
G36*
X100376487Y-131705532D02*
G01*
X100439144Y-131766025D01*
X100510934Y-131905434D01*
X100512403Y-132308707D01*
X100445669Y-132446240D01*
X100385178Y-132508897D01*
X100247598Y-132579745D01*
X99937258Y-132581925D01*
X99800200Y-132515422D01*
X99737545Y-132454931D01*
X99666738Y-132317431D01*
X99664426Y-131911958D01*
X99731018Y-131774716D01*
X99791510Y-131712058D01*
X99929090Y-131641210D01*
X100239430Y-131639030D01*
X100376487Y-131705532D01*
G37*
G36*
X103940973Y-132580062D02*
G01*
X103366305Y-132582156D01*
X103228772Y-132515422D01*
X103166117Y-132454931D01*
X103095201Y-132317219D01*
X103093231Y-132101954D01*
X103159590Y-131965192D01*
X103213836Y-131909004D01*
X103438784Y-131831836D01*
X103939907Y-131829760D01*
X103940973Y-132580062D01*
G37*
G36*
X103939485Y-131532523D02*
G01*
X103461474Y-131534503D01*
X103324012Y-131467804D01*
X103261355Y-131407312D01*
X103190311Y-131269352D01*
X103188733Y-131149029D01*
X103254828Y-131012811D01*
X103315319Y-130950155D01*
X103452724Y-130879397D01*
X103938554Y-130877385D01*
X103939485Y-131532523D01*
G37*
G36*
X105939620Y-131627686D02*
G01*
X105622896Y-131628840D01*
X105615406Y-131627181D01*
X105605646Y-131628903D01*
X105366305Y-131629775D01*
X105228772Y-131563041D01*
X105166117Y-131502550D01*
X105095201Y-131364838D01*
X105093231Y-131149573D01*
X105159590Y-131012811D01*
X105220081Y-130950155D01*
X105357455Y-130879413D01*
X105938554Y-130877296D01*
X105939620Y-131627686D01*
G37*
G36*
X114186011Y-127723740D02*
G01*
X114248667Y-127784231D01*
X114325377Y-127933193D01*
X114414582Y-128279935D01*
X114417087Y-128719287D01*
X114332842Y-129066322D01*
X114255193Y-129226352D01*
X114194702Y-129289009D01*
X114056743Y-129360052D01*
X113936419Y-129361630D01*
X113800200Y-129295534D01*
X113737545Y-129235043D01*
X113660836Y-129086082D01*
X113571630Y-128739338D01*
X113569125Y-128299987D01*
X113653370Y-127952952D01*
X113731018Y-127792923D01*
X113791509Y-127730267D01*
X113929469Y-127659223D01*
X114049793Y-127657645D01*
X114186011Y-127723740D01*
G37*
G36*
X121975955Y-128380905D02*
G01*
X122033696Y-128493034D01*
X122034307Y-128660680D01*
X121379618Y-128531702D01*
X121379210Y-128500570D01*
X121435804Y-128383932D01*
X121548139Y-128326084D01*
X121858479Y-128323904D01*
X121975955Y-128380905D01*
G37*
G36*
X105995534Y-125170518D02*
G01*
X106058190Y-125231009D01*
X106128969Y-125368454D01*
X106131371Y-125869094D01*
X106064716Y-126006464D01*
X106004225Y-126069121D01*
X105866645Y-126139969D01*
X105556305Y-126142149D01*
X105476174Y-126103268D01*
X105474811Y-125143956D01*
X105548137Y-125106196D01*
X105858477Y-125104016D01*
X105995534Y-125170518D01*
G37*
G36*
X108524916Y-125672519D02*
G01*
X108530291Y-125672900D01*
X108535270Y-125674963D01*
X108564534Y-125677845D01*
X109001149Y-125675355D01*
X109118810Y-125732446D01*
X109176853Y-125845160D01*
X109178431Y-125965483D01*
X109121837Y-126082121D01*
X109009583Y-126139927D01*
X108604109Y-126142239D01*
X108523558Y-126103154D01*
X108522402Y-125671299D01*
X108524916Y-125672519D01*
G37*
G36*
X110852677Y-125170518D02*
G01*
X110915333Y-125231009D01*
X110986112Y-125368454D01*
X110988514Y-125869094D01*
X110921859Y-126006464D01*
X110861368Y-126069121D01*
X110723657Y-126140036D01*
X110508391Y-126142006D01*
X110371628Y-126075646D01*
X110308973Y-126015155D01*
X110238194Y-125877711D01*
X110235792Y-125377071D01*
X110302447Y-125239700D01*
X110362937Y-125177045D01*
X110500649Y-125106129D01*
X110715915Y-125104159D01*
X110852677Y-125170518D01*
G37*
G36*
X112701461Y-125143357D02*
G01*
X112702822Y-126101722D01*
X112628550Y-126139969D01*
X112318210Y-126142149D01*
X112181152Y-126075646D01*
X112118497Y-126015155D01*
X112047718Y-125877711D01*
X112045316Y-125377071D01*
X112111971Y-125239700D01*
X112172461Y-125177045D01*
X112310042Y-125106196D01*
X112620382Y-125104016D01*
X112701461Y-125143357D01*
G37*
G36*
X115975954Y-125161017D02*
G01*
X116033695Y-125273146D01*
X116034306Y-125440792D01*
X115379617Y-125311814D01*
X115379209Y-125280682D01*
X115435803Y-125164044D01*
X115548138Y-125106196D01*
X115858478Y-125104016D01*
X115975954Y-125161017D01*
G37*
G36*
X121214050Y-125161017D02*
G01*
X121271791Y-125273146D01*
X121272402Y-125440792D01*
X120617713Y-125311814D01*
X120617305Y-125280682D01*
X120673899Y-125164044D01*
X120786234Y-125106196D01*
X121096574Y-125104016D01*
X121214050Y-125161017D01*
G37*
G36*
X123179069Y-126140590D02*
G01*
X122881738Y-126142285D01*
X122648542Y-126066808D01*
X122500125Y-125921227D01*
X122422742Y-125770956D01*
X122333506Y-125424096D01*
X122331222Y-125174547D01*
X122415276Y-124828302D01*
X122492724Y-124668685D01*
X122641278Y-124517236D01*
X122867437Y-124439652D01*
X123176651Y-124437888D01*
X123179069Y-126140590D01*
G37*
G36*
X123793901Y-133101748D02*
G01*
X99144694Y-133101748D01*
X99144694Y-131872383D01*
X99366916Y-131872383D01*
X99369500Y-132325592D01*
X99368094Y-132329811D01*
X99369648Y-132351696D01*
X99369798Y-132377837D01*
X99371859Y-132382814D01*
X99372242Y-132388192D01*
X99382752Y-132415655D01*
X99480131Y-132604754D01*
X99487433Y-132622384D01*
X99492201Y-132628194D01*
X99493655Y-132631017D01*
X99496648Y-132633613D01*
X99506087Y-132645114D01*
X99604165Y-132739805D01*
X99615424Y-132752787D01*
X99621709Y-132756743D01*
X99624056Y-132759009D01*
X99627718Y-132760525D01*
X99640310Y-132768452D01*
X99812086Y-132851800D01*
X99814532Y-132854246D01*
X99832262Y-132861590D01*
X99858250Y-132874200D01*
X99863625Y-132874581D01*
X99868604Y-132876644D01*
X99897868Y-132879526D01*
X100256043Y-132877009D01*
X100260059Y-132878348D01*
X100281403Y-132876831D01*
X100308085Y-132876644D01*
X100313062Y-132874582D01*
X100318440Y-132874200D01*
X100345903Y-132863690D01*
X100535004Y-132766310D01*
X100552633Y-132759008D01*
X100558441Y-132754240D01*
X100561265Y-132752787D01*
X100563862Y-132749792D01*
X100575364Y-132740353D01*
X100670050Y-132642277D01*
X100683034Y-132631017D01*
X100686992Y-132624728D01*
X100689257Y-132622383D01*
X100690773Y-132618721D01*
X100698699Y-132606131D01*
X100782047Y-132434354D01*
X100784493Y-132431909D01*
X100791837Y-132414178D01*
X100804447Y-132388191D01*
X100804828Y-132382815D01*
X100806891Y-132377837D01*
X100809773Y-132348573D01*
X100808112Y-131892594D01*
X100808595Y-131891145D01*
X100808080Y-131883901D01*
X100807033Y-131596594D01*
X100809596Y-131579377D01*
X100806904Y-131561178D01*
X100806891Y-131557404D01*
X100806044Y-131555359D01*
X100805294Y-131550287D01*
X100707373Y-131169670D01*
X100703177Y-131148458D01*
X100700740Y-131143888D01*
X100700163Y-131141644D01*
X100697954Y-131138663D01*
X100689342Y-131122511D01*
X100503821Y-130848838D01*
X100498780Y-130836667D01*
X100480334Y-130814191D01*
X100480236Y-130814046D01*
X100480189Y-130814015D01*
X100480125Y-130813936D01*
X100382052Y-130719251D01*
X100370789Y-130706265D01*
X100364500Y-130702306D01*
X100362383Y-130700262D01*
X101084084Y-130700262D01*
X101084084Y-130758790D01*
X101106482Y-130812862D01*
X101147866Y-130854246D01*
X101201938Y-130876644D01*
X101231202Y-130879526D01*
X101652842Y-130878489D01*
X101655513Y-132758790D01*
X101677911Y-132812862D01*
X101719295Y-132854246D01*
X101773367Y-132876644D01*
X101831895Y-132876644D01*
X101885967Y-132854246D01*
X101927351Y-132812862D01*
X101949749Y-132758790D01*
X101952631Y-132729526D01*
X101951684Y-132062859D01*
X102795488Y-132062859D01*
X102797896Y-132326118D01*
X102796666Y-132329811D01*
X102798117Y-132350240D01*
X102798370Y-132377837D01*
X102800431Y-132382814D01*
X102800814Y-132388192D01*
X102811324Y-132415655D01*
X102908703Y-132604754D01*
X102916005Y-132622384D01*
X102920773Y-132628194D01*
X102922227Y-132631017D01*
X102925220Y-132633613D01*
X102934659Y-132645114D01*
X103032737Y-132739805D01*
X103043996Y-132752787D01*
X103050281Y-132756743D01*
X103052628Y-132759009D01*
X103056290Y-132760525D01*
X103068882Y-132768452D01*
X103240658Y-132851800D01*
X103243104Y-132854246D01*
X103260834Y-132861590D01*
X103286822Y-132874200D01*
X103292197Y-132874581D01*
X103297176Y-132876644D01*
X103326440Y-132879526D01*
X104117609Y-132876644D01*
X104171681Y-132854246D01*
X104213065Y-132812862D01*
X104235463Y-132758790D01*
X104235463Y-132758789D01*
X104238345Y-132729526D01*
X104236046Y-131110478D01*
X104795488Y-131110478D01*
X104797896Y-131373737D01*
X104796666Y-131377430D01*
X104798117Y-131397859D01*
X104798370Y-131425456D01*
X104800431Y-131430433D01*
X104800814Y-131435811D01*
X104811324Y-131463274D01*
X104908703Y-131652373D01*
X104916005Y-131670003D01*
X104920773Y-131675813D01*
X104922227Y-131678636D01*
X104925220Y-131681232D01*
X104934659Y-131692733D01*
X105032737Y-131787424D01*
X105043996Y-131800406D01*
X105050281Y-131804362D01*
X105052628Y-131806628D01*
X105056290Y-131808144D01*
X105068882Y-131816071D01*
X105240658Y-131899419D01*
X105243104Y-131901865D01*
X105260834Y-131909209D01*
X105286822Y-131921819D01*
X105292197Y-131922200D01*
X105297176Y-131924263D01*
X105325003Y-131927003D01*
X104808182Y-132669133D01*
X104795523Y-132726275D01*
X104805694Y-132783911D01*
X104837147Y-132833268D01*
X104885095Y-132866832D01*
X104942237Y-132879491D01*
X104999873Y-132869320D01*
X105049230Y-132837867D01*
X105068373Y-132815545D01*
X105687974Y-131925828D01*
X105940042Y-131924909D01*
X105941227Y-132758790D01*
X105963625Y-132812862D01*
X106005009Y-132854246D01*
X106059081Y-132876644D01*
X106117609Y-132876644D01*
X106171681Y-132854246D01*
X106213065Y-132812862D01*
X106235463Y-132758790D01*
X106238345Y-132729526D01*
X106238303Y-132700262D01*
X106798370Y-132700262D01*
X106798370Y-132758790D01*
X106820768Y-132812862D01*
X106862152Y-132854246D01*
X106916224Y-132876644D01*
X106945488Y-132879526D01*
X108117609Y-132876644D01*
X108171681Y-132854246D01*
X108213065Y-132812862D01*
X108235463Y-132758790D01*
X108235463Y-132700262D01*
X108213065Y-132646190D01*
X108171681Y-132604806D01*
X108117609Y-132582408D01*
X108088345Y-132579526D01*
X107666705Y-132580562D01*
X107665699Y-131872383D01*
X108700250Y-131872383D01*
X108702834Y-132325592D01*
X108701428Y-132329811D01*
X108702982Y-132351696D01*
X108703132Y-132377837D01*
X108705193Y-132382814D01*
X108705576Y-132388192D01*
X108716086Y-132415655D01*
X108813465Y-132604754D01*
X108820767Y-132622384D01*
X108825535Y-132628194D01*
X108826989Y-132631017D01*
X108829982Y-132633613D01*
X108839421Y-132645114D01*
X108937499Y-132739805D01*
X108948758Y-132752787D01*
X108955043Y-132756743D01*
X108957390Y-132759009D01*
X108961052Y-132760525D01*
X108973644Y-132768452D01*
X109145420Y-132851800D01*
X109147866Y-132854246D01*
X109165596Y-132861590D01*
X109191584Y-132874200D01*
X109196959Y-132874581D01*
X109201938Y-132876644D01*
X109231202Y-132879526D01*
X109779511Y-132876895D01*
X109783869Y-132878348D01*
X109806110Y-132876767D01*
X109831895Y-132876644D01*
X109836872Y-132874582D01*
X109842250Y-132874200D01*
X109869713Y-132863690D01*
X110058814Y-132766310D01*
X110076443Y-132759008D01*
X110082251Y-132754240D01*
X110085075Y-132752787D01*
X110087672Y-132749792D01*
X110099174Y-132740353D01*
X110213067Y-132622383D01*
X110235463Y-132568311D01*
X110235463Y-132509785D01*
X110213066Y-132455713D01*
X110171680Y-132414327D01*
X110117607Y-132391931D01*
X110059082Y-132391931D01*
X110005009Y-132414328D01*
X109982279Y-132432983D01*
X109908988Y-132508897D01*
X109771545Y-132579675D01*
X109270904Y-132582077D01*
X109133534Y-132515422D01*
X109070879Y-132454931D01*
X109000072Y-132317431D01*
X108998454Y-132033595D01*
X110512656Y-132033595D01*
X110512656Y-132092123D01*
X110535054Y-132146195D01*
X110576438Y-132187579D01*
X110630510Y-132209977D01*
X110659774Y-132212859D01*
X110797214Y-132212546D01*
X110798370Y-132758790D01*
X110820768Y-132812862D01*
X110862152Y-132854246D01*
X110916224Y-132876644D01*
X110974752Y-132876644D01*
X111028824Y-132854246D01*
X111070208Y-132812862D01*
X111092606Y-132758790D01*
X111095488Y-132729526D01*
X111094393Y-132211870D01*
X111893713Y-132210052D01*
X111916630Y-132211682D01*
X111921707Y-132209989D01*
X111927133Y-132209977D01*
X111949342Y-132200777D01*
X111972154Y-132193173D01*
X111976225Y-132189641D01*
X111981205Y-132187579D01*
X111998206Y-132170577D01*
X112016368Y-132154826D01*
X112018778Y-132150005D01*
X112022589Y-132146195D01*
X112031789Y-132123983D01*
X112042542Y-132102479D01*
X112042924Y-132097103D01*
X112044987Y-132092123D01*
X112044987Y-132068075D01*
X112046691Y-132044099D01*
X112044987Y-132036603D01*
X112044987Y-132033595D01*
X112043470Y-132029934D01*
X112040172Y-132015425D01*
X111992193Y-131872383D01*
X112509774Y-131872383D01*
X112512656Y-132568313D01*
X112525455Y-132599212D01*
X112535053Y-132622384D01*
X112553707Y-132645114D01*
X112635358Y-132723945D01*
X112636513Y-132726255D01*
X112648683Y-132736810D01*
X112671676Y-132759009D01*
X112676657Y-132761072D01*
X112680727Y-132764602D01*
X112707578Y-132776590D01*
X112992738Y-132868888D01*
X113011462Y-132876644D01*
X113018991Y-132877385D01*
X113021965Y-132878348D01*
X113025914Y-132878067D01*
X113040726Y-132879526D01*
X113231357Y-132877025D01*
X113249962Y-132878348D01*
X113257272Y-132876685D01*
X113260466Y-132876644D01*
X113264126Y-132875127D01*
X113278636Y-132871829D01*
X113542218Y-132781406D01*
X113546180Y-132781406D01*
X113565282Y-132773493D01*
X113591202Y-132764602D01*
X113595271Y-132761072D01*
X113600253Y-132759009D01*
X113622983Y-132740354D01*
X113810851Y-132548823D01*
X113825892Y-132535779D01*
X113829915Y-132529387D01*
X113832114Y-132527146D01*
X113833629Y-132523486D01*
X113841557Y-132510893D01*
X113930090Y-132328431D01*
X113938259Y-132317407D01*
X113946130Y-132295373D01*
X113947305Y-132292953D01*
X113947381Y-132291870D01*
X113948152Y-132289715D01*
X114038635Y-131916979D01*
X114044987Y-131901647D01*
X114046781Y-131883424D01*
X114047692Y-131879674D01*
X114047366Y-131877486D01*
X114047869Y-131872383D01*
X114045333Y-131595227D01*
X114047692Y-131579377D01*
X114045022Y-131561328D01*
X114044987Y-131557404D01*
X114044140Y-131555359D01*
X114043390Y-131550287D01*
X113948356Y-131180891D01*
X113947305Y-131166098D01*
X113938899Y-131144132D01*
X113938259Y-131141644D01*
X113937613Y-131140772D01*
X113936795Y-131138634D01*
X113922296Y-131110478D01*
X114509774Y-131110478D01*
X114512274Y-131301109D01*
X114510952Y-131319715D01*
X114512614Y-131327024D01*
X114512656Y-131330218D01*
X114514173Y-131333880D01*
X114517472Y-131348388D01*
X114607894Y-131611969D01*
X114607894Y-131615931D01*
X114615805Y-131635031D01*
X114624698Y-131660953D01*
X114628228Y-131665023D01*
X114630291Y-131670003D01*
X114648946Y-131692734D01*
X115539666Y-132580340D01*
X114630510Y-132582408D01*
X114576438Y-132604806D01*
X114535054Y-132646190D01*
X114512656Y-132700262D01*
X114512656Y-132758790D01*
X114535054Y-132812862D01*
X114576438Y-132854246D01*
X114630510Y-132876644D01*
X114659774Y-132879526D01*
X115927133Y-132876644D01*
X115950821Y-132866832D01*
X115981205Y-132854247D01*
X116022590Y-132812862D01*
X116040985Y-132768452D01*
X116044987Y-132758790D01*
X116044987Y-132700262D01*
X116029781Y-132663552D01*
X116022590Y-132646191D01*
X116003935Y-132623460D01*
X115250223Y-131872383D01*
X116414536Y-131872383D01*
X116417120Y-132325592D01*
X116415714Y-132329811D01*
X116417268Y-132351696D01*
X116417418Y-132377837D01*
X116419479Y-132382814D01*
X116419862Y-132388192D01*
X116430372Y-132415655D01*
X116527751Y-132604754D01*
X116535053Y-132622384D01*
X116539821Y-132628194D01*
X116541275Y-132631017D01*
X116544268Y-132633613D01*
X116553707Y-132645114D01*
X116651785Y-132739805D01*
X116663044Y-132752787D01*
X116669329Y-132756743D01*
X116671676Y-132759009D01*
X116675338Y-132760525D01*
X116687930Y-132768452D01*
X116859706Y-132851800D01*
X116862152Y-132854246D01*
X116879882Y-132861590D01*
X116905870Y-132874200D01*
X116911245Y-132874581D01*
X116916224Y-132876644D01*
X116945488Y-132879526D01*
X117493797Y-132876895D01*
X117498155Y-132878348D01*
X117520396Y-132876767D01*
X117546181Y-132876644D01*
X117551158Y-132874582D01*
X117556536Y-132874200D01*
X117583999Y-132863690D01*
X117773100Y-132766310D01*
X117790729Y-132759008D01*
X117796537Y-132754240D01*
X117799361Y-132752787D01*
X117801958Y-132749792D01*
X117813460Y-132740353D01*
X117927353Y-132622383D01*
X117949749Y-132568311D01*
X117949749Y-132509785D01*
X117927352Y-132455713D01*
X117885966Y-132414327D01*
X117831893Y-132391931D01*
X117773368Y-132391931D01*
X117719295Y-132414328D01*
X117696565Y-132432983D01*
X117623274Y-132508897D01*
X117485831Y-132579675D01*
X116985190Y-132582077D01*
X116847820Y-132515422D01*
X116785165Y-132454931D01*
X116714358Y-132317431D01*
X116712046Y-131911958D01*
X116778638Y-131774716D01*
X116839130Y-131712058D01*
X116976841Y-131641143D01*
X117230436Y-131638822D01*
X117250615Y-131640168D01*
X117255264Y-131638595D01*
X117260467Y-131638548D01*
X117282981Y-131629221D01*
X117306057Y-131621418D01*
X117309864Y-131618086D01*
X117314539Y-131616150D01*
X117331768Y-131598920D01*
X117350104Y-131582877D01*
X117352346Y-131578342D01*
X117355923Y-131574766D01*
X117365249Y-131552249D01*
X117376048Y-131530414D01*
X117376384Y-131525369D01*
X117378321Y-131520694D01*
X117378321Y-131496318D01*
X117379941Y-131472018D01*
X117378321Y-131467227D01*
X117378321Y-131462166D01*
X117368996Y-131439654D01*
X117361191Y-131416575D01*
X117357018Y-131410738D01*
X117355923Y-131408094D01*
X117353132Y-131405303D01*
X117344089Y-131392654D01*
X116891933Y-130878781D01*
X117831895Y-130876644D01*
X117885967Y-130854246D01*
X117927351Y-130812862D01*
X117949749Y-130758790D01*
X117949749Y-130729526D01*
X118414536Y-130729526D01*
X118417418Y-132758790D01*
X118439816Y-132812862D01*
X118481200Y-132854246D01*
X118535272Y-132876644D01*
X118593800Y-132876644D01*
X118647872Y-132854246D01*
X118689256Y-132812862D01*
X118711654Y-132758790D01*
X118714536Y-132729526D01*
X118712646Y-131398770D01*
X119095396Y-132215126D01*
X119102942Y-132235875D01*
X119107415Y-132240760D01*
X119110261Y-132246829D01*
X119127069Y-132262222D01*
X119142469Y-132279038D01*
X119148510Y-132281857D01*
X119153424Y-132286357D01*
X119174842Y-132294145D01*
X119195506Y-132303788D01*
X119202166Y-132304080D01*
X119208426Y-132306357D01*
X119231194Y-132305356D01*
X119253977Y-132306358D01*
X119260240Y-132304080D01*
X119266897Y-132303788D01*
X119287550Y-132294149D01*
X119308980Y-132286357D01*
X119313896Y-132281854D01*
X119319934Y-132279037D01*
X119335321Y-132262234D01*
X119352143Y-132246830D01*
X119357113Y-132238438D01*
X119359462Y-132235874D01*
X119360780Y-132232247D01*
X119367129Y-132221530D01*
X119748820Y-131399773D01*
X119750751Y-132758790D01*
X119773149Y-132812862D01*
X119814533Y-132854246D01*
X119868605Y-132876644D01*
X119927133Y-132876644D01*
X119981205Y-132854246D01*
X120022589Y-132812862D01*
X120044987Y-132758790D01*
X120047869Y-132729526D01*
X120045031Y-130731737D01*
X120046130Y-130706750D01*
X120044991Y-130703619D01*
X120044987Y-130700262D01*
X120417418Y-130700262D01*
X120417418Y-130758790D01*
X120439816Y-130812862D01*
X120481200Y-130854246D01*
X120535272Y-130876644D01*
X120564536Y-130879526D01*
X120986176Y-130878489D01*
X120988847Y-132758790D01*
X121011245Y-132812862D01*
X121052629Y-132854246D01*
X121106701Y-132876644D01*
X121165229Y-132876644D01*
X121219301Y-132854246D01*
X121260685Y-132812862D01*
X121283083Y-132758790D01*
X121285965Y-132729526D01*
X121285153Y-132158097D01*
X122128822Y-132158097D01*
X122131033Y-132326710D01*
X122130000Y-132329811D01*
X122131317Y-132348350D01*
X122131704Y-132377837D01*
X122133765Y-132382814D01*
X122134148Y-132388192D01*
X122144658Y-132415655D01*
X122242037Y-132604754D01*
X122249339Y-132622384D01*
X122254107Y-132628194D01*
X122255561Y-132631017D01*
X122258554Y-132633613D01*
X122267993Y-132645114D01*
X122366071Y-132739805D01*
X122377330Y-132752787D01*
X122383615Y-132756743D01*
X122385962Y-132759009D01*
X122389624Y-132760525D01*
X122402216Y-132768452D01*
X122573992Y-132851800D01*
X122576438Y-132854246D01*
X122594168Y-132861590D01*
X122620156Y-132874200D01*
X122625531Y-132874581D01*
X122630510Y-132876644D01*
X122659774Y-132879526D01*
X123133309Y-132876825D01*
X123154726Y-132878348D01*
X123162142Y-132876661D01*
X123165229Y-132876644D01*
X123168891Y-132875126D01*
X123183399Y-132871828D01*
X123495964Y-132764602D01*
X123540178Y-132726255D01*
X123566352Y-132673908D01*
X123570501Y-132615527D01*
X123551993Y-132560003D01*
X123513646Y-132515789D01*
X123461299Y-132489615D01*
X123402918Y-132485466D01*
X123374245Y-132491986D01*
X123118779Y-132579623D01*
X122699349Y-132582015D01*
X122562106Y-132515422D01*
X122499451Y-132454931D01*
X122428407Y-132316971D01*
X122426829Y-132196648D01*
X122492924Y-132060430D01*
X122553415Y-131997774D01*
X122702377Y-131921065D01*
X123065553Y-131827631D01*
X123080346Y-131826580D01*
X123102313Y-131818174D01*
X123104798Y-131817535D01*
X123105667Y-131816890D01*
X123107810Y-131816071D01*
X123296909Y-131718690D01*
X123314538Y-131711389D01*
X123320348Y-131706620D01*
X123323171Y-131705167D01*
X123325767Y-131702173D01*
X123337269Y-131692734D01*
X123431954Y-131594659D01*
X123444940Y-131583398D01*
X123448898Y-131577109D01*
X123451162Y-131574765D01*
X123452677Y-131571105D01*
X123460605Y-131558512D01*
X123543953Y-131386735D01*
X123546399Y-131384290D01*
X123553743Y-131366559D01*
X123566353Y-131340572D01*
X123566734Y-131335196D01*
X123568797Y-131330218D01*
X123571679Y-131300954D01*
X123569467Y-131132340D01*
X123570501Y-131129240D01*
X123569183Y-131110700D01*
X123568797Y-131081214D01*
X123566734Y-131076235D01*
X123566353Y-131070860D01*
X123555843Y-131043396D01*
X123458464Y-130854297D01*
X123451162Y-130836667D01*
X123446393Y-130830856D01*
X123444940Y-130828034D01*
X123441946Y-130825437D01*
X123432507Y-130813936D01*
X123334434Y-130719251D01*
X123323171Y-130706265D01*
X123316882Y-130702306D01*
X123314538Y-130700043D01*
X123310878Y-130698527D01*
X123298285Y-130690600D01*
X123126507Y-130607250D01*
X123124063Y-130604806D01*
X123106338Y-130597464D01*
X123080346Y-130584852D01*
X123074968Y-130584469D01*
X123069991Y-130582408D01*
X123040727Y-130579526D01*
X122567191Y-130582226D01*
X122545775Y-130580704D01*
X122538358Y-130582390D01*
X122535272Y-130582408D01*
X122531609Y-130583925D01*
X122517102Y-130587224D01*
X122204537Y-130694450D01*
X122160323Y-130732797D01*
X122134149Y-130785144D01*
X122130000Y-130843525D01*
X122148508Y-130899049D01*
X122186855Y-130943263D01*
X122239202Y-130969437D01*
X122297583Y-130973586D01*
X122326256Y-130967066D01*
X122581721Y-130879428D01*
X123001151Y-130877036D01*
X123138393Y-130943628D01*
X123201049Y-131004119D01*
X123272093Y-131142079D01*
X123273671Y-131262402D01*
X123207575Y-131398621D01*
X123147085Y-131461276D01*
X122998123Y-131537986D01*
X122634949Y-131631419D01*
X122620156Y-131632471D01*
X122598190Y-131640876D01*
X122595702Y-131641517D01*
X122594830Y-131642162D01*
X122592692Y-131642981D01*
X122403593Y-131740359D01*
X122385963Y-131747662D01*
X122380152Y-131752430D01*
X122377330Y-131753884D01*
X122374733Y-131756877D01*
X122363232Y-131766317D01*
X122268547Y-131864389D01*
X122255561Y-131875653D01*
X122251602Y-131881941D01*
X122249339Y-131884286D01*
X122247823Y-131887945D01*
X122239896Y-131900539D01*
X122156546Y-132072316D01*
X122154102Y-132074761D01*
X122146760Y-132092485D01*
X122134148Y-132118478D01*
X122133765Y-132123855D01*
X122131704Y-132128833D01*
X122128822Y-132158097D01*
X121285153Y-132158097D01*
X121283335Y-130877758D01*
X121736657Y-130876644D01*
X121790729Y-130854246D01*
X121832113Y-130812862D01*
X121854511Y-130758790D01*
X121854511Y-130700262D01*
X121832113Y-130646190D01*
X121790729Y-130604806D01*
X121736657Y-130582408D01*
X121707393Y-130579526D01*
X120535272Y-130582408D01*
X120481200Y-130604806D01*
X120439816Y-130646190D01*
X120417418Y-130700262D01*
X120044987Y-130700262D01*
X120035026Y-130676216D01*
X120026129Y-130651748D01*
X120023869Y-130649280D01*
X120022589Y-130646190D01*
X120004191Y-130627792D01*
X119986602Y-130608585D01*
X119983568Y-130607169D01*
X119981205Y-130604806D01*
X119957164Y-130594847D01*
X119933565Y-130583835D01*
X119930223Y-130583688D01*
X119927133Y-130582408D01*
X119901099Y-130582408D01*
X119875094Y-130581265D01*
X119871951Y-130582408D01*
X119868605Y-130582408D01*
X119844552Y-130592371D01*
X119820092Y-130601266D01*
X119817624Y-130603525D01*
X119814533Y-130604806D01*
X119796124Y-130623214D01*
X119776929Y-130640793D01*
X119774579Y-130644759D01*
X119773149Y-130646190D01*
X119771793Y-130649462D01*
X119761942Y-130666093D01*
X119232132Y-131806735D01*
X118698723Y-130669046D01*
X118689256Y-130646190D01*
X118686905Y-130643839D01*
X118685477Y-130640793D01*
X118666269Y-130623203D01*
X118647872Y-130604806D01*
X118644781Y-130603525D01*
X118642314Y-130601266D01*
X118617848Y-130592369D01*
X118593800Y-130582408D01*
X118590454Y-130582408D01*
X118587311Y-130581265D01*
X118561307Y-130582408D01*
X118535272Y-130582408D01*
X118532181Y-130583688D01*
X118528841Y-130583835D01*
X118505245Y-130594845D01*
X118481200Y-130604806D01*
X118478836Y-130607169D01*
X118475803Y-130608585D01*
X118458213Y-130627792D01*
X118439816Y-130646190D01*
X118438535Y-130649280D01*
X118436276Y-130651748D01*
X118427379Y-130676213D01*
X118417418Y-130700262D01*
X118416966Y-130704850D01*
X118416275Y-130706751D01*
X118416430Y-130710289D01*
X118414536Y-130729526D01*
X117949749Y-130729526D01*
X117949749Y-130700262D01*
X117927351Y-130646190D01*
X117885967Y-130604806D01*
X117831895Y-130582408D01*
X117802631Y-130579526D01*
X116568297Y-130582332D01*
X116545124Y-130580788D01*
X116540367Y-130582396D01*
X116535272Y-130582408D01*
X116512760Y-130591732D01*
X116489681Y-130599538D01*
X116485872Y-130602870D01*
X116481200Y-130604806D01*
X116463973Y-130622032D01*
X116445635Y-130638079D01*
X116443392Y-130642613D01*
X116439816Y-130646190D01*
X116430489Y-130668706D01*
X116419691Y-130690542D01*
X116419354Y-130695586D01*
X116417418Y-130700262D01*
X116417418Y-130724637D01*
X116415798Y-130748938D01*
X116417418Y-130753728D01*
X116417418Y-130758790D01*
X116426742Y-130781301D01*
X116434548Y-130804381D01*
X116438720Y-130810217D01*
X116439816Y-130812862D01*
X116442606Y-130815652D01*
X116451650Y-130828302D01*
X116907721Y-131346624D01*
X116905870Y-131346756D01*
X116878406Y-131357266D01*
X116689310Y-131454642D01*
X116671676Y-131461947D01*
X116665864Y-131466716D01*
X116663044Y-131468169D01*
X116660448Y-131471161D01*
X116648946Y-131480602D01*
X116554260Y-131578676D01*
X116541275Y-131589939D01*
X116537316Y-131596227D01*
X116535053Y-131598572D01*
X116533537Y-131602231D01*
X116525610Y-131614825D01*
X116442260Y-131786602D01*
X116439816Y-131789047D01*
X116432474Y-131806771D01*
X116419862Y-131832764D01*
X116419479Y-131838141D01*
X116417418Y-131843119D01*
X116414536Y-131872383D01*
X115250223Y-131872383D01*
X114887657Y-131511085D01*
X114809543Y-131283382D01*
X114807781Y-131149029D01*
X114873876Y-131012811D01*
X114934367Y-130950155D01*
X115071867Y-130879348D01*
X115477341Y-130877036D01*
X115614583Y-130943628D01*
X115719296Y-131044723D01*
X115773368Y-131067120D01*
X115831894Y-131067120D01*
X115885966Y-131044723D01*
X115927352Y-131003337D01*
X115949749Y-130949265D01*
X115949749Y-130890739D01*
X115927352Y-130836667D01*
X115908697Y-130813936D01*
X115810624Y-130719251D01*
X115799361Y-130706265D01*
X115793072Y-130702306D01*
X115790728Y-130700043D01*
X115787068Y-130698527D01*
X115774475Y-130690600D01*
X115602697Y-130607250D01*
X115600253Y-130604806D01*
X115582528Y-130597464D01*
X115556536Y-130584852D01*
X115551158Y-130584469D01*
X115546181Y-130582408D01*
X115516917Y-130579526D01*
X115063706Y-130582110D01*
X115059488Y-130580704D01*
X115037603Y-130582258D01*
X115011462Y-130582408D01*
X115006483Y-130584470D01*
X115001108Y-130584852D01*
X114973644Y-130595362D01*
X114784545Y-130692740D01*
X114766915Y-130700043D01*
X114761104Y-130704811D01*
X114758282Y-130706265D01*
X114755685Y-130709258D01*
X114744184Y-130718698D01*
X114649499Y-130816770D01*
X114636513Y-130828034D01*
X114632554Y-130834322D01*
X114630291Y-130836667D01*
X114628775Y-130840326D01*
X114620848Y-130852920D01*
X114537498Y-131024697D01*
X114535054Y-131027142D01*
X114527712Y-131044866D01*
X114515100Y-131070859D01*
X114514717Y-131076236D01*
X114512656Y-131081214D01*
X114509774Y-131110478D01*
X113922296Y-131110478D01*
X113839416Y-130949535D01*
X113832114Y-130931905D01*
X113827345Y-130926094D01*
X113825892Y-130923272D01*
X113822898Y-130920675D01*
X113813459Y-130909174D01*
X113637121Y-130736207D01*
X113635416Y-130732797D01*
X113620115Y-130719527D01*
X113600252Y-130700043D01*
X113595272Y-130697980D01*
X113591202Y-130694450D01*
X113564351Y-130682461D01*
X113279191Y-130590164D01*
X113260466Y-130582408D01*
X113252935Y-130581666D01*
X113249962Y-130580704D01*
X113246013Y-130580984D01*
X113231202Y-130579526D01*
X112967942Y-130581934D01*
X112964250Y-130580704D01*
X112943821Y-130582155D01*
X112916224Y-130582408D01*
X112911245Y-130584470D01*
X112905870Y-130584852D01*
X112878406Y-130595362D01*
X112663044Y-130706265D01*
X112624698Y-130750480D01*
X112606190Y-130806002D01*
X112610338Y-130864383D01*
X112636513Y-130916732D01*
X112680728Y-130955078D01*
X112736250Y-130973586D01*
X112794631Y-130969438D01*
X112822094Y-130958928D01*
X112976841Y-130879239D01*
X113200343Y-130877194D01*
X113432911Y-130952469D01*
X113581326Y-131098046D01*
X113658711Y-131248319D01*
X113747946Y-131595177D01*
X113750230Y-131844727D01*
X113666176Y-132190972D01*
X113588727Y-132350589D01*
X113440174Y-132502039D01*
X113213629Y-132579756D01*
X113070873Y-132581628D01*
X112838488Y-132506412D01*
X112809523Y-132478447D01*
X112807630Y-132021344D01*
X113069990Y-132019501D01*
X113124062Y-131997103D01*
X113165446Y-131955719D01*
X113187844Y-131901647D01*
X113187844Y-131843119D01*
X113165446Y-131789047D01*
X113124062Y-131747663D01*
X113069990Y-131725265D01*
X113040726Y-131722383D01*
X112630510Y-131725265D01*
X112576438Y-131747663D01*
X112535054Y-131789047D01*
X112512656Y-131843119D01*
X112509774Y-131872383D01*
X111992193Y-131872383D01*
X111551993Y-130560003D01*
X111513646Y-130515789D01*
X111461299Y-130489615D01*
X111402919Y-130485466D01*
X111347394Y-130503974D01*
X111303180Y-130542321D01*
X111277006Y-130594668D01*
X111272857Y-130653048D01*
X111279376Y-130681722D01*
X111692481Y-131913326D01*
X111093764Y-131914687D01*
X111092606Y-131366928D01*
X111070208Y-131312856D01*
X111028824Y-131271472D01*
X110974752Y-131249074D01*
X110916224Y-131249074D01*
X110862152Y-131271472D01*
X110820768Y-131312856D01*
X110798370Y-131366928D01*
X110795488Y-131396192D01*
X110796586Y-131915363D01*
X110630510Y-131915741D01*
X110576438Y-131938139D01*
X110535054Y-131979523D01*
X110512656Y-132033595D01*
X108998454Y-132033595D01*
X108997760Y-131911958D01*
X109064352Y-131774716D01*
X109124844Y-131712058D01*
X109262555Y-131641143D01*
X109516150Y-131638822D01*
X109536329Y-131640168D01*
X109540978Y-131638595D01*
X109546181Y-131638548D01*
X109568695Y-131629221D01*
X109591771Y-131621418D01*
X109595578Y-131618086D01*
X109600253Y-131616150D01*
X109617482Y-131598920D01*
X109635818Y-131582877D01*
X109638060Y-131578342D01*
X109641637Y-131574766D01*
X109650963Y-131552249D01*
X109661762Y-131530414D01*
X109662098Y-131525369D01*
X109664035Y-131520694D01*
X109664035Y-131496318D01*
X109665655Y-131472018D01*
X109664035Y-131467227D01*
X109664035Y-131462166D01*
X109654710Y-131439654D01*
X109646905Y-131416575D01*
X109642732Y-131410738D01*
X109641637Y-131408094D01*
X109638846Y-131405303D01*
X109629803Y-131392654D01*
X109177647Y-130878781D01*
X110117609Y-130876644D01*
X110171681Y-130854246D01*
X110213065Y-130812862D01*
X110235463Y-130758790D01*
X110235463Y-130700262D01*
X110213065Y-130646190D01*
X110171681Y-130604806D01*
X110117609Y-130582408D01*
X110088345Y-130579526D01*
X108854011Y-130582332D01*
X108830838Y-130580788D01*
X108826081Y-130582396D01*
X108820986Y-130582408D01*
X108798474Y-130591732D01*
X108775395Y-130599538D01*
X108771586Y-130602870D01*
X108766914Y-130604806D01*
X108749687Y-130622032D01*
X108731349Y-130638079D01*
X108729106Y-130642613D01*
X108725530Y-130646190D01*
X108716203Y-130668706D01*
X108705405Y-130690542D01*
X108705068Y-130695586D01*
X108703132Y-130700262D01*
X108703132Y-130724637D01*
X108701512Y-130748938D01*
X108703132Y-130753728D01*
X108703132Y-130758790D01*
X108712456Y-130781301D01*
X108720262Y-130804381D01*
X108724434Y-130810217D01*
X108725530Y-130812862D01*
X108728320Y-130815652D01*
X108737364Y-130828302D01*
X109193435Y-131346624D01*
X109191584Y-131346756D01*
X109164120Y-131357266D01*
X108975024Y-131454642D01*
X108957390Y-131461947D01*
X108951578Y-131466716D01*
X108948758Y-131468169D01*
X108946162Y-131471161D01*
X108934660Y-131480602D01*
X108839974Y-131578676D01*
X108826989Y-131589939D01*
X108823030Y-131596227D01*
X108820767Y-131598572D01*
X108819251Y-131602231D01*
X108811324Y-131614825D01*
X108727974Y-131786602D01*
X108725530Y-131789047D01*
X108718188Y-131806771D01*
X108705576Y-131832764D01*
X108705193Y-131838141D01*
X108703132Y-131843119D01*
X108700250Y-131872383D01*
X107665699Y-131872383D01*
X107664721Y-131183488D01*
X107792856Y-131309173D01*
X107805901Y-131324215D01*
X107812292Y-131328238D01*
X107814534Y-131330437D01*
X107818193Y-131331952D01*
X107830787Y-131339880D01*
X108048727Y-131445628D01*
X108107107Y-131449776D01*
X108162629Y-131431269D01*
X108206844Y-131392922D01*
X108233019Y-131340573D01*
X108237167Y-131282193D01*
X108218660Y-131226670D01*
X108180313Y-131182455D01*
X108155427Y-131166790D01*
X107991090Y-131087050D01*
X107830506Y-130929537D01*
X107646678Y-130658360D01*
X107641637Y-130646190D01*
X107631674Y-130636227D01*
X107623094Y-130623570D01*
X107610751Y-130615304D01*
X107600253Y-130604806D01*
X107586676Y-130599182D01*
X107574464Y-130591004D01*
X107559901Y-130588091D01*
X107546181Y-130582408D01*
X107531485Y-130582408D01*
X107517075Y-130579526D01*
X107502506Y-130582408D01*
X107487653Y-130582408D01*
X107474074Y-130588032D01*
X107459660Y-130590884D01*
X107447302Y-130599122D01*
X107433581Y-130604806D01*
X107423191Y-130615195D01*
X107410961Y-130623349D01*
X107402695Y-130635691D01*
X107392197Y-130646190D01*
X107386573Y-130659766D01*
X107378395Y-130671979D01*
X107375482Y-130686541D01*
X107369799Y-130700262D01*
X107366947Y-130729214D01*
X107366917Y-130729368D01*
X107366927Y-130729420D01*
X107366917Y-130729526D01*
X107369546Y-132581293D01*
X106916224Y-132582408D01*
X106862152Y-132604806D01*
X106820768Y-132646190D01*
X106798370Y-132700262D01*
X106238303Y-132700262D01*
X106235463Y-130700262D01*
X106213065Y-130646190D01*
X106171681Y-130604806D01*
X106117609Y-130582408D01*
X106088345Y-130579526D01*
X105349739Y-130582216D01*
X105345202Y-130580704D01*
X105322518Y-130582315D01*
X105297176Y-130582408D01*
X105292197Y-130584470D01*
X105286822Y-130584852D01*
X105259358Y-130595362D01*
X105070259Y-130692740D01*
X105052629Y-130700043D01*
X105046818Y-130704811D01*
X105043996Y-130706265D01*
X105041399Y-130709258D01*
X105029898Y-130718698D01*
X104935213Y-130816770D01*
X104922227Y-130828034D01*
X104918268Y-130834322D01*
X104916005Y-130836667D01*
X104914489Y-130840326D01*
X104906562Y-130852920D01*
X104823212Y-131024697D01*
X104820768Y-131027142D01*
X104813426Y-131044866D01*
X104800814Y-131070859D01*
X104800431Y-131076236D01*
X104798370Y-131081214D01*
X104795488Y-131110478D01*
X104236046Y-131110478D01*
X104235463Y-130700262D01*
X104213065Y-130646190D01*
X104171681Y-130604806D01*
X104117609Y-130582408D01*
X104088345Y-130579526D01*
X103444900Y-130582190D01*
X103440440Y-130580704D01*
X103417945Y-130582302D01*
X103392414Y-130582408D01*
X103387435Y-130584470D01*
X103382060Y-130584852D01*
X103354596Y-130595362D01*
X103165497Y-130692740D01*
X103147867Y-130700043D01*
X103142056Y-130704811D01*
X103139234Y-130706265D01*
X103136637Y-130709258D01*
X103125136Y-130718698D01*
X103030451Y-130816770D01*
X103017465Y-130828034D01*
X103013506Y-130834322D01*
X103011243Y-130836667D01*
X103009727Y-130840326D01*
X103001800Y-130852920D01*
X102918450Y-131024697D01*
X102916006Y-131027142D01*
X102908664Y-131044866D01*
X102896052Y-131070859D01*
X102895669Y-131076236D01*
X102893608Y-131081214D01*
X102890726Y-131110478D01*
X102892937Y-131279091D01*
X102891904Y-131282192D01*
X102893221Y-131300731D01*
X102893608Y-131330218D01*
X102895669Y-131335195D01*
X102896052Y-131340573D01*
X102906562Y-131368036D01*
X103003940Y-131557134D01*
X103011243Y-131574765D01*
X103016011Y-131580575D01*
X103017465Y-131583398D01*
X103020459Y-131585994D01*
X103029898Y-131597496D01*
X103075933Y-131641940D01*
X103061679Y-131646831D01*
X103057608Y-131650361D01*
X103052629Y-131652424D01*
X103029898Y-131671079D01*
X102935213Y-131769151D01*
X102922227Y-131780415D01*
X102918268Y-131786703D01*
X102916005Y-131789048D01*
X102914489Y-131792707D01*
X102906562Y-131805301D01*
X102823212Y-131977078D01*
X102820768Y-131979523D01*
X102813426Y-131997247D01*
X102800814Y-132023240D01*
X102800431Y-132028617D01*
X102798370Y-132033595D01*
X102795488Y-132062859D01*
X101951684Y-132062859D01*
X101950001Y-130877758D01*
X102403323Y-130876644D01*
X102457395Y-130854246D01*
X102498779Y-130812862D01*
X102521177Y-130758790D01*
X102521177Y-130700262D01*
X102498779Y-130646190D01*
X102457395Y-130604806D01*
X102403323Y-130582408D01*
X102374059Y-130579526D01*
X101201938Y-130582408D01*
X101147866Y-130604806D01*
X101106482Y-130646190D01*
X101084084Y-130700262D01*
X100362383Y-130700262D01*
X100362156Y-130700043D01*
X100358496Y-130698527D01*
X100345903Y-130690600D01*
X100174125Y-130607250D01*
X100171681Y-130604806D01*
X100153956Y-130597464D01*
X100127964Y-130584852D01*
X100122586Y-130584469D01*
X100117609Y-130582408D01*
X100088345Y-130579526D01*
X99678128Y-130582408D01*
X99624056Y-130604806D01*
X99582672Y-130646190D01*
X99560274Y-130700262D01*
X99560274Y-130758790D01*
X99582672Y-130812862D01*
X99624056Y-130854246D01*
X99678128Y-130876644D01*
X99707392Y-130879526D01*
X100048954Y-130877126D01*
X100186011Y-130943628D01*
X100252146Y-131007478D01*
X100423797Y-131260688D01*
X100464125Y-131417445D01*
X100364601Y-131369154D01*
X100362157Y-131366710D01*
X100344432Y-131359368D01*
X100318440Y-131346756D01*
X100313062Y-131346373D01*
X100308085Y-131344312D01*
X100278821Y-131341430D01*
X99920645Y-131343946D01*
X99916630Y-131342608D01*
X99895285Y-131344124D01*
X99868604Y-131344312D01*
X99863625Y-131346374D01*
X99858250Y-131346756D01*
X99830786Y-131357266D01*
X99641690Y-131454642D01*
X99624056Y-131461947D01*
X99618244Y-131466716D01*
X99615424Y-131468169D01*
X99612828Y-131471161D01*
X99601326Y-131480602D01*
X99506640Y-131578676D01*
X99493655Y-131589939D01*
X99489696Y-131596227D01*
X99487433Y-131598572D01*
X99485917Y-131602231D01*
X99477990Y-131614825D01*
X99394640Y-131786602D01*
X99392196Y-131789047D01*
X99384854Y-131806771D01*
X99372242Y-131832764D01*
X99371859Y-131838141D01*
X99369798Y-131843119D01*
X99366916Y-131872383D01*
X99144694Y-131872383D01*
X99144694Y-128271542D01*
X113271678Y-128271542D01*
X113274339Y-128738328D01*
X113271855Y-128755024D01*
X113274538Y-128773166D01*
X113274560Y-128776997D01*
X113275407Y-128779041D01*
X113276157Y-128784113D01*
X113371190Y-129153508D01*
X113372242Y-129168304D01*
X113380648Y-129190270D01*
X113381288Y-129192756D01*
X113381932Y-129193626D01*
X113382752Y-129195767D01*
X113480131Y-129384866D01*
X113487433Y-129402496D01*
X113492201Y-129408306D01*
X113493655Y-129411129D01*
X113496648Y-129413725D01*
X113506087Y-129425226D01*
X113604165Y-129519917D01*
X113615424Y-129532899D01*
X113621709Y-129536855D01*
X113624056Y-129539121D01*
X113627718Y-129540637D01*
X113640310Y-129548564D01*
X113812086Y-129631912D01*
X113814532Y-129634358D01*
X113832262Y-129641702D01*
X113858250Y-129654312D01*
X113863625Y-129654693D01*
X113868604Y-129656756D01*
X113897868Y-129659638D01*
X114066482Y-129657426D01*
X114069583Y-129658460D01*
X114088123Y-129657142D01*
X114117609Y-129656756D01*
X114122586Y-129654694D01*
X114127964Y-129654312D01*
X114155427Y-129643802D01*
X114344528Y-129546422D01*
X114362157Y-129539120D01*
X114367965Y-129534352D01*
X114370789Y-129532899D01*
X114373386Y-129529904D01*
X114384888Y-129520465D01*
X114479574Y-129422389D01*
X114492558Y-129411129D01*
X114496516Y-129404840D01*
X114498781Y-129402495D01*
X114500297Y-129398833D01*
X114508223Y-129386243D01*
X114508759Y-129385138D01*
X115179322Y-129385138D01*
X115179322Y-129443664D01*
X115187677Y-129463835D01*
X115201719Y-129497735D01*
X115220374Y-129520466D01*
X115338342Y-129634358D01*
X115338343Y-129634359D01*
X115361141Y-129643802D01*
X115392414Y-129656756D01*
X115392415Y-129656756D01*
X115450941Y-129656756D01*
X115450942Y-129656756D01*
X115482215Y-129643802D01*
X115505013Y-129634359D01*
X115527744Y-129615704D01*
X115641609Y-129497763D01*
X115641637Y-129497736D01*
X115648828Y-129480374D01*
X116131703Y-129480374D01*
X116131703Y-129538902D01*
X116154101Y-129592974D01*
X116195485Y-129634358D01*
X116249557Y-129656756D01*
X116278821Y-129659638D01*
X117450942Y-129656756D01*
X117505014Y-129634358D01*
X117546398Y-129592974D01*
X117568796Y-129538902D01*
X117568796Y-129480374D01*
X117546398Y-129426302D01*
X117505014Y-129384918D01*
X117450942Y-129362520D01*
X117421678Y-129359638D01*
X117000038Y-129360674D01*
X116998054Y-127963600D01*
X117126189Y-128089285D01*
X117139234Y-128104327D01*
X117145625Y-128108350D01*
X117147867Y-128110549D01*
X117151526Y-128112064D01*
X117164120Y-128119992D01*
X117382060Y-128225740D01*
X117440440Y-128229888D01*
X117495962Y-128211381D01*
X117511130Y-128198226D01*
X119463765Y-128198226D01*
X119470894Y-128226754D01*
X119942506Y-129539001D01*
X119942863Y-129546171D01*
X119952064Y-129565596D01*
X119959641Y-129586678D01*
X119964694Y-129592260D01*
X119967917Y-129599063D01*
X119984189Y-129613794D01*
X119998921Y-129630067D01*
X120005723Y-129633289D01*
X120011306Y-129638343D01*
X120031980Y-129645726D01*
X120051813Y-129655121D01*
X120059331Y-129655494D01*
X120066424Y-129658028D01*
X120088346Y-129656937D01*
X120110268Y-129658028D01*
X120117360Y-129655494D01*
X120124879Y-129655121D01*
X120144711Y-129645726D01*
X120165386Y-129638343D01*
X120170968Y-129633289D01*
X120177771Y-129630067D01*
X120192502Y-129613794D01*
X120208775Y-129599063D01*
X120211997Y-129592260D01*
X120217051Y-129586678D01*
X120229607Y-129560088D01*
X120619307Y-128462019D01*
X121081203Y-128462019D01*
X121083545Y-128640625D01*
X121081203Y-128652339D01*
X121083876Y-128665852D01*
X121084085Y-128681759D01*
X121089708Y-128695335D01*
X121092561Y-128709753D01*
X121100799Y-128722111D01*
X121106483Y-128735831D01*
X121116873Y-128746221D01*
X121125026Y-128758450D01*
X121137366Y-128766714D01*
X121147867Y-128777215D01*
X121161442Y-128782838D01*
X121173655Y-128791017D01*
X121201786Y-128799582D01*
X121201935Y-128799611D01*
X121201939Y-128799613D01*
X121201943Y-128799613D01*
X122035411Y-128963810D01*
X122036214Y-129184057D01*
X121978982Y-129302009D01*
X121866647Y-129359857D01*
X121556307Y-129362037D01*
X121366060Y-129269726D01*
X121307679Y-129265578D01*
X121252157Y-129284086D01*
X121207942Y-129322432D01*
X121181767Y-129374781D01*
X121177619Y-129433162D01*
X121196127Y-129488684D01*
X121234473Y-129532899D01*
X121259359Y-129548564D01*
X121431135Y-129631912D01*
X121433581Y-129634358D01*
X121451311Y-129641702D01*
X121477299Y-129654312D01*
X121482674Y-129654693D01*
X121487653Y-129656756D01*
X121516917Y-129659638D01*
X121875092Y-129657121D01*
X121879108Y-129658460D01*
X121900452Y-129656943D01*
X121927134Y-129656756D01*
X121932111Y-129654694D01*
X121937489Y-129654312D01*
X121964952Y-129643802D01*
X122147716Y-129549685D01*
X122162630Y-129544714D01*
X122170317Y-129538046D01*
X122180314Y-129532899D01*
X122192640Y-129518686D01*
X122206845Y-129506367D01*
X122216163Y-129491563D01*
X122218661Y-129488684D01*
X122219431Y-129486372D01*
X122222510Y-129481482D01*
X122305859Y-129309703D01*
X122308304Y-129307259D01*
X122315647Y-129289529D01*
X122328258Y-129263541D01*
X122328639Y-129258165D01*
X122330702Y-129253187D01*
X122333584Y-129223923D01*
X122332221Y-128849939D01*
X122333584Y-128843128D01*
X122332170Y-128835984D01*
X122330893Y-128485318D01*
X122332406Y-128480781D01*
X122330794Y-128458097D01*
X122330702Y-128432755D01*
X122328639Y-128427776D01*
X122328258Y-128422401D01*
X122317748Y-128394938D01*
X122223634Y-128212177D01*
X122218661Y-128197258D01*
X122211990Y-128189566D01*
X122206845Y-128179575D01*
X122192640Y-128167255D01*
X122180314Y-128153043D01*
X122170777Y-128147040D01*
X122607894Y-128147040D01*
X122607894Y-128205568D01*
X122630292Y-128259640D01*
X122671676Y-128301024D01*
X122725748Y-128323422D01*
X122755012Y-128326304D01*
X122906937Y-128324311D01*
X123043155Y-128390406D01*
X123105811Y-128450897D01*
X123177315Y-128589751D01*
X123179323Y-129538902D01*
X123201721Y-129592974D01*
X123243105Y-129634358D01*
X123297177Y-129656756D01*
X123355705Y-129656756D01*
X123409777Y-129634358D01*
X123451161Y-129592974D01*
X123473559Y-129538902D01*
X123476441Y-129509638D01*
X123474471Y-128578394D01*
X123475263Y-128576019D01*
X123474441Y-128564462D01*
X123473559Y-128147040D01*
X123451161Y-128092968D01*
X123409777Y-128051584D01*
X123355705Y-128029186D01*
X123297177Y-128029186D01*
X123243105Y-128051584D01*
X123201721Y-128092968D01*
X123186625Y-128129410D01*
X123031269Y-128054028D01*
X123028825Y-128051584D01*
X123011100Y-128044242D01*
X122985108Y-128031630D01*
X122979730Y-128031247D01*
X122974753Y-128029186D01*
X122945489Y-128026304D01*
X122725748Y-128029186D01*
X122671676Y-128051584D01*
X122630292Y-128092968D01*
X122607894Y-128147040D01*
X122170777Y-128147040D01*
X122165503Y-128143720D01*
X122162630Y-128141228D01*
X122160322Y-128140458D01*
X122155428Y-128137378D01*
X121983650Y-128054028D01*
X121981206Y-128051584D01*
X121963481Y-128044242D01*
X121937489Y-128031630D01*
X121932111Y-128031247D01*
X121927134Y-128029186D01*
X121897870Y-128026304D01*
X121539694Y-128028820D01*
X121535679Y-128027482D01*
X121514334Y-128028998D01*
X121487653Y-128029186D01*
X121482674Y-128031248D01*
X121477299Y-128031630D01*
X121449835Y-128042140D01*
X121267074Y-128136254D01*
X121252157Y-128141227D01*
X121244466Y-128147896D01*
X121234473Y-128153043D01*
X121222151Y-128167250D01*
X121207942Y-128179574D01*
X121198619Y-128194383D01*
X121196127Y-128197258D01*
X121195357Y-128199565D01*
X121192277Y-128204460D01*
X121108927Y-128376238D01*
X121106483Y-128378683D01*
X121099139Y-128396412D01*
X121086529Y-128422401D01*
X121086147Y-128427776D01*
X121084085Y-128432755D01*
X121081203Y-128462019D01*
X120619307Y-128462019D01*
X120712926Y-128198225D01*
X120710019Y-128139770D01*
X120684965Y-128086878D01*
X120641576Y-128047599D01*
X120586458Y-128027914D01*
X120528003Y-128030821D01*
X120475111Y-128055875D01*
X120435831Y-128099263D01*
X120423275Y-128125853D01*
X120088963Y-129067852D01*
X119740860Y-128099264D01*
X119701580Y-128055875D01*
X119648688Y-128030821D01*
X119590233Y-128027914D01*
X119535115Y-128047599D01*
X119491726Y-128086879D01*
X119466672Y-128139771D01*
X119463765Y-128198226D01*
X117511130Y-128198226D01*
X117540177Y-128173034D01*
X117566352Y-128120685D01*
X117570500Y-128062305D01*
X117551993Y-128006782D01*
X117513646Y-127962567D01*
X117488760Y-127946902D01*
X117324423Y-127867162D01*
X117163839Y-127709649D01*
X116980011Y-127438472D01*
X116974970Y-127426302D01*
X116965007Y-127416339D01*
X116956427Y-127403682D01*
X116944084Y-127395416D01*
X116933586Y-127384918D01*
X116920009Y-127379294D01*
X116907797Y-127371116D01*
X116893234Y-127368203D01*
X116879514Y-127362520D01*
X116864818Y-127362520D01*
X116850408Y-127359638D01*
X116835839Y-127362520D01*
X116820986Y-127362520D01*
X116807407Y-127368144D01*
X116792993Y-127370996D01*
X116780635Y-127379234D01*
X116766914Y-127384918D01*
X116756524Y-127395307D01*
X116744294Y-127403461D01*
X116736028Y-127415803D01*
X116725530Y-127426302D01*
X116719906Y-127439878D01*
X116711728Y-127452091D01*
X116708815Y-127466653D01*
X116703132Y-127480374D01*
X116700280Y-127509326D01*
X116700250Y-127509480D01*
X116700260Y-127509532D01*
X116700250Y-127509638D01*
X116702879Y-129361405D01*
X116249557Y-129362520D01*
X116195485Y-129384918D01*
X116154101Y-129426302D01*
X116131703Y-129480374D01*
X115648828Y-129480374D01*
X115664034Y-129443664D01*
X115664034Y-129385138D01*
X115660031Y-129375474D01*
X115644478Y-129337923D01*
X115641638Y-129331066D01*
X115622983Y-129308335D01*
X115505042Y-129194468D01*
X115505013Y-129194439D01*
X115468420Y-129179283D01*
X115450942Y-129172043D01*
X115392414Y-129172043D01*
X115376577Y-129178603D01*
X115338342Y-129194440D01*
X115315612Y-129213095D01*
X115201719Y-129331065D01*
X115183325Y-129375474D01*
X115179322Y-129385138D01*
X114508759Y-129385138D01*
X114596756Y-129203781D01*
X114604925Y-129192757D01*
X114612796Y-129170723D01*
X114613971Y-129168303D01*
X114614047Y-129167220D01*
X114614818Y-129165065D01*
X114705301Y-128792329D01*
X114711653Y-128776997D01*
X114713447Y-128758774D01*
X114714358Y-128755024D01*
X114714032Y-128752836D01*
X114714535Y-128747733D01*
X114711873Y-128280945D01*
X114714358Y-128264251D01*
X114711674Y-128246107D01*
X114711653Y-128242278D01*
X114710806Y-128240233D01*
X114710056Y-128235161D01*
X114615022Y-127865765D01*
X114613971Y-127850972D01*
X114605565Y-127829006D01*
X114604925Y-127826518D01*
X114604279Y-127825646D01*
X114603461Y-127823508D01*
X114506082Y-127634409D01*
X114498780Y-127616779D01*
X114494011Y-127610968D01*
X114492558Y-127608146D01*
X114489564Y-127605549D01*
X114480125Y-127594048D01*
X114382052Y-127499363D01*
X114370789Y-127486377D01*
X114364500Y-127482418D01*
X114362156Y-127480155D01*
X114358496Y-127478639D01*
X114345903Y-127470712D01*
X114174125Y-127387362D01*
X114171681Y-127384918D01*
X114153956Y-127377576D01*
X114127964Y-127364964D01*
X114122586Y-127364581D01*
X114117609Y-127362520D01*
X114088345Y-127359638D01*
X113919730Y-127361849D01*
X113916630Y-127360816D01*
X113898090Y-127362133D01*
X113868604Y-127362520D01*
X113863625Y-127364582D01*
X113858250Y-127364964D01*
X113830786Y-127375474D01*
X113641687Y-127472852D01*
X113624057Y-127480155D01*
X113618246Y-127484923D01*
X113615424Y-127486377D01*
X113612827Y-127489370D01*
X113601326Y-127498810D01*
X113506641Y-127596882D01*
X113493655Y-127608146D01*
X113489696Y-127614434D01*
X113487433Y-127616779D01*
X113485917Y-127620438D01*
X113477990Y-127633032D01*
X113389454Y-127815497D01*
X113381288Y-127826519D01*
X113373418Y-127848546D01*
X113372242Y-127850971D01*
X113372165Y-127852054D01*
X113371395Y-127854210D01*
X113280911Y-128226945D01*
X113274560Y-128242278D01*
X113272765Y-128260500D01*
X113271855Y-128264251D01*
X113272180Y-128266438D01*
X113271678Y-128271542D01*
X99144694Y-128271542D01*
X99144694Y-124289750D01*
X105176439Y-124289750D01*
X105179140Y-126191833D01*
X105177617Y-126213274D01*
X105179177Y-126217955D01*
X105179321Y-126319014D01*
X105201719Y-126373086D01*
X105243103Y-126414470D01*
X105297175Y-126436868D01*
X105355703Y-126436868D01*
X105409775Y-126414470D01*
X105418399Y-126405845D01*
X105431133Y-126412024D01*
X105433579Y-126414470D01*
X105451309Y-126421814D01*
X105477297Y-126434424D01*
X105482672Y-126434805D01*
X105487651Y-126436868D01*
X105516915Y-126439750D01*
X105875090Y-126437233D01*
X105879106Y-126438572D01*
X105900450Y-126437055D01*
X105927132Y-126436868D01*
X105932109Y-126434806D01*
X105937487Y-126434424D01*
X105964950Y-126423914D01*
X106154051Y-126326534D01*
X106171680Y-126319232D01*
X106177488Y-126314464D01*
X106180312Y-126313011D01*
X106182909Y-126310016D01*
X106194411Y-126300577D01*
X106289097Y-126202501D01*
X106302081Y-126191241D01*
X106306039Y-126184952D01*
X106308304Y-126182607D01*
X106309820Y-126178945D01*
X106317746Y-126166355D01*
X106401094Y-125994578D01*
X106403540Y-125992133D01*
X106410884Y-125974402D01*
X106423494Y-125948415D01*
X106423875Y-125943039D01*
X106425938Y-125938061D01*
X106428820Y-125908797D01*
X106426189Y-125360489D01*
X106427642Y-125356131D01*
X106426061Y-125333889D01*
X106425938Y-125308105D01*
X106423875Y-125303126D01*
X106423494Y-125297751D01*
X106412984Y-125270288D01*
X106315608Y-125081193D01*
X106308303Y-125063557D01*
X106303533Y-125057745D01*
X106302081Y-125054925D01*
X106299089Y-125052330D01*
X106289648Y-125040826D01*
X106191575Y-124946141D01*
X106180312Y-124933155D01*
X106174023Y-124929196D01*
X106171906Y-124927152D01*
X106703130Y-124927152D01*
X106703130Y-124985680D01*
X106725528Y-125039752D01*
X106766912Y-125081136D01*
X106820984Y-125103534D01*
X106850248Y-125106416D01*
X107002173Y-125104423D01*
X107138391Y-125170518D01*
X107201047Y-125231009D01*
X107272551Y-125369863D01*
X107274559Y-126319014D01*
X107296957Y-126373086D01*
X107338341Y-126414470D01*
X107392413Y-126436868D01*
X107450941Y-126436868D01*
X107505013Y-126414470D01*
X107546397Y-126373086D01*
X107568795Y-126319014D01*
X107571677Y-126289750D01*
X107569707Y-125358506D01*
X107570499Y-125356131D01*
X107569677Y-125344574D01*
X107569461Y-125242131D01*
X108224058Y-125242131D01*
X108226605Y-126193999D01*
X108225236Y-126213274D01*
X108226668Y-126217571D01*
X108226940Y-126319014D01*
X108249338Y-126373086D01*
X108290722Y-126414470D01*
X108344794Y-126436868D01*
X108403322Y-126436868D01*
X108457394Y-126414470D01*
X108466018Y-126405845D01*
X108478752Y-126412024D01*
X108481198Y-126414470D01*
X108498928Y-126421814D01*
X108524916Y-126434424D01*
X108530291Y-126434805D01*
X108535270Y-126436868D01*
X108564534Y-126439750D01*
X109017744Y-126437165D01*
X109021963Y-126438572D01*
X109043848Y-126437017D01*
X109069989Y-126436868D01*
X109074966Y-126434806D01*
X109080344Y-126434424D01*
X109107807Y-126423914D01*
X109290571Y-126329797D01*
X109305485Y-126324826D01*
X109313172Y-126318158D01*
X109323169Y-126313011D01*
X109335495Y-126298798D01*
X109349700Y-126286479D01*
X109359018Y-126271675D01*
X109361516Y-126268796D01*
X109362286Y-126266484D01*
X109365365Y-126261594D01*
X109448714Y-126089815D01*
X109451159Y-126087371D01*
X109458502Y-126069641D01*
X109471113Y-126043653D01*
X109471494Y-126038277D01*
X109473557Y-126033299D01*
X109476439Y-126004035D01*
X109474227Y-125835421D01*
X109475261Y-125832321D01*
X109473943Y-125813781D01*
X109473557Y-125784295D01*
X109471494Y-125779316D01*
X109471113Y-125773941D01*
X109460603Y-125746477D01*
X109366487Y-125563715D01*
X109361516Y-125548799D01*
X109354846Y-125541108D01*
X109349700Y-125531115D01*
X109335492Y-125518793D01*
X109323169Y-125504584D01*
X109308359Y-125495261D01*
X109305485Y-125492769D01*
X109303177Y-125491999D01*
X109298283Y-125488919D01*
X109126505Y-125405569D01*
X109124061Y-125403125D01*
X109106336Y-125395783D01*
X109080344Y-125383171D01*
X109074966Y-125382788D01*
X109069989Y-125380727D01*
X109040725Y-125377845D01*
X108604109Y-125380334D01*
X108521516Y-125340258D01*
X108521508Y-125337369D01*
X109938344Y-125337369D01*
X109940974Y-125885677D01*
X109939522Y-125890035D01*
X109941102Y-125912276D01*
X109941226Y-125938061D01*
X109943287Y-125943038D01*
X109943670Y-125948416D01*
X109954180Y-125975879D01*
X110051559Y-126164978D01*
X110058861Y-126182608D01*
X110063629Y-126188418D01*
X110065083Y-126191241D01*
X110068076Y-126193837D01*
X110077515Y-126205338D01*
X110175593Y-126300029D01*
X110186852Y-126313011D01*
X110193137Y-126316967D01*
X110195484Y-126319233D01*
X110199146Y-126320749D01*
X110211738Y-126328676D01*
X110383514Y-126412024D01*
X110385960Y-126414470D01*
X110403690Y-126421814D01*
X110429678Y-126434424D01*
X110435053Y-126434805D01*
X110440032Y-126436868D01*
X110469296Y-126439750D01*
X110732556Y-126437341D01*
X110736249Y-126438572D01*
X110756678Y-126437120D01*
X110784275Y-126436868D01*
X110789252Y-126434806D01*
X110794630Y-126434424D01*
X110822093Y-126423914D01*
X111011194Y-126326534D01*
X111028823Y-126319232D01*
X111034631Y-126314464D01*
X111037455Y-126313011D01*
X111040052Y-126310016D01*
X111051554Y-126300577D01*
X111146240Y-126202501D01*
X111159224Y-126191241D01*
X111163182Y-126184952D01*
X111165447Y-126182607D01*
X111166963Y-126178945D01*
X111174889Y-126166355D01*
X111258237Y-125994578D01*
X111260683Y-125992133D01*
X111268027Y-125974402D01*
X111280637Y-125948415D01*
X111281018Y-125943039D01*
X111283081Y-125938061D01*
X111285963Y-125908797D01*
X111283332Y-125360489D01*
X111284785Y-125356131D01*
X111283451Y-125337369D01*
X111747868Y-125337369D01*
X111750498Y-125885677D01*
X111749046Y-125890035D01*
X111750626Y-125912276D01*
X111750750Y-125938061D01*
X111752811Y-125943038D01*
X111753194Y-125948416D01*
X111763704Y-125975879D01*
X111861083Y-126164978D01*
X111868385Y-126182608D01*
X111873153Y-126188418D01*
X111874607Y-126191241D01*
X111877600Y-126193837D01*
X111887039Y-126205338D01*
X111985117Y-126300029D01*
X111996376Y-126313011D01*
X112002661Y-126316967D01*
X112005008Y-126319233D01*
X112008670Y-126320749D01*
X112021262Y-126328676D01*
X112193038Y-126412024D01*
X112195484Y-126414470D01*
X112213214Y-126421814D01*
X112239202Y-126434424D01*
X112244577Y-126434805D01*
X112249556Y-126436868D01*
X112278820Y-126439750D01*
X112636995Y-126437233D01*
X112641011Y-126438572D01*
X112662355Y-126437055D01*
X112689037Y-126436868D01*
X112694014Y-126434806D01*
X112699392Y-126434424D01*
X112726855Y-126423914D01*
X112759530Y-126407087D01*
X112766913Y-126414470D01*
X112820985Y-126436868D01*
X112879513Y-126436868D01*
X112933585Y-126414470D01*
X112974969Y-126373086D01*
X112997367Y-126319014D01*
X113000249Y-126289750D01*
X112998475Y-125041268D01*
X112999071Y-125032893D01*
X112998461Y-125031064D01*
X112998386Y-124978338D01*
X113463764Y-124978338D01*
X113470893Y-125006866D01*
X113940911Y-126314679D01*
X113940881Y-126317217D01*
X113942727Y-126323583D01*
X113942862Y-126326283D01*
X113944535Y-126329816D01*
X113949073Y-126345459D01*
X114131703Y-126795085D01*
X114131703Y-126795203D01*
X114134168Y-126801156D01*
X114153094Y-126847749D01*
X114153743Y-126848414D01*
X114154100Y-126849275D01*
X114172755Y-126872006D01*
X114270829Y-126966691D01*
X114282091Y-126979677D01*
X114288379Y-126983635D01*
X114290724Y-126985899D01*
X114294383Y-126987414D01*
X114306977Y-126995342D01*
X114524917Y-127101090D01*
X114583297Y-127105238D01*
X114638819Y-127086731D01*
X114683034Y-127048384D01*
X114709209Y-126996035D01*
X114713357Y-126937655D01*
X114694850Y-126882132D01*
X114656503Y-126837917D01*
X114631617Y-126822252D01*
X114466867Y-126742312D01*
X114408062Y-126685539D01*
X114247412Y-126290025D01*
X114619306Y-125242131D01*
X115081202Y-125242131D01*
X115083544Y-125420737D01*
X115081202Y-125432451D01*
X115083875Y-125445964D01*
X115084084Y-125461871D01*
X115089707Y-125475447D01*
X115092560Y-125489865D01*
X115100798Y-125502223D01*
X115106482Y-125515943D01*
X115116872Y-125526333D01*
X115125025Y-125538562D01*
X115137365Y-125546826D01*
X115147866Y-125557327D01*
X115161441Y-125562950D01*
X115173654Y-125571129D01*
X115201785Y-125579694D01*
X115201934Y-125579723D01*
X115201938Y-125579725D01*
X115201942Y-125579725D01*
X116035410Y-125743922D01*
X116036213Y-125964169D01*
X115978981Y-126082121D01*
X115866646Y-126139969D01*
X115556306Y-126142149D01*
X115366059Y-126049838D01*
X115307678Y-126045690D01*
X115252156Y-126064198D01*
X115207941Y-126102544D01*
X115181766Y-126154893D01*
X115177618Y-126213274D01*
X115196126Y-126268796D01*
X115234472Y-126313011D01*
X115259358Y-126328676D01*
X115431134Y-126412024D01*
X115433580Y-126414470D01*
X115451310Y-126421814D01*
X115477298Y-126434424D01*
X115482673Y-126434805D01*
X115487652Y-126436868D01*
X115516916Y-126439750D01*
X115875091Y-126437233D01*
X115879107Y-126438572D01*
X115900451Y-126437055D01*
X115927133Y-126436868D01*
X115932110Y-126434806D01*
X115937488Y-126434424D01*
X115964951Y-126423914D01*
X116147715Y-126329797D01*
X116162629Y-126324826D01*
X116170316Y-126318158D01*
X116180313Y-126313011D01*
X116192639Y-126298798D01*
X116206844Y-126286479D01*
X116209923Y-126281587D01*
X116795710Y-126281587D01*
X116803987Y-126339524D01*
X116833806Y-126389886D01*
X116880628Y-126425003D01*
X116937325Y-126439528D01*
X116995262Y-126431251D01*
X117045624Y-126401432D01*
X117065488Y-126379750D01*
X117818550Y-125371520D01*
X117940053Y-125492598D01*
X117941227Y-126319014D01*
X117963625Y-126373086D01*
X118005009Y-126414470D01*
X118059081Y-126436868D01*
X118117609Y-126436868D01*
X118171681Y-126414470D01*
X118213065Y-126373086D01*
X118235463Y-126319014D01*
X118238345Y-126289750D01*
X118236483Y-124978338D01*
X118701860Y-124978338D01*
X118708989Y-125006866D01*
X119180601Y-126319113D01*
X119180958Y-126326283D01*
X119190159Y-126345708D01*
X119197736Y-126366790D01*
X119202789Y-126372372D01*
X119206012Y-126379175D01*
X119222284Y-126393906D01*
X119237016Y-126410179D01*
X119243818Y-126413401D01*
X119249401Y-126418455D01*
X119270075Y-126425838D01*
X119289908Y-126435233D01*
X119297426Y-126435606D01*
X119304519Y-126438140D01*
X119326441Y-126437049D01*
X119348363Y-126438140D01*
X119355455Y-126435606D01*
X119362974Y-126435233D01*
X119382806Y-126425838D01*
X119403481Y-126418455D01*
X119409063Y-126413401D01*
X119415866Y-126410179D01*
X119430597Y-126393906D01*
X119446870Y-126379175D01*
X119450092Y-126372372D01*
X119455146Y-126366790D01*
X119467702Y-126340200D01*
X119857402Y-125242131D01*
X120319298Y-125242131D01*
X120321640Y-125420737D01*
X120319298Y-125432451D01*
X120321971Y-125445964D01*
X120322180Y-125461871D01*
X120327803Y-125475447D01*
X120330656Y-125489865D01*
X120338894Y-125502223D01*
X120344578Y-125515943D01*
X120354968Y-125526333D01*
X120363121Y-125538562D01*
X120375461Y-125546826D01*
X120385962Y-125557327D01*
X120399537Y-125562950D01*
X120411750Y-125571129D01*
X120439881Y-125579694D01*
X120440030Y-125579723D01*
X120440034Y-125579725D01*
X120440038Y-125579725D01*
X121273506Y-125743922D01*
X121274309Y-125964169D01*
X121217077Y-126082121D01*
X121104742Y-126139969D01*
X120794402Y-126142149D01*
X120604155Y-126049838D01*
X120545774Y-126045690D01*
X120490252Y-126064198D01*
X120446037Y-126102544D01*
X120419862Y-126154893D01*
X120415714Y-126213274D01*
X120434222Y-126268796D01*
X120472568Y-126313011D01*
X120497454Y-126328676D01*
X120669230Y-126412024D01*
X120671676Y-126414470D01*
X120689406Y-126421814D01*
X120715394Y-126434424D01*
X120720769Y-126434805D01*
X120725748Y-126436868D01*
X120755012Y-126439750D01*
X121113187Y-126437233D01*
X121117203Y-126438572D01*
X121138547Y-126437055D01*
X121165229Y-126436868D01*
X121170206Y-126434806D01*
X121175584Y-126434424D01*
X121203047Y-126423914D01*
X121385811Y-126329797D01*
X121400725Y-126324826D01*
X121408412Y-126318158D01*
X121418409Y-126313011D01*
X121430735Y-126298798D01*
X121444940Y-126286479D01*
X121454258Y-126271675D01*
X121456756Y-126268796D01*
X121457526Y-126266484D01*
X121460605Y-126261594D01*
X121543954Y-126089815D01*
X121546399Y-126087371D01*
X121553742Y-126069641D01*
X121566353Y-126043653D01*
X121566734Y-126038277D01*
X121568797Y-126033299D01*
X121571679Y-126004035D01*
X121570316Y-125630051D01*
X121571679Y-125623240D01*
X121570265Y-125616096D01*
X121568988Y-125265430D01*
X121570501Y-125260893D01*
X121568889Y-125238209D01*
X121568797Y-125212867D01*
X121566734Y-125207888D01*
X121566353Y-125202513D01*
X121555843Y-125175050D01*
X121541343Y-125146892D01*
X122033584Y-125146892D01*
X122036119Y-125424046D01*
X122033761Y-125439898D01*
X122036430Y-125457945D01*
X122036466Y-125461871D01*
X122037313Y-125463915D01*
X122038063Y-125468987D01*
X122133096Y-125838382D01*
X122134148Y-125853178D01*
X122142554Y-125875144D01*
X122143194Y-125877630D01*
X122143838Y-125878500D01*
X122144658Y-125880641D01*
X122242036Y-126069739D01*
X122249339Y-126087370D01*
X122254107Y-126093180D01*
X122255561Y-126096003D01*
X122258555Y-126098599D01*
X122267994Y-126110101D01*
X122444331Y-126283068D01*
X122446037Y-126286479D01*
X122461338Y-126299749D01*
X122481200Y-126319232D01*
X122486179Y-126321294D01*
X122490251Y-126324826D01*
X122517102Y-126336815D01*
X122802271Y-126429115D01*
X122820987Y-126436868D01*
X122828513Y-126437609D01*
X122831491Y-126438573D01*
X122835445Y-126438291D01*
X122850251Y-126439750D01*
X123355705Y-126436868D01*
X123409777Y-126414470D01*
X123451161Y-126373086D01*
X123473559Y-126319014D01*
X123476441Y-126289750D01*
X123473559Y-124260486D01*
X123451161Y-124206414D01*
X123409777Y-124165030D01*
X123355705Y-124142632D01*
X123326441Y-124139750D01*
X122852915Y-124142449D01*
X122831491Y-124140927D01*
X122824069Y-124142614D01*
X122820987Y-124142632D01*
X122817329Y-124144147D01*
X122802817Y-124147447D01*
X122539235Y-124237870D01*
X122535273Y-124237870D01*
X122516172Y-124245781D01*
X122490251Y-124254674D01*
X122486180Y-124258204D01*
X122481201Y-124260267D01*
X122458470Y-124278922D01*
X122270604Y-124470448D01*
X122255561Y-124483496D01*
X122251537Y-124489887D01*
X122249339Y-124492129D01*
X122247823Y-124495788D01*
X122239896Y-124508382D01*
X122151360Y-124690847D01*
X122143194Y-124701869D01*
X122135324Y-124723896D01*
X122134148Y-124726321D01*
X122134071Y-124727404D01*
X122133301Y-124729560D01*
X122042817Y-125102295D01*
X122036466Y-125117628D01*
X122034671Y-125135850D01*
X122033761Y-125139601D01*
X122034086Y-125141788D01*
X122033584Y-125146892D01*
X121541343Y-125146892D01*
X121461729Y-124992289D01*
X121456756Y-124977370D01*
X121450085Y-124969678D01*
X121444940Y-124959687D01*
X121430735Y-124947367D01*
X121418409Y-124933155D01*
X121403598Y-124923832D01*
X121400725Y-124921340D01*
X121398417Y-124920570D01*
X121393523Y-124917490D01*
X121221745Y-124834140D01*
X121219301Y-124831696D01*
X121201576Y-124824354D01*
X121175584Y-124811742D01*
X121170206Y-124811359D01*
X121165229Y-124809298D01*
X121135965Y-124806416D01*
X120777789Y-124808932D01*
X120773774Y-124807594D01*
X120752429Y-124809110D01*
X120725748Y-124809298D01*
X120720769Y-124811360D01*
X120715394Y-124811742D01*
X120687930Y-124822252D01*
X120505169Y-124916366D01*
X120490252Y-124921339D01*
X120482561Y-124928008D01*
X120472568Y-124933155D01*
X120460246Y-124947362D01*
X120446037Y-124959686D01*
X120436714Y-124974495D01*
X120434222Y-124977370D01*
X120433452Y-124979677D01*
X120430372Y-124984572D01*
X120347022Y-125156350D01*
X120344578Y-125158795D01*
X120337234Y-125176524D01*
X120324624Y-125202513D01*
X120324242Y-125207888D01*
X120322180Y-125212867D01*
X120319298Y-125242131D01*
X119857402Y-125242131D01*
X119951021Y-124978337D01*
X119948114Y-124919882D01*
X119923060Y-124866990D01*
X119879671Y-124827711D01*
X119824553Y-124808026D01*
X119766098Y-124810933D01*
X119713206Y-124835987D01*
X119673926Y-124879375D01*
X119661370Y-124905965D01*
X119327058Y-125847964D01*
X118978955Y-124879376D01*
X118939675Y-124835987D01*
X118886783Y-124810933D01*
X118828328Y-124808026D01*
X118773210Y-124827711D01*
X118729821Y-124866991D01*
X118704767Y-124919883D01*
X118701860Y-124978338D01*
X118236483Y-124978338D01*
X118235463Y-124260486D01*
X118213065Y-124206414D01*
X118171681Y-124165030D01*
X118117609Y-124142632D01*
X118059081Y-124142632D01*
X118005009Y-124165030D01*
X117963625Y-124206414D01*
X117941227Y-124260486D01*
X117938345Y-124289750D01*
X117939456Y-125072478D01*
X117915275Y-125048381D01*
X117914313Y-125046756D01*
X117911609Y-125044728D01*
X117028823Y-124165029D01*
X116974751Y-124142632D01*
X116916225Y-124142632D01*
X116862153Y-124165029D01*
X116820767Y-124206415D01*
X116798370Y-124260487D01*
X116798370Y-124319013D01*
X116820767Y-124373085D01*
X116839422Y-124395816D01*
X117605903Y-125159617D01*
X116810235Y-126224890D01*
X116795710Y-126281587D01*
X116209923Y-126281587D01*
X116216162Y-126271675D01*
X116218660Y-126268796D01*
X116219430Y-126266484D01*
X116222509Y-126261594D01*
X116305858Y-126089815D01*
X116308303Y-126087371D01*
X116315646Y-126069641D01*
X116328257Y-126043653D01*
X116328638Y-126038277D01*
X116330701Y-126033299D01*
X116333583Y-126004035D01*
X116332220Y-125630051D01*
X116333583Y-125623240D01*
X116332169Y-125616096D01*
X116330892Y-125265430D01*
X116332405Y-125260893D01*
X116330793Y-125238209D01*
X116330701Y-125212867D01*
X116328638Y-125207888D01*
X116328257Y-125202513D01*
X116317747Y-125175050D01*
X116223633Y-124992289D01*
X116218660Y-124977370D01*
X116211989Y-124969678D01*
X116206844Y-124959687D01*
X116192639Y-124947367D01*
X116180313Y-124933155D01*
X116165502Y-124923832D01*
X116162629Y-124921340D01*
X116160321Y-124920570D01*
X116155427Y-124917490D01*
X115983649Y-124834140D01*
X115981205Y-124831696D01*
X115963480Y-124824354D01*
X115937488Y-124811742D01*
X115932110Y-124811359D01*
X115927133Y-124809298D01*
X115897869Y-124806416D01*
X115539693Y-124808932D01*
X115535678Y-124807594D01*
X115514333Y-124809110D01*
X115487652Y-124809298D01*
X115482673Y-124811360D01*
X115477298Y-124811742D01*
X115449834Y-124822252D01*
X115267073Y-124916366D01*
X115252156Y-124921339D01*
X115244465Y-124928008D01*
X115234472Y-124933155D01*
X115222150Y-124947362D01*
X115207941Y-124959686D01*
X115198618Y-124974495D01*
X115196126Y-124977370D01*
X115195356Y-124979677D01*
X115192276Y-124984572D01*
X115108926Y-125156350D01*
X115106482Y-125158795D01*
X115099138Y-125176524D01*
X115086528Y-125202513D01*
X115086146Y-125207888D01*
X115084084Y-125212867D01*
X115081202Y-125242131D01*
X114619306Y-125242131D01*
X114712925Y-124978337D01*
X114710018Y-124919882D01*
X114684964Y-124866990D01*
X114641575Y-124827711D01*
X114586457Y-124808026D01*
X114528002Y-124810933D01*
X114475110Y-124835987D01*
X114435830Y-124879375D01*
X114423274Y-124905965D01*
X114088962Y-125847964D01*
X113740859Y-124879376D01*
X113701579Y-124835987D01*
X113648687Y-124810933D01*
X113590232Y-124808026D01*
X113535114Y-124827711D01*
X113491725Y-124866991D01*
X113466671Y-124919883D01*
X113463764Y-124978338D01*
X112998386Y-124978338D01*
X112997367Y-124260486D01*
X112974969Y-124206414D01*
X112933585Y-124165030D01*
X112879513Y-124142632D01*
X112820985Y-124142632D01*
X112766913Y-124165030D01*
X112725529Y-124206414D01*
X112703131Y-124260486D01*
X112700249Y-124289750D01*
X112700991Y-124812518D01*
X112699392Y-124811742D01*
X112694014Y-124811359D01*
X112689037Y-124809298D01*
X112659773Y-124806416D01*
X112301597Y-124808932D01*
X112297582Y-124807594D01*
X112276237Y-124809110D01*
X112249556Y-124809298D01*
X112244577Y-124811360D01*
X112239202Y-124811742D01*
X112211738Y-124822252D01*
X112022639Y-124919630D01*
X112005009Y-124926933D01*
X111999198Y-124931701D01*
X111996376Y-124933155D01*
X111993779Y-124936148D01*
X111982278Y-124945588D01*
X111887593Y-125043660D01*
X111874607Y-125054924D01*
X111870648Y-125061212D01*
X111868385Y-125063557D01*
X111866869Y-125067216D01*
X111858942Y-125079810D01*
X111775592Y-125251588D01*
X111773148Y-125254033D01*
X111765804Y-125271762D01*
X111753194Y-125297751D01*
X111752812Y-125303126D01*
X111750750Y-125308105D01*
X111747868Y-125337369D01*
X111283451Y-125337369D01*
X111283204Y-125333889D01*
X111283081Y-125308105D01*
X111281018Y-125303126D01*
X111280637Y-125297751D01*
X111270127Y-125270288D01*
X111172751Y-125081193D01*
X111165446Y-125063557D01*
X111160676Y-125057745D01*
X111159224Y-125054925D01*
X111156232Y-125052330D01*
X111146791Y-125040826D01*
X111048718Y-124946141D01*
X111037455Y-124933155D01*
X111031166Y-124929196D01*
X111028822Y-124926933D01*
X111025162Y-124925417D01*
X111012569Y-124917490D01*
X110840791Y-124834140D01*
X110838347Y-124831696D01*
X110820622Y-124824354D01*
X110794630Y-124811742D01*
X110789252Y-124811359D01*
X110784275Y-124809298D01*
X110755011Y-124806416D01*
X110491750Y-124808824D01*
X110488058Y-124807594D01*
X110467629Y-124809045D01*
X110440032Y-124809298D01*
X110435053Y-124811360D01*
X110429678Y-124811742D01*
X110402214Y-124822252D01*
X110213115Y-124919630D01*
X110195485Y-124926933D01*
X110189674Y-124931701D01*
X110186852Y-124933155D01*
X110184255Y-124936148D01*
X110172754Y-124945588D01*
X110078069Y-125043660D01*
X110065083Y-125054924D01*
X110061124Y-125061212D01*
X110058861Y-125063557D01*
X110057345Y-125067216D01*
X110049418Y-125079810D01*
X109966068Y-125251588D01*
X109963624Y-125254033D01*
X109956280Y-125271762D01*
X109943670Y-125297751D01*
X109943288Y-125303126D01*
X109941226Y-125308105D01*
X109938344Y-125337369D01*
X108521508Y-125337369D01*
X108521361Y-125282133D01*
X108578659Y-125164044D01*
X108690994Y-125106196D01*
X109001334Y-125104016D01*
X109191583Y-125196328D01*
X109249963Y-125200476D01*
X109305485Y-125181969D01*
X109349700Y-125143622D01*
X109375875Y-125091273D01*
X109380023Y-125032893D01*
X109361516Y-124977370D01*
X109323169Y-124933155D01*
X109298283Y-124917490D01*
X109126505Y-124834140D01*
X109124061Y-124831696D01*
X109106336Y-124824354D01*
X109080344Y-124811742D01*
X109074966Y-124811359D01*
X109069989Y-124809298D01*
X109040725Y-124806416D01*
X108682549Y-124808932D01*
X108678534Y-124807594D01*
X108657189Y-124809110D01*
X108630508Y-124809298D01*
X108625529Y-124811360D01*
X108620154Y-124811742D01*
X108592690Y-124822252D01*
X108409929Y-124916366D01*
X108395012Y-124921339D01*
X108387321Y-124928008D01*
X108377328Y-124933155D01*
X108365006Y-124947362D01*
X108350797Y-124959686D01*
X108341474Y-124974495D01*
X108338982Y-124977370D01*
X108338212Y-124979677D01*
X108335132Y-124984572D01*
X108251782Y-125156350D01*
X108249338Y-125158795D01*
X108241994Y-125176524D01*
X108229384Y-125202513D01*
X108229002Y-125207888D01*
X108226940Y-125212867D01*
X108224058Y-125242131D01*
X107569461Y-125242131D01*
X107568795Y-124927152D01*
X107546397Y-124873080D01*
X107505013Y-124831696D01*
X107450941Y-124809298D01*
X107392413Y-124809298D01*
X107338341Y-124831696D01*
X107296957Y-124873080D01*
X107281861Y-124909522D01*
X107126505Y-124834140D01*
X107124061Y-124831696D01*
X107106336Y-124824354D01*
X107080344Y-124811742D01*
X107074966Y-124811359D01*
X107069989Y-124809298D01*
X107040725Y-124806416D01*
X106820984Y-124809298D01*
X106766912Y-124831696D01*
X106725528Y-124873080D01*
X106703130Y-124927152D01*
X106171906Y-124927152D01*
X106171679Y-124926933D01*
X106168019Y-124925417D01*
X106155426Y-124917490D01*
X105983648Y-124834140D01*
X105981204Y-124831696D01*
X105963479Y-124824354D01*
X105937487Y-124811742D01*
X105932109Y-124811359D01*
X105927132Y-124809298D01*
X105897868Y-124806416D01*
X105539692Y-124808932D01*
X105535677Y-124807594D01*
X105514332Y-124809110D01*
X105487651Y-124809298D01*
X105482672Y-124811360D01*
X105477297Y-124811742D01*
X105474341Y-124812873D01*
X105473557Y-124260486D01*
X105451159Y-124206414D01*
X105409775Y-124165030D01*
X105355703Y-124142632D01*
X105297175Y-124142632D01*
X105243103Y-124165030D01*
X105201719Y-124206414D01*
X105179321Y-124260486D01*
X105176439Y-124289750D01*
X99144694Y-124289750D01*
X99144694Y-123917528D01*
X123793901Y-123917528D01*
X123793901Y-133101748D01*
G37*
D12*
X172329122Y-132263579D02*
X172369529Y-132263579D01*
X172369529Y-132263579D02*
X172450341Y-132223173D01*
X172450341Y-132223173D02*
X172490747Y-132182767D01*
X172490747Y-132182767D02*
X172531153Y-132101954D01*
X172531153Y-132101954D02*
X172531153Y-132021142D01*
X172531153Y-132021142D02*
X172510950Y-131960533D01*
X172510950Y-131960533D02*
X172450341Y-131859518D01*
X172450341Y-131859518D02*
X172389732Y-131798909D01*
X172389732Y-131798909D02*
X172288716Y-131738299D01*
X172288716Y-131738299D02*
X172228107Y-131718096D01*
X172228107Y-131718096D02*
X172147295Y-131718096D01*
X172147295Y-131718096D02*
X172066483Y-131758503D01*
X172066483Y-131758503D02*
X172026077Y-131798909D01*
X172026077Y-131798909D02*
X171985671Y-131879721D01*
X171985671Y-131879721D02*
X171985671Y-131920127D01*
X171803843Y-132021142D02*
X171541203Y-132283782D01*
X171541203Y-132283782D02*
X171844249Y-132303985D01*
X171844249Y-132303985D02*
X171783640Y-132364594D01*
X171783640Y-132364594D02*
X171763437Y-132425203D01*
X171763437Y-132425203D02*
X171763437Y-132465609D01*
X171763437Y-132465609D02*
X171783640Y-132526218D01*
X171783640Y-132526218D02*
X171884655Y-132627234D01*
X171884655Y-132627234D02*
X171945264Y-132647437D01*
X171945264Y-132647437D02*
X171985671Y-132647437D01*
X171985671Y-132647437D02*
X172046280Y-132627234D01*
X172046280Y-132627234D02*
X172167498Y-132506015D01*
X172167498Y-132506015D02*
X172187701Y-132445406D01*
X172187701Y-132445406D02*
X172187701Y-132405000D01*
X171278563Y-132546422D02*
X171238157Y-132586828D01*
X171238157Y-132586828D02*
X171217954Y-132647437D01*
X171217954Y-132647437D02*
X171217954Y-132687843D01*
X171217954Y-132687843D02*
X171238157Y-132748452D01*
X171238157Y-132748452D02*
X171298767Y-132849468D01*
X171298767Y-132849468D02*
X171399782Y-132950483D01*
X171399782Y-132950483D02*
X171500797Y-133011092D01*
X171500797Y-133011092D02*
X171561406Y-133031295D01*
X171561406Y-133031295D02*
X171601812Y-133031295D01*
X171601812Y-133031295D02*
X171662421Y-133011092D01*
X171662421Y-133011092D02*
X171702828Y-132970686D01*
X171702828Y-132970686D02*
X171723031Y-132910077D01*
X171723031Y-132910077D02*
X171723031Y-132869671D01*
X171723031Y-132869671D02*
X171702828Y-132809061D01*
X171702828Y-132809061D02*
X171642218Y-132708046D01*
X171642218Y-132708046D02*
X171541203Y-132607031D01*
X171541203Y-132607031D02*
X171440188Y-132546422D01*
X171440188Y-132546422D02*
X171379579Y-132526219D01*
X171379579Y-132526219D02*
X171339173Y-132526219D01*
X171339173Y-132526219D02*
X171278563Y-132546422D01*
X170995720Y-132829265D02*
X170712878Y-133112108D01*
X170712878Y-133112108D02*
X171318969Y-133354544D01*
X189266428Y-17738629D02*
X189295000Y-17767201D01*
X189295000Y-17767201D02*
X189380714Y-17795772D01*
X189380714Y-17795772D02*
X189437857Y-17795772D01*
X189437857Y-17795772D02*
X189523571Y-17767201D01*
X189523571Y-17767201D02*
X189580714Y-17710058D01*
X189580714Y-17710058D02*
X189609285Y-17652915D01*
X189609285Y-17652915D02*
X189637857Y-17538629D01*
X189637857Y-17538629D02*
X189637857Y-17452915D01*
X189637857Y-17452915D02*
X189609285Y-17338629D01*
X189609285Y-17338629D02*
X189580714Y-17281486D01*
X189580714Y-17281486D02*
X189523571Y-17224343D01*
X189523571Y-17224343D02*
X189437857Y-17195772D01*
X189437857Y-17195772D02*
X189380714Y-17195772D01*
X189380714Y-17195772D02*
X189295000Y-17224343D01*
X189295000Y-17224343D02*
X189266428Y-17252915D01*
X189066428Y-17195772D02*
X188695000Y-17195772D01*
X188695000Y-17195772D02*
X188895000Y-17424343D01*
X188895000Y-17424343D02*
X188809285Y-17424343D01*
X188809285Y-17424343D02*
X188752143Y-17452915D01*
X188752143Y-17452915D02*
X188723571Y-17481486D01*
X188723571Y-17481486D02*
X188695000Y-17538629D01*
X188695000Y-17538629D02*
X188695000Y-17681486D01*
X188695000Y-17681486D02*
X188723571Y-17738629D01*
X188723571Y-17738629D02*
X188752143Y-17767201D01*
X188752143Y-17767201D02*
X188809285Y-17795772D01*
X188809285Y-17795772D02*
X188980714Y-17795772D01*
X188980714Y-17795772D02*
X189037857Y-17767201D01*
X189037857Y-17767201D02*
X189066428Y-17738629D01*
X188123571Y-17795772D02*
X188466428Y-17795772D01*
X188294999Y-17795772D02*
X188294999Y-17195772D01*
X188294999Y-17195772D02*
X188352142Y-17281486D01*
X188352142Y-17281486D02*
X188409285Y-17338629D01*
X188409285Y-17338629D02*
X188466428Y-17367201D01*
X187609285Y-17395772D02*
X187609285Y-17795772D01*
X187752142Y-17167201D02*
X187894999Y-17595772D01*
X187894999Y-17595772D02*
X187523570Y-17595772D01*
X178022820Y-136985022D02*
X178022820Y-137025429D01*
X178022820Y-137025429D02*
X178063226Y-137106241D01*
X178063226Y-137106241D02*
X178103632Y-137146647D01*
X178103632Y-137146647D02*
X178184445Y-137187053D01*
X178184445Y-137187053D02*
X178265257Y-137187053D01*
X178265257Y-137187053D02*
X178325866Y-137166850D01*
X178325866Y-137166850D02*
X178426881Y-137106241D01*
X178426881Y-137106241D02*
X178487490Y-137045632D01*
X178487490Y-137045632D02*
X178548100Y-136944616D01*
X178548100Y-136944616D02*
X178568303Y-136884007D01*
X178568303Y-136884007D02*
X178568303Y-136803195D01*
X178568303Y-136803195D02*
X178527896Y-136722383D01*
X178527896Y-136722383D02*
X178487490Y-136681977D01*
X178487490Y-136681977D02*
X178406678Y-136641571D01*
X178406678Y-136641571D02*
X178366272Y-136641571D01*
X178265257Y-136459743D02*
X178002617Y-136197103D01*
X178002617Y-136197103D02*
X177982414Y-136500149D01*
X177982414Y-136500149D02*
X177921805Y-136439540D01*
X177921805Y-136439540D02*
X177861196Y-136419337D01*
X177861196Y-136419337D02*
X177820790Y-136419337D01*
X177820790Y-136419337D02*
X177760181Y-136439540D01*
X177760181Y-136439540D02*
X177659165Y-136540555D01*
X177659165Y-136540555D02*
X177638962Y-136601164D01*
X177638962Y-136601164D02*
X177638962Y-136641571D01*
X177638962Y-136641571D02*
X177659165Y-136702180D01*
X177659165Y-136702180D02*
X177780384Y-136823398D01*
X177780384Y-136823398D02*
X177840993Y-136843601D01*
X177840993Y-136843601D02*
X177881399Y-136843601D01*
X177739977Y-135934463D02*
X177699571Y-135894057D01*
X177699571Y-135894057D02*
X177638962Y-135873854D01*
X177638962Y-135873854D02*
X177598556Y-135873854D01*
X177598556Y-135873854D02*
X177537947Y-135894057D01*
X177537947Y-135894057D02*
X177436931Y-135954667D01*
X177436931Y-135954667D02*
X177335916Y-136055682D01*
X177335916Y-136055682D02*
X177275307Y-136156697D01*
X177275307Y-136156697D02*
X177255104Y-136217306D01*
X177255104Y-136217306D02*
X177255104Y-136257712D01*
X177255104Y-136257712D02*
X177275307Y-136318321D01*
X177275307Y-136318321D02*
X177315713Y-136358728D01*
X177315713Y-136358728D02*
X177376322Y-136378931D01*
X177376322Y-136378931D02*
X177416728Y-136378931D01*
X177416728Y-136378931D02*
X177477338Y-136358728D01*
X177477338Y-136358728D02*
X177578353Y-136298118D01*
X177578353Y-136298118D02*
X177679368Y-136197103D01*
X177679368Y-136197103D02*
X177739977Y-136096088D01*
X177739977Y-136096088D02*
X177760180Y-136035479D01*
X177760180Y-136035479D02*
X177760180Y-135995073D01*
X177760180Y-135995073D02*
X177739977Y-135934463D01*
X176770230Y-135813245D02*
X177012667Y-136055681D01*
X176891449Y-135934463D02*
X177315713Y-135510199D01*
X177315713Y-135510199D02*
X177295510Y-135611214D01*
X177295510Y-135611214D02*
X177295510Y-135692027D01*
X177295510Y-135692027D02*
X177315713Y-135752636D01*
X178526721Y-117582379D02*
X178567128Y-117582379D01*
X178567128Y-117582379D02*
X178647940Y-117541973D01*
X178647940Y-117541973D02*
X178688346Y-117501567D01*
X178688346Y-117501567D02*
X178728752Y-117420754D01*
X178728752Y-117420754D02*
X178728752Y-117339942D01*
X178728752Y-117339942D02*
X178708549Y-117279333D01*
X178708549Y-117279333D02*
X178647940Y-117178318D01*
X178647940Y-117178318D02*
X178587331Y-117117709D01*
X178587331Y-117117709D02*
X178486315Y-117057099D01*
X178486315Y-117057099D02*
X178425706Y-117036896D01*
X178425706Y-117036896D02*
X178344894Y-117036896D01*
X178344894Y-117036896D02*
X178264082Y-117077303D01*
X178264082Y-117077303D02*
X178223676Y-117117709D01*
X178223676Y-117117709D02*
X178183270Y-117198521D01*
X178183270Y-117198521D02*
X178183270Y-117238927D01*
X178001442Y-117339942D02*
X177738802Y-117602582D01*
X177738802Y-117602582D02*
X178041848Y-117622785D01*
X178041848Y-117622785D02*
X177981239Y-117683394D01*
X177981239Y-117683394D02*
X177961036Y-117744003D01*
X177961036Y-117744003D02*
X177961036Y-117784409D01*
X177961036Y-117784409D02*
X177981239Y-117845018D01*
X177981239Y-117845018D02*
X178082254Y-117946034D01*
X178082254Y-117946034D02*
X178142863Y-117966237D01*
X178142863Y-117966237D02*
X178183270Y-117966237D01*
X178183270Y-117966237D02*
X178243879Y-117946034D01*
X178243879Y-117946034D02*
X178365097Y-117824815D01*
X178365097Y-117824815D02*
X178385300Y-117764206D01*
X178385300Y-117764206D02*
X178385300Y-117723800D01*
X177759005Y-118430907D02*
X178001442Y-118188471D01*
X177880223Y-118309689D02*
X177455959Y-117885425D01*
X177455959Y-117885425D02*
X177556975Y-117905628D01*
X177556975Y-117905628D02*
X177637787Y-117905628D01*
X177637787Y-117905628D02*
X177698396Y-117885425D01*
X177072101Y-118269283D02*
X177031695Y-118309689D01*
X177031695Y-118309689D02*
X177011492Y-118370298D01*
X177011492Y-118370298D02*
X177011492Y-118410705D01*
X177011492Y-118410705D02*
X177031695Y-118471314D01*
X177031695Y-118471314D02*
X177092304Y-118572329D01*
X177092304Y-118572329D02*
X177193319Y-118673344D01*
X177193319Y-118673344D02*
X177294335Y-118733953D01*
X177294335Y-118733953D02*
X177354944Y-118754156D01*
X177354944Y-118754156D02*
X177395350Y-118754156D01*
X177395350Y-118754156D02*
X177455959Y-118733953D01*
X177455959Y-118733953D02*
X177496365Y-118693547D01*
X177496365Y-118693547D02*
X177516568Y-118632938D01*
X177516568Y-118632938D02*
X177516568Y-118592532D01*
X177516568Y-118592532D02*
X177496365Y-118531923D01*
X177496365Y-118531923D02*
X177435756Y-118430908D01*
X177435756Y-118430908D02*
X177334741Y-118329892D01*
X177334741Y-118329892D02*
X177233726Y-118269283D01*
X177233726Y-118269283D02*
X177173116Y-118249080D01*
X177173116Y-118249080D02*
X177132710Y-118249080D01*
X177132710Y-118249080D02*
X177072101Y-118269283D01*
X189520428Y-23383771D02*
X189720428Y-23098057D01*
X189863285Y-23383771D02*
X189863285Y-22783771D01*
X189863285Y-22783771D02*
X189634714Y-22783771D01*
X189634714Y-22783771D02*
X189577571Y-22812342D01*
X189577571Y-22812342D02*
X189549000Y-22840914D01*
X189549000Y-22840914D02*
X189520428Y-22898057D01*
X189520428Y-22898057D02*
X189520428Y-22983771D01*
X189520428Y-22983771D02*
X189549000Y-23040914D01*
X189549000Y-23040914D02*
X189577571Y-23069485D01*
X189577571Y-23069485D02*
X189634714Y-23098057D01*
X189634714Y-23098057D02*
X189863285Y-23098057D01*
X189320428Y-22783771D02*
X188949000Y-22783771D01*
X188949000Y-22783771D02*
X189149000Y-23012342D01*
X189149000Y-23012342D02*
X189063285Y-23012342D01*
X189063285Y-23012342D02*
X189006143Y-23040914D01*
X189006143Y-23040914D02*
X188977571Y-23069485D01*
X188977571Y-23069485D02*
X188949000Y-23126628D01*
X188949000Y-23126628D02*
X188949000Y-23269485D01*
X188949000Y-23269485D02*
X188977571Y-23326628D01*
X188977571Y-23326628D02*
X189006143Y-23355200D01*
X189006143Y-23355200D02*
X189063285Y-23383771D01*
X189063285Y-23383771D02*
X189234714Y-23383771D01*
X189234714Y-23383771D02*
X189291857Y-23355200D01*
X189291857Y-23355200D02*
X189320428Y-23326628D01*
X188577571Y-22783771D02*
X188520428Y-22783771D01*
X188520428Y-22783771D02*
X188463285Y-22812342D01*
X188463285Y-22812342D02*
X188434714Y-22840914D01*
X188434714Y-22840914D02*
X188406142Y-22898057D01*
X188406142Y-22898057D02*
X188377571Y-23012342D01*
X188377571Y-23012342D02*
X188377571Y-23155200D01*
X188377571Y-23155200D02*
X188406142Y-23269485D01*
X188406142Y-23269485D02*
X188434714Y-23326628D01*
X188434714Y-23326628D02*
X188463285Y-23355200D01*
X188463285Y-23355200D02*
X188520428Y-23383771D01*
X188520428Y-23383771D02*
X188577571Y-23383771D01*
X188577571Y-23383771D02*
X188634714Y-23355200D01*
X188634714Y-23355200D02*
X188663285Y-23326628D01*
X188663285Y-23326628D02*
X188691856Y-23269485D01*
X188691856Y-23269485D02*
X188720428Y-23155200D01*
X188720428Y-23155200D02*
X188720428Y-23012342D01*
X188720428Y-23012342D02*
X188691856Y-22898057D01*
X188691856Y-22898057D02*
X188663285Y-22840914D01*
X188663285Y-22840914D02*
X188634714Y-22812342D01*
X188634714Y-22812342D02*
X188577571Y-22783771D01*
X187806142Y-23383771D02*
X188148999Y-23383771D01*
X187977570Y-23383771D02*
X187977570Y-22783771D01*
X187977570Y-22783771D02*
X188034713Y-22869485D01*
X188034713Y-22869485D02*
X188091856Y-22926628D01*
X188091856Y-22926628D02*
X188148999Y-22955200D01*
X305883200Y-48895286D02*
X305930819Y-49038143D01*
X305930819Y-49038143D02*
X305930819Y-49276238D01*
X305930819Y-49276238D02*
X305883200Y-49371476D01*
X305883200Y-49371476D02*
X305835580Y-49419095D01*
X305835580Y-49419095D02*
X305740342Y-49466714D01*
X305740342Y-49466714D02*
X305645104Y-49466714D01*
X305645104Y-49466714D02*
X305549866Y-49419095D01*
X305549866Y-49419095D02*
X305502247Y-49371476D01*
X305502247Y-49371476D02*
X305454628Y-49276238D01*
X305454628Y-49276238D02*
X305407009Y-49085762D01*
X305407009Y-49085762D02*
X305359390Y-48990524D01*
X305359390Y-48990524D02*
X305311771Y-48942905D01*
X305311771Y-48942905D02*
X305216533Y-48895286D01*
X305216533Y-48895286D02*
X305121295Y-48895286D01*
X305121295Y-48895286D02*
X305026057Y-48942905D01*
X305026057Y-48942905D02*
X304978438Y-48990524D01*
X304978438Y-48990524D02*
X304930819Y-49085762D01*
X304930819Y-49085762D02*
X304930819Y-49323857D01*
X304930819Y-49323857D02*
X304978438Y-49466714D01*
X304930819Y-49800048D02*
X305930819Y-50038143D01*
X305930819Y-50038143D02*
X305216533Y-50228619D01*
X305216533Y-50228619D02*
X305930819Y-50419095D01*
X305930819Y-50419095D02*
X304930819Y-50657191D01*
X304930819Y-50942905D02*
X304930819Y-51561952D01*
X304930819Y-51561952D02*
X305311771Y-51228619D01*
X305311771Y-51228619D02*
X305311771Y-51371476D01*
X305311771Y-51371476D02*
X305359390Y-51466714D01*
X305359390Y-51466714D02*
X305407009Y-51514333D01*
X305407009Y-51514333D02*
X305502247Y-51561952D01*
X305502247Y-51561952D02*
X305740342Y-51561952D01*
X305740342Y-51561952D02*
X305835580Y-51514333D01*
X305835580Y-51514333D02*
X305883200Y-51466714D01*
X305883200Y-51466714D02*
X305930819Y-51371476D01*
X305930819Y-51371476D02*
X305930819Y-51085762D01*
X305930819Y-51085762D02*
X305883200Y-50990524D01*
X305883200Y-50990524D02*
X305835580Y-50942905D01*
X304930819Y-52181000D02*
X304930819Y-52276238D01*
X304930819Y-52276238D02*
X304978438Y-52371476D01*
X304978438Y-52371476D02*
X305026057Y-52419095D01*
X305026057Y-52419095D02*
X305121295Y-52466714D01*
X305121295Y-52466714D02*
X305311771Y-52514333D01*
X305311771Y-52514333D02*
X305549866Y-52514333D01*
X305549866Y-52514333D02*
X305740342Y-52466714D01*
X305740342Y-52466714D02*
X305835580Y-52419095D01*
X305835580Y-52419095D02*
X305883200Y-52371476D01*
X305883200Y-52371476D02*
X305930819Y-52276238D01*
X305930819Y-52276238D02*
X305930819Y-52181000D01*
X305930819Y-52181000D02*
X305883200Y-52085762D01*
X305883200Y-52085762D02*
X305835580Y-52038143D01*
X305835580Y-52038143D02*
X305740342Y-51990524D01*
X305740342Y-51990524D02*
X305549866Y-51942905D01*
X305549866Y-51942905D02*
X305311771Y-51942905D01*
X305311771Y-51942905D02*
X305121295Y-51990524D01*
X305121295Y-51990524D02*
X305026057Y-52038143D01*
X305026057Y-52038143D02*
X304978438Y-52085762D01*
X304978438Y-52085762D02*
X304930819Y-52181000D01*
X305930819Y-53466714D02*
X305930819Y-52895286D01*
X305930819Y-53181000D02*
X304930819Y-53181000D01*
X304930819Y-53181000D02*
X305073676Y-53085762D01*
X305073676Y-53085762D02*
X305168914Y-52990524D01*
X305168914Y-52990524D02*
X305216533Y-52895286D01*
X180938342Y-120665771D02*
X180938342Y-120065771D01*
X180309771Y-120608628D02*
X180338343Y-120637200D01*
X180338343Y-120637200D02*
X180424057Y-120665771D01*
X180424057Y-120665771D02*
X180481200Y-120665771D01*
X180481200Y-120665771D02*
X180566914Y-120637200D01*
X180566914Y-120637200D02*
X180624057Y-120580057D01*
X180624057Y-120580057D02*
X180652628Y-120522914D01*
X180652628Y-120522914D02*
X180681200Y-120408628D01*
X180681200Y-120408628D02*
X180681200Y-120322914D01*
X180681200Y-120322914D02*
X180652628Y-120208628D01*
X180652628Y-120208628D02*
X180624057Y-120151485D01*
X180624057Y-120151485D02*
X180566914Y-120094342D01*
X180566914Y-120094342D02*
X180481200Y-120065771D01*
X180481200Y-120065771D02*
X180424057Y-120065771D01*
X180424057Y-120065771D02*
X180338343Y-120094342D01*
X180338343Y-120094342D02*
X180309771Y-120122914D01*
X180109771Y-120065771D02*
X179738343Y-120065771D01*
X179738343Y-120065771D02*
X179938343Y-120294342D01*
X179938343Y-120294342D02*
X179852628Y-120294342D01*
X179852628Y-120294342D02*
X179795486Y-120322914D01*
X179795486Y-120322914D02*
X179766914Y-120351485D01*
X179766914Y-120351485D02*
X179738343Y-120408628D01*
X179738343Y-120408628D02*
X179738343Y-120551485D01*
X179738343Y-120551485D02*
X179766914Y-120608628D01*
X179766914Y-120608628D02*
X179795486Y-120637200D01*
X179795486Y-120637200D02*
X179852628Y-120665771D01*
X179852628Y-120665771D02*
X180024057Y-120665771D01*
X180024057Y-120665771D02*
X180081200Y-120637200D01*
X180081200Y-120637200D02*
X180109771Y-120608628D01*
X179366914Y-120065771D02*
X179309771Y-120065771D01*
X179309771Y-120065771D02*
X179252628Y-120094342D01*
X179252628Y-120094342D02*
X179224057Y-120122914D01*
X179224057Y-120122914D02*
X179195485Y-120180057D01*
X179195485Y-120180057D02*
X179166914Y-120294342D01*
X179166914Y-120294342D02*
X179166914Y-120437200D01*
X179166914Y-120437200D02*
X179195485Y-120551485D01*
X179195485Y-120551485D02*
X179224057Y-120608628D01*
X179224057Y-120608628D02*
X179252628Y-120637200D01*
X179252628Y-120637200D02*
X179309771Y-120665771D01*
X179309771Y-120665771D02*
X179366914Y-120665771D01*
X179366914Y-120665771D02*
X179424057Y-120637200D01*
X179424057Y-120637200D02*
X179452628Y-120608628D01*
X179452628Y-120608628D02*
X179481199Y-120551485D01*
X179481199Y-120551485D02*
X179509771Y-120437200D01*
X179509771Y-120437200D02*
X179509771Y-120294342D01*
X179509771Y-120294342D02*
X179481199Y-120180057D01*
X179481199Y-120180057D02*
X179452628Y-120122914D01*
X179452628Y-120122914D02*
X179424057Y-120094342D01*
X179424057Y-120094342D02*
X179366914Y-120065771D01*
X178595485Y-120665771D02*
X178938342Y-120665771D01*
X178766913Y-120665771D02*
X178766913Y-120065771D01*
X178766913Y-120065771D02*
X178824056Y-120151485D01*
X178824056Y-120151485D02*
X178881199Y-120208628D01*
X178881199Y-120208628D02*
X178938342Y-120237200D01*
X140547628Y-128233571D02*
X140576200Y-128204999D01*
X140576200Y-128204999D02*
X140604771Y-128119285D01*
X140604771Y-128119285D02*
X140604771Y-128062142D01*
X140604771Y-128062142D02*
X140576200Y-127976428D01*
X140576200Y-127976428D02*
X140519057Y-127919285D01*
X140519057Y-127919285D02*
X140461914Y-127890714D01*
X140461914Y-127890714D02*
X140347628Y-127862142D01*
X140347628Y-127862142D02*
X140261914Y-127862142D01*
X140261914Y-127862142D02*
X140147628Y-127890714D01*
X140147628Y-127890714D02*
X140090485Y-127919285D01*
X140090485Y-127919285D02*
X140033342Y-127976428D01*
X140033342Y-127976428D02*
X140004771Y-128062142D01*
X140004771Y-128062142D02*
X140004771Y-128119285D01*
X140004771Y-128119285D02*
X140033342Y-128204999D01*
X140033342Y-128204999D02*
X140061914Y-128233571D01*
X140204771Y-128747857D02*
X140604771Y-128747857D01*
X139976200Y-128604999D02*
X140404771Y-128462142D01*
X140404771Y-128462142D02*
X140404771Y-128833571D01*
X140004771Y-129176428D02*
X140004771Y-129233571D01*
X140004771Y-129233571D02*
X140033342Y-129290714D01*
X140033342Y-129290714D02*
X140061914Y-129319286D01*
X140061914Y-129319286D02*
X140119057Y-129347857D01*
X140119057Y-129347857D02*
X140233342Y-129376428D01*
X140233342Y-129376428D02*
X140376200Y-129376428D01*
X140376200Y-129376428D02*
X140490485Y-129347857D01*
X140490485Y-129347857D02*
X140547628Y-129319286D01*
X140547628Y-129319286D02*
X140576200Y-129290714D01*
X140576200Y-129290714D02*
X140604771Y-129233571D01*
X140604771Y-129233571D02*
X140604771Y-129176428D01*
X140604771Y-129176428D02*
X140576200Y-129119286D01*
X140576200Y-129119286D02*
X140547628Y-129090714D01*
X140547628Y-129090714D02*
X140490485Y-129062143D01*
X140490485Y-129062143D02*
X140376200Y-129033571D01*
X140376200Y-129033571D02*
X140233342Y-129033571D01*
X140233342Y-129033571D02*
X140119057Y-129062143D01*
X140119057Y-129062143D02*
X140061914Y-129090714D01*
X140061914Y-129090714D02*
X140033342Y-129119286D01*
X140033342Y-129119286D02*
X140004771Y-129176428D01*
X140061914Y-129605000D02*
X140033342Y-129633572D01*
X140033342Y-129633572D02*
X140004771Y-129690715D01*
X140004771Y-129690715D02*
X140004771Y-129833572D01*
X140004771Y-129833572D02*
X140033342Y-129890715D01*
X140033342Y-129890715D02*
X140061914Y-129919286D01*
X140061914Y-129919286D02*
X140119057Y-129947857D01*
X140119057Y-129947857D02*
X140176200Y-129947857D01*
X140176200Y-129947857D02*
X140261914Y-129919286D01*
X140261914Y-129919286D02*
X140604771Y-129576429D01*
X140604771Y-129576429D02*
X140604771Y-129947857D01*
X322157628Y-63463571D02*
X322186200Y-63434999D01*
X322186200Y-63434999D02*
X322214771Y-63349285D01*
X322214771Y-63349285D02*
X322214771Y-63292142D01*
X322214771Y-63292142D02*
X322186200Y-63206428D01*
X322186200Y-63206428D02*
X322129057Y-63149285D01*
X322129057Y-63149285D02*
X322071914Y-63120714D01*
X322071914Y-63120714D02*
X321957628Y-63092142D01*
X321957628Y-63092142D02*
X321871914Y-63092142D01*
X321871914Y-63092142D02*
X321757628Y-63120714D01*
X321757628Y-63120714D02*
X321700485Y-63149285D01*
X321700485Y-63149285D02*
X321643342Y-63206428D01*
X321643342Y-63206428D02*
X321614771Y-63292142D01*
X321614771Y-63292142D02*
X321614771Y-63349285D01*
X321614771Y-63349285D02*
X321643342Y-63434999D01*
X321643342Y-63434999D02*
X321671914Y-63463571D01*
X321814771Y-63977857D02*
X322214771Y-63977857D01*
X321586200Y-63834999D02*
X322014771Y-63692142D01*
X322014771Y-63692142D02*
X322014771Y-64063571D01*
X321614771Y-64406428D02*
X321614771Y-64463571D01*
X321614771Y-64463571D02*
X321643342Y-64520714D01*
X321643342Y-64520714D02*
X321671914Y-64549286D01*
X321671914Y-64549286D02*
X321729057Y-64577857D01*
X321729057Y-64577857D02*
X321843342Y-64606428D01*
X321843342Y-64606428D02*
X321986200Y-64606428D01*
X321986200Y-64606428D02*
X322100485Y-64577857D01*
X322100485Y-64577857D02*
X322157628Y-64549286D01*
X322157628Y-64549286D02*
X322186200Y-64520714D01*
X322186200Y-64520714D02*
X322214771Y-64463571D01*
X322214771Y-64463571D02*
X322214771Y-64406428D01*
X322214771Y-64406428D02*
X322186200Y-64349286D01*
X322186200Y-64349286D02*
X322157628Y-64320714D01*
X322157628Y-64320714D02*
X322100485Y-64292143D01*
X322100485Y-64292143D02*
X321986200Y-64263571D01*
X321986200Y-64263571D02*
X321843342Y-64263571D01*
X321843342Y-64263571D02*
X321729057Y-64292143D01*
X321729057Y-64292143D02*
X321671914Y-64320714D01*
X321671914Y-64320714D02*
X321643342Y-64349286D01*
X321643342Y-64349286D02*
X321614771Y-64406428D01*
X321614771Y-64806429D02*
X321614771Y-65177857D01*
X321614771Y-65177857D02*
X321843342Y-64977857D01*
X321843342Y-64977857D02*
X321843342Y-65063572D01*
X321843342Y-65063572D02*
X321871914Y-65120715D01*
X321871914Y-65120715D02*
X321900485Y-65149286D01*
X321900485Y-65149286D02*
X321957628Y-65177857D01*
X321957628Y-65177857D02*
X322100485Y-65177857D01*
X322100485Y-65177857D02*
X322157628Y-65149286D01*
X322157628Y-65149286D02*
X322186200Y-65120715D01*
X322186200Y-65120715D02*
X322214771Y-65063572D01*
X322214771Y-65063572D02*
X322214771Y-64892143D01*
X322214771Y-64892143D02*
X322186200Y-64835000D01*
X322186200Y-64835000D02*
X322157628Y-64806429D01*
X191942020Y-126659922D02*
X191942020Y-126700329D01*
X191942020Y-126700329D02*
X191982426Y-126781141D01*
X191982426Y-126781141D02*
X192022832Y-126821547D01*
X192022832Y-126821547D02*
X192103645Y-126861953D01*
X192103645Y-126861953D02*
X192184457Y-126861953D01*
X192184457Y-126861953D02*
X192245066Y-126841750D01*
X192245066Y-126841750D02*
X192346081Y-126781141D01*
X192346081Y-126781141D02*
X192406690Y-126720532D01*
X192406690Y-126720532D02*
X192467300Y-126619516D01*
X192467300Y-126619516D02*
X192487503Y-126558907D01*
X192487503Y-126558907D02*
X192487503Y-126478095D01*
X192487503Y-126478095D02*
X192447096Y-126397283D01*
X192447096Y-126397283D02*
X192406690Y-126356877D01*
X192406690Y-126356877D02*
X192325878Y-126316471D01*
X192325878Y-126316471D02*
X192285472Y-126316471D01*
X192184457Y-126134643D02*
X191921817Y-125872003D01*
X191921817Y-125872003D02*
X191901614Y-126175049D01*
X191901614Y-126175049D02*
X191841005Y-126114440D01*
X191841005Y-126114440D02*
X191780396Y-126094237D01*
X191780396Y-126094237D02*
X191739990Y-126094237D01*
X191739990Y-126094237D02*
X191679381Y-126114440D01*
X191679381Y-126114440D02*
X191578365Y-126215455D01*
X191578365Y-126215455D02*
X191558162Y-126276064D01*
X191558162Y-126276064D02*
X191558162Y-126316471D01*
X191558162Y-126316471D02*
X191578365Y-126377080D01*
X191578365Y-126377080D02*
X191699584Y-126498298D01*
X191699584Y-126498298D02*
X191760193Y-126518501D01*
X191760193Y-126518501D02*
X191800599Y-126518501D01*
X191659177Y-125609363D02*
X191618771Y-125568957D01*
X191618771Y-125568957D02*
X191558162Y-125548754D01*
X191558162Y-125548754D02*
X191517756Y-125548754D01*
X191517756Y-125548754D02*
X191457147Y-125568957D01*
X191457147Y-125568957D02*
X191356131Y-125629567D01*
X191356131Y-125629567D02*
X191255116Y-125730582D01*
X191255116Y-125730582D02*
X191194507Y-125831597D01*
X191194507Y-125831597D02*
X191174304Y-125892206D01*
X191174304Y-125892206D02*
X191174304Y-125932612D01*
X191174304Y-125932612D02*
X191194507Y-125993221D01*
X191194507Y-125993221D02*
X191234913Y-126033628D01*
X191234913Y-126033628D02*
X191295522Y-126053831D01*
X191295522Y-126053831D02*
X191335928Y-126053831D01*
X191335928Y-126053831D02*
X191396538Y-126033628D01*
X191396538Y-126033628D02*
X191497553Y-125973018D01*
X191497553Y-125973018D02*
X191598568Y-125872003D01*
X191598568Y-125872003D02*
X191659177Y-125770988D01*
X191659177Y-125770988D02*
X191679380Y-125710379D01*
X191679380Y-125710379D02*
X191679380Y-125669973D01*
X191679380Y-125669973D02*
X191659177Y-125609363D01*
X191133898Y-125084084D02*
X191335928Y-125286114D01*
X191335928Y-125286114D02*
X191154101Y-125508348D01*
X191154101Y-125508348D02*
X191154101Y-125467942D01*
X191154101Y-125467942D02*
X191133898Y-125407333D01*
X191133898Y-125407333D02*
X191032882Y-125306317D01*
X191032882Y-125306317D02*
X190972273Y-125286114D01*
X190972273Y-125286114D02*
X190931867Y-125286114D01*
X190931867Y-125286114D02*
X190871258Y-125306317D01*
X190871258Y-125306317D02*
X190770243Y-125407333D01*
X190770243Y-125407333D02*
X190750040Y-125467942D01*
X190750040Y-125467942D02*
X190750040Y-125508348D01*
X190750040Y-125508348D02*
X190770243Y-125568957D01*
X190770243Y-125568957D02*
X190871258Y-125669972D01*
X190871258Y-125669972D02*
X190931867Y-125690175D01*
X190931867Y-125690175D02*
X190972273Y-125690175D01*
X165009428Y-21097771D02*
X165209428Y-20812057D01*
X165352285Y-21097771D02*
X165352285Y-20497771D01*
X165352285Y-20497771D02*
X165123714Y-20497771D01*
X165123714Y-20497771D02*
X165066571Y-20526342D01*
X165066571Y-20526342D02*
X165038000Y-20554914D01*
X165038000Y-20554914D02*
X165009428Y-20612057D01*
X165009428Y-20612057D02*
X165009428Y-20697771D01*
X165009428Y-20697771D02*
X165038000Y-20754914D01*
X165038000Y-20754914D02*
X165066571Y-20783485D01*
X165066571Y-20783485D02*
X165123714Y-20812057D01*
X165123714Y-20812057D02*
X165352285Y-20812057D01*
X164809428Y-20497771D02*
X164438000Y-20497771D01*
X164438000Y-20497771D02*
X164638000Y-20726342D01*
X164638000Y-20726342D02*
X164552285Y-20726342D01*
X164552285Y-20726342D02*
X164495143Y-20754914D01*
X164495143Y-20754914D02*
X164466571Y-20783485D01*
X164466571Y-20783485D02*
X164438000Y-20840628D01*
X164438000Y-20840628D02*
X164438000Y-20983485D01*
X164438000Y-20983485D02*
X164466571Y-21040628D01*
X164466571Y-21040628D02*
X164495143Y-21069200D01*
X164495143Y-21069200D02*
X164552285Y-21097771D01*
X164552285Y-21097771D02*
X164723714Y-21097771D01*
X164723714Y-21097771D02*
X164780857Y-21069200D01*
X164780857Y-21069200D02*
X164809428Y-21040628D01*
X163866571Y-21097771D02*
X164209428Y-21097771D01*
X164037999Y-21097771D02*
X164037999Y-20497771D01*
X164037999Y-20497771D02*
X164095142Y-20583485D01*
X164095142Y-20583485D02*
X164152285Y-20640628D01*
X164152285Y-20640628D02*
X164209428Y-20669200D01*
X163295142Y-21097771D02*
X163637999Y-21097771D01*
X163466570Y-21097771D02*
X163466570Y-20497771D01*
X163466570Y-20497771D02*
X163523713Y-20583485D01*
X163523713Y-20583485D02*
X163580856Y-20640628D01*
X163580856Y-20640628D02*
X163637999Y-20669200D01*
X185450014Y-136555529D02*
X185793466Y-136494919D01*
X185692451Y-136797965D02*
X186116715Y-136373701D01*
X186116715Y-136373701D02*
X185955090Y-136212077D01*
X185955090Y-136212077D02*
X185894481Y-136191874D01*
X185894481Y-136191874D02*
X185854075Y-136191874D01*
X185854075Y-136191874D02*
X185793466Y-136212077D01*
X185793466Y-136212077D02*
X185732857Y-136272686D01*
X185732857Y-136272686D02*
X185712654Y-136333295D01*
X185712654Y-136333295D02*
X185712654Y-136373701D01*
X185712654Y-136373701D02*
X185732857Y-136434310D01*
X185732857Y-136434310D02*
X185894481Y-136595935D01*
X185732857Y-135989843D02*
X185470217Y-135727203D01*
X185470217Y-135727203D02*
X185450014Y-136030249D01*
X185450014Y-136030249D02*
X185389405Y-135969640D01*
X185389405Y-135969640D02*
X185328796Y-135949437D01*
X185328796Y-135949437D02*
X185288390Y-135949437D01*
X185288390Y-135949437D02*
X185227781Y-135969640D01*
X185227781Y-135969640D02*
X185126765Y-136070655D01*
X185126765Y-136070655D02*
X185106562Y-136131264D01*
X185106562Y-136131264D02*
X185106562Y-136171671D01*
X185106562Y-136171671D02*
X185126765Y-136232280D01*
X185126765Y-136232280D02*
X185247984Y-136353498D01*
X185247984Y-136353498D02*
X185308593Y-136373701D01*
X185308593Y-136373701D02*
X185348999Y-136373701D01*
X185207577Y-135464563D02*
X185167171Y-135424157D01*
X185167171Y-135424157D02*
X185106562Y-135403954D01*
X185106562Y-135403954D02*
X185066156Y-135403954D01*
X185066156Y-135403954D02*
X185005547Y-135424157D01*
X185005547Y-135424157D02*
X184904531Y-135484767D01*
X184904531Y-135484767D02*
X184803516Y-135585782D01*
X184803516Y-135585782D02*
X184742907Y-135686797D01*
X184742907Y-135686797D02*
X184722704Y-135747406D01*
X184722704Y-135747406D02*
X184722704Y-135787812D01*
X184722704Y-135787812D02*
X184742907Y-135848421D01*
X184742907Y-135848421D02*
X184783313Y-135888828D01*
X184783313Y-135888828D02*
X184843922Y-135909031D01*
X184843922Y-135909031D02*
X184884328Y-135909031D01*
X184884328Y-135909031D02*
X184944938Y-135888828D01*
X184944938Y-135888828D02*
X185045953Y-135828218D01*
X185045953Y-135828218D02*
X185146968Y-135727203D01*
X185146968Y-135727203D02*
X185207577Y-135626188D01*
X185207577Y-135626188D02*
X185227780Y-135565579D01*
X185227780Y-135565579D02*
X185227780Y-135525173D01*
X185227780Y-135525173D02*
X185207577Y-135464563D01*
X184924734Y-135181720D02*
X184662094Y-134919081D01*
X184662094Y-134919081D02*
X184641891Y-135222127D01*
X184641891Y-135222127D02*
X184581282Y-135161517D01*
X184581282Y-135161517D02*
X184520673Y-135141314D01*
X184520673Y-135141314D02*
X184480267Y-135141314D01*
X184480267Y-135141314D02*
X184419658Y-135161517D01*
X184419658Y-135161517D02*
X184318643Y-135262533D01*
X184318643Y-135262533D02*
X184298440Y-135323142D01*
X184298440Y-135323142D02*
X184298440Y-135363548D01*
X184298440Y-135363548D02*
X184318643Y-135424157D01*
X184318643Y-135424157D02*
X184439861Y-135545375D01*
X184439861Y-135545375D02*
X184500470Y-135565578D01*
X184500470Y-135565578D02*
X184540876Y-135565578D01*
X173954722Y-122154379D02*
X173995129Y-122154379D01*
X173995129Y-122154379D02*
X174075941Y-122113973D01*
X174075941Y-122113973D02*
X174116347Y-122073567D01*
X174116347Y-122073567D02*
X174156753Y-121992754D01*
X174156753Y-121992754D02*
X174156753Y-121911942D01*
X174156753Y-121911942D02*
X174136550Y-121851333D01*
X174136550Y-121851333D02*
X174075941Y-121750318D01*
X174075941Y-121750318D02*
X174015332Y-121689709D01*
X174015332Y-121689709D02*
X173914316Y-121629099D01*
X173914316Y-121629099D02*
X173853707Y-121608896D01*
X173853707Y-121608896D02*
X173772895Y-121608896D01*
X173772895Y-121608896D02*
X173692083Y-121649303D01*
X173692083Y-121649303D02*
X173651677Y-121689709D01*
X173651677Y-121689709D02*
X173611271Y-121770521D01*
X173611271Y-121770521D02*
X173611271Y-121810927D01*
X173429443Y-121911942D02*
X173166803Y-122174582D01*
X173166803Y-122174582D02*
X173469849Y-122194785D01*
X173469849Y-122194785D02*
X173409240Y-122255394D01*
X173409240Y-122255394D02*
X173389037Y-122316003D01*
X173389037Y-122316003D02*
X173389037Y-122356409D01*
X173389037Y-122356409D02*
X173409240Y-122417018D01*
X173409240Y-122417018D02*
X173510255Y-122518034D01*
X173510255Y-122518034D02*
X173570864Y-122538237D01*
X173570864Y-122538237D02*
X173611271Y-122538237D01*
X173611271Y-122538237D02*
X173671880Y-122518034D01*
X173671880Y-122518034D02*
X173793098Y-122396815D01*
X173793098Y-122396815D02*
X173813301Y-122336206D01*
X173813301Y-122336206D02*
X173813301Y-122295800D01*
X172904163Y-122437222D02*
X172863757Y-122477628D01*
X172863757Y-122477628D02*
X172843554Y-122538237D01*
X172843554Y-122538237D02*
X172843554Y-122578643D01*
X172843554Y-122578643D02*
X172863757Y-122639252D01*
X172863757Y-122639252D02*
X172924367Y-122740268D01*
X172924367Y-122740268D02*
X173025382Y-122841283D01*
X173025382Y-122841283D02*
X173126397Y-122901892D01*
X173126397Y-122901892D02*
X173187006Y-122922095D01*
X173187006Y-122922095D02*
X173227412Y-122922095D01*
X173227412Y-122922095D02*
X173288021Y-122901892D01*
X173288021Y-122901892D02*
X173328428Y-122861486D01*
X173328428Y-122861486D02*
X173348631Y-122800877D01*
X173348631Y-122800877D02*
X173348631Y-122760471D01*
X173348631Y-122760471D02*
X173328428Y-122699861D01*
X173328428Y-122699861D02*
X173267818Y-122598846D01*
X173267818Y-122598846D02*
X173166803Y-122497831D01*
X173166803Y-122497831D02*
X173065788Y-122437222D01*
X173065788Y-122437222D02*
X173005179Y-122417019D01*
X173005179Y-122417019D02*
X172964773Y-122417019D01*
X172964773Y-122417019D02*
X172904163Y-122437222D01*
X172540508Y-123083720D02*
X172823351Y-123366562D01*
X172479899Y-122821080D02*
X172883960Y-123023111D01*
X172883960Y-123023111D02*
X172621320Y-123285750D01*
X132600571Y-122986771D02*
X132600571Y-123472485D01*
X132600571Y-123472485D02*
X132572000Y-123529628D01*
X132572000Y-123529628D02*
X132543429Y-123558200D01*
X132543429Y-123558200D02*
X132486286Y-123586771D01*
X132486286Y-123586771D02*
X132372000Y-123586771D01*
X132372000Y-123586771D02*
X132314857Y-123558200D01*
X132314857Y-123558200D02*
X132286286Y-123529628D01*
X132286286Y-123529628D02*
X132257714Y-123472485D01*
X132257714Y-123472485D02*
X132257714Y-122986771D01*
X131714858Y-123186771D02*
X131714858Y-123586771D01*
X131857715Y-122958200D02*
X132000572Y-123386771D01*
X132000572Y-123386771D02*
X131629143Y-123386771D01*
X131286286Y-122986771D02*
X131229143Y-122986771D01*
X131229143Y-122986771D02*
X131172000Y-123015342D01*
X131172000Y-123015342D02*
X131143429Y-123043914D01*
X131143429Y-123043914D02*
X131114857Y-123101057D01*
X131114857Y-123101057D02*
X131086286Y-123215342D01*
X131086286Y-123215342D02*
X131086286Y-123358200D01*
X131086286Y-123358200D02*
X131114857Y-123472485D01*
X131114857Y-123472485D02*
X131143429Y-123529628D01*
X131143429Y-123529628D02*
X131172000Y-123558200D01*
X131172000Y-123558200D02*
X131229143Y-123586771D01*
X131229143Y-123586771D02*
X131286286Y-123586771D01*
X131286286Y-123586771D02*
X131343429Y-123558200D01*
X131343429Y-123558200D02*
X131372000Y-123529628D01*
X131372000Y-123529628D02*
X131400571Y-123472485D01*
X131400571Y-123472485D02*
X131429143Y-123358200D01*
X131429143Y-123358200D02*
X131429143Y-123215342D01*
X131429143Y-123215342D02*
X131400571Y-123101057D01*
X131400571Y-123101057D02*
X131372000Y-123043914D01*
X131372000Y-123043914D02*
X131343429Y-123015342D01*
X131343429Y-123015342D02*
X131286286Y-122986771D01*
X130514857Y-123586771D02*
X130857714Y-123586771D01*
X130686285Y-123586771D02*
X130686285Y-122986771D01*
X130686285Y-122986771D02*
X130743428Y-123072485D01*
X130743428Y-123072485D02*
X130800571Y-123129628D01*
X130800571Y-123129628D02*
X130857714Y-123158200D01*
X182662428Y-136610628D02*
X182691000Y-136639200D01*
X182691000Y-136639200D02*
X182776714Y-136667771D01*
X182776714Y-136667771D02*
X182833857Y-136667771D01*
X182833857Y-136667771D02*
X182919571Y-136639200D01*
X182919571Y-136639200D02*
X182976714Y-136582057D01*
X182976714Y-136582057D02*
X183005285Y-136524914D01*
X183005285Y-136524914D02*
X183033857Y-136410628D01*
X183033857Y-136410628D02*
X183033857Y-136324914D01*
X183033857Y-136324914D02*
X183005285Y-136210628D01*
X183005285Y-136210628D02*
X182976714Y-136153485D01*
X182976714Y-136153485D02*
X182919571Y-136096342D01*
X182919571Y-136096342D02*
X182833857Y-136067771D01*
X182833857Y-136067771D02*
X182776714Y-136067771D01*
X182776714Y-136067771D02*
X182691000Y-136096342D01*
X182691000Y-136096342D02*
X182662428Y-136124914D01*
X182462428Y-136067771D02*
X182091000Y-136067771D01*
X182091000Y-136067771D02*
X182291000Y-136296342D01*
X182291000Y-136296342D02*
X182205285Y-136296342D01*
X182205285Y-136296342D02*
X182148143Y-136324914D01*
X182148143Y-136324914D02*
X182119571Y-136353485D01*
X182119571Y-136353485D02*
X182091000Y-136410628D01*
X182091000Y-136410628D02*
X182091000Y-136553485D01*
X182091000Y-136553485D02*
X182119571Y-136610628D01*
X182119571Y-136610628D02*
X182148143Y-136639200D01*
X182148143Y-136639200D02*
X182205285Y-136667771D01*
X182205285Y-136667771D02*
X182376714Y-136667771D01*
X182376714Y-136667771D02*
X182433857Y-136639200D01*
X182433857Y-136639200D02*
X182462428Y-136610628D01*
X181719571Y-136067771D02*
X181662428Y-136067771D01*
X181662428Y-136067771D02*
X181605285Y-136096342D01*
X181605285Y-136096342D02*
X181576714Y-136124914D01*
X181576714Y-136124914D02*
X181548142Y-136182057D01*
X181548142Y-136182057D02*
X181519571Y-136296342D01*
X181519571Y-136296342D02*
X181519571Y-136439200D01*
X181519571Y-136439200D02*
X181548142Y-136553485D01*
X181548142Y-136553485D02*
X181576714Y-136610628D01*
X181576714Y-136610628D02*
X181605285Y-136639200D01*
X181605285Y-136639200D02*
X181662428Y-136667771D01*
X181662428Y-136667771D02*
X181719571Y-136667771D01*
X181719571Y-136667771D02*
X181776714Y-136639200D01*
X181776714Y-136639200D02*
X181805285Y-136610628D01*
X181805285Y-136610628D02*
X181833856Y-136553485D01*
X181833856Y-136553485D02*
X181862428Y-136439200D01*
X181862428Y-136439200D02*
X181862428Y-136296342D01*
X181862428Y-136296342D02*
X181833856Y-136182057D01*
X181833856Y-136182057D02*
X181805285Y-136124914D01*
X181805285Y-136124914D02*
X181776714Y-136096342D01*
X181776714Y-136096342D02*
X181719571Y-136067771D01*
X181290999Y-136124914D02*
X181262427Y-136096342D01*
X181262427Y-136096342D02*
X181205285Y-136067771D01*
X181205285Y-136067771D02*
X181062427Y-136067771D01*
X181062427Y-136067771D02*
X181005285Y-136096342D01*
X181005285Y-136096342D02*
X180976713Y-136124914D01*
X180976713Y-136124914D02*
X180948142Y-136182057D01*
X180948142Y-136182057D02*
X180948142Y-136239200D01*
X180948142Y-136239200D02*
X180976713Y-136324914D01*
X180976713Y-136324914D02*
X181319570Y-136667771D01*
X181319570Y-136667771D02*
X180948142Y-136667771D01*
X315480571Y-61264771D02*
X315480571Y-61750485D01*
X315480571Y-61750485D02*
X315452000Y-61807628D01*
X315452000Y-61807628D02*
X315423429Y-61836200D01*
X315423429Y-61836200D02*
X315366286Y-61864771D01*
X315366286Y-61864771D02*
X315252000Y-61864771D01*
X315252000Y-61864771D02*
X315194857Y-61836200D01*
X315194857Y-61836200D02*
X315166286Y-61807628D01*
X315166286Y-61807628D02*
X315137714Y-61750485D01*
X315137714Y-61750485D02*
X315137714Y-61264771D01*
X314594858Y-61464771D02*
X314594858Y-61864771D01*
X314737715Y-61236200D02*
X314880572Y-61664771D01*
X314880572Y-61664771D02*
X314509143Y-61664771D01*
X314166286Y-61264771D02*
X314109143Y-61264771D01*
X314109143Y-61264771D02*
X314052000Y-61293342D01*
X314052000Y-61293342D02*
X314023429Y-61321914D01*
X314023429Y-61321914D02*
X313994857Y-61379057D01*
X313994857Y-61379057D02*
X313966286Y-61493342D01*
X313966286Y-61493342D02*
X313966286Y-61636200D01*
X313966286Y-61636200D02*
X313994857Y-61750485D01*
X313994857Y-61750485D02*
X314023429Y-61807628D01*
X314023429Y-61807628D02*
X314052000Y-61836200D01*
X314052000Y-61836200D02*
X314109143Y-61864771D01*
X314109143Y-61864771D02*
X314166286Y-61864771D01*
X314166286Y-61864771D02*
X314223429Y-61836200D01*
X314223429Y-61836200D02*
X314252000Y-61807628D01*
X314252000Y-61807628D02*
X314280571Y-61750485D01*
X314280571Y-61750485D02*
X314309143Y-61636200D01*
X314309143Y-61636200D02*
X314309143Y-61493342D01*
X314309143Y-61493342D02*
X314280571Y-61379057D01*
X314280571Y-61379057D02*
X314252000Y-61321914D01*
X314252000Y-61321914D02*
X314223429Y-61293342D01*
X314223429Y-61293342D02*
X314166286Y-61264771D01*
X313737714Y-61321914D02*
X313709142Y-61293342D01*
X313709142Y-61293342D02*
X313652000Y-61264771D01*
X313652000Y-61264771D02*
X313509142Y-61264771D01*
X313509142Y-61264771D02*
X313452000Y-61293342D01*
X313452000Y-61293342D02*
X313423428Y-61321914D01*
X313423428Y-61321914D02*
X313394857Y-61379057D01*
X313394857Y-61379057D02*
X313394857Y-61436200D01*
X313394857Y-61436200D02*
X313423428Y-61521914D01*
X313423428Y-61521914D02*
X313766285Y-61864771D01*
X313766285Y-61864771D02*
X313394857Y-61864771D01*
X170706769Y-137130171D02*
X170504738Y-137332201D01*
X171070423Y-137049359D02*
X170706769Y-137130171D01*
X170706769Y-137130171D02*
X170787581Y-136766516D01*
X170686565Y-136665501D02*
X170423926Y-136402861D01*
X170423926Y-136402861D02*
X170403723Y-136705907D01*
X170403723Y-136705907D02*
X170343113Y-136645298D01*
X170343113Y-136645298D02*
X170282504Y-136625094D01*
X170282504Y-136625094D02*
X170242098Y-136625094D01*
X170242098Y-136625094D02*
X170181489Y-136645298D01*
X170181489Y-136645298D02*
X170080474Y-136746313D01*
X170080474Y-136746313D02*
X170060271Y-136806922D01*
X170060271Y-136806922D02*
X170060271Y-136847328D01*
X170060271Y-136847328D02*
X170080474Y-136907937D01*
X170080474Y-136907937D02*
X170201692Y-137029155D01*
X170201692Y-137029155D02*
X170262301Y-137049359D01*
X170262301Y-137049359D02*
X170302707Y-137049359D01*
X170161286Y-136140221D02*
X170120880Y-136099815D01*
X170120880Y-136099815D02*
X170060270Y-136079612D01*
X170060270Y-136079612D02*
X170019864Y-136079612D01*
X170019864Y-136079612D02*
X169959255Y-136099815D01*
X169959255Y-136099815D02*
X169858240Y-136160424D01*
X169858240Y-136160424D02*
X169757225Y-136261439D01*
X169757225Y-136261439D02*
X169696615Y-136362454D01*
X169696615Y-136362454D02*
X169676412Y-136423064D01*
X169676412Y-136423064D02*
X169676412Y-136463470D01*
X169676412Y-136463470D02*
X169696615Y-136524079D01*
X169696615Y-136524079D02*
X169737022Y-136564485D01*
X169737022Y-136564485D02*
X169797631Y-136584688D01*
X169797631Y-136584688D02*
X169838037Y-136584688D01*
X169838037Y-136584688D02*
X169898646Y-136564485D01*
X169898646Y-136564485D02*
X169999661Y-136503876D01*
X169999661Y-136503876D02*
X170100676Y-136402861D01*
X170100676Y-136402861D02*
X170161286Y-136301845D01*
X170161286Y-136301845D02*
X170181489Y-136241236D01*
X170181489Y-136241236D02*
X170181489Y-136200830D01*
X170181489Y-136200830D02*
X170161286Y-136140221D01*
X169191539Y-136019002D02*
X169433976Y-136261439D01*
X169312757Y-136140221D02*
X169737021Y-135715957D01*
X169737021Y-135715957D02*
X169716818Y-135816972D01*
X169716818Y-135816972D02*
X169716818Y-135897784D01*
X169716818Y-135897784D02*
X169737021Y-135958393D01*
X190570420Y-127320322D02*
X190570420Y-127360729D01*
X190570420Y-127360729D02*
X190610826Y-127441541D01*
X190610826Y-127441541D02*
X190651232Y-127481947D01*
X190651232Y-127481947D02*
X190732045Y-127522353D01*
X190732045Y-127522353D02*
X190812857Y-127522353D01*
X190812857Y-127522353D02*
X190873466Y-127502150D01*
X190873466Y-127502150D02*
X190974481Y-127441541D01*
X190974481Y-127441541D02*
X191035090Y-127380932D01*
X191035090Y-127380932D02*
X191095700Y-127279916D01*
X191095700Y-127279916D02*
X191115903Y-127219307D01*
X191115903Y-127219307D02*
X191115903Y-127138495D01*
X191115903Y-127138495D02*
X191075496Y-127057683D01*
X191075496Y-127057683D02*
X191035090Y-127017277D01*
X191035090Y-127017277D02*
X190954278Y-126976871D01*
X190954278Y-126976871D02*
X190913872Y-126976871D01*
X190812857Y-126795043D02*
X190550217Y-126532403D01*
X190550217Y-126532403D02*
X190530014Y-126835449D01*
X190530014Y-126835449D02*
X190469405Y-126774840D01*
X190469405Y-126774840D02*
X190408796Y-126754637D01*
X190408796Y-126754637D02*
X190368390Y-126754637D01*
X190368390Y-126754637D02*
X190307781Y-126774840D01*
X190307781Y-126774840D02*
X190206765Y-126875855D01*
X190206765Y-126875855D02*
X190186562Y-126936464D01*
X190186562Y-126936464D02*
X190186562Y-126976871D01*
X190186562Y-126976871D02*
X190206765Y-127037480D01*
X190206765Y-127037480D02*
X190327984Y-127158698D01*
X190327984Y-127158698D02*
X190388593Y-127178901D01*
X190388593Y-127178901D02*
X190428999Y-127178901D01*
X190287577Y-126269763D02*
X190247171Y-126229357D01*
X190247171Y-126229357D02*
X190186562Y-126209154D01*
X190186562Y-126209154D02*
X190146156Y-126209154D01*
X190146156Y-126209154D02*
X190085547Y-126229357D01*
X190085547Y-126229357D02*
X189984531Y-126289967D01*
X189984531Y-126289967D02*
X189883516Y-126390982D01*
X189883516Y-126390982D02*
X189822907Y-126491997D01*
X189822907Y-126491997D02*
X189802704Y-126552606D01*
X189802704Y-126552606D02*
X189802704Y-126593012D01*
X189802704Y-126593012D02*
X189822907Y-126653621D01*
X189822907Y-126653621D02*
X189863313Y-126694028D01*
X189863313Y-126694028D02*
X189923922Y-126714231D01*
X189923922Y-126714231D02*
X189964328Y-126714231D01*
X189964328Y-126714231D02*
X190024938Y-126694028D01*
X190024938Y-126694028D02*
X190125953Y-126633418D01*
X190125953Y-126633418D02*
X190226968Y-126532403D01*
X190226968Y-126532403D02*
X190287577Y-126431388D01*
X190287577Y-126431388D02*
X190307780Y-126370779D01*
X190307780Y-126370779D02*
X190307780Y-126330373D01*
X190307780Y-126330373D02*
X190287577Y-126269763D01*
X190004734Y-125986920D02*
X189742094Y-125724281D01*
X189742094Y-125724281D02*
X189721891Y-126027327D01*
X189721891Y-126027327D02*
X189661282Y-125966717D01*
X189661282Y-125966717D02*
X189600673Y-125946514D01*
X189600673Y-125946514D02*
X189560267Y-125946514D01*
X189560267Y-125946514D02*
X189499658Y-125966717D01*
X189499658Y-125966717D02*
X189398643Y-126067733D01*
X189398643Y-126067733D02*
X189378440Y-126128342D01*
X189378440Y-126128342D02*
X189378440Y-126168748D01*
X189378440Y-126168748D02*
X189398643Y-126229357D01*
X189398643Y-126229357D02*
X189519861Y-126350575D01*
X189519861Y-126350575D02*
X189580470Y-126370778D01*
X189580470Y-126370778D02*
X189620876Y-126370778D01*
X316544228Y-71235971D02*
X316572800Y-71207399D01*
X316572800Y-71207399D02*
X316601371Y-71121685D01*
X316601371Y-71121685D02*
X316601371Y-71064542D01*
X316601371Y-71064542D02*
X316572800Y-70978828D01*
X316572800Y-70978828D02*
X316515657Y-70921685D01*
X316515657Y-70921685D02*
X316458514Y-70893114D01*
X316458514Y-70893114D02*
X316344228Y-70864542D01*
X316344228Y-70864542D02*
X316258514Y-70864542D01*
X316258514Y-70864542D02*
X316144228Y-70893114D01*
X316144228Y-70893114D02*
X316087085Y-70921685D01*
X316087085Y-70921685D02*
X316029942Y-70978828D01*
X316029942Y-70978828D02*
X316001371Y-71064542D01*
X316001371Y-71064542D02*
X316001371Y-71121685D01*
X316001371Y-71121685D02*
X316029942Y-71207399D01*
X316029942Y-71207399D02*
X316058514Y-71235971D01*
X316201371Y-71750257D02*
X316601371Y-71750257D01*
X315972800Y-71607399D02*
X316401371Y-71464542D01*
X316401371Y-71464542D02*
X316401371Y-71835971D01*
X316001371Y-72178828D02*
X316001371Y-72235971D01*
X316001371Y-72235971D02*
X316029942Y-72293114D01*
X316029942Y-72293114D02*
X316058514Y-72321686D01*
X316058514Y-72321686D02*
X316115657Y-72350257D01*
X316115657Y-72350257D02*
X316229942Y-72378828D01*
X316229942Y-72378828D02*
X316372800Y-72378828D01*
X316372800Y-72378828D02*
X316487085Y-72350257D01*
X316487085Y-72350257D02*
X316544228Y-72321686D01*
X316544228Y-72321686D02*
X316572800Y-72293114D01*
X316572800Y-72293114D02*
X316601371Y-72235971D01*
X316601371Y-72235971D02*
X316601371Y-72178828D01*
X316601371Y-72178828D02*
X316572800Y-72121686D01*
X316572800Y-72121686D02*
X316544228Y-72093114D01*
X316544228Y-72093114D02*
X316487085Y-72064543D01*
X316487085Y-72064543D02*
X316372800Y-72035971D01*
X316372800Y-72035971D02*
X316229942Y-72035971D01*
X316229942Y-72035971D02*
X316115657Y-72064543D01*
X316115657Y-72064543D02*
X316058514Y-72093114D01*
X316058514Y-72093114D02*
X316029942Y-72121686D01*
X316029942Y-72121686D02*
X316001371Y-72178828D01*
X316201371Y-72893115D02*
X316601371Y-72893115D01*
X315972800Y-72750257D02*
X316401371Y-72607400D01*
X316401371Y-72607400D02*
X316401371Y-72978829D01*
X169742420Y-130622322D02*
X169742420Y-130662729D01*
X169742420Y-130662729D02*
X169782826Y-130743541D01*
X169782826Y-130743541D02*
X169823232Y-130783947D01*
X169823232Y-130783947D02*
X169904045Y-130824353D01*
X169904045Y-130824353D02*
X169984857Y-130824353D01*
X169984857Y-130824353D02*
X170045466Y-130804150D01*
X170045466Y-130804150D02*
X170146481Y-130743541D01*
X170146481Y-130743541D02*
X170207090Y-130682932D01*
X170207090Y-130682932D02*
X170267700Y-130581916D01*
X170267700Y-130581916D02*
X170287903Y-130521307D01*
X170287903Y-130521307D02*
X170287903Y-130440495D01*
X170287903Y-130440495D02*
X170247496Y-130359683D01*
X170247496Y-130359683D02*
X170207090Y-130319277D01*
X170207090Y-130319277D02*
X170126278Y-130278871D01*
X170126278Y-130278871D02*
X170085872Y-130278871D01*
X169984857Y-130097043D02*
X169722217Y-129834403D01*
X169722217Y-129834403D02*
X169702014Y-130137449D01*
X169702014Y-130137449D02*
X169641405Y-130076840D01*
X169641405Y-130076840D02*
X169580796Y-130056637D01*
X169580796Y-130056637D02*
X169540390Y-130056637D01*
X169540390Y-130056637D02*
X169479781Y-130076840D01*
X169479781Y-130076840D02*
X169378765Y-130177855D01*
X169378765Y-130177855D02*
X169358562Y-130238464D01*
X169358562Y-130238464D02*
X169358562Y-130278871D01*
X169358562Y-130278871D02*
X169378765Y-130339480D01*
X169378765Y-130339480D02*
X169499984Y-130460698D01*
X169499984Y-130460698D02*
X169560593Y-130480901D01*
X169560593Y-130480901D02*
X169600999Y-130480901D01*
X168893892Y-129854606D02*
X169136328Y-130097043D01*
X169015110Y-129975824D02*
X169439374Y-129551560D01*
X169439374Y-129551560D02*
X169419171Y-129652576D01*
X169419171Y-129652576D02*
X169419171Y-129733388D01*
X169419171Y-129733388D02*
X169439374Y-129793997D01*
X168489830Y-129450545D02*
X168732267Y-129692981D01*
X168611049Y-129571763D02*
X169035313Y-129147499D01*
X169035313Y-129147499D02*
X169015110Y-129248514D01*
X169015110Y-129248514D02*
X169015110Y-129329327D01*
X169015110Y-129329327D02*
X169035313Y-129389936D01*
X140547628Y-125058571D02*
X140576200Y-125029999D01*
X140576200Y-125029999D02*
X140604771Y-124944285D01*
X140604771Y-124944285D02*
X140604771Y-124887142D01*
X140604771Y-124887142D02*
X140576200Y-124801428D01*
X140576200Y-124801428D02*
X140519057Y-124744285D01*
X140519057Y-124744285D02*
X140461914Y-124715714D01*
X140461914Y-124715714D02*
X140347628Y-124687142D01*
X140347628Y-124687142D02*
X140261914Y-124687142D01*
X140261914Y-124687142D02*
X140147628Y-124715714D01*
X140147628Y-124715714D02*
X140090485Y-124744285D01*
X140090485Y-124744285D02*
X140033342Y-124801428D01*
X140033342Y-124801428D02*
X140004771Y-124887142D01*
X140004771Y-124887142D02*
X140004771Y-124944285D01*
X140004771Y-124944285D02*
X140033342Y-125029999D01*
X140033342Y-125029999D02*
X140061914Y-125058571D01*
X140204771Y-125572857D02*
X140604771Y-125572857D01*
X139976200Y-125429999D02*
X140404771Y-125287142D01*
X140404771Y-125287142D02*
X140404771Y-125658571D01*
X140004771Y-126001428D02*
X140004771Y-126058571D01*
X140004771Y-126058571D02*
X140033342Y-126115714D01*
X140033342Y-126115714D02*
X140061914Y-126144286D01*
X140061914Y-126144286D02*
X140119057Y-126172857D01*
X140119057Y-126172857D02*
X140233342Y-126201428D01*
X140233342Y-126201428D02*
X140376200Y-126201428D01*
X140376200Y-126201428D02*
X140490485Y-126172857D01*
X140490485Y-126172857D02*
X140547628Y-126144286D01*
X140547628Y-126144286D02*
X140576200Y-126115714D01*
X140576200Y-126115714D02*
X140604771Y-126058571D01*
X140604771Y-126058571D02*
X140604771Y-126001428D01*
X140604771Y-126001428D02*
X140576200Y-125944286D01*
X140576200Y-125944286D02*
X140547628Y-125915714D01*
X140547628Y-125915714D02*
X140490485Y-125887143D01*
X140490485Y-125887143D02*
X140376200Y-125858571D01*
X140376200Y-125858571D02*
X140233342Y-125858571D01*
X140233342Y-125858571D02*
X140119057Y-125887143D01*
X140119057Y-125887143D02*
X140061914Y-125915714D01*
X140061914Y-125915714D02*
X140033342Y-125944286D01*
X140033342Y-125944286D02*
X140004771Y-126001428D01*
X140604771Y-126772857D02*
X140604771Y-126430000D01*
X140604771Y-126601429D02*
X140004771Y-126601429D01*
X140004771Y-126601429D02*
X140090485Y-126544286D01*
X140090485Y-126544286D02*
X140147628Y-126487143D01*
X140147628Y-126487143D02*
X140176200Y-126430000D01*
X170294171Y-19786571D02*
X170294171Y-20272285D01*
X170294171Y-20272285D02*
X170265600Y-20329428D01*
X170265600Y-20329428D02*
X170237029Y-20358000D01*
X170237029Y-20358000D02*
X170179886Y-20386571D01*
X170179886Y-20386571D02*
X170065600Y-20386571D01*
X170065600Y-20386571D02*
X170008457Y-20358000D01*
X170008457Y-20358000D02*
X169979886Y-20329428D01*
X169979886Y-20329428D02*
X169951314Y-20272285D01*
X169951314Y-20272285D02*
X169951314Y-19786571D01*
X169722743Y-19786571D02*
X169351315Y-19786571D01*
X169351315Y-19786571D02*
X169551315Y-20015142D01*
X169551315Y-20015142D02*
X169465600Y-20015142D01*
X169465600Y-20015142D02*
X169408458Y-20043714D01*
X169408458Y-20043714D02*
X169379886Y-20072285D01*
X169379886Y-20072285D02*
X169351315Y-20129428D01*
X169351315Y-20129428D02*
X169351315Y-20272285D01*
X169351315Y-20272285D02*
X169379886Y-20329428D01*
X169379886Y-20329428D02*
X169408458Y-20358000D01*
X169408458Y-20358000D02*
X169465600Y-20386571D01*
X169465600Y-20386571D02*
X169637029Y-20386571D01*
X169637029Y-20386571D02*
X169694172Y-20358000D01*
X169694172Y-20358000D02*
X169722743Y-20329428D01*
X168979886Y-19786571D02*
X168922743Y-19786571D01*
X168922743Y-19786571D02*
X168865600Y-19815142D01*
X168865600Y-19815142D02*
X168837029Y-19843714D01*
X168837029Y-19843714D02*
X168808457Y-19900857D01*
X168808457Y-19900857D02*
X168779886Y-20015142D01*
X168779886Y-20015142D02*
X168779886Y-20158000D01*
X168779886Y-20158000D02*
X168808457Y-20272285D01*
X168808457Y-20272285D02*
X168837029Y-20329428D01*
X168837029Y-20329428D02*
X168865600Y-20358000D01*
X168865600Y-20358000D02*
X168922743Y-20386571D01*
X168922743Y-20386571D02*
X168979886Y-20386571D01*
X168979886Y-20386571D02*
X169037029Y-20358000D01*
X169037029Y-20358000D02*
X169065600Y-20329428D01*
X169065600Y-20329428D02*
X169094171Y-20272285D01*
X169094171Y-20272285D02*
X169122743Y-20158000D01*
X169122743Y-20158000D02*
X169122743Y-20015142D01*
X169122743Y-20015142D02*
X169094171Y-19900857D01*
X169094171Y-19900857D02*
X169065600Y-19843714D01*
X169065600Y-19843714D02*
X169037029Y-19815142D01*
X169037029Y-19815142D02*
X168979886Y-19786571D01*
X168208457Y-20386571D02*
X168551314Y-20386571D01*
X168379885Y-20386571D02*
X168379885Y-19786571D01*
X168379885Y-19786571D02*
X168437028Y-19872285D01*
X168437028Y-19872285D02*
X168494171Y-19929428D01*
X168494171Y-19929428D02*
X168551314Y-19958000D01*
X176277873Y-135221079D02*
X176217263Y-134877627D01*
X176520309Y-134978642D02*
X176096045Y-134554378D01*
X176096045Y-134554378D02*
X175934421Y-134716003D01*
X175934421Y-134716003D02*
X175914218Y-134776612D01*
X175914218Y-134776612D02*
X175914218Y-134817018D01*
X175914218Y-134817018D02*
X175934421Y-134877627D01*
X175934421Y-134877627D02*
X175995030Y-134938236D01*
X175995030Y-134938236D02*
X176055639Y-134958439D01*
X176055639Y-134958439D02*
X176096045Y-134958439D01*
X176096045Y-134958439D02*
X176156654Y-134938236D01*
X176156654Y-134938236D02*
X176318279Y-134776612D01*
X175712187Y-134938236D02*
X175449547Y-135200876D01*
X175449547Y-135200876D02*
X175752593Y-135221079D01*
X175752593Y-135221079D02*
X175691984Y-135281688D01*
X175691984Y-135281688D02*
X175671781Y-135342297D01*
X175671781Y-135342297D02*
X175671781Y-135382703D01*
X175671781Y-135382703D02*
X175691984Y-135443312D01*
X175691984Y-135443312D02*
X175792999Y-135544328D01*
X175792999Y-135544328D02*
X175853608Y-135564531D01*
X175853608Y-135564531D02*
X175894015Y-135564531D01*
X175894015Y-135564531D02*
X175954624Y-135544328D01*
X175954624Y-135544328D02*
X176075842Y-135423109D01*
X176075842Y-135423109D02*
X176096045Y-135362500D01*
X176096045Y-135362500D02*
X176096045Y-135322094D01*
X175186907Y-135463516D02*
X175146501Y-135503922D01*
X175146501Y-135503922D02*
X175126298Y-135564531D01*
X175126298Y-135564531D02*
X175126298Y-135604937D01*
X175126298Y-135604937D02*
X175146501Y-135665546D01*
X175146501Y-135665546D02*
X175207111Y-135766562D01*
X175207111Y-135766562D02*
X175308126Y-135867577D01*
X175308126Y-135867577D02*
X175409141Y-135928186D01*
X175409141Y-135928186D02*
X175469750Y-135948389D01*
X175469750Y-135948389D02*
X175510156Y-135948389D01*
X175510156Y-135948389D02*
X175570765Y-135928186D01*
X175570765Y-135928186D02*
X175611172Y-135887780D01*
X175611172Y-135887780D02*
X175631375Y-135827171D01*
X175631375Y-135827171D02*
X175631375Y-135786765D01*
X175631375Y-135786765D02*
X175611172Y-135726155D01*
X175611172Y-135726155D02*
X175550562Y-135625140D01*
X175550562Y-135625140D02*
X175449547Y-135524125D01*
X175449547Y-135524125D02*
X175348532Y-135463516D01*
X175348532Y-135463516D02*
X175287923Y-135443313D01*
X175287923Y-135443313D02*
X175247517Y-135443313D01*
X175247517Y-135443313D02*
X175186907Y-135463516D01*
X174661628Y-135988795D02*
X174863658Y-135786765D01*
X174863658Y-135786765D02*
X175085892Y-135968592D01*
X175085892Y-135968592D02*
X175045486Y-135968592D01*
X175045486Y-135968592D02*
X174984877Y-135988795D01*
X174984877Y-135988795D02*
X174883861Y-136089811D01*
X174883861Y-136089811D02*
X174863658Y-136150420D01*
X174863658Y-136150420D02*
X174863658Y-136190826D01*
X174863658Y-136190826D02*
X174883861Y-136251435D01*
X174883861Y-136251435D02*
X174984877Y-136352450D01*
X174984877Y-136352450D02*
X175045486Y-136372653D01*
X175045486Y-136372653D02*
X175085892Y-136372653D01*
X175085892Y-136372653D02*
X175146501Y-136352450D01*
X175146501Y-136352450D02*
X175247516Y-136251435D01*
X175247516Y-136251435D02*
X175267719Y-136190826D01*
X175267719Y-136190826D02*
X175267719Y-136150420D01*
X172375428Y-17611628D02*
X172404000Y-17640200D01*
X172404000Y-17640200D02*
X172489714Y-17668771D01*
X172489714Y-17668771D02*
X172546857Y-17668771D01*
X172546857Y-17668771D02*
X172632571Y-17640200D01*
X172632571Y-17640200D02*
X172689714Y-17583057D01*
X172689714Y-17583057D02*
X172718285Y-17525914D01*
X172718285Y-17525914D02*
X172746857Y-17411628D01*
X172746857Y-17411628D02*
X172746857Y-17325914D01*
X172746857Y-17325914D02*
X172718285Y-17211628D01*
X172718285Y-17211628D02*
X172689714Y-17154485D01*
X172689714Y-17154485D02*
X172632571Y-17097342D01*
X172632571Y-17097342D02*
X172546857Y-17068771D01*
X172546857Y-17068771D02*
X172489714Y-17068771D01*
X172489714Y-17068771D02*
X172404000Y-17097342D01*
X172404000Y-17097342D02*
X172375428Y-17125914D01*
X172175428Y-17068771D02*
X171804000Y-17068771D01*
X171804000Y-17068771D02*
X172004000Y-17297342D01*
X172004000Y-17297342D02*
X171918285Y-17297342D01*
X171918285Y-17297342D02*
X171861143Y-17325914D01*
X171861143Y-17325914D02*
X171832571Y-17354485D01*
X171832571Y-17354485D02*
X171804000Y-17411628D01*
X171804000Y-17411628D02*
X171804000Y-17554485D01*
X171804000Y-17554485D02*
X171832571Y-17611628D01*
X171832571Y-17611628D02*
X171861143Y-17640200D01*
X171861143Y-17640200D02*
X171918285Y-17668771D01*
X171918285Y-17668771D02*
X172089714Y-17668771D01*
X172089714Y-17668771D02*
X172146857Y-17640200D01*
X172146857Y-17640200D02*
X172175428Y-17611628D01*
X171432571Y-17068771D02*
X171375428Y-17068771D01*
X171375428Y-17068771D02*
X171318285Y-17097342D01*
X171318285Y-17097342D02*
X171289714Y-17125914D01*
X171289714Y-17125914D02*
X171261142Y-17183057D01*
X171261142Y-17183057D02*
X171232571Y-17297342D01*
X171232571Y-17297342D02*
X171232571Y-17440200D01*
X171232571Y-17440200D02*
X171261142Y-17554485D01*
X171261142Y-17554485D02*
X171289714Y-17611628D01*
X171289714Y-17611628D02*
X171318285Y-17640200D01*
X171318285Y-17640200D02*
X171375428Y-17668771D01*
X171375428Y-17668771D02*
X171432571Y-17668771D01*
X171432571Y-17668771D02*
X171489714Y-17640200D01*
X171489714Y-17640200D02*
X171518285Y-17611628D01*
X171518285Y-17611628D02*
X171546856Y-17554485D01*
X171546856Y-17554485D02*
X171575428Y-17440200D01*
X171575428Y-17440200D02*
X171575428Y-17297342D01*
X171575428Y-17297342D02*
X171546856Y-17183057D01*
X171546856Y-17183057D02*
X171518285Y-17125914D01*
X171518285Y-17125914D02*
X171489714Y-17097342D01*
X171489714Y-17097342D02*
X171432571Y-17068771D01*
X170718285Y-17068771D02*
X170832570Y-17068771D01*
X170832570Y-17068771D02*
X170889713Y-17097342D01*
X170889713Y-17097342D02*
X170918285Y-17125914D01*
X170918285Y-17125914D02*
X170975427Y-17211628D01*
X170975427Y-17211628D02*
X171003999Y-17325914D01*
X171003999Y-17325914D02*
X171003999Y-17554485D01*
X171003999Y-17554485D02*
X170975427Y-17611628D01*
X170975427Y-17611628D02*
X170946856Y-17640200D01*
X170946856Y-17640200D02*
X170889713Y-17668771D01*
X170889713Y-17668771D02*
X170775427Y-17668771D01*
X170775427Y-17668771D02*
X170718285Y-17640200D01*
X170718285Y-17640200D02*
X170689713Y-17611628D01*
X170689713Y-17611628D02*
X170661142Y-17554485D01*
X170661142Y-17554485D02*
X170661142Y-17411628D01*
X170661142Y-17411628D02*
X170689713Y-17354485D01*
X170689713Y-17354485D02*
X170718285Y-17325914D01*
X170718285Y-17325914D02*
X170775427Y-17297342D01*
X170775427Y-17297342D02*
X170889713Y-17297342D01*
X170889713Y-17297342D02*
X170946856Y-17325914D01*
X170946856Y-17325914D02*
X170975427Y-17354485D01*
X170975427Y-17354485D02*
X171003999Y-17411628D01*
X184972953Y-120030761D02*
X184912343Y-119687309D01*
X185215389Y-119788324D02*
X184791125Y-119364060D01*
X184791125Y-119364060D02*
X184629501Y-119525685D01*
X184629501Y-119525685D02*
X184609298Y-119586294D01*
X184609298Y-119586294D02*
X184609298Y-119626700D01*
X184609298Y-119626700D02*
X184629501Y-119687309D01*
X184629501Y-119687309D02*
X184690110Y-119747918D01*
X184690110Y-119747918D02*
X184750719Y-119768121D01*
X184750719Y-119768121D02*
X184791125Y-119768121D01*
X184791125Y-119768121D02*
X184851734Y-119747918D01*
X184851734Y-119747918D02*
X185013359Y-119586294D01*
X184407267Y-119747918D02*
X184144627Y-120010558D01*
X184144627Y-120010558D02*
X184447673Y-120030761D01*
X184447673Y-120030761D02*
X184387064Y-120091370D01*
X184387064Y-120091370D02*
X184366861Y-120151979D01*
X184366861Y-120151979D02*
X184366861Y-120192385D01*
X184366861Y-120192385D02*
X184387064Y-120252994D01*
X184387064Y-120252994D02*
X184488079Y-120354010D01*
X184488079Y-120354010D02*
X184548688Y-120374213D01*
X184548688Y-120374213D02*
X184589095Y-120374213D01*
X184589095Y-120374213D02*
X184649704Y-120354010D01*
X184649704Y-120354010D02*
X184770922Y-120232791D01*
X184770922Y-120232791D02*
X184791125Y-120172182D01*
X184791125Y-120172182D02*
X184791125Y-120131776D01*
X184164830Y-120838883D02*
X184407267Y-120596447D01*
X184286048Y-120717665D02*
X183861784Y-120293401D01*
X183861784Y-120293401D02*
X183962800Y-120313604D01*
X183962800Y-120313604D02*
X184043612Y-120313604D01*
X184043612Y-120313604D02*
X184104221Y-120293401D01*
X183477926Y-120677259D02*
X183437520Y-120717665D01*
X183437520Y-120717665D02*
X183417317Y-120778274D01*
X183417317Y-120778274D02*
X183417317Y-120818681D01*
X183417317Y-120818681D02*
X183437520Y-120879290D01*
X183437520Y-120879290D02*
X183498129Y-120980305D01*
X183498129Y-120980305D02*
X183599144Y-121081320D01*
X183599144Y-121081320D02*
X183700160Y-121141929D01*
X183700160Y-121141929D02*
X183760769Y-121162132D01*
X183760769Y-121162132D02*
X183801175Y-121162132D01*
X183801175Y-121162132D02*
X183861784Y-121141929D01*
X183861784Y-121141929D02*
X183902190Y-121101523D01*
X183902190Y-121101523D02*
X183922393Y-121040914D01*
X183922393Y-121040914D02*
X183922393Y-121000508D01*
X183922393Y-121000508D02*
X183902190Y-120939899D01*
X183902190Y-120939899D02*
X183841581Y-120838884D01*
X183841581Y-120838884D02*
X183740566Y-120737868D01*
X183740566Y-120737868D02*
X183639551Y-120677259D01*
X183639551Y-120677259D02*
X183578941Y-120657056D01*
X183578941Y-120657056D02*
X183538535Y-120657056D01*
X183538535Y-120657056D02*
X183477926Y-120677259D01*
X175682764Y-140346615D02*
X175682764Y-140387022D01*
X175682764Y-140387022D02*
X175723170Y-140467834D01*
X175723170Y-140467834D02*
X175763576Y-140508240D01*
X175763576Y-140508240D02*
X175844389Y-140548646D01*
X175844389Y-140548646D02*
X175925201Y-140548646D01*
X175925201Y-140548646D02*
X175985810Y-140528443D01*
X175985810Y-140528443D02*
X176086825Y-140467834D01*
X176086825Y-140467834D02*
X176147434Y-140407225D01*
X176147434Y-140407225D02*
X176208044Y-140306209D01*
X176208044Y-140306209D02*
X176228247Y-140245600D01*
X176228247Y-140245600D02*
X176228247Y-140164788D01*
X176228247Y-140164788D02*
X176187840Y-140083976D01*
X176187840Y-140083976D02*
X176147434Y-140043570D01*
X176147434Y-140043570D02*
X176066622Y-140003164D01*
X176066622Y-140003164D02*
X176026216Y-140003164D01*
X175925201Y-139821336D02*
X175662561Y-139558696D01*
X175662561Y-139558696D02*
X175642358Y-139861742D01*
X175642358Y-139861742D02*
X175581749Y-139801133D01*
X175581749Y-139801133D02*
X175521140Y-139780930D01*
X175521140Y-139780930D02*
X175480734Y-139780930D01*
X175480734Y-139780930D02*
X175420125Y-139801133D01*
X175420125Y-139801133D02*
X175319109Y-139902148D01*
X175319109Y-139902148D02*
X175298906Y-139962757D01*
X175298906Y-139962757D02*
X175298906Y-140003164D01*
X175298906Y-140003164D02*
X175319109Y-140063773D01*
X175319109Y-140063773D02*
X175440328Y-140184991D01*
X175440328Y-140184991D02*
X175500937Y-140205194D01*
X175500937Y-140205194D02*
X175541343Y-140205194D01*
X175399921Y-139296056D02*
X175359515Y-139255650D01*
X175359515Y-139255650D02*
X175298906Y-139235447D01*
X175298906Y-139235447D02*
X175258500Y-139235447D01*
X175258500Y-139235447D02*
X175197891Y-139255650D01*
X175197891Y-139255650D02*
X175096875Y-139316260D01*
X175096875Y-139316260D02*
X174995860Y-139417275D01*
X174995860Y-139417275D02*
X174935251Y-139518290D01*
X174935251Y-139518290D02*
X174915048Y-139578899D01*
X174915048Y-139578899D02*
X174915048Y-139619305D01*
X174915048Y-139619305D02*
X174935251Y-139679914D01*
X174935251Y-139679914D02*
X174975657Y-139720321D01*
X174975657Y-139720321D02*
X175036266Y-139740524D01*
X175036266Y-139740524D02*
X175076672Y-139740524D01*
X175076672Y-139740524D02*
X175137282Y-139720321D01*
X175137282Y-139720321D02*
X175238297Y-139659711D01*
X175238297Y-139659711D02*
X175339312Y-139558696D01*
X175339312Y-139558696D02*
X175399921Y-139457681D01*
X175399921Y-139457681D02*
X175420124Y-139397072D01*
X175420124Y-139397072D02*
X175420124Y-139356666D01*
X175420124Y-139356666D02*
X175399921Y-139296056D01*
X174834235Y-139094026D02*
X174894845Y-139114229D01*
X174894845Y-139114229D02*
X174935251Y-139114229D01*
X174935251Y-139114229D02*
X174995860Y-139094026D01*
X174995860Y-139094026D02*
X175016063Y-139073823D01*
X175016063Y-139073823D02*
X175036266Y-139013213D01*
X175036266Y-139013213D02*
X175036266Y-138972807D01*
X175036266Y-138972807D02*
X175016063Y-138912198D01*
X175016063Y-138912198D02*
X174935251Y-138831386D01*
X174935251Y-138831386D02*
X174874642Y-138811183D01*
X174874642Y-138811183D02*
X174834235Y-138811183D01*
X174834235Y-138811183D02*
X174773626Y-138831386D01*
X174773626Y-138831386D02*
X174753423Y-138851589D01*
X174753423Y-138851589D02*
X174733220Y-138912198D01*
X174733220Y-138912198D02*
X174733220Y-138952604D01*
X174733220Y-138952604D02*
X174753423Y-139013213D01*
X174753423Y-139013213D02*
X174834235Y-139094026D01*
X174834235Y-139094026D02*
X174854438Y-139154635D01*
X174854438Y-139154635D02*
X174854438Y-139195041D01*
X174854438Y-139195041D02*
X174834235Y-139255650D01*
X174834235Y-139255650D02*
X174753423Y-139336462D01*
X174753423Y-139336462D02*
X174692814Y-139356665D01*
X174692814Y-139356665D02*
X174652408Y-139356665D01*
X174652408Y-139356665D02*
X174591799Y-139336462D01*
X174591799Y-139336462D02*
X174510987Y-139255650D01*
X174510987Y-139255650D02*
X174490784Y-139195041D01*
X174490784Y-139195041D02*
X174490784Y-139154635D01*
X174490784Y-139154635D02*
X174510987Y-139094026D01*
X174510987Y-139094026D02*
X174591799Y-139013213D01*
X174591799Y-139013213D02*
X174652408Y-138993010D01*
X174652408Y-138993010D02*
X174692814Y-138993010D01*
X174692814Y-138993010D02*
X174753423Y-139013213D01*
X189520428Y-24399771D02*
X189720428Y-24114057D01*
X189863285Y-24399771D02*
X189863285Y-23799771D01*
X189863285Y-23799771D02*
X189634714Y-23799771D01*
X189634714Y-23799771D02*
X189577571Y-23828342D01*
X189577571Y-23828342D02*
X189549000Y-23856914D01*
X189549000Y-23856914D02*
X189520428Y-23914057D01*
X189520428Y-23914057D02*
X189520428Y-23999771D01*
X189520428Y-23999771D02*
X189549000Y-24056914D01*
X189549000Y-24056914D02*
X189577571Y-24085485D01*
X189577571Y-24085485D02*
X189634714Y-24114057D01*
X189634714Y-24114057D02*
X189863285Y-24114057D01*
X189320428Y-23799771D02*
X188949000Y-23799771D01*
X188949000Y-23799771D02*
X189149000Y-24028342D01*
X189149000Y-24028342D02*
X189063285Y-24028342D01*
X189063285Y-24028342D02*
X189006143Y-24056914D01*
X189006143Y-24056914D02*
X188977571Y-24085485D01*
X188977571Y-24085485D02*
X188949000Y-24142628D01*
X188949000Y-24142628D02*
X188949000Y-24285485D01*
X188949000Y-24285485D02*
X188977571Y-24342628D01*
X188977571Y-24342628D02*
X189006143Y-24371200D01*
X189006143Y-24371200D02*
X189063285Y-24399771D01*
X189063285Y-24399771D02*
X189234714Y-24399771D01*
X189234714Y-24399771D02*
X189291857Y-24371200D01*
X189291857Y-24371200D02*
X189320428Y-24342628D01*
X188577571Y-23799771D02*
X188520428Y-23799771D01*
X188520428Y-23799771D02*
X188463285Y-23828342D01*
X188463285Y-23828342D02*
X188434714Y-23856914D01*
X188434714Y-23856914D02*
X188406142Y-23914057D01*
X188406142Y-23914057D02*
X188377571Y-24028342D01*
X188377571Y-24028342D02*
X188377571Y-24171200D01*
X188377571Y-24171200D02*
X188406142Y-24285485D01*
X188406142Y-24285485D02*
X188434714Y-24342628D01*
X188434714Y-24342628D02*
X188463285Y-24371200D01*
X188463285Y-24371200D02*
X188520428Y-24399771D01*
X188520428Y-24399771D02*
X188577571Y-24399771D01*
X188577571Y-24399771D02*
X188634714Y-24371200D01*
X188634714Y-24371200D02*
X188663285Y-24342628D01*
X188663285Y-24342628D02*
X188691856Y-24285485D01*
X188691856Y-24285485D02*
X188720428Y-24171200D01*
X188720428Y-24171200D02*
X188720428Y-24028342D01*
X188720428Y-24028342D02*
X188691856Y-23914057D01*
X188691856Y-23914057D02*
X188663285Y-23856914D01*
X188663285Y-23856914D02*
X188634714Y-23828342D01*
X188634714Y-23828342D02*
X188577571Y-23799771D01*
X188148999Y-23856914D02*
X188120427Y-23828342D01*
X188120427Y-23828342D02*
X188063285Y-23799771D01*
X188063285Y-23799771D02*
X187920427Y-23799771D01*
X187920427Y-23799771D02*
X187863285Y-23828342D01*
X187863285Y-23828342D02*
X187834713Y-23856914D01*
X187834713Y-23856914D02*
X187806142Y-23914057D01*
X187806142Y-23914057D02*
X187806142Y-23971200D01*
X187806142Y-23971200D02*
X187834713Y-24056914D01*
X187834713Y-24056914D02*
X188177570Y-24399771D01*
X188177570Y-24399771D02*
X187806142Y-24399771D01*
X172780229Y-16230571D02*
X172780229Y-16659142D01*
X172780229Y-16659142D02*
X172808800Y-16744857D01*
X172808800Y-16744857D02*
X172865943Y-16802000D01*
X172865943Y-16802000D02*
X172951657Y-16830571D01*
X172951657Y-16830571D02*
X173008800Y-16830571D01*
X172551657Y-16230571D02*
X172180229Y-16230571D01*
X172180229Y-16230571D02*
X172380229Y-16459142D01*
X172380229Y-16459142D02*
X172294514Y-16459142D01*
X172294514Y-16459142D02*
X172237372Y-16487714D01*
X172237372Y-16487714D02*
X172208800Y-16516285D01*
X172208800Y-16516285D02*
X172180229Y-16573428D01*
X172180229Y-16573428D02*
X172180229Y-16716285D01*
X172180229Y-16716285D02*
X172208800Y-16773428D01*
X172208800Y-16773428D02*
X172237372Y-16802000D01*
X172237372Y-16802000D02*
X172294514Y-16830571D01*
X172294514Y-16830571D02*
X172465943Y-16830571D01*
X172465943Y-16830571D02*
X172523086Y-16802000D01*
X172523086Y-16802000D02*
X172551657Y-16773428D01*
X171808800Y-16230571D02*
X171751657Y-16230571D01*
X171751657Y-16230571D02*
X171694514Y-16259142D01*
X171694514Y-16259142D02*
X171665943Y-16287714D01*
X171665943Y-16287714D02*
X171637371Y-16344857D01*
X171637371Y-16344857D02*
X171608800Y-16459142D01*
X171608800Y-16459142D02*
X171608800Y-16602000D01*
X171608800Y-16602000D02*
X171637371Y-16716285D01*
X171637371Y-16716285D02*
X171665943Y-16773428D01*
X171665943Y-16773428D02*
X171694514Y-16802000D01*
X171694514Y-16802000D02*
X171751657Y-16830571D01*
X171751657Y-16830571D02*
X171808800Y-16830571D01*
X171808800Y-16830571D02*
X171865943Y-16802000D01*
X171865943Y-16802000D02*
X171894514Y-16773428D01*
X171894514Y-16773428D02*
X171923085Y-16716285D01*
X171923085Y-16716285D02*
X171951657Y-16602000D01*
X171951657Y-16602000D02*
X171951657Y-16459142D01*
X171951657Y-16459142D02*
X171923085Y-16344857D01*
X171923085Y-16344857D02*
X171894514Y-16287714D01*
X171894514Y-16287714D02*
X171865943Y-16259142D01*
X171865943Y-16259142D02*
X171808800Y-16230571D01*
X171037371Y-16830571D02*
X171380228Y-16830571D01*
X171208799Y-16830571D02*
X171208799Y-16230571D01*
X171208799Y-16230571D02*
X171265942Y-16316285D01*
X171265942Y-16316285D02*
X171323085Y-16373428D01*
X171323085Y-16373428D02*
X171380228Y-16402000D01*
X165009428Y-24196571D02*
X165209428Y-23910857D01*
X165352285Y-24196571D02*
X165352285Y-23596571D01*
X165352285Y-23596571D02*
X165123714Y-23596571D01*
X165123714Y-23596571D02*
X165066571Y-23625142D01*
X165066571Y-23625142D02*
X165038000Y-23653714D01*
X165038000Y-23653714D02*
X165009428Y-23710857D01*
X165009428Y-23710857D02*
X165009428Y-23796571D01*
X165009428Y-23796571D02*
X165038000Y-23853714D01*
X165038000Y-23853714D02*
X165066571Y-23882285D01*
X165066571Y-23882285D02*
X165123714Y-23910857D01*
X165123714Y-23910857D02*
X165352285Y-23910857D01*
X164809428Y-23596571D02*
X164438000Y-23596571D01*
X164438000Y-23596571D02*
X164638000Y-23825142D01*
X164638000Y-23825142D02*
X164552285Y-23825142D01*
X164552285Y-23825142D02*
X164495143Y-23853714D01*
X164495143Y-23853714D02*
X164466571Y-23882285D01*
X164466571Y-23882285D02*
X164438000Y-23939428D01*
X164438000Y-23939428D02*
X164438000Y-24082285D01*
X164438000Y-24082285D02*
X164466571Y-24139428D01*
X164466571Y-24139428D02*
X164495143Y-24168000D01*
X164495143Y-24168000D02*
X164552285Y-24196571D01*
X164552285Y-24196571D02*
X164723714Y-24196571D01*
X164723714Y-24196571D02*
X164780857Y-24168000D01*
X164780857Y-24168000D02*
X164809428Y-24139428D01*
X163866571Y-24196571D02*
X164209428Y-24196571D01*
X164037999Y-24196571D02*
X164037999Y-23596571D01*
X164037999Y-23596571D02*
X164095142Y-23682285D01*
X164095142Y-23682285D02*
X164152285Y-23739428D01*
X164152285Y-23739428D02*
X164209428Y-23768000D01*
X163637999Y-23653714D02*
X163609427Y-23625142D01*
X163609427Y-23625142D02*
X163552285Y-23596571D01*
X163552285Y-23596571D02*
X163409427Y-23596571D01*
X163409427Y-23596571D02*
X163352285Y-23625142D01*
X163352285Y-23625142D02*
X163323713Y-23653714D01*
X163323713Y-23653714D02*
X163295142Y-23710857D01*
X163295142Y-23710857D02*
X163295142Y-23768000D01*
X163295142Y-23768000D02*
X163323713Y-23853714D01*
X163323713Y-23853714D02*
X163666570Y-24196571D01*
X163666570Y-24196571D02*
X163295142Y-24196571D01*
X173004529Y-132938985D02*
X172943919Y-132595533D01*
X173246965Y-132696548D02*
X172822701Y-132272284D01*
X172822701Y-132272284D02*
X172661077Y-132433909D01*
X172661077Y-132433909D02*
X172640874Y-132494518D01*
X172640874Y-132494518D02*
X172640874Y-132534924D01*
X172640874Y-132534924D02*
X172661077Y-132595533D01*
X172661077Y-132595533D02*
X172721686Y-132656142D01*
X172721686Y-132656142D02*
X172782295Y-132676345D01*
X172782295Y-132676345D02*
X172822701Y-132676345D01*
X172822701Y-132676345D02*
X172883310Y-132656142D01*
X172883310Y-132656142D02*
X173044935Y-132494518D01*
X172438843Y-132656142D02*
X172176203Y-132918782D01*
X172176203Y-132918782D02*
X172479249Y-132938985D01*
X172479249Y-132938985D02*
X172418640Y-132999594D01*
X172418640Y-132999594D02*
X172398437Y-133060203D01*
X172398437Y-133060203D02*
X172398437Y-133100609D01*
X172398437Y-133100609D02*
X172418640Y-133161218D01*
X172418640Y-133161218D02*
X172519655Y-133262234D01*
X172519655Y-133262234D02*
X172580264Y-133282437D01*
X172580264Y-133282437D02*
X172620671Y-133282437D01*
X172620671Y-133282437D02*
X172681280Y-133262234D01*
X172681280Y-133262234D02*
X172802498Y-133141015D01*
X172802498Y-133141015D02*
X172822701Y-133080406D01*
X172822701Y-133080406D02*
X172822701Y-133040000D01*
X171913563Y-133181422D02*
X171873157Y-133221828D01*
X171873157Y-133221828D02*
X171852954Y-133282437D01*
X171852954Y-133282437D02*
X171852954Y-133322843D01*
X171852954Y-133322843D02*
X171873157Y-133383452D01*
X171873157Y-133383452D02*
X171933767Y-133484468D01*
X171933767Y-133484468D02*
X172034782Y-133585483D01*
X172034782Y-133585483D02*
X172135797Y-133646092D01*
X172135797Y-133646092D02*
X172196406Y-133666295D01*
X172196406Y-133666295D02*
X172236812Y-133666295D01*
X172236812Y-133666295D02*
X172297421Y-133646092D01*
X172297421Y-133646092D02*
X172337828Y-133605686D01*
X172337828Y-133605686D02*
X172358031Y-133545077D01*
X172358031Y-133545077D02*
X172358031Y-133504671D01*
X172358031Y-133504671D02*
X172337828Y-133444061D01*
X172337828Y-133444061D02*
X172277218Y-133343046D01*
X172277218Y-133343046D02*
X172176203Y-133242031D01*
X172176203Y-133242031D02*
X172075188Y-133181422D01*
X172075188Y-133181422D02*
X172014579Y-133161219D01*
X172014579Y-133161219D02*
X171974173Y-133161219D01*
X171974173Y-133161219D02*
X171913563Y-133181422D01*
X171549908Y-133827920D02*
X171832751Y-134110762D01*
X171489299Y-133565280D02*
X171893360Y-133767311D01*
X171893360Y-133767311D02*
X171630720Y-134029950D01*
X171567965Y-136079415D02*
X171567965Y-136119822D01*
X171567965Y-136119822D02*
X171608371Y-136200634D01*
X171608371Y-136200634D02*
X171648777Y-136241040D01*
X171648777Y-136241040D02*
X171729590Y-136281446D01*
X171729590Y-136281446D02*
X171810402Y-136281446D01*
X171810402Y-136281446D02*
X171871011Y-136261243D01*
X171871011Y-136261243D02*
X171972026Y-136200634D01*
X171972026Y-136200634D02*
X172032635Y-136140025D01*
X172032635Y-136140025D02*
X172093245Y-136039009D01*
X172093245Y-136039009D02*
X172113448Y-135978400D01*
X172113448Y-135978400D02*
X172113448Y-135897588D01*
X172113448Y-135897588D02*
X172073041Y-135816776D01*
X172073041Y-135816776D02*
X172032635Y-135776370D01*
X172032635Y-135776370D02*
X171951823Y-135735964D01*
X171951823Y-135735964D02*
X171911417Y-135735964D01*
X171810402Y-135554136D02*
X171547762Y-135291496D01*
X171547762Y-135291496D02*
X171527559Y-135594542D01*
X171527559Y-135594542D02*
X171466950Y-135533933D01*
X171466950Y-135533933D02*
X171406341Y-135513730D01*
X171406341Y-135513730D02*
X171365935Y-135513730D01*
X171365935Y-135513730D02*
X171305326Y-135533933D01*
X171305326Y-135533933D02*
X171204310Y-135634948D01*
X171204310Y-135634948D02*
X171184107Y-135695557D01*
X171184107Y-135695557D02*
X171184107Y-135735964D01*
X171184107Y-135735964D02*
X171204310Y-135796573D01*
X171204310Y-135796573D02*
X171325529Y-135917791D01*
X171325529Y-135917791D02*
X171386138Y-135937994D01*
X171386138Y-135937994D02*
X171426544Y-135937994D01*
X171285122Y-135028856D02*
X171244716Y-134988450D01*
X171244716Y-134988450D02*
X171184107Y-134968247D01*
X171184107Y-134968247D02*
X171143701Y-134968247D01*
X171143701Y-134968247D02*
X171083092Y-134988450D01*
X171083092Y-134988450D02*
X170982076Y-135049060D01*
X170982076Y-135049060D02*
X170881061Y-135150075D01*
X170881061Y-135150075D02*
X170820452Y-135251090D01*
X170820452Y-135251090D02*
X170800249Y-135311699D01*
X170800249Y-135311699D02*
X170800249Y-135352105D01*
X170800249Y-135352105D02*
X170820452Y-135412714D01*
X170820452Y-135412714D02*
X170860858Y-135453121D01*
X170860858Y-135453121D02*
X170921467Y-135473324D01*
X170921467Y-135473324D02*
X170961873Y-135473324D01*
X170961873Y-135473324D02*
X171022483Y-135453121D01*
X171022483Y-135453121D02*
X171123498Y-135392511D01*
X171123498Y-135392511D02*
X171224513Y-135291496D01*
X171224513Y-135291496D02*
X171285122Y-135190481D01*
X171285122Y-135190481D02*
X171305325Y-135129872D01*
X171305325Y-135129872D02*
X171305325Y-135089466D01*
X171305325Y-135089466D02*
X171285122Y-135028856D01*
X170517406Y-135109668D02*
X170436594Y-135028856D01*
X170436594Y-135028856D02*
X170416391Y-134968247D01*
X170416391Y-134968247D02*
X170416391Y-134927841D01*
X170416391Y-134927841D02*
X170436594Y-134826826D01*
X170436594Y-134826826D02*
X170497203Y-134725810D01*
X170497203Y-134725810D02*
X170658827Y-134564186D01*
X170658827Y-134564186D02*
X170719436Y-134543983D01*
X170719436Y-134543983D02*
X170759843Y-134543983D01*
X170759843Y-134543983D02*
X170820452Y-134564186D01*
X170820452Y-134564186D02*
X170901264Y-134644998D01*
X170901264Y-134644998D02*
X170921467Y-134705607D01*
X170921467Y-134705607D02*
X170921467Y-134746013D01*
X170921467Y-134746013D02*
X170901264Y-134806623D01*
X170901264Y-134806623D02*
X170800249Y-134907638D01*
X170800249Y-134907638D02*
X170739639Y-134927841D01*
X170739639Y-134927841D02*
X170699233Y-134927841D01*
X170699233Y-134927841D02*
X170638624Y-134907638D01*
X170638624Y-134907638D02*
X170557812Y-134826826D01*
X170557812Y-134826826D02*
X170537609Y-134766216D01*
X170537609Y-134766216D02*
X170537609Y-134725810D01*
X170537609Y-134725810D02*
X170557812Y-134665201D01*
D13*
%TO.C,SW215*%
X299988800Y-26120000D02*
X305088800Y-26120000D01*
X303888800Y-30320000D02*
X308988800Y-30320000D01*
X297988800Y-28120000D02*
G75*
G02*
X299988800Y-26120000I1999999J1D01*
G01*
X301888800Y-32320000D02*
G75*
G02*
X303888800Y-30320000I1999999J1D01*
G01*
%TO.C,SW236*%
X157113800Y-64220000D02*
X162213800Y-64220000D01*
X161013800Y-68420000D02*
X166113800Y-68420000D01*
X155113800Y-66220000D02*
G75*
G02*
X157113800Y-64220000I1999999J1D01*
G01*
X159013800Y-70420000D02*
G75*
G02*
X161013800Y-68420000I1999999J1D01*
G01*
%TO.C,SW204*%
X90438800Y-26120000D02*
X95538800Y-26120000D01*
X94338800Y-30320000D02*
X99438800Y-30320000D01*
X88438800Y-28120000D02*
G75*
G02*
X90438800Y-26120000I1999999J1D01*
G01*
X92338800Y-32320000D02*
G75*
G02*
X94338800Y-30320000I1999999J1D01*
G01*
%TO.C,SW279*%
X319038800Y-121370000D02*
X324138800Y-121370000D01*
X322938800Y-125570000D02*
X328038800Y-125570000D01*
X317038800Y-123370000D02*
G75*
G02*
X319038800Y-121370000I1999999J1D01*
G01*
X320938800Y-127570000D02*
G75*
G02*
X322938800Y-125570000I1999999J1D01*
G01*
%TO.C,SW273*%
X147588800Y-121370000D02*
X152688800Y-121370000D01*
X151488800Y-125570000D02*
X156588800Y-125570000D01*
X145588800Y-123370000D02*
G75*
G02*
X147588800Y-121370000I1999999J1D01*
G01*
X149488800Y-127570000D02*
G75*
G02*
X151488800Y-125570000I1999999J1D01*
G01*
%TO.C,SW228*%
X261888800Y-45170000D02*
X266988800Y-45170000D01*
X265788800Y-49370000D02*
X270888800Y-49370000D01*
X259888800Y-47170000D02*
G75*
G02*
X261888800Y-45170000I1999999J1D01*
G01*
X263788800Y-51370000D02*
G75*
G02*
X265788800Y-49370000I1999999J1D01*
G01*
%TO.C,SW242*%
X271413800Y-64220000D02*
X276513800Y-64220000D01*
X275313800Y-68420000D02*
X280413800Y-68420000D01*
X269413800Y-66220000D02*
G75*
G02*
X271413800Y-64220000I1999999J1D01*
G01*
X273313800Y-70420000D02*
G75*
G02*
X275313800Y-68420000I1999999J1D01*
G01*
%TO.C,SW220*%
X109488800Y-45170000D02*
X114588800Y-45170000D01*
X113388800Y-49370000D02*
X118488800Y-49370000D01*
X107488800Y-47170000D02*
G75*
G02*
X109488800Y-45170000I1999999J1D01*
G01*
X111388800Y-51370000D02*
G75*
G02*
X113388800Y-49370000I1999999J1D01*
G01*
%TO.C,SW223*%
X166638800Y-45170000D02*
X171738800Y-45170000D01*
X170538800Y-49370000D02*
X175638800Y-49370000D01*
X164638800Y-47170000D02*
G75*
G02*
X166638800Y-45170000I1999999J1D01*
G01*
X168538800Y-51370000D02*
G75*
G02*
X170538800Y-49370000I1999999J1D01*
G01*
%TO.C,SW257*%
X45195050Y-102320000D02*
X50295050Y-102320000D01*
X49095050Y-106520000D02*
X54195050Y-106520000D01*
X43195050Y-104320000D02*
G75*
G02*
X45195050Y-102320000I1999999J1D01*
G01*
X47095050Y-108520000D02*
G75*
G02*
X49095050Y-106520000I1999999J1D01*
G01*
%TO.C,SW268*%
X273795050Y-102320000D02*
X278895050Y-102320000D01*
X277695050Y-106520000D02*
X282795050Y-106520000D01*
X271795050Y-104320000D02*
G75*
G02*
X273795050Y-102320000I1999999J1D01*
G01*
X275695050Y-108520000D02*
G75*
G02*
X277695050Y-106520000I1999999J1D01*
G01*
%TO.C,SW278*%
X299988800Y-121370000D02*
X305088800Y-121370000D01*
X303888800Y-125570000D02*
X308988800Y-125570000D01*
X297988800Y-123370000D02*
G75*
G02*
X299988800Y-121370000I1999999J1D01*
G01*
X301888800Y-127570000D02*
G75*
G02*
X303888800Y-125570000I1999999J1D01*
G01*
%TO.C,SW254*%
X238076300Y-83270000D02*
X243176300Y-83270000D01*
X241976300Y-87470000D02*
X247076300Y-87470000D01*
X236076300Y-85270000D02*
G75*
G02*
X238076300Y-83270000I1999999J1D01*
G01*
X239976300Y-89470000D02*
G75*
G02*
X241976300Y-87470000I1999999J1D01*
G01*
%TO.C,SW277*%
X280938800Y-121370000D02*
X286038800Y-121370000D01*
X284838800Y-125570000D02*
X289938800Y-125570000D01*
X278938800Y-123370000D02*
G75*
G02*
X280938800Y-121370000I1999999J1D01*
G01*
X282838800Y-127570000D02*
G75*
G02*
X284838800Y-125570000I1999999J1D01*
G01*
%TO.C,SW218*%
X71388800Y-45170000D02*
X76488800Y-45170000D01*
X75288800Y-49370000D02*
X80388800Y-49370000D01*
X69388800Y-47170000D02*
G75*
G02*
X71388800Y-45170000I1999999J1D01*
G01*
X73288800Y-51370000D02*
G75*
G02*
X75288800Y-49370000I1999999J1D01*
G01*
%TO.C,SW251*%
X180926300Y-83270000D02*
X186026300Y-83270000D01*
X184826300Y-87470000D02*
X189926300Y-87470000D01*
X178926300Y-85270000D02*
G75*
G02*
X180926300Y-83270000I1999999J1D01*
G01*
X182826300Y-89470000D02*
G75*
G02*
X184826300Y-87470000I1999999J1D01*
G01*
%TO.C,SW209*%
X185688800Y-26120000D02*
X190788800Y-26120000D01*
X189588800Y-30320000D02*
X194688800Y-30320000D01*
X183688800Y-28120000D02*
G75*
G02*
X185688800Y-26120000I1999999J1D01*
G01*
X187588800Y-32320000D02*
G75*
G02*
X189588800Y-30320000I1999999J1D01*
G01*
%TO.C,SW224*%
X185688800Y-45170000D02*
X190788800Y-45170000D01*
X189588800Y-49370000D02*
X194688800Y-49370000D01*
X183688800Y-47170000D02*
G75*
G02*
X185688800Y-45170000I1999999J1D01*
G01*
X187588800Y-51370000D02*
G75*
G02*
X189588800Y-49370000I1999999J1D01*
G01*
%TO.C,SW256*%
X288082550Y-83270000D02*
X293182550Y-83270000D01*
X291982550Y-87470000D02*
X297082550Y-87470000D01*
X286082550Y-85270000D02*
G75*
G02*
X288082550Y-83270000I1999999J1D01*
G01*
X289982550Y-89470000D02*
G75*
G02*
X291982550Y-87470000I1999999J1D01*
G01*
%TO.C,SW271*%
X57101300Y-121370000D02*
X62201300Y-121370000D01*
X61001300Y-125570000D02*
X66101300Y-125570000D01*
X55101300Y-123370000D02*
G75*
G02*
X57101300Y-121370000I1999999J1D01*
G01*
X59001300Y-127570000D02*
G75*
G02*
X61001300Y-125570000I1999999J1D01*
G01*
%TO.C,SW259*%
X95201300Y-102320000D02*
X100301300Y-102320000D01*
X99101300Y-106520000D02*
X104201300Y-106520000D01*
X93201300Y-104320000D02*
G75*
G02*
X95201300Y-102320000I1999999J1D01*
G01*
X97101300Y-108520000D02*
G75*
G02*
X99101300Y-106520000I1999999J1D01*
G01*
%TO.C,SW241*%
X252363800Y-64220000D02*
X257463800Y-64220000D01*
X256263800Y-68420000D02*
X261363800Y-68420000D01*
X250363800Y-66220000D02*
G75*
G02*
X252363800Y-64220000I1999999J1D01*
G01*
X254263800Y-70420000D02*
G75*
G02*
X256263800Y-68420000I1999999J1D01*
G01*
%TO.C,SW245*%
X66626300Y-83270000D02*
X71726300Y-83270000D01*
X70526300Y-87470000D02*
X75626300Y-87470000D01*
X64626300Y-85270000D02*
G75*
G02*
X66626300Y-83270000I1999999J1D01*
G01*
X68526300Y-89470000D02*
G75*
G02*
X70526300Y-87470000I1999999J1D01*
G01*
%TO.C,SW272*%
X78532550Y-121370000D02*
X83632550Y-121370000D01*
X82432550Y-125570000D02*
X87532550Y-125570000D01*
X76532550Y-123370000D02*
G75*
G02*
X78532550Y-121370000I1999999J1D01*
G01*
X80432550Y-127570000D02*
G75*
G02*
X82432550Y-125570000I1999999J1D01*
G01*
%TO.C,SW214*%
X280938800Y-26120000D02*
X286038800Y-26120000D01*
X284838800Y-30320000D02*
X289938800Y-30320000D01*
X278938800Y-28120000D02*
G75*
G02*
X280938800Y-26120000I1999999J1D01*
G01*
X282838800Y-32320000D02*
G75*
G02*
X284838800Y-30320000I1999999J1D01*
G01*
%TO.C,SW208*%
X166638800Y-26120000D02*
X171738800Y-26120000D01*
X170538800Y-30320000D02*
X175638800Y-30320000D01*
X164638800Y-28120000D02*
G75*
G02*
X166638800Y-26120000I1999999J1D01*
G01*
X168538800Y-32320000D02*
G75*
G02*
X170538800Y-30320000I1999999J1D01*
G01*
%TO.C,SW227*%
X242838800Y-45170000D02*
X247938800Y-45170000D01*
X246738800Y-49370000D02*
X251838800Y-49370000D01*
X240838800Y-47170000D02*
G75*
G02*
X242838800Y-45170000I1999999J1D01*
G01*
X244738800Y-51370000D02*
G75*
G02*
X246738800Y-49370000I1999999J1D01*
G01*
D14*
%TO.C,SW302*%
X315760100Y-40320013D02*
G75*
G02*
X314998100Y-40320013I-381000J0D01*
G01*
X314998100Y-40320013D02*
G75*
G02*
X315760100Y-40320013I381000J0D01*
G01*
D13*
%TO.C,SW225*%
X204738800Y-45170000D02*
X209838800Y-45170000D01*
X208638800Y-49370000D02*
X213738800Y-49370000D01*
X202738800Y-47170000D02*
G75*
G02*
X204738800Y-45170000I1999999J1D01*
G01*
X206638800Y-51370000D02*
G75*
G02*
X208638800Y-49370000I1999999J1D01*
G01*
%TO.C,SW219*%
X90438800Y-45170000D02*
X95538800Y-45170000D01*
X94338800Y-49370000D02*
X99438800Y-49370000D01*
X88438800Y-47170000D02*
G75*
G02*
X90438800Y-45170000I1999999J1D01*
G01*
X92338800Y-51370000D02*
G75*
G02*
X94338800Y-49370000I1999999J1D01*
G01*
%TO.C,SW239*%
X214263800Y-64220000D02*
X219363800Y-64220000D01*
X218163800Y-68420000D02*
X223263800Y-68420000D01*
X212263800Y-66220000D02*
G75*
G02*
X214263800Y-64220000I1999999J1D01*
G01*
X216163800Y-70420000D02*
G75*
G02*
X218163800Y-68420000I1999999J1D01*
G01*
%TO.C,SW210*%
X204738800Y-26120000D02*
X209838800Y-26120000D01*
X208638800Y-30320000D02*
X213738800Y-30320000D01*
X202738800Y-28120000D02*
G75*
G02*
X204738800Y-26120000I1999999J1D01*
G01*
X206638800Y-32320000D02*
G75*
G02*
X208638800Y-30320000I1999999J1D01*
G01*
%TO.C,SW275*%
X238076300Y-121370000D02*
X243176300Y-121370000D01*
X241976300Y-125570000D02*
X247076300Y-125570000D01*
X236076300Y-123370000D02*
G75*
G02*
X238076300Y-121370000I1999999J1D01*
G01*
X239976300Y-127570000D02*
G75*
G02*
X241976300Y-125570000I1999999J1D01*
G01*
%TO.C,SW213*%
X261888800Y-26120000D02*
X266988800Y-26120000D01*
X265788800Y-30320000D02*
X270888800Y-30320000D01*
X259888800Y-28120000D02*
G75*
G02*
X261888800Y-26120000I1999999J1D01*
G01*
X263788800Y-32320000D02*
G75*
G02*
X265788800Y-30320000I1999999J1D01*
G01*
%TO.C,SW261*%
X133301300Y-102320000D02*
X138401300Y-102320000D01*
X137201300Y-106520000D02*
X142301300Y-106520000D01*
X131301300Y-104320000D02*
G75*
G02*
X133301300Y-102320000I1999999J1D01*
G01*
X135201300Y-108520000D02*
G75*
G02*
X137201300Y-106520000I1999999J1D01*
G01*
%TO.C,SW237*%
X176163800Y-64220000D02*
X181263800Y-64220000D01*
X180063800Y-68420000D02*
X185163800Y-68420000D01*
X174163800Y-66220000D02*
G75*
G02*
X176163800Y-64220000I1999999J1D01*
G01*
X178063800Y-70420000D02*
G75*
G02*
X180063800Y-68420000I1999999J1D01*
G01*
%TO.C,SW231*%
X61863800Y-64220000D02*
X66963800Y-64220000D01*
X65763800Y-68420000D02*
X70863800Y-68420000D01*
X59863800Y-66220000D02*
G75*
G02*
X61863800Y-64220000I1999999J1D01*
G01*
X63763800Y-70420000D02*
G75*
G02*
X65763800Y-68420000I1999999J1D01*
G01*
%TO.C,SW252*%
X199976300Y-83270000D02*
X205076300Y-83270000D01*
X203876300Y-87470000D02*
X208976300Y-87470000D01*
X197976300Y-85270000D02*
G75*
G02*
X199976300Y-83270000I1999999J1D01*
G01*
X201876300Y-89470000D02*
G75*
G02*
X203876300Y-87470000I1999999J1D01*
G01*
%TO.C,SW216*%
X33288800Y-45170000D02*
X38388800Y-45170000D01*
X37188800Y-49370000D02*
X42288800Y-49370000D01*
X31288800Y-47170000D02*
G75*
G02*
X33288800Y-45170000I1999999J1D01*
G01*
X35188800Y-51370000D02*
G75*
G02*
X37188800Y-49370000I1999999J1D01*
G01*
%TO.C,SW244*%
X40432550Y-83270000D02*
X45532550Y-83270000D01*
X44332550Y-87470000D02*
X49432550Y-87470000D01*
X38432550Y-85270000D02*
G75*
G02*
X40432550Y-83270000I1999999J1D01*
G01*
X42332550Y-89470000D02*
G75*
G02*
X44332550Y-87470000I1999999J1D01*
G01*
%TO.C,SW270*%
X35670050Y-121370000D02*
X40770050Y-121370000D01*
X39570050Y-125570000D02*
X44670050Y-125570000D01*
X33670050Y-123370000D02*
G75*
G02*
X35670050Y-121370000I1999999J1D01*
G01*
X37570050Y-127570000D02*
G75*
G02*
X39570050Y-125570000I1999999J1D01*
G01*
%TO.C,SW217*%
X52338800Y-45170000D02*
X57438800Y-45170000D01*
X56238800Y-49370000D02*
X61338800Y-49370000D01*
X50338800Y-47170000D02*
G75*
G02*
X52338800Y-45170000I1999999J1D01*
G01*
X54238800Y-51370000D02*
G75*
G02*
X56238800Y-49370000I1999999J1D01*
G01*
%TO.C,SW230*%
X38051300Y-64220000D02*
X43151300Y-64220000D01*
X41951300Y-68420000D02*
X47051300Y-68420000D01*
X36051300Y-66220000D02*
G75*
G02*
X38051300Y-64220000I1999999J1D01*
G01*
X39951300Y-70420000D02*
G75*
G02*
X41951300Y-68420000I1999999J1D01*
G01*
%TO.C,SW248*%
X123776300Y-83270000D02*
X128876300Y-83270000D01*
X127676300Y-87470000D02*
X132776300Y-87470000D01*
X121776300Y-85270000D02*
G75*
G02*
X123776300Y-83270000I1999999J1D01*
G01*
X125676300Y-89470000D02*
G75*
G02*
X127676300Y-87470000I1999999J1D01*
G01*
%TO.C,SW235*%
X138063800Y-64220000D02*
X143163800Y-64220000D01*
X141963800Y-68420000D02*
X147063800Y-68420000D01*
X136063800Y-66220000D02*
G75*
G02*
X138063800Y-64220000I1999999J1D01*
G01*
X139963800Y-70420000D02*
G75*
G02*
X141963800Y-68420000I1999999J1D01*
G01*
%TO.C,SW233*%
X99963800Y-64220000D02*
X105063800Y-64220000D01*
X103863800Y-68420000D02*
X108963800Y-68420000D01*
X97963800Y-66220000D02*
G75*
G02*
X99963800Y-64220000I1999999J1D01*
G01*
X101863800Y-70420000D02*
G75*
G02*
X103863800Y-68420000I1999999J1D01*
G01*
%TO.C,SW234*%
X119013800Y-64220000D02*
X124113800Y-64220000D01*
X122913800Y-68420000D02*
X128013800Y-68420000D01*
X117013800Y-66220000D02*
G75*
G02*
X119013800Y-64220000I1999999J1D01*
G01*
X120913800Y-70420000D02*
G75*
G02*
X122913800Y-68420000I1999999J1D01*
G01*
%TO.C,SW201*%
X33288800Y-26120000D02*
X38388800Y-26120000D01*
X37188800Y-30320000D02*
X42288800Y-30320000D01*
X31288800Y-28120000D02*
G75*
G02*
X33288800Y-26120000I1999999J1D01*
G01*
X35188800Y-32320000D02*
G75*
G02*
X37188800Y-30320000I1999999J1D01*
G01*
%TO.C,SW229*%
X290463800Y-45170000D02*
X295563800Y-45170000D01*
X294363800Y-49370000D02*
X299463800Y-49370000D01*
X288463800Y-47170000D02*
G75*
G02*
X290463800Y-45170000I1999999J1D01*
G01*
X292363800Y-51370000D02*
G75*
G02*
X294363800Y-49370000I1999999J1D01*
G01*
%TO.C,SW253*%
X219026300Y-83270000D02*
X224126300Y-83270000D01*
X222926300Y-87470000D02*
X228026300Y-87470000D01*
X217026300Y-85270000D02*
G75*
G02*
X219026300Y-83270000I1999999J1D01*
G01*
X220926300Y-89470000D02*
G75*
G02*
X222926300Y-87470000I1999999J1D01*
G01*
%TO.C,SW274*%
X216645050Y-121370000D02*
X221745050Y-121370000D01*
X220545050Y-125570000D02*
X225645050Y-125570000D01*
X214645050Y-123370000D02*
G75*
G02*
X216645050Y-121370000I1999999J1D01*
G01*
X218545050Y-127570000D02*
G75*
G02*
X220545050Y-125570000I1999999J1D01*
G01*
%TO.C,SW232*%
X80913800Y-64220000D02*
X86013800Y-64220000D01*
X84813800Y-68420000D02*
X89913800Y-68420000D01*
X78913800Y-66220000D02*
G75*
G02*
X80913800Y-64220000I1999999J1D01*
G01*
X82813800Y-70420000D02*
G75*
G02*
X84813800Y-68420000I1999999J1D01*
G01*
%TO.C,SW258*%
X76151300Y-102320000D02*
X81251300Y-102320000D01*
X80051300Y-106520000D02*
X85151300Y-106520000D01*
X74151300Y-104320000D02*
G75*
G02*
X76151300Y-102320000I1999999J1D01*
G01*
X78051300Y-108520000D02*
G75*
G02*
X80051300Y-106520000I1999999J1D01*
G01*
%TO.C,SW226*%
X223788800Y-45170000D02*
X228888800Y-45170000D01*
X227688800Y-49370000D02*
X232788800Y-49370000D01*
X221788800Y-47170000D02*
G75*
G02*
X223788800Y-45170000I1999999J1D01*
G01*
X225688800Y-51370000D02*
G75*
G02*
X227688800Y-49370000I1999999J1D01*
G01*
%TO.C,SW207*%
X147588800Y-26120000D02*
X152688800Y-26120000D01*
X151488800Y-30320000D02*
X156588800Y-30320000D01*
X145588800Y-28120000D02*
G75*
G02*
X147588800Y-26120000I1999999J1D01*
G01*
X149488800Y-32320000D02*
G75*
G02*
X151488800Y-30320000I1999999J1D01*
G01*
%TO.C,SW205*%
X109488800Y-26120000D02*
X114588800Y-26120000D01*
X113388800Y-30320000D02*
X118488800Y-30320000D01*
X107488800Y-28120000D02*
G75*
G02*
X109488800Y-26120000I1999999J1D01*
G01*
X111388800Y-32320000D02*
G75*
G02*
X113388800Y-30320000I1999999J1D01*
G01*
%TO.C,SW202*%
X52338800Y-26120000D02*
X57438800Y-26120000D01*
X56238800Y-30320000D02*
X61338800Y-30320000D01*
X50338800Y-28120000D02*
G75*
G02*
X52338800Y-26120000I1999999J1D01*
G01*
X54238800Y-32320000D02*
G75*
G02*
X56238800Y-30320000I1999999J1D01*
G01*
%TO.C,SW267*%
X247601300Y-102320000D02*
X252701300Y-102320000D01*
X251501300Y-106520000D02*
X256601300Y-106520000D01*
X245601300Y-104320000D02*
G75*
G02*
X247601300Y-102320000I1999999J1D01*
G01*
X249501300Y-108520000D02*
G75*
G02*
X251501300Y-106520000I1999999J1D01*
G01*
%TO.C,SW269*%
X299988800Y-102320000D02*
X305088800Y-102320000D01*
X303888800Y-106520000D02*
X308988800Y-106520000D01*
X297988800Y-104320000D02*
G75*
G02*
X299988800Y-102320000I1999999J1D01*
G01*
X301888800Y-108520000D02*
G75*
G02*
X303888800Y-106520000I1999999J1D01*
G01*
%TO.C,SW212*%
X242838800Y-26120000D02*
X247938800Y-26120000D01*
X246738800Y-30320000D02*
X251838800Y-30320000D01*
X240838800Y-28120000D02*
G75*
G02*
X242838800Y-26120000I1999999J1D01*
G01*
X244738800Y-32320000D02*
G75*
G02*
X246738800Y-30320000I1999999J1D01*
G01*
%TO.C,SW211*%
X223788800Y-26120000D02*
X228888800Y-26120000D01*
X227688800Y-30320000D02*
X232788800Y-30320000D01*
X221788800Y-28120000D02*
G75*
G02*
X223788800Y-26120000I1999999J1D01*
G01*
X225688800Y-32320000D02*
G75*
G02*
X227688800Y-30320000I1999999J1D01*
G01*
%TO.C,SW262*%
X152351300Y-102320000D02*
X157451300Y-102320000D01*
X156251300Y-106520000D02*
X161351300Y-106520000D01*
X150351300Y-104320000D02*
G75*
G02*
X152351300Y-102320000I1999999J1D01*
G01*
X154251300Y-108520000D02*
G75*
G02*
X156251300Y-106520000I1999999J1D01*
G01*
%TO.C,SW222*%
X147588800Y-45170000D02*
X152688800Y-45170000D01*
X151488800Y-49370000D02*
X156588800Y-49370000D01*
X145588800Y-47170000D02*
G75*
G02*
X147588800Y-45170000I1999999J1D01*
G01*
X149488800Y-51370000D02*
G75*
G02*
X151488800Y-49370000I1999999J1D01*
G01*
%TO.C,SW243*%
X295226300Y-64220000D02*
X300326300Y-64220000D01*
X299126300Y-68420000D02*
X304226300Y-68420000D01*
X293226300Y-66220000D02*
G75*
G02*
X295226300Y-64220000I1999999J1D01*
G01*
X297126300Y-70420000D02*
G75*
G02*
X299126300Y-68420000I1999999J1D01*
G01*
%TO.C,SW249*%
X142826300Y-83270000D02*
X147926300Y-83270000D01*
X146726300Y-87470000D02*
X151826300Y-87470000D01*
X140826300Y-85270000D02*
G75*
G02*
X142826300Y-83270000I1999999J1D01*
G01*
X144726300Y-89470000D02*
G75*
G02*
X146726300Y-87470000I1999999J1D01*
G01*
%TO.C,SW246*%
X85676300Y-83270000D02*
X90776300Y-83270000D01*
X89576300Y-87470000D02*
X94676300Y-87470000D01*
X83676300Y-85270000D02*
G75*
G02*
X85676300Y-83270000I1999999J1D01*
G01*
X87576300Y-89470000D02*
G75*
G02*
X89576300Y-87470000I1999999J1D01*
G01*
%TO.C,SW276*%
X259507550Y-121370000D02*
X264607550Y-121370000D01*
X263407550Y-125570000D02*
X268507550Y-125570000D01*
X257507550Y-123370000D02*
G75*
G02*
X259507550Y-121370000I1999999J1D01*
G01*
X261407550Y-127570000D02*
G75*
G02*
X263407550Y-125570000I1999999J1D01*
G01*
%TO.C,SW265*%
X209501300Y-102320000D02*
X214601300Y-102320000D01*
X213401300Y-106520000D02*
X218501300Y-106520000D01*
X207501300Y-104320000D02*
G75*
G02*
X209501300Y-102320000I1999999J1D01*
G01*
X211401300Y-108520000D02*
G75*
G02*
X213401300Y-106520000I1999999J1D01*
G01*
%TO.C,SW260*%
X114251300Y-102320000D02*
X119351300Y-102320000D01*
X118151300Y-106520000D02*
X123251300Y-106520000D01*
X112251300Y-104320000D02*
G75*
G02*
X114251300Y-102320000I1999999J1D01*
G01*
X116151300Y-108520000D02*
G75*
G02*
X118151300Y-106520000I1999999J1D01*
G01*
%TO.C,SW247*%
X104726300Y-83270000D02*
X109826300Y-83270000D01*
X108626300Y-87470000D02*
X113726300Y-87470000D01*
X102726300Y-85270000D02*
G75*
G02*
X104726300Y-83270000I1999999J1D01*
G01*
X106626300Y-89470000D02*
G75*
G02*
X108626300Y-87470000I1999999J1D01*
G01*
%TO.C,SW263*%
X171401300Y-102320000D02*
X176501300Y-102320000D01*
X175301300Y-106520000D02*
X180401300Y-106520000D01*
X169401300Y-104320000D02*
G75*
G02*
X171401300Y-102320000I1999999J1D01*
G01*
X173301300Y-108520000D02*
G75*
G02*
X175301300Y-106520000I1999999J1D01*
G01*
%TO.C,SW240*%
X233313800Y-64220000D02*
X238413800Y-64220000D01*
X237213800Y-68420000D02*
X242313800Y-68420000D01*
X231313800Y-66220000D02*
G75*
G02*
X233313800Y-64220000I1999999J1D01*
G01*
X235213800Y-70420000D02*
G75*
G02*
X237213800Y-68420000I1999999J1D01*
G01*
%TO.C,SW206*%
X128538800Y-26120000D02*
X133638800Y-26120000D01*
X132438800Y-30320000D02*
X137538800Y-30320000D01*
X126538800Y-28120000D02*
G75*
G02*
X128538800Y-26120000I1999999J1D01*
G01*
X130438800Y-32320000D02*
G75*
G02*
X132438800Y-30320000I1999999J1D01*
G01*
%TO.C,SW250*%
X161876300Y-83270000D02*
X166976300Y-83270000D01*
X165776300Y-87470000D02*
X170876300Y-87470000D01*
X159876300Y-85270000D02*
G75*
G02*
X161876300Y-83270000I1999999J1D01*
G01*
X163776300Y-89470000D02*
G75*
G02*
X165776300Y-87470000I1999999J1D01*
G01*
%TO.C,SW255*%
X257126300Y-83270000D02*
X262226300Y-83270000D01*
X261026300Y-87470000D02*
X266126300Y-87470000D01*
X255126300Y-85270000D02*
G75*
G02*
X257126300Y-83270000I1999999J1D01*
G01*
X259026300Y-89470000D02*
G75*
G02*
X261026300Y-87470000I1999999J1D01*
G01*
%TO.C,SW238*%
X195213800Y-64220000D02*
X200313800Y-64220000D01*
X199113800Y-68420000D02*
X204213800Y-68420000D01*
X193213800Y-66220000D02*
G75*
G02*
X195213800Y-64220000I1999999J1D01*
G01*
X197113800Y-70420000D02*
G75*
G02*
X199113800Y-68420000I1999999J1D01*
G01*
%TO.C,SW264*%
X190451300Y-102320000D02*
X195551300Y-102320000D01*
X194351300Y-106520000D02*
X199451300Y-106520000D01*
X188451300Y-104320000D02*
G75*
G02*
X190451300Y-102320000I1999999J1D01*
G01*
X192351300Y-108520000D02*
G75*
G02*
X194351300Y-106520000I1999999J1D01*
G01*
%TO.C,SW203*%
X71388800Y-26120000D02*
X76488800Y-26120000D01*
X75288800Y-30320000D02*
X80388800Y-30320000D01*
X69388800Y-28120000D02*
G75*
G02*
X71388800Y-26120000I1999999J1D01*
G01*
X73288800Y-32320000D02*
G75*
G02*
X75288800Y-30320000I1999999J1D01*
G01*
%TO.C,SW221*%
X128538800Y-45170000D02*
X133638800Y-45170000D01*
X132438800Y-49370000D02*
X137538800Y-49370000D01*
X126538800Y-47170000D02*
G75*
G02*
X128538800Y-45170000I1999999J1D01*
G01*
X130438800Y-51370000D02*
G75*
G02*
X132438800Y-49370000I1999999J1D01*
G01*
%TO.C,SW266*%
X228551300Y-102320000D02*
X233651300Y-102320000D01*
X232451300Y-106520000D02*
X237551300Y-106520000D01*
X226551300Y-104320000D02*
G75*
G02*
X228551300Y-102320000I1999999J1D01*
G01*
X230451300Y-108520000D02*
G75*
G02*
X232451300Y-106520000I1999999J1D01*
G01*
%TO.C,D263*%
X167757550Y-115242500D02*
X167757550Y-113282500D01*
X167757550Y-115242500D02*
X168957550Y-115242500D01*
X168957550Y-115242500D02*
X168957550Y-113282500D01*
%TO.C,C307*%
X172541590Y-133628893D02*
X172694093Y-133476390D01*
X173050707Y-134138010D02*
X173203210Y-133985507D01*
%TO.C,D246*%
X82032550Y-96192500D02*
X82032550Y-94232500D01*
X82032550Y-96192500D02*
X83232550Y-96192500D01*
X83232550Y-96192500D02*
X83232550Y-94232500D01*
%TO.C,D225*%
X201095050Y-58092500D02*
X201095050Y-56132500D01*
X201095050Y-58092500D02*
X202295050Y-58092500D01*
X202295050Y-58092500D02*
X202295050Y-56132500D01*
%TO.C,D226*%
X220145050Y-58092500D02*
X220145050Y-56132500D01*
X220145050Y-58092500D02*
X221345050Y-58092500D01*
X221345050Y-58092500D02*
X221345050Y-56132500D01*
%TO.C,D220*%
X105845050Y-58092500D02*
X105845050Y-56132500D01*
X105845050Y-58092500D02*
X107045050Y-58092500D01*
X107045050Y-58092500D02*
X107045050Y-56132500D01*
%TO.C,C314*%
X188487164Y-18182000D02*
X188702836Y-18182000D01*
X188487164Y-18902000D02*
X188702836Y-18902000D01*
%TO.C,D227*%
X239195050Y-58092500D02*
X239195050Y-56132500D01*
X239195050Y-58092500D02*
X240395050Y-58092500D01*
X240395050Y-58092500D02*
X240395050Y-56132500D01*
%TO.C,C301*%
X176859693Y-137363810D02*
X176707190Y-137211307D01*
X177368810Y-136854693D02*
X177216307Y-136702190D01*
%TO.C,D224*%
X182045050Y-58092500D02*
X182045050Y-56132500D01*
X182045050Y-58092500D02*
X183245050Y-58092500D01*
X183245050Y-58092500D02*
X183245050Y-56132500D01*
%TO.C,D257*%
X41551300Y-115242500D02*
X41551300Y-113282500D01*
X41551300Y-115242500D02*
X42751300Y-115242500D01*
X42751300Y-115242500D02*
X42751300Y-113282500D01*
%TO.C,D237*%
X172520050Y-77142500D02*
X172520050Y-75182500D01*
X172520050Y-77142500D02*
X173720050Y-77142500D01*
X173720050Y-77142500D02*
X173720050Y-75182500D01*
%TO.C,D265*%
X205857550Y-115242500D02*
X205857550Y-113282500D01*
X205857550Y-115242500D02*
X207057550Y-115242500D01*
X207057550Y-115242500D02*
X207057550Y-113282500D01*
%TO.C,C310*%
X176059490Y-119265193D02*
X176211993Y-119112690D01*
X176568607Y-119774310D02*
X176721110Y-119621807D01*
%TO.C,D217*%
X48695050Y-58092500D02*
X48695050Y-56132500D01*
X48695050Y-58092500D02*
X49895050Y-58092500D01*
X49895050Y-58092500D02*
X49895050Y-56132500D01*
%TO.C,D277*%
X277295050Y-134292500D02*
X277295050Y-132332500D01*
X277295050Y-134292500D02*
X278495050Y-134292500D01*
X278495050Y-134292500D02*
X278495050Y-132332500D01*
%TO.C,D252*%
X196332550Y-96192500D02*
X196332550Y-94232500D01*
X196332550Y-96192500D02*
X197532550Y-96192500D01*
X197532550Y-96192500D02*
X197532550Y-94232500D01*
%TO.C,D260*%
X110607550Y-115242500D02*
X110607550Y-113282500D01*
X110607550Y-115242500D02*
X111807550Y-115242500D01*
X111807550Y-115242500D02*
X111807550Y-113282500D01*
%TO.C,D253*%
X215382550Y-96192500D02*
X215382550Y-94232500D01*
X215382550Y-96192500D02*
X216582550Y-96192500D01*
X216582550Y-96192500D02*
X216582550Y-94232500D01*
%TO.C,D251*%
X177282550Y-96192500D02*
X177282550Y-94232500D01*
X177282550Y-96192500D02*
X178482550Y-96192500D01*
X178482550Y-96192500D02*
X178482550Y-94232500D01*
%TO.C,D279*%
X315395050Y-134292500D02*
X315395050Y-132332500D01*
X315395050Y-134292500D02*
X316595050Y-134292500D01*
X316595050Y-134292500D02*
X316595050Y-132332500D01*
%TO.C,D211*%
X220145050Y-39042500D02*
X220145050Y-37082500D01*
X220145050Y-39042500D02*
X221345050Y-39042500D01*
X221345050Y-39042500D02*
X221345050Y-37082500D01*
%TO.C,R301*%
X186843641Y-22734000D02*
X186536359Y-22734000D01*
X186843641Y-23494000D02*
X186536359Y-23494000D01*
%TO.C,D249*%
X139182550Y-96192500D02*
X139182550Y-94232500D01*
X139182550Y-96192500D02*
X140382550Y-96192500D01*
X140382550Y-96192500D02*
X140382550Y-94232500D01*
%TO.C,SW301*%
X306296000Y-47951000D02*
X306326000Y-47951000D01*
X306296000Y-54411000D02*
X306296000Y-47951000D01*
X306326000Y-54411000D02*
X306296000Y-54411000D01*
X310826000Y-47951000D02*
X308226000Y-47951000D01*
X310826000Y-54411000D02*
X308226000Y-54411000D01*
X312726000Y-47951000D02*
X312756000Y-47951000D01*
X312726000Y-54411000D02*
X312756000Y-54411000D01*
X312756000Y-54411000D02*
X312756000Y-47951000D01*
%TO.C,D223*%
X162995050Y-58092500D02*
X162995050Y-56132500D01*
X162995050Y-58092500D02*
X164195050Y-58092500D01*
X164195050Y-58092500D02*
X164195050Y-56132500D01*
D15*
%TO.C,IC301*%
X173243207Y-128206500D02*
X179819300Y-121630407D01*
X179819300Y-121630407D02*
X186395393Y-128206500D01*
X179819300Y-134782593D02*
X173243207Y-128206500D01*
X186395393Y-128206500D02*
X179819300Y-134782593D01*
D16*
X178724541Y-135790220D02*
G75*
G02*
X178474541Y-135790220I-125000J0D01*
G01*
X178474541Y-135790220D02*
G75*
G02*
X178724541Y-135790220I125000J0D01*
G01*
D13*
%TO.C,D254*%
X234432550Y-96192500D02*
X234432550Y-94232500D01*
X234432550Y-96192500D02*
X235632550Y-96192500D01*
X235632550Y-96192500D02*
X235632550Y-94232500D01*
%TO.C,D208*%
X162995050Y-39042500D02*
X162995050Y-37082500D01*
X162995050Y-39042500D02*
X164195050Y-39042500D01*
X164195050Y-39042500D02*
X164195050Y-37082500D01*
%TO.C,D221*%
X124895050Y-58092500D02*
X124895050Y-56132500D01*
X124895050Y-58092500D02*
X126095050Y-58092500D01*
X126095050Y-58092500D02*
X126095050Y-56132500D01*
%TO.C,D272*%
X74888800Y-134292500D02*
X74888800Y-132332500D01*
X74888800Y-134292500D02*
X76088800Y-134292500D01*
X76088800Y-134292500D02*
X76088800Y-132332500D01*
%TO.C,D271*%
X53457550Y-134292500D02*
X53457550Y-132332500D01*
X53457550Y-134292500D02*
X54657550Y-134292500D01*
X54657550Y-134292500D02*
X54657550Y-132332500D01*
%TO.C,D209*%
X182045050Y-39042500D02*
X182045050Y-37082500D01*
X182045050Y-39042500D02*
X183245050Y-39042500D01*
X183245050Y-39042500D02*
X183245050Y-37082500D01*
%TO.C,C402*%
X138555000Y-128764419D02*
X138555000Y-129045581D01*
X139575000Y-128764419D02*
X139575000Y-129045581D01*
%TO.C,D204*%
X86795050Y-39042500D02*
X86795050Y-37082500D01*
X86795050Y-39042500D02*
X87995050Y-39042500D01*
X87995050Y-39042500D02*
X87995050Y-37082500D01*
%TO.C,C403*%
X320165000Y-64275581D02*
X320165000Y-63994419D01*
X321185000Y-64275581D02*
X321185000Y-63994419D01*
%TO.C,C305*%
X189277970Y-124416419D02*
X189476781Y-124615230D01*
X189999219Y-123695170D02*
X190198030Y-123893981D01*
%TO.C,D201*%
X29645050Y-39042500D02*
X29645050Y-37082500D01*
X29645050Y-39042500D02*
X30845050Y-39042500D01*
X30845050Y-39042500D02*
X30845050Y-37082500D01*
%TO.C,D238*%
X191570050Y-77142500D02*
X191570050Y-75182500D01*
X191570050Y-77142500D02*
X192770050Y-77142500D01*
X192770050Y-77142500D02*
X192770050Y-75182500D01*
%TO.C,D244*%
X36788800Y-96192500D02*
X36788800Y-94232500D01*
X36788800Y-96192500D02*
X37988800Y-96192500D01*
X37988800Y-96192500D02*
X37988800Y-94232500D01*
%TO.C,R311*%
X164184359Y-21362400D02*
X164491641Y-21362400D01*
X164184359Y-22122400D02*
X164491641Y-22122400D01*
%TO.C,D233*%
X96320050Y-77142500D02*
X96320050Y-75182500D01*
X96320050Y-77142500D02*
X97520050Y-77142500D01*
X97520050Y-77142500D02*
X97520050Y-75182500D01*
%TO.C,D245*%
X62982550Y-96192500D02*
X62982550Y-94232500D01*
X62982550Y-96192500D02*
X64182550Y-96192500D01*
X64182550Y-96192500D02*
X64182550Y-94232500D01*
%TO.C,D230*%
X34407550Y-77142500D02*
X34407550Y-75182500D01*
X34407550Y-77142500D02*
X35607550Y-77142500D01*
X35607550Y-77142500D02*
X35607550Y-75182500D01*
%TO.C,R303*%
X184370940Y-136902341D02*
X184153659Y-136685060D01*
X184908341Y-136364940D02*
X184691060Y-136147659D01*
%TO.C,D205*%
X105845050Y-39042500D02*
X105845050Y-37082500D01*
X105845050Y-39042500D02*
X107045050Y-39042500D01*
X107045050Y-39042500D02*
X107045050Y-37082500D01*
%TO.C,D247*%
X101082550Y-96192500D02*
X101082550Y-94232500D01*
X101082550Y-96192500D02*
X102282550Y-96192500D01*
X102282550Y-96192500D02*
X102282550Y-94232500D01*
%TO.C,D206*%
X124895050Y-39042500D02*
X124895050Y-37082500D01*
X124895050Y-39042500D02*
X126095050Y-39042500D01*
X126095050Y-39042500D02*
X126095050Y-37082500D01*
%TO.C,D278*%
X296345050Y-134292500D02*
X296345050Y-132332500D01*
X296345050Y-134292500D02*
X297545050Y-134292500D01*
X297545050Y-134292500D02*
X297545050Y-132332500D01*
%TO.C,D250*%
X158232550Y-96192500D02*
X158232550Y-94232500D01*
X158232550Y-96192500D02*
X159432550Y-96192500D01*
X159432550Y-96192500D02*
X159432550Y-94232500D01*
%TO.C,C304*%
X174522790Y-120776493D02*
X174675293Y-120623990D01*
X175031907Y-121285610D02*
X175184410Y-121133107D01*
%TO.C,D273*%
X143945050Y-134292500D02*
X143945050Y-132332500D01*
X143945050Y-134292500D02*
X145145050Y-134292500D01*
X145145050Y-134292500D02*
X145145050Y-132332500D01*
%TO.C,D248*%
X120132550Y-96192500D02*
X120132550Y-94232500D01*
X120132550Y-96192500D02*
X121332550Y-96192500D01*
X121332550Y-96192500D02*
X121332550Y-94232500D01*
%TO.C,D241*%
X248720050Y-77142500D02*
X248720050Y-75182500D01*
X248720050Y-77142500D02*
X249920050Y-77142500D01*
X249920050Y-77142500D02*
X249920050Y-75182500D01*
%TO.C,D235*%
X134420050Y-77142500D02*
X134420050Y-75182500D01*
X134420050Y-77142500D02*
X135620050Y-77142500D01*
X135620050Y-77142500D02*
X135620050Y-75182500D01*
%TO.C,D269*%
X296345050Y-115242500D02*
X296345050Y-113282500D01*
X296345050Y-115242500D02*
X297545050Y-115242500D01*
X297545050Y-115242500D02*
X297545050Y-113282500D01*
%TO.C,D219*%
X86795050Y-58092500D02*
X86795050Y-56132500D01*
X86795050Y-58092500D02*
X87995050Y-58092500D01*
X87995050Y-58092500D02*
X87995050Y-56132500D01*
%TO.C,D232*%
X77270050Y-77142500D02*
X77270050Y-75182500D01*
X77270050Y-77142500D02*
X78470050Y-77142500D01*
X78470050Y-77142500D02*
X78470050Y-75182500D01*
%TO.C,D243*%
X291582550Y-77142500D02*
X291582550Y-75182500D01*
X291582550Y-77142500D02*
X292782550Y-77142500D01*
X292782550Y-77142500D02*
X292782550Y-75182500D01*
%TO.C,D261*%
X129657550Y-115242500D02*
X129657550Y-113282500D01*
X129657550Y-115242500D02*
X130857550Y-115242500D01*
X130857550Y-115242500D02*
X130857550Y-113282500D01*
%TO.C,D258*%
X72507550Y-115242500D02*
X72507550Y-113282500D01*
X72507550Y-115242500D02*
X73707550Y-115242500D01*
X73707550Y-115242500D02*
X73707550Y-113282500D01*
%TO.C,D214*%
X277263300Y-39042500D02*
X277263300Y-37082500D01*
X277263300Y-39042500D02*
X278463300Y-39042500D01*
X278463300Y-39042500D02*
X278463300Y-37082500D01*
%TO.C,D240*%
X229670050Y-77142500D02*
X229670050Y-75182500D01*
X229670050Y-77142500D02*
X230870050Y-77142500D01*
X230870050Y-77142500D02*
X230870050Y-75182500D01*
%TO.C,U401*%
X129662000Y-123971000D02*
X133422000Y-123970999D01*
X129662000Y-125230999D02*
X129662000Y-123971000D01*
X129662000Y-129531001D02*
X129662000Y-130791000D01*
X129662000Y-130791000D02*
X133422000Y-130791001D01*
X134702000Y-124071000D02*
X134462000Y-123741000D01*
X134942000Y-123741000D01*
X134702000Y-124071000D01*
G36*
X134702000Y-124071000D02*
G01*
X134462000Y-123741000D01*
X134942000Y-123741000D01*
X134702000Y-124071000D01*
G37*
%TO.C,D255*%
X253482550Y-96192500D02*
X253482550Y-94232500D01*
X253482550Y-96192500D02*
X254682550Y-96192500D01*
X254682550Y-96192500D02*
X254682550Y-94232500D01*
%TO.C,D276*%
X255863800Y-134292500D02*
X255863800Y-132332500D01*
X255863800Y-134292500D02*
X257063800Y-134292500D01*
X257063800Y-134292500D02*
X257063800Y-132332500D01*
%TO.C,D262*%
X148707550Y-115242500D02*
X148707550Y-113282500D01*
X148707550Y-115242500D02*
X149907550Y-115242500D01*
X149907550Y-115242500D02*
X149907550Y-113282500D01*
%TO.C,D274*%
X213001300Y-134292500D02*
X213001300Y-132332500D01*
X213001300Y-134292500D02*
X214201300Y-134292500D01*
X214201300Y-134292500D02*
X214201300Y-132332500D01*
%TO.C,D234*%
X115370050Y-77142500D02*
X115370050Y-75182500D01*
X115370050Y-77142500D02*
X116570050Y-77142500D01*
X116570050Y-77142500D02*
X116570050Y-75182500D01*
%TO.C,D270*%
X32026300Y-134292500D02*
X32026300Y-132332500D01*
X32026300Y-134292500D02*
X33226300Y-134292500D01*
X33226300Y-134292500D02*
X33226300Y-132332500D01*
%TO.C,D275*%
X234432550Y-134292500D02*
X234432550Y-132332500D01*
X234432550Y-134292500D02*
X235632550Y-134292500D01*
X235632550Y-134292500D02*
X235632550Y-132332500D01*
%TO.C,C302*%
X181971836Y-136927000D02*
X181756164Y-136927000D01*
X181971836Y-137647000D02*
X181756164Y-137647000D01*
%TO.C,U402*%
X312542000Y-62249000D02*
X316302000Y-62249000D01*
X312542000Y-63509000D02*
X312542000Y-62249000D01*
X312542000Y-67809000D02*
X312542000Y-69069000D01*
X312542000Y-69069000D02*
X316302000Y-69069000D01*
X317582000Y-62349000D02*
X317342000Y-62019000D01*
X317822000Y-62019000D01*
X317582000Y-62349000D01*
G36*
X317582000Y-62349000D02*
G01*
X317342000Y-62019000D01*
X317822000Y-62019000D01*
X317582000Y-62349000D01*
G37*
%TO.C,D231*%
X58220050Y-77142500D02*
X58220050Y-75182500D01*
X58220050Y-77142500D02*
X59420050Y-77142500D01*
X59420050Y-77142500D02*
X59420050Y-75182500D01*
%TO.C,D268*%
X270151300Y-115242500D02*
X270151300Y-113282500D01*
X270151300Y-115242500D02*
X271351300Y-115242500D01*
X271351300Y-115242500D02*
X271351300Y-113282500D01*
%TO.C,D216*%
X29645050Y-58092500D02*
X29645050Y-56132500D01*
X29645050Y-58092500D02*
X30845050Y-58092500D01*
X30845050Y-58092500D02*
X30845050Y-56132500D01*
%TO.C,D242*%
X267770050Y-77142500D02*
X267770050Y-75182500D01*
X267770050Y-77142500D02*
X268970050Y-77142500D01*
X268970050Y-77142500D02*
X268970050Y-75182500D01*
%TO.C,D239*%
X210620050Y-77142500D02*
X210620050Y-75182500D01*
X210620050Y-77142500D02*
X211820050Y-77142500D01*
X211820050Y-77142500D02*
X211820050Y-75182500D01*
%TO.C,D229*%
X286820050Y-58092500D02*
X286820050Y-56132500D01*
X286820050Y-58092500D02*
X288020050Y-58092500D01*
X288020050Y-58092500D02*
X288020050Y-56132500D01*
%TO.C,Y301*%
X170052068Y-138477916D02*
X172385521Y-140811369D01*
X172385521Y-140811369D02*
X174365420Y-138831470D01*
%TO.C,C303*%
X188378490Y-125336807D02*
X188530993Y-125489310D01*
X188887607Y-124827690D02*
X189040110Y-124980193D01*
%TO.C,C404*%
X317091600Y-71666981D02*
X317091600Y-71385819D01*
X318111600Y-71666981D02*
X318111600Y-71385819D01*
%TO.C,D222*%
X143945050Y-58092500D02*
X143945050Y-56132500D01*
X143945050Y-58092500D02*
X145145050Y-58092500D01*
X145145050Y-58092500D02*
X145145050Y-56132500D01*
%TO.C,C311*%
X170750993Y-131839310D02*
X170598490Y-131686807D01*
X171260110Y-131330193D02*
X171107607Y-131177690D01*
%TO.C,D267*%
X243957550Y-115242500D02*
X243957550Y-113282500D01*
X243957550Y-115242500D02*
X245157550Y-115242500D01*
X245157550Y-115242500D02*
X245157550Y-113282500D01*
%TO.C,C401*%
X138555000Y-125870581D02*
X138555000Y-125589419D01*
X139575000Y-125870581D02*
X139575000Y-125589419D01*
D17*
%TO.C,U301*%
X170063100Y-20685400D02*
X168438100Y-20685400D01*
X170063100Y-23815400D02*
X168438100Y-23815400D01*
D15*
X171905600Y-21305400D02*
G75*
G02*
X171705600Y-21305400I-100000J0D01*
G01*
X171705600Y-21305400D02*
G75*
G02*
X171905600Y-21305400I100000J0D01*
G01*
D13*
%TO.C,D259*%
X91557550Y-115242500D02*
X91557550Y-113282500D01*
X91557550Y-115242500D02*
X92757550Y-115242500D01*
X92757550Y-115242500D02*
X92757550Y-113282500D01*
%TO.C,D264*%
X186807550Y-115242500D02*
X186807550Y-113282500D01*
X186807550Y-115242500D02*
X188007550Y-115242500D01*
X188007550Y-115242500D02*
X188007550Y-113282500D01*
%TO.C,D213*%
X258245050Y-39042500D02*
X258245050Y-37082500D01*
X258245050Y-39042500D02*
X259445050Y-39042500D01*
X259445050Y-39042500D02*
X259445050Y-37082500D01*
%TO.C,R305*%
X174283884Y-134924552D02*
X174066603Y-135141833D01*
X174821285Y-135461953D02*
X174604004Y-135679234D01*
%TO.C,D215*%
X296345050Y-39042500D02*
X296345050Y-37082500D01*
X296345050Y-39042500D02*
X297545050Y-39042500D01*
X297545050Y-39042500D02*
X297545050Y-37082500D01*
%TO.C,D210*%
X201095050Y-39042500D02*
X201095050Y-37082500D01*
X201095050Y-39042500D02*
X202295050Y-39042500D01*
X202295050Y-39042500D02*
X202295050Y-37082500D01*
%TO.C,C306*%
X171811836Y-18182000D02*
X171596164Y-18182000D01*
X171811836Y-18902000D02*
X171596164Y-18902000D01*
%TO.C,D236*%
X153470050Y-77142500D02*
X153470050Y-75182500D01*
X153470050Y-77142500D02*
X154670050Y-77142500D01*
X154670050Y-77142500D02*
X154670050Y-75182500D01*
%TO.C,D207*%
X143945050Y-39042500D02*
X143945050Y-37082500D01*
X143945050Y-39042500D02*
X145145050Y-39042500D01*
X145145050Y-39042500D02*
X145145050Y-37082500D01*
%TO.C,R310*%
X184858564Y-120547035D02*
X184641283Y-120764316D01*
X185395965Y-121084436D02*
X185178684Y-121301717D01*
%TO.C,D228*%
X258245050Y-58092500D02*
X258245050Y-56132500D01*
X258245050Y-58092500D02*
X259445050Y-58092500D01*
X259445050Y-58092500D02*
X259445050Y-56132500D01*
%TO.C,C308*%
X174468837Y-138172703D02*
X174316334Y-138020200D01*
X174977954Y-137663586D02*
X174825451Y-137511083D01*
%TO.C,D212*%
X239195050Y-39042500D02*
X239195050Y-37082500D01*
X239195050Y-39042500D02*
X240395050Y-39042500D01*
X240395050Y-39042500D02*
X240395050Y-37082500D01*
%TO.C,R302*%
X186843641Y-23750000D02*
X186536359Y-23750000D01*
X186843641Y-24510000D02*
X186536359Y-24510000D01*
%TO.C,D266*%
X224907550Y-115242500D02*
X224907550Y-113282500D01*
X224907550Y-115242500D02*
X226107550Y-115242500D01*
X226107550Y-115242500D02*
X226107550Y-113282500D01*
D17*
%TO.C,J301*%
X174030000Y-15380000D02*
X174030000Y-15140000D01*
X174030000Y-21570000D02*
X174030000Y-17620000D01*
X174680000Y-21570000D02*
X174030000Y-21570000D01*
X186170000Y-15140000D02*
X174030000Y-15140000D01*
X186170000Y-15380000D02*
X186170000Y-15140000D01*
X186170000Y-17620000D02*
X186170000Y-21570000D01*
X186170000Y-21570000D02*
X185520000Y-21570000D01*
D15*
X176700000Y-22900000D02*
G75*
G02*
X176500000Y-22900000I-100000J0D01*
G01*
X176500000Y-22900000D02*
G75*
G02*
X176700000Y-22900000I100000J0D01*
G01*
D13*
%TO.C,R312*%
X164184359Y-22505400D02*
X164491641Y-22505400D01*
X164184359Y-23265400D02*
X164491641Y-23265400D01*
%TO.C,R304*%
X173448940Y-134115659D02*
X173231659Y-134332940D01*
X173986341Y-134653060D02*
X173769060Y-134870341D01*
%TO.C,D202*%
X48695050Y-39042500D02*
X48695050Y-37082500D01*
X48695050Y-39042500D02*
X49895050Y-39042500D01*
X49895050Y-39042500D02*
X49895050Y-37082500D01*
%TO.C,D218*%
X67745050Y-58092500D02*
X67745050Y-56132500D01*
X67745050Y-58092500D02*
X68945050Y-58092500D01*
X68945050Y-58092500D02*
X68945050Y-56132500D01*
%TO.C,D256*%
X284438800Y-96192500D02*
X284438800Y-94232500D01*
X284438800Y-96192500D02*
X285638800Y-96192500D01*
X285638800Y-96192500D02*
X285638800Y-94232500D01*
%TO.C,D203*%
X67745050Y-39042500D02*
X67745050Y-37082500D01*
X67745050Y-39042500D02*
X68945050Y-39042500D01*
X68945050Y-39042500D02*
X68945050Y-37082500D01*
%TO.C,C309*%
X173097237Y-136801103D02*
X172944734Y-136648600D01*
X173606354Y-136291986D02*
X173453851Y-136139483D01*
%TD*%
M02*
