%TF.GenerationSoftware,KiCad,Pcbnew,8.0.3*%
%TF.CreationDate,2024-07-13T16:12:33+02:00*%
%TF.ProjectId,DevKeyboard,4465764b-6579-4626-9f61-72642e6b6963,1.0*%
%TF.SameCoordinates,Original*%
%TF.FileFunction,Paste,Bot*%
%TF.FilePolarity,Positive*%
%FSLAX46Y46*%
G04 Gerber Fmt 4.6, Leading zero omitted, Abs format (unit mm)*
G04 Created by KiCad (PCBNEW 8.0.3) date 2024-07-13 16:12:33*
%MOMM*%
%LPD*%
G01*
G04 APERTURE LIST*
G04 Aperture macros list*
%AMRoundRect*
0 Rectangle with rounded corners*
0 $1 Rounding radius*
0 $2 $3 $4 $5 $6 $7 $8 $9 X,Y pos of 4 corners*
0 Add a 4 corners polygon primitive as box body*
4,1,4,$2,$3,$4,$5,$6,$7,$8,$9,$2,$3,0*
0 Add four circle primitives for the rounded corners*
1,1,$1+$1,$2,$3*
1,1,$1+$1,$4,$5*
1,1,$1+$1,$6,$7*
1,1,$1+$1,$8,$9*
0 Add four rect primitives between the rounded corners*
20,1,$1+$1,$2,$3,$4,$5,0*
20,1,$1+$1,$4,$5,$6,$7,0*
20,1,$1+$1,$6,$7,$8,$9,0*
20,1,$1+$1,$8,$9,$2,$3,0*%
%AMRotRect*
0 Rectangle, with rotation*
0 The origin of the aperture is its center*
0 $1 length*
0 $2 width*
0 $3 Rotation angle, in degrees counterclockwise*
0 Add horizontal line*
21,1,$1,$2,0,0,$3*%
G04 Aperture macros list end*
%ADD10RoundRect,0.250000X-1.025000X-1.000000X1.025000X-1.000000X1.025000X1.000000X-1.025000X1.000000X0*%
%ADD11RoundRect,0.150000X-0.200000X0.150000X-0.200000X-0.150000X0.200000X-0.150000X0.200000X0.150000X0*%
%ADD12RoundRect,0.140000X-0.021213X0.219203X-0.219203X0.021213X0.021213X-0.219203X0.219203X-0.021213X0*%
%ADD13RoundRect,0.140000X0.140000X0.170000X-0.140000X0.170000X-0.140000X-0.170000X0.140000X-0.170000X0*%
%ADD14RoundRect,0.140000X-0.219203X-0.021213X-0.021213X-0.219203X0.219203X0.021213X0.021213X0.219203X0*%
%ADD15RoundRect,0.135000X-0.135000X-0.185000X0.135000X-0.185000X0.135000X0.185000X-0.135000X0.185000X0*%
%ADD16R,1.300000X1.550000*%
%ADD17RotRect,1.475000X0.300000X45.000000*%
%ADD18RotRect,1.475000X0.300000X315.000000*%
%ADD19RoundRect,0.225000X0.250000X-0.225000X0.250000X0.225000X-0.250000X0.225000X-0.250000X-0.225000X0*%
%ADD20RoundRect,0.225000X-0.250000X0.225000X-0.250000X-0.225000X0.250000X-0.225000X0.250000X0.225000X0*%
%ADD21RoundRect,0.225000X0.335876X0.017678X0.017678X0.335876X-0.335876X-0.017678X-0.017678X-0.335876X0*%
%ADD22RoundRect,0.135000X0.135000X0.185000X-0.135000X0.185000X-0.135000X-0.185000X0.135000X-0.185000X0*%
%ADD23RoundRect,0.135000X-0.226274X-0.035355X-0.035355X-0.226274X0.226274X0.035355X0.035355X0.226274X0*%
%ADD24RoundRect,0.375000X0.625000X0.375000X-0.625000X0.375000X-0.625000X-0.375000X0.625000X-0.375000X0*%
%ADD25RoundRect,0.500000X0.500000X1.400000X-0.500000X1.400000X-0.500000X-1.400000X0.500000X-1.400000X0*%
%ADD26RoundRect,0.140000X-0.140000X-0.170000X0.140000X-0.170000X0.140000X0.170000X-0.140000X0.170000X0*%
%ADD27RotRect,1.150000X1.000000X135.000000*%
%ADD28RoundRect,0.140000X0.219203X0.021213X0.021213X0.219203X-0.219203X-0.021213X-0.021213X-0.219203X0*%
%ADD29RoundRect,0.041300X0.563700X0.253700X-0.563700X0.253700X-0.563700X-0.253700X0.563700X-0.253700X0*%
%ADD30RoundRect,0.135000X0.035355X-0.226274X0.226274X-0.035355X-0.035355X0.226274X-0.226274X0.035355X0*%
%ADD31R,0.800000X1.400000*%
%ADD32R,0.300000X1.400000*%
G04 APERTURE END LIST*
D10*
%TO.C,SW215*%
X297003800Y-30480000D03*
X309930800Y-27940000D03*
%TD*%
%TO.C,SW236*%
X154128800Y-68580000D03*
X167055800Y-66040000D03*
%TD*%
%TO.C,SW204*%
X87453800Y-30480000D03*
X100380800Y-27940000D03*
%TD*%
%TO.C,SW279*%
X316053800Y-125730000D03*
X328980800Y-123190000D03*
%TD*%
%TO.C,SW273*%
X144603800Y-125730000D03*
X157530800Y-123190000D03*
%TD*%
%TO.C,SW228*%
X258903800Y-49530000D03*
X271830800Y-46990000D03*
%TD*%
%TO.C,SW242*%
X268428800Y-68580000D03*
X281355800Y-66040000D03*
%TD*%
%TO.C,SW220*%
X106503800Y-49530000D03*
X119430800Y-46990000D03*
%TD*%
%TO.C,SW223*%
X163653800Y-49530000D03*
X176580800Y-46990000D03*
%TD*%
%TO.C,SW257*%
X42210050Y-106680000D03*
X55137050Y-104140000D03*
%TD*%
%TO.C,SW268*%
X270810050Y-106680000D03*
X283737050Y-104140000D03*
%TD*%
%TO.C,SW278*%
X297003800Y-125730000D03*
X309930800Y-123190000D03*
%TD*%
%TO.C,SW254*%
X235091300Y-87630000D03*
X248018300Y-85090000D03*
%TD*%
%TO.C,SW277*%
X277953800Y-125730000D03*
X290880800Y-123190000D03*
%TD*%
%TO.C,SW218*%
X68403800Y-49530000D03*
X81330800Y-46990000D03*
%TD*%
%TO.C,SW251*%
X177941300Y-87630000D03*
X190868300Y-85090000D03*
%TD*%
%TO.C,SW209*%
X182703800Y-30480000D03*
X195630800Y-27940000D03*
%TD*%
%TO.C,SW224*%
X182703800Y-49530000D03*
X195630800Y-46990000D03*
%TD*%
%TO.C,SW256*%
X285097550Y-87630000D03*
X298024550Y-85090000D03*
%TD*%
%TO.C,SW271*%
X54116300Y-125730000D03*
X67043300Y-123190000D03*
%TD*%
%TO.C,SW259*%
X92216300Y-106680000D03*
X105143300Y-104140000D03*
%TD*%
%TO.C,SW241*%
X249378800Y-68580000D03*
X262305800Y-66040000D03*
%TD*%
%TO.C,SW245*%
X63641300Y-87630000D03*
X76568300Y-85090000D03*
%TD*%
%TO.C,SW272*%
X75547550Y-125730000D03*
X88474550Y-123190000D03*
%TD*%
%TO.C,SW214*%
X277953800Y-30480000D03*
X290880800Y-27940000D03*
%TD*%
%TO.C,SW208*%
X163653800Y-30480000D03*
X176580800Y-27940000D03*
%TD*%
%TO.C,SW227*%
X239853800Y-49530000D03*
X252780800Y-46990000D03*
%TD*%
%TO.C,SW225*%
X201753800Y-49530000D03*
X214680800Y-46990000D03*
%TD*%
%TO.C,SW219*%
X87453800Y-49530000D03*
X100380800Y-46990000D03*
%TD*%
%TO.C,SW239*%
X211278800Y-68580000D03*
X224205800Y-66040000D03*
%TD*%
%TO.C,SW210*%
X201753800Y-30480000D03*
X214680800Y-27940000D03*
%TD*%
%TO.C,SW275*%
X235091300Y-125730000D03*
X248018300Y-123190000D03*
%TD*%
%TO.C,SW213*%
X258903800Y-30480000D03*
X271830800Y-27940000D03*
%TD*%
%TO.C,SW261*%
X130316300Y-106680000D03*
X143243300Y-104140000D03*
%TD*%
%TO.C,SW237*%
X173178800Y-68580000D03*
X186105800Y-66040000D03*
%TD*%
%TO.C,SW231*%
X58878800Y-68580000D03*
X71805800Y-66040000D03*
%TD*%
%TO.C,SW252*%
X196991300Y-87630000D03*
X209918300Y-85090000D03*
%TD*%
%TO.C,SW216*%
X30303800Y-49530000D03*
X43230800Y-46990000D03*
%TD*%
%TO.C,SW244*%
X37447550Y-87630000D03*
X50374550Y-85090000D03*
%TD*%
%TO.C,SW270*%
X32685050Y-125730000D03*
X45612050Y-123190000D03*
%TD*%
%TO.C,SW217*%
X49353800Y-49530000D03*
X62280800Y-46990000D03*
%TD*%
%TO.C,SW230*%
X35066300Y-68580000D03*
X47993300Y-66040000D03*
%TD*%
%TO.C,SW248*%
X120791300Y-87630000D03*
X133718300Y-85090000D03*
%TD*%
%TO.C,SW235*%
X135078800Y-68580000D03*
X148005800Y-66040000D03*
%TD*%
%TO.C,SW233*%
X96978800Y-68580000D03*
X109905800Y-66040000D03*
%TD*%
%TO.C,SW234*%
X116028800Y-68580000D03*
X128955800Y-66040000D03*
%TD*%
%TO.C,SW201*%
X30303800Y-30480000D03*
X43230800Y-27940000D03*
%TD*%
%TO.C,SW229*%
X287478800Y-49530000D03*
X300405800Y-46990000D03*
%TD*%
%TO.C,SW253*%
X216041300Y-87630000D03*
X228968300Y-85090000D03*
%TD*%
%TO.C,SW274*%
X213660050Y-125730000D03*
X226587050Y-123190000D03*
%TD*%
%TO.C,SW232*%
X77928800Y-68580000D03*
X90855800Y-66040000D03*
%TD*%
%TO.C,SW258*%
X73166300Y-106680000D03*
X86093300Y-104140000D03*
%TD*%
%TO.C,SW226*%
X220803800Y-49530000D03*
X233730800Y-46990000D03*
%TD*%
%TO.C,SW207*%
X144603800Y-30480000D03*
X157530800Y-27940000D03*
%TD*%
%TO.C,SW205*%
X106503800Y-30480000D03*
X119430800Y-27940000D03*
%TD*%
%TO.C,SW202*%
X49353800Y-30480000D03*
X62280800Y-27940000D03*
%TD*%
%TO.C,SW267*%
X244616300Y-106680000D03*
X257543300Y-104140000D03*
%TD*%
%TO.C,SW269*%
X297003800Y-106680000D03*
X309930800Y-104140000D03*
%TD*%
%TO.C,SW212*%
X239853800Y-30480000D03*
X252780800Y-27940000D03*
%TD*%
%TO.C,SW211*%
X220803800Y-30480000D03*
X233730800Y-27940000D03*
%TD*%
%TO.C,SW262*%
X149366300Y-106680000D03*
X162293300Y-104140000D03*
%TD*%
%TO.C,SW222*%
X144603800Y-49530000D03*
X157530800Y-46990000D03*
%TD*%
%TO.C,SW243*%
X292241300Y-68580000D03*
X305168300Y-66040000D03*
%TD*%
%TO.C,SW249*%
X139841300Y-87630000D03*
X152768300Y-85090000D03*
%TD*%
%TO.C,SW246*%
X82691300Y-87630000D03*
X95618300Y-85090000D03*
%TD*%
%TO.C,SW276*%
X256522550Y-125730000D03*
X269449550Y-123190000D03*
%TD*%
%TO.C,SW265*%
X206516300Y-106680000D03*
X219443300Y-104140000D03*
%TD*%
%TO.C,SW260*%
X111266300Y-106680000D03*
X124193300Y-104140000D03*
%TD*%
%TO.C,SW247*%
X101741300Y-87630000D03*
X114668300Y-85090000D03*
%TD*%
%TO.C,SW263*%
X168416300Y-106680000D03*
X181343300Y-104140000D03*
%TD*%
%TO.C,SW240*%
X230328800Y-68580000D03*
X243255800Y-66040000D03*
%TD*%
%TO.C,SW206*%
X125553800Y-30480000D03*
X138480800Y-27940000D03*
%TD*%
%TO.C,SW250*%
X158891300Y-87630000D03*
X171818300Y-85090000D03*
%TD*%
%TO.C,SW255*%
X254141300Y-87630000D03*
X267068300Y-85090000D03*
%TD*%
%TO.C,SW238*%
X192228800Y-68580000D03*
X205155800Y-66040000D03*
%TD*%
%TO.C,SW264*%
X187466300Y-106680000D03*
X200393300Y-104140000D03*
%TD*%
%TO.C,SW203*%
X68403800Y-30480000D03*
X81330800Y-27940000D03*
%TD*%
%TO.C,SW221*%
X125553800Y-49530000D03*
X138480800Y-46990000D03*
%TD*%
%TO.C,SW266*%
X225566300Y-106680000D03*
X238493300Y-104140000D03*
%TD*%
D11*
%TO.C,D263*%
X168357550Y-114682500D03*
X168357550Y-113282500D03*
%TD*%
D12*
%TO.C,C307*%
X173211811Y-133467789D03*
X172532989Y-134146611D03*
%TD*%
D11*
%TO.C,D246*%
X82632550Y-95632500D03*
X82632550Y-94232500D03*
%TD*%
%TO.C,D225*%
X201695050Y-57532500D03*
X201695050Y-56132500D03*
%TD*%
%TO.C,D226*%
X220745050Y-57532500D03*
X220745050Y-56132500D03*
%TD*%
%TO.C,D220*%
X106445050Y-57532500D03*
X106445050Y-56132500D03*
%TD*%
D13*
%TO.C,C314*%
X189075000Y-18542000D03*
X188115000Y-18542000D03*
%TD*%
D11*
%TO.C,D227*%
X239795050Y-57532500D03*
X239795050Y-56132500D03*
%TD*%
D14*
%TO.C,C301*%
X176698589Y-136693589D03*
X177377411Y-137372411D03*
%TD*%
D11*
%TO.C,D224*%
X182645050Y-57532500D03*
X182645050Y-56132500D03*
%TD*%
%TO.C,D257*%
X42151300Y-114682500D03*
X42151300Y-113282500D03*
%TD*%
%TO.C,D237*%
X173120050Y-76582500D03*
X173120050Y-75182500D03*
%TD*%
%TO.C,D265*%
X206457550Y-114682500D03*
X206457550Y-113282500D03*
%TD*%
D12*
%TO.C,C310*%
X176729711Y-119104089D03*
X176050889Y-119782911D03*
%TD*%
D11*
%TO.C,D217*%
X49295050Y-57532500D03*
X49295050Y-56132500D03*
%TD*%
%TO.C,D277*%
X277895050Y-133732500D03*
X277895050Y-132332500D03*
%TD*%
%TO.C,D252*%
X196932550Y-95632500D03*
X196932550Y-94232500D03*
%TD*%
%TO.C,D260*%
X111207550Y-114682500D03*
X111207550Y-113282500D03*
%TD*%
%TO.C,D253*%
X215982550Y-95632500D03*
X215982550Y-94232500D03*
%TD*%
%TO.C,D251*%
X177882550Y-95632500D03*
X177882550Y-94232500D03*
%TD*%
%TO.C,D279*%
X315995050Y-133732500D03*
X315995050Y-132332500D03*
%TD*%
%TO.C,D211*%
X220745050Y-38482500D03*
X220745050Y-37082500D03*
%TD*%
D15*
%TO.C,R301*%
X186180001Y-23114000D03*
X187199999Y-23114000D03*
%TD*%
D11*
%TO.C,D249*%
X139782550Y-95632500D03*
X139782550Y-94232500D03*
%TD*%
D16*
%TO.C,SW301*%
X307276000Y-47206000D03*
X307276000Y-55156000D03*
X311776000Y-47206000D03*
X311776000Y-55156000D03*
%TD*%
D11*
%TO.C,D223*%
X163595050Y-57532500D03*
X163595050Y-56132500D03*
%TD*%
D17*
%TO.C,IC301*%
X178413572Y-134915529D03*
X178060018Y-134561976D03*
X177706465Y-134208422D03*
X177352912Y-133854869D03*
X176999358Y-133501316D03*
X176645805Y-133147762D03*
X176292251Y-132794209D03*
X175938698Y-132440655D03*
X175585145Y-132087102D03*
X175231591Y-131733549D03*
X174878038Y-131379995D03*
X174524484Y-131026442D03*
X174170931Y-130672888D03*
X173817378Y-130319335D03*
X173463824Y-129965782D03*
X173110271Y-129612228D03*
D18*
X173110271Y-126800772D03*
X173463824Y-126447218D03*
X173817378Y-126093665D03*
X174170931Y-125740112D03*
X174524484Y-125386558D03*
X174878038Y-125033005D03*
X175231591Y-124679451D03*
X175585145Y-124325898D03*
X175938698Y-123972345D03*
X176292251Y-123618791D03*
X176645805Y-123265238D03*
X176999358Y-122911684D03*
X177352912Y-122558131D03*
X177706465Y-122204578D03*
X178060018Y-121851024D03*
X178413572Y-121497471D03*
D17*
X181225028Y-121497471D03*
X181578582Y-121851024D03*
X181932135Y-122204578D03*
X182285688Y-122558131D03*
X182639242Y-122911684D03*
X182992795Y-123265238D03*
X183346349Y-123618791D03*
X183699902Y-123972345D03*
X184053455Y-124325898D03*
X184407009Y-124679451D03*
X184760562Y-125033005D03*
X185114116Y-125386558D03*
X185467669Y-125740112D03*
X185821222Y-126093665D03*
X186174776Y-126447218D03*
X186528329Y-126800772D03*
D18*
X186528329Y-129612228D03*
X186174776Y-129965782D03*
X185821222Y-130319335D03*
X185467669Y-130672888D03*
X185114116Y-131026442D03*
X184760562Y-131379995D03*
X184407009Y-131733549D03*
X184053455Y-132087102D03*
X183699902Y-132440655D03*
X183346349Y-132794209D03*
X182992795Y-133147762D03*
X182639242Y-133501316D03*
X182285688Y-133854869D03*
X181932135Y-134208422D03*
X181578582Y-134561976D03*
X181225028Y-134915529D03*
%TD*%
D11*
%TO.C,D254*%
X235032550Y-95632500D03*
X235032550Y-94232500D03*
%TD*%
%TO.C,D208*%
X163595050Y-38482500D03*
X163595050Y-37082500D03*
%TD*%
%TO.C,D221*%
X125495050Y-57532500D03*
X125495050Y-56132500D03*
%TD*%
%TO.C,D272*%
X75488800Y-133732500D03*
X75488800Y-132332500D03*
%TD*%
%TO.C,D271*%
X54057550Y-133732500D03*
X54057550Y-132332500D03*
%TD*%
%TO.C,D209*%
X182645050Y-38482500D03*
X182645050Y-37082500D03*
%TD*%
D19*
%TO.C,C402*%
X139065000Y-129680000D03*
X139065000Y-128130000D03*
%TD*%
D11*
%TO.C,D204*%
X87395050Y-38482500D03*
X87395050Y-37082500D03*
%TD*%
D20*
%TO.C,C403*%
X320675000Y-63360000D03*
X320675000Y-64910000D03*
%TD*%
D21*
%TO.C,C305*%
X190286008Y-124703208D03*
X189189992Y-123607192D03*
%TD*%
D11*
%TO.C,D201*%
X30245050Y-38482500D03*
X30245050Y-37082500D03*
%TD*%
%TO.C,D238*%
X192170050Y-76582500D03*
X192170050Y-75182500D03*
%TD*%
%TO.C,D244*%
X37388800Y-95632500D03*
X37388800Y-94232500D03*
%TD*%
D22*
%TO.C,R311*%
X164848000Y-21742400D03*
X163828000Y-21742400D03*
%TD*%
D11*
%TO.C,D233*%
X96920050Y-76582500D03*
X96920050Y-75182500D03*
%TD*%
%TO.C,D245*%
X63582550Y-95632500D03*
X63582550Y-94232500D03*
%TD*%
%TO.C,D230*%
X35007550Y-76582500D03*
X35007550Y-75182500D03*
%TD*%
D23*
%TO.C,R303*%
X184170376Y-136164376D03*
X184891624Y-136885624D03*
%TD*%
D11*
%TO.C,D205*%
X106445050Y-38482500D03*
X106445050Y-37082500D03*
%TD*%
%TO.C,D247*%
X101682550Y-95632500D03*
X101682550Y-94232500D03*
%TD*%
%TO.C,D206*%
X125495050Y-38482500D03*
X125495050Y-37082500D03*
%TD*%
%TO.C,D278*%
X296945050Y-133732500D03*
X296945050Y-132332500D03*
%TD*%
%TO.C,D250*%
X158832550Y-95632500D03*
X158832550Y-94232500D03*
%TD*%
D12*
%TO.C,C304*%
X175193011Y-120615389D03*
X174514189Y-121294211D03*
%TD*%
D11*
%TO.C,D273*%
X144545050Y-133732500D03*
X144545050Y-132332500D03*
%TD*%
%TO.C,D248*%
X120732550Y-95632500D03*
X120732550Y-94232500D03*
%TD*%
%TO.C,D241*%
X249320050Y-76582500D03*
X249320050Y-75182500D03*
%TD*%
%TO.C,D235*%
X135020050Y-76582500D03*
X135020050Y-75182500D03*
%TD*%
%TO.C,D269*%
X296945050Y-114682500D03*
X296945050Y-113282500D03*
%TD*%
%TO.C,D219*%
X87395050Y-57532500D03*
X87395050Y-56132500D03*
%TD*%
%TO.C,D232*%
X77870050Y-76582500D03*
X77870050Y-75182500D03*
%TD*%
%TO.C,D243*%
X292182550Y-76582500D03*
X292182550Y-75182500D03*
%TD*%
%TO.C,D261*%
X130257550Y-114682500D03*
X130257550Y-113282500D03*
%TD*%
%TO.C,D258*%
X73107550Y-114682500D03*
X73107550Y-113282500D03*
%TD*%
%TO.C,D214*%
X277863300Y-38482500D03*
X277863300Y-37082500D03*
%TD*%
%TO.C,D240*%
X230270050Y-76582500D03*
X230270050Y-75182500D03*
%TD*%
D24*
%TO.C,U401*%
X134722000Y-125081000D03*
X134721999Y-127381000D03*
X134722000Y-129681000D03*
D25*
X128422001Y-127381000D03*
%TD*%
D11*
%TO.C,D255*%
X254082550Y-95632500D03*
X254082550Y-94232500D03*
%TD*%
%TO.C,D276*%
X256463800Y-133732500D03*
X256463800Y-132332500D03*
%TD*%
%TO.C,D262*%
X149307550Y-114682500D03*
X149307550Y-113282500D03*
%TD*%
%TO.C,D274*%
X213601300Y-133732500D03*
X213601300Y-132332500D03*
%TD*%
%TO.C,D234*%
X115970050Y-76582500D03*
X115970050Y-75182500D03*
%TD*%
%TO.C,D270*%
X32626300Y-133732500D03*
X32626300Y-132332500D03*
%TD*%
%TO.C,D275*%
X235032550Y-133732500D03*
X235032550Y-132332500D03*
%TD*%
D26*
%TO.C,C302*%
X181384000Y-137287000D03*
X182344000Y-137287000D03*
%TD*%
D24*
%TO.C,U402*%
X317602000Y-63359000D03*
X317602000Y-65659000D03*
X317602000Y-67959000D03*
D25*
X311302000Y-65659000D03*
%TD*%
D11*
%TO.C,D231*%
X58820050Y-76582500D03*
X58820050Y-75182500D03*
%TD*%
%TO.C,D268*%
X270751300Y-114682500D03*
X270751300Y-113282500D03*
%TD*%
%TO.C,D216*%
X30245050Y-57532500D03*
X30245050Y-56132500D03*
%TD*%
%TO.C,D242*%
X268370050Y-76582500D03*
X268370050Y-75182500D03*
%TD*%
%TO.C,D239*%
X211220050Y-76582500D03*
X211220050Y-75182500D03*
%TD*%
%TO.C,D229*%
X287420050Y-57532500D03*
X287420050Y-56132500D03*
%TD*%
D27*
%TO.C,Y301*%
X172332488Y-139768386D03*
X171095051Y-138530949D03*
X172085000Y-137541000D03*
X173322437Y-138778437D03*
%TD*%
D28*
%TO.C,C303*%
X189048711Y-125497911D03*
X188369889Y-124819089D03*
%TD*%
D20*
%TO.C,C404*%
X317601600Y-70751400D03*
X317601600Y-72301400D03*
%TD*%
D11*
%TO.C,D222*%
X144545050Y-57532500D03*
X144545050Y-56132500D03*
%TD*%
D14*
%TO.C,C311*%
X170589889Y-131169089D03*
X171268711Y-131847911D03*
%TD*%
D11*
%TO.C,D267*%
X244557550Y-114682500D03*
X244557550Y-113282500D03*
%TD*%
D20*
%TO.C,C401*%
X139065000Y-124955000D03*
X139065000Y-126505000D03*
%TD*%
D29*
%TO.C,U301*%
X170505600Y-21300400D03*
X170505600Y-22250400D03*
X170505600Y-23200400D03*
X167995600Y-23200400D03*
X167995600Y-22250400D03*
X167995600Y-21300400D03*
%TD*%
D11*
%TO.C,D259*%
X92157550Y-114682500D03*
X92157550Y-113282500D03*
%TD*%
%TO.C,D264*%
X187407550Y-114682500D03*
X187407550Y-113282500D03*
%TD*%
%TO.C,D213*%
X258845050Y-38482500D03*
X258845050Y-37082500D03*
%TD*%
D30*
%TO.C,R305*%
X174083320Y-135662517D03*
X174804568Y-134941269D03*
%TD*%
D11*
%TO.C,D215*%
X296945050Y-38482500D03*
X296945050Y-37082500D03*
%TD*%
%TO.C,D210*%
X201695050Y-38482500D03*
X201695050Y-37082500D03*
%TD*%
D26*
%TO.C,C306*%
X171224000Y-18542000D03*
X172184000Y-18542000D03*
%TD*%
D11*
%TO.C,D236*%
X154070050Y-76582500D03*
X154070050Y-75182500D03*
%TD*%
%TO.C,D207*%
X144545050Y-38482500D03*
X144545050Y-37082500D03*
%TD*%
D30*
%TO.C,R310*%
X184658000Y-121285000D03*
X185379248Y-120563752D03*
%TD*%
D11*
%TO.C,D228*%
X258845050Y-57532500D03*
X258845050Y-56132500D03*
%TD*%
D14*
%TO.C,C308*%
X174307733Y-137502482D03*
X174986555Y-138181304D03*
%TD*%
D11*
%TO.C,D212*%
X239795050Y-38482500D03*
X239795050Y-37082500D03*
%TD*%
D15*
%TO.C,R302*%
X186180001Y-24130000D03*
X187199999Y-24130000D03*
%TD*%
D11*
%TO.C,D266*%
X225507550Y-114682500D03*
X225507550Y-113282500D03*
%TD*%
D31*
%TO.C,J301*%
X176600000Y-21600000D03*
X177600000Y-21600000D03*
D32*
X178850000Y-21600000D03*
X179850000Y-21600000D03*
X180350000Y-21600000D03*
X181350000Y-21600000D03*
D31*
X182600000Y-21600000D03*
X183600000Y-21600000D03*
D32*
X181850000Y-21600000D03*
X180850000Y-21600000D03*
X179350000Y-21600000D03*
X178350000Y-21600000D03*
%TD*%
D22*
%TO.C,R312*%
X164848000Y-22885400D03*
X163828000Y-22885400D03*
%TD*%
D30*
%TO.C,R304*%
X173248376Y-134853624D03*
X173969624Y-134132376D03*
%TD*%
D11*
%TO.C,D202*%
X49295050Y-38482500D03*
X49295050Y-37082500D03*
%TD*%
%TO.C,D218*%
X68345050Y-57532500D03*
X68345050Y-56132500D03*
%TD*%
%TO.C,D256*%
X285038800Y-95632500D03*
X285038800Y-94232500D03*
%TD*%
%TO.C,D203*%
X68345050Y-38482500D03*
X68345050Y-37082500D03*
%TD*%
D14*
%TO.C,C309*%
X172936133Y-136130882D03*
X173614955Y-136809704D03*
%TD*%
M02*
