M48
; DRILL file {KiCad 8.0.3} date 2024-07-13T16:12:32+0200
; FORMAT={-:-/ absolute / inch / decimal}
; #@! TF.CreationDate,2024-07-13T16:12:32+02:00
; #@! TF.GenerationSoftware,Kicad,Pcbnew,8.0.3
; #@! TF.FileFunction,NonPlated,1,2,NPTH
FMAT,2
INCH
; #@! TA.AperFunction,NonPlated,NPTH,ComponentDrill
T1C0.0256
; #@! TA.AperFunction,NonPlated,NPTH,ComponentDrill
T2C0.0433
; #@! TA.AperFunction,NonPlated,NPTH,ComponentDrill
T3C0.0610
; #@! TA.AperFunction,NonPlated,NPTH,ComponentDrill
T4C0.0689
; #@! TA.AperFunction,NonPlated,NPTH,ComponentDrill
T5C0.0850
; #@! TA.AperFunction,NonPlated,NPTH,ComponentDrill
T6C0.1200
; #@! TA.AperFunction,NonPlated,NPTH,ComponentDrill
T7C0.1201
; #@! TA.AperFunction,NonPlated,NPTH,ComponentDrill
T8C0.1260
; #@! TA.AperFunction,NonPlated,NPTH,ComponentDrill
T9C0.1570
; #@! TA.AperFunction,NonPlated,NPTH,ComponentDrill
T10C0.1575
%
G90
G05
T1
X6.9528Y-0.8012
X7.2283Y-0.8012
T2
X12.6457Y-2.0551
X12.6457Y-2.3783
X12.6459Y-2.7001
X12.6459Y-3.0217
X12.6459Y-3.3451
X12.6459Y-3.6701
X12.6459Y-3.9951
X12.6459Y-4.3201
T3
X12.722Y-1.4772
T4
X1.272Y-1.3
X1.272Y-2.05
X1.3658Y-5.05
X1.4595Y-2.8
X1.5533Y-3.55
X1.672Y-1.3
X1.672Y-2.05
X1.7408Y-4.3
X1.7657Y-5.05
X1.8595Y-2.8
X1.9532Y-3.55
X2.022Y-1.3
X2.022Y-2.05
X2.1408Y-4.3
X2.2095Y-5.05
X2.397Y-2.8
X2.422Y-1.3
X2.422Y-2.05
X2.5845Y-3.55
X2.6095Y-5.05
X2.772Y-1.3
X2.772Y-2.05
X2.797Y-2.8
X2.9595Y-4.3
X2.9845Y-3.55
X3.0532Y-5.05
X3.147Y-2.8
X3.172Y-1.3
X3.172Y-2.05
X3.3345Y-3.55
X3.3595Y-4.3
X3.4532Y-5.05
X3.522Y-1.3
X3.522Y-2.05
X3.547Y-2.8
X3.7095Y-4.3
X3.7345Y-3.55
X3.897Y-2.8
X3.922Y-1.3
X3.922Y-2.05
X4.0845Y-3.55
X4.1095Y-4.3
X4.272Y-1.3
X4.272Y-2.05
X4.297Y-2.8
X4.4595Y-4.3
X4.4845Y-3.55
X4.647Y-2.8
X4.672Y-1.3
X4.672Y-2.05
X4.8345Y-3.55
X4.8595Y-4.3
X5.022Y-1.3
X5.022Y-2.05
X5.047Y-2.8
X5.2095Y-4.3
X5.2345Y-3.55
X5.397Y-2.8
X5.422Y-1.3
X5.422Y-2.05
X5.5845Y-3.55
X5.6095Y-4.3
X5.772Y-1.3
X5.772Y-2.05
X5.772Y-5.05
X5.797Y-2.8
X5.9595Y-4.3
X5.9845Y-3.55
X6.147Y-2.8
X6.172Y-1.3
X6.172Y-2.05
X6.172Y-5.05
X6.3345Y-3.55
X6.3595Y-4.3
X6.522Y-1.3
X6.522Y-2.05
X6.547Y-2.8
X6.7095Y-4.3
X6.7345Y-3.55
X6.897Y-2.8
X6.922Y-1.3
X6.922Y-2.05
X7.0845Y-3.55
X7.1095Y-4.3
X7.272Y-1.3
X7.272Y-2.05
X7.297Y-2.8
X7.4595Y-4.3
X7.4845Y-3.55
X7.647Y-2.8
X7.672Y-1.3
X7.672Y-2.05
X7.8345Y-3.55
X7.8595Y-4.3
X8.022Y-1.3
X8.022Y-2.05
X8.047Y-2.8
X8.2095Y-4.3
X8.2345Y-3.55
X8.397Y-2.8
X8.422Y-1.3
X8.422Y-2.05
X8.4908Y-5.05
X8.5845Y-3.55
X8.6095Y-4.3
X8.772Y-1.3
X8.772Y-2.05
X8.797Y-2.8
X8.8908Y-5.05
X8.9595Y-4.3
X8.9845Y-3.55
X9.147Y-2.8
X9.172Y-1.3
X9.172Y-2.05
X9.3345Y-3.55
X9.3345Y-5.05
X9.3595Y-4.3
X9.522Y-1.3
X9.522Y-2.05
X9.547Y-2.8
X9.7095Y-4.3
X9.7345Y-3.55
X9.7345Y-5.05
X9.897Y-2.8
X9.922Y-1.3
X9.922Y-2.05
X10.0845Y-3.55
X10.1095Y-4.3
X10.1783Y-5.05
X10.272Y-1.3
X10.272Y-2.05
X10.297Y-2.8
X10.4845Y-3.55
X10.5783Y-5.05
X10.647Y-2.8
X10.672Y-1.3
X10.672Y-2.05
X10.7408Y-4.3
X11.022Y-1.3
X11.022Y-5.05
X11.047Y-2.8
X11.1408Y-4.3
X11.3033Y-3.55
X11.397Y-2.05
X11.422Y-1.3
X11.422Y-5.05
X11.5845Y-2.8
X11.7033Y-3.55
X11.772Y-1.3
X11.772Y-4.3
X11.772Y-5.05
X11.797Y-2.05
X11.9845Y-2.8
X12.172Y-1.3
X12.172Y-4.3
X12.172Y-5.05
X12.522Y-5.05
X12.922Y-5.05
T5
X12.722Y-1.3
T6
X1.4708Y-4.025
X2.4107Y-4.025
X4.097Y-4.775
X7.847Y-4.775
X11.0332Y-3.275
X11.9733Y-3.275
T7
X1.322Y-1.2
X1.322Y-1.95
X1.4158Y-4.95
X1.5095Y-2.7
X1.572Y-1.1
X1.572Y-1.85
X1.6033Y-3.45
X1.6658Y-4.85
X1.7595Y-2.6
X1.7908Y-4.2
X1.8533Y-3.35
X2.0408Y-4.1
X2.072Y-1.2
X2.072Y-1.95
X2.2595Y-4.95
X2.322Y-1.1
X2.322Y-1.85
X2.447Y-2.7
X2.5095Y-4.85
X2.6345Y-3.45
X2.697Y-2.6
X2.822Y-1.2
X2.822Y-1.95
X2.8845Y-3.35
X3.0095Y-4.2
X3.072Y-1.1
X3.072Y-1.85
X3.1033Y-4.95
X3.197Y-2.7
X3.2595Y-4.1
X3.3533Y-4.85
X3.3845Y-3.45
X3.447Y-2.6
X3.572Y-1.2
X3.572Y-1.95
X3.6345Y-3.35
X3.7595Y-4.2
X3.822Y-1.1
X3.822Y-1.85
X3.947Y-2.7
X4.0095Y-4.1
X4.1345Y-3.45
X4.197Y-2.6
X4.322Y-1.2
X4.322Y-1.95
X4.3845Y-3.35
X4.5095Y-4.2
X4.572Y-1.1
X4.572Y-1.85
X4.697Y-2.7
X4.7595Y-4.1
X4.8845Y-3.45
X4.947Y-2.6
X5.072Y-1.2
X5.072Y-1.95
X5.1345Y-3.35
X5.2595Y-4.2
X5.322Y-1.1
X5.322Y-1.85
X5.447Y-2.7
X5.5095Y-4.1
X5.6345Y-3.45
X5.697Y-2.6
X5.822Y-1.2
X5.822Y-1.95
X5.822Y-4.95
X5.8845Y-3.35
X6.0095Y-4.2
X6.072Y-1.1
X6.072Y-1.85
X6.072Y-4.85
X6.197Y-2.7
X6.2595Y-4.1
X6.3845Y-3.45
X6.447Y-2.6
X6.572Y-1.2
X6.572Y-1.95
X6.6345Y-3.35
X6.7595Y-4.2
X6.822Y-1.1
X6.822Y-1.85
X6.947Y-2.7
X7.0095Y-4.1
X7.1345Y-3.45
X7.197Y-2.6
X7.322Y-1.2
X7.322Y-1.95
X7.3845Y-3.35
X7.5095Y-4.2
X7.572Y-1.1
X7.572Y-1.85
X7.697Y-2.7
X7.7595Y-4.1
X7.8845Y-3.45
X7.947Y-2.6
X8.072Y-1.2
X8.072Y-1.95
X8.1345Y-3.35
X8.2595Y-4.2
X8.322Y-1.1
X8.322Y-1.85
X8.447Y-2.7
X8.5095Y-4.1
X8.5407Y-4.95
X8.6345Y-3.45
X8.697Y-2.6
X8.7907Y-4.85
X8.822Y-1.2
X8.822Y-1.95
X8.8845Y-3.35
X9.0095Y-4.2
X9.072Y-1.1
X9.072Y-1.85
X9.197Y-2.7
X9.2595Y-4.1
X9.3845Y-3.45
X9.3845Y-4.95
X9.447Y-2.6
X9.572Y-1.2
X9.572Y-1.95
X9.6345Y-3.35
X9.6345Y-4.85
X9.7595Y-4.2
X9.822Y-1.1
X9.822Y-1.85
X9.947Y-2.7
X10.0095Y-4.1
X10.1345Y-3.45
X10.197Y-2.6
X10.2282Y-4.95
X10.322Y-1.2
X10.322Y-1.95
X10.3845Y-3.35
X10.4782Y-4.85
X10.572Y-1.1
X10.572Y-1.85
X10.697Y-2.7
X10.7907Y-4.2
X10.947Y-2.6
X11.0407Y-4.1
X11.072Y-1.2
X11.072Y-4.95
X11.322Y-1.1
X11.322Y-4.85
X11.3532Y-3.45
X11.447Y-1.95
X11.6032Y-3.35
X11.6345Y-2.7
X11.697Y-1.85
X11.822Y-1.2
X11.822Y-4.2
X11.822Y-4.95
X11.8845Y-2.6
X12.072Y-1.1
X12.072Y-4.1
X12.072Y-4.85
X12.572Y-4.95
X12.822Y-4.85
T8
X7.1063Y-2.4016
T9
X1.4708Y-4.6238
X2.4107Y-4.6238
X4.097Y-5.3738
X7.847Y-5.3738
X11.0332Y-3.8738
X11.9733Y-3.8738
T10
X1.472Y-1.3
X1.472Y-2.05
X1.5657Y-5.05
X1.6595Y-2.8
X1.7532Y-3.55
X1.9407Y-4.3
X2.222Y-1.3
X2.222Y-2.05
X2.4095Y-5.05
X2.597Y-2.8
X2.7845Y-3.55
X2.972Y-1.3
X2.972Y-2.05
X3.1595Y-4.3
X3.2532Y-5.05
X3.347Y-2.8
X3.5345Y-3.55
X3.722Y-1.3
X3.722Y-2.05
X3.9095Y-4.3
X4.097Y-2.8
X4.2845Y-3.55
X4.472Y-1.3
X4.472Y-2.05
X4.6595Y-4.3
X4.847Y-2.8
X5.0345Y-3.55
X5.222Y-1.3
X5.222Y-2.05
X5.4095Y-4.3
X5.597Y-2.8
X5.7845Y-3.55
X5.972Y-1.3
X5.972Y-2.05
X5.972Y-5.05
X6.1595Y-4.3
X6.347Y-2.8
X6.5345Y-3.55
X6.722Y-1.3
X6.722Y-2.05
X6.9095Y-4.3
X7.097Y-2.8
X7.2845Y-3.55
X7.472Y-1.3
X7.472Y-2.05
X7.6595Y-4.3
X7.847Y-2.8
X8.0345Y-3.55
X8.222Y-1.3
X8.222Y-2.05
X8.4095Y-4.3
X8.597Y-2.8
X8.6907Y-5.05
X8.7845Y-3.55
X8.972Y-1.3
X8.972Y-2.05
X9.1595Y-4.3
X9.347Y-2.8
X9.5345Y-3.55
X9.5345Y-5.05
X9.722Y-1.3
X9.722Y-2.05
X9.9095Y-4.3
X10.097Y-2.8
X10.2845Y-3.55
X10.3782Y-5.05
X10.472Y-1.3
X10.472Y-2.05
X10.847Y-2.8
X10.9407Y-4.3
X11.222Y-1.3
X11.222Y-5.05
X11.5032Y-3.55
X11.597Y-2.05
X11.7845Y-2.8
X11.972Y-1.3
X11.972Y-4.3
X11.972Y-5.05
X12.722Y-5.05
M30
