%TF.GenerationSoftware,KiCad,Pcbnew,8.0.3*%
%TF.CreationDate,2024-07-13T16:12:32+02:00*%
%TF.ProjectId,DevKeyboard,4465764b-6579-4626-9f61-72642e6b6963,1.0*%
%TF.SameCoordinates,Original*%
%TF.FileFunction,Drillmap*%
%TF.FilePolarity,Positive*%
%FSLAX45Y45*%
G04 Gerber Fmt 4.5, Leading zero omitted, Abs format (unit mm)*
G04 Created by KiCad (PCBNEW 8.0.3) date 2024-07-13 16:12:32*
%MOMM*%
%LPD*%
G01*
G04 APERTURE LIST*
%ADD10C,0.050000*%
%ADD11C,0.200000*%
%ADD12C,0.100000*%
%ADD13C,0.110000*%
%ADD14C,0.320000*%
G04 APERTURE END LIST*
D10*
X2750000Y-14210000D02*
X2750000Y-1560000D01*
X18529800Y-1510000D02*
X33550000Y-1510000D01*
X33600000Y-14210000D02*
G75*
G02*
X33550000Y-14260000I-50000J0D01*
G01*
X33600000Y-1560000D02*
X33600000Y-14210000D01*
X33550000Y-1510000D02*
G75*
G02*
X33600000Y-1560000I0J-50000D01*
G01*
X33550000Y-14260000D02*
X2800000Y-14260000D01*
X2750000Y-1560000D02*
G75*
G02*
X2800000Y-1510000I50000J0D01*
G01*
X2800000Y-1510000D02*
X17490000Y-1510000D01*
X2800000Y-14260000D02*
G75*
G02*
X2750000Y-14210000I0J50000D01*
G01*
X17490000Y-1510000D02*
X17530200Y-1549440D01*
X17530000Y-1930000D02*
X17530200Y-1549440D01*
X18440000Y-1980000D02*
X17580000Y-1979980D01*
X18489800Y-1549000D02*
X18490000Y-1930000D01*
X18529800Y-1510000D02*
X18489800Y-1549000D01*
X17580000Y-1980000D02*
G75*
G02*
X17530000Y-1930000I0J50000D01*
G01*
X18490000Y-1930000D02*
G75*
G02*
X18440000Y-1980000I-50000J0D01*
G01*
D11*
D12*
X4504930Y-2785350D02*
X4534930Y-2815350D01*
X4534930Y-2785350D02*
X4504930Y-2815350D01*
X4504930Y-4690350D02*
X4534930Y-4720350D01*
X4534930Y-4690350D02*
X4504930Y-4720350D01*
X4746230Y-12310350D02*
X4776230Y-12340350D01*
X4776230Y-12310350D02*
X4746230Y-12340350D01*
X4974830Y-6595350D02*
X5004830Y-6625350D01*
X5004830Y-6595350D02*
X4974830Y-6625350D01*
X5216130Y-8487650D02*
X5246130Y-8517650D01*
X5246130Y-8487650D02*
X5216130Y-8517650D01*
X5406630Y-11776950D02*
X5436630Y-11806950D01*
X5436630Y-11776950D02*
X5406630Y-11806950D01*
X5698730Y-10405350D02*
X5728730Y-10435350D01*
X5728730Y-10405350D02*
X5698730Y-10435350D01*
X6409930Y-2798050D02*
X6439930Y-2828050D01*
X6439930Y-2798050D02*
X6409930Y-2828050D01*
X6409930Y-4703050D02*
X6439930Y-4733050D01*
X6439930Y-4703050D02*
X6409930Y-4733050D01*
X6892530Y-12310350D02*
X6922530Y-12340350D01*
X6922530Y-12310350D02*
X6892530Y-12340350D01*
X7349730Y-6595350D02*
X7379730Y-6625350D01*
X7379730Y-6595350D02*
X7349730Y-6625350D01*
X7781530Y-11675350D02*
X7811530Y-11705350D01*
X7811530Y-11675350D02*
X7781530Y-11705350D01*
X7832330Y-8500350D02*
X7862330Y-8530350D01*
X7862330Y-8500350D02*
X7832330Y-8530350D01*
X8314930Y-2785350D02*
X8344930Y-2815350D01*
X8344930Y-2785350D02*
X8314930Y-2815350D01*
X8314930Y-4690350D02*
X8344930Y-4720350D01*
X8344930Y-4690350D02*
X8314930Y-4720350D01*
X8784830Y-10405350D02*
X8814830Y-10435350D01*
X8814830Y-10405350D02*
X8784830Y-10435350D01*
X9026130Y-12310350D02*
X9056130Y-12340350D01*
X9056130Y-12310350D02*
X9026130Y-12340350D01*
X9267430Y-6595350D02*
X9297430Y-6625350D01*
X9297430Y-6595350D02*
X9267430Y-6625350D01*
X9750030Y-8513050D02*
X9780030Y-8543050D01*
X9780030Y-8513050D02*
X9750030Y-8543050D01*
X10029430Y-11688050D02*
X10059430Y-11718050D01*
X10059430Y-11688050D02*
X10029430Y-11718050D01*
X10219930Y-2798050D02*
X10249930Y-2828050D01*
X10249930Y-2798050D02*
X10219930Y-2828050D01*
X10219930Y-4703050D02*
X10249930Y-4733050D01*
X10249930Y-4703050D02*
X10219930Y-4733050D01*
X10702530Y-10405350D02*
X10732530Y-10435350D01*
X10732530Y-10405350D02*
X10702530Y-10435350D01*
X11172430Y-6595350D02*
X11202430Y-6625350D01*
X11202430Y-6595350D02*
X11172430Y-6625350D01*
X11655030Y-8500350D02*
X11685030Y-8530350D01*
X11685030Y-8500350D02*
X11655030Y-8530350D01*
X12124930Y-2785350D02*
X12154930Y-2815350D01*
X12154930Y-2785350D02*
X12124930Y-2815350D01*
X12124930Y-4715750D02*
X12154930Y-4745750D01*
X12154930Y-4715750D02*
X12124930Y-4745750D01*
X12594830Y-10405350D02*
X12624830Y-10435350D01*
X12624830Y-10405350D02*
X12594830Y-10435350D01*
X12671030Y-11695650D02*
X12701030Y-11725650D01*
X12701030Y-11695650D02*
X12671030Y-11725650D01*
X13077430Y-6595350D02*
X13107430Y-6625350D01*
X13107430Y-6595350D02*
X13077430Y-6625350D01*
X13560030Y-8513050D02*
X13590030Y-8543050D01*
X13590030Y-8513050D02*
X13560030Y-8543050D01*
X13726400Y-13066000D02*
X13756400Y-13096000D01*
X13756400Y-13066000D02*
X13726400Y-13096000D01*
X13751800Y-12380200D02*
X13781800Y-12410200D01*
X13781800Y-12380200D02*
X13751800Y-12410200D01*
X13751800Y-12926300D02*
X13781800Y-12956300D01*
X13781800Y-12926300D02*
X13751800Y-12956300D01*
X13815300Y-13066000D02*
X13845300Y-13096000D01*
X13845300Y-13066000D02*
X13815300Y-13096000D01*
X13840700Y-12380200D02*
X13870700Y-12410200D01*
X13870700Y-12380200D02*
X13840700Y-12410200D01*
X13904200Y-13066000D02*
X13934200Y-13096000D01*
X13934200Y-13066000D02*
X13904200Y-13096000D01*
X13929600Y-12380200D02*
X13959600Y-12410200D01*
X13959600Y-12380200D02*
X13929600Y-12410200D01*
X14029930Y-2798050D02*
X14059930Y-2828050D01*
X14059930Y-2798050D02*
X14029930Y-2828050D01*
X14029930Y-4690350D02*
X14059930Y-4720350D01*
X14059930Y-4690350D02*
X14029930Y-4720350D01*
X14512530Y-10405350D02*
X14542530Y-10435350D01*
X14542530Y-10405350D02*
X14512530Y-10435350D01*
X14563330Y-11751550D02*
X14593330Y-11781550D01*
X14593330Y-11751550D02*
X14563330Y-11781550D01*
X14982430Y-6608050D02*
X15012430Y-6638050D01*
X15012430Y-6608050D02*
X14982430Y-6638050D01*
X15465030Y-8500350D02*
X15495030Y-8530350D01*
X15495030Y-8500350D02*
X15465030Y-8530350D01*
X15934930Y-2785350D02*
X15964930Y-2815350D01*
X15964930Y-2785350D02*
X15934930Y-2815350D01*
X15934930Y-4690350D02*
X15964930Y-4720350D01*
X15964930Y-4690350D02*
X15934930Y-4720350D01*
X15934930Y-12310350D02*
X15964930Y-12340350D01*
X15964930Y-12310350D02*
X15934930Y-12340350D01*
X15999700Y-2486900D02*
X16029700Y-2516900D01*
X16029700Y-2486900D02*
X15999700Y-2516900D01*
X16011130Y-3902950D02*
X16041130Y-3932950D01*
X16041130Y-3902950D02*
X16011130Y-3932950D01*
X16106980Y-2494440D02*
X16136980Y-2524440D01*
X16136980Y-2494440D02*
X16106980Y-2524440D01*
X16144480Y-2428480D02*
X16174480Y-2458480D01*
X16174480Y-2428480D02*
X16144480Y-2458480D01*
X16181980Y-2494440D02*
X16211980Y-2524440D01*
X16211980Y-2494440D02*
X16181980Y-2524440D01*
X16279100Y-2486900D02*
X16309100Y-2516900D01*
X16309100Y-2486900D02*
X16279100Y-2516900D01*
X16304343Y-5842557D02*
X16334343Y-5872557D01*
X16334343Y-5842557D02*
X16304343Y-5872557D01*
X16417530Y-10405350D02*
X16447530Y-10435350D01*
X16447530Y-10405350D02*
X16417530Y-10435350D01*
X16656580Y-2212580D02*
X16686580Y-2242580D01*
X16686580Y-2212580D02*
X16656580Y-2242580D01*
X16787100Y-13154900D02*
X16817100Y-13184900D01*
X16817100Y-13154900D02*
X16787100Y-13184900D01*
X16887430Y-6595350D02*
X16917430Y-6625350D01*
X16917430Y-6595350D02*
X16887430Y-6625350D01*
X16901400Y-13523200D02*
X16931400Y-13553200D01*
X16931400Y-13523200D02*
X16901400Y-13553200D01*
X16967440Y-13177760D02*
X16997440Y-13207760D01*
X16997440Y-13177760D02*
X16967440Y-13207760D01*
X17002674Y-13743789D02*
X17032674Y-13773789D01*
X17032674Y-13743789D02*
X17002674Y-13773789D01*
X17015700Y-1839200D02*
X17045700Y-1869200D01*
X17045700Y-1839200D02*
X17015700Y-1869200D01*
X17015700Y-12888200D02*
X17045700Y-12918200D01*
X17045700Y-12888200D02*
X17015700Y-12918200D01*
X17038560Y-13243800D02*
X17068560Y-13273800D01*
X17068560Y-13243800D02*
X17038560Y-13273800D01*
X17060930Y-7724380D02*
X17090930Y-7754380D01*
X17090930Y-7724380D02*
X17060930Y-7754380D01*
X17079200Y-12786600D02*
X17109200Y-12816600D01*
X17109200Y-12786600D02*
X17079200Y-12816600D01*
X17091900Y-12634200D02*
X17121900Y-12664200D01*
X17121900Y-12634200D02*
X17091900Y-12664200D01*
X17146473Y-13463473D02*
X17176473Y-13493473D01*
X17176473Y-13463473D02*
X17146473Y-13493473D01*
X17164580Y-2207500D02*
X17194580Y-2237500D01*
X17194580Y-2207500D02*
X17164580Y-2237500D01*
X17218900Y-13523200D02*
X17248900Y-13553200D01*
X17248900Y-13523200D02*
X17218900Y-13553200D01*
X17244300Y-12850100D02*
X17274300Y-12880100D01*
X17274300Y-12850100D02*
X17244300Y-12880100D01*
X17257000Y-12735800D02*
X17287000Y-12765800D01*
X17287000Y-12735800D02*
X17257000Y-12765800D01*
X17344695Y-12381405D02*
X17374695Y-12411405D01*
X17374695Y-12381405D02*
X17344695Y-12411405D01*
X17363680Y-12039840D02*
X17393680Y-12069840D01*
X17393680Y-12039840D02*
X17363680Y-12069840D01*
X17370030Y-8500350D02*
X17400030Y-8530350D01*
X17400030Y-8500350D02*
X17370030Y-8530350D01*
X17409074Y-13957149D02*
X17439074Y-13987149D01*
X17439074Y-13957149D02*
X17409074Y-13987149D01*
X17434800Y-2182100D02*
X17464800Y-2212100D01*
X17464800Y-2182100D02*
X17434800Y-2212100D01*
X17434800Y-11973800D02*
X17464800Y-12003800D01*
X17464800Y-11973800D02*
X17434800Y-12003800D01*
X17447500Y-12837400D02*
X17477500Y-12867400D01*
X17477500Y-12837400D02*
X17447500Y-12867400D01*
X17447500Y-13637500D02*
X17477500Y-13667500D01*
X17477500Y-13637500D02*
X17447500Y-13667500D01*
X17460200Y-12215100D02*
X17490200Y-12245100D01*
X17490200Y-12215100D02*
X17460200Y-12245100D01*
X17485600Y-2245600D02*
X17515600Y-2275600D01*
X17515600Y-2245600D02*
X17485600Y-2275600D01*
X17521160Y-11887440D02*
X17551160Y-11917440D01*
X17551160Y-11887440D02*
X17521160Y-11917440D01*
X17561474Y-13738709D02*
X17591474Y-13768709D01*
X17591474Y-13738709D02*
X17561474Y-13768709D01*
X17574500Y-2283700D02*
X17604500Y-2313700D01*
X17604500Y-2283700D02*
X17574500Y-2313700D01*
X17587200Y-11826480D02*
X17617200Y-11856480D01*
X17617200Y-11826480D02*
X17587200Y-11856480D01*
X17612600Y-2372600D02*
X17642600Y-2402600D01*
X17642600Y-2372600D02*
X17612600Y-2402600D01*
X17612600Y-12829673D02*
X17642600Y-12859673D01*
X17642600Y-12829673D02*
X17612600Y-12859673D01*
X17625300Y-13053300D02*
X17655300Y-13083300D01*
X17655300Y-13053300D02*
X17625300Y-13083300D01*
X17638000Y-12570700D02*
X17668000Y-12600700D01*
X17668000Y-12570700D02*
X17638000Y-12600700D01*
X17650700Y-13802600D02*
X17680700Y-13832600D01*
X17680700Y-13802600D02*
X17650700Y-13832600D01*
X17650700Y-13929600D02*
X17680700Y-13959600D01*
X17680700Y-13929600D02*
X17650700Y-13959600D01*
X17701500Y-13066000D02*
X17731500Y-13096000D01*
X17731500Y-13066000D02*
X17701500Y-13096000D01*
X17711427Y-12764673D02*
X17741427Y-12794673D01*
X17741427Y-12764673D02*
X17711427Y-12794673D01*
X17726900Y-2334500D02*
X17756900Y-2364500D01*
X17756900Y-2334500D02*
X17726900Y-2364500D01*
X17767419Y-2273698D02*
X17797419Y-2303698D01*
X17797419Y-2273698D02*
X17767419Y-2303698D01*
X17778879Y-13165398D02*
X17808879Y-13195398D01*
X17808879Y-13165398D02*
X17778879Y-13195398D01*
X17790400Y-2372600D02*
X17820400Y-2402600D01*
X17820400Y-2372600D02*
X17790400Y-2402600D01*
X17790400Y-13789900D02*
X17820400Y-13819900D01*
X17820400Y-13789900D02*
X17790400Y-13819900D01*
X17803100Y-12862800D02*
X17833100Y-12892800D01*
X17833100Y-12862800D02*
X17803100Y-12892800D01*
X17828500Y-13967700D02*
X17858500Y-13997700D01*
X17858500Y-13967700D02*
X17828500Y-13997700D01*
X17839930Y-2798050D02*
X17869930Y-2828050D01*
X17869930Y-2798050D02*
X17839930Y-2828050D01*
X17839930Y-4690350D02*
X17869930Y-4720350D01*
X17869930Y-4690350D02*
X17839930Y-4720350D01*
X17841200Y-2283700D02*
X17871200Y-2313700D01*
X17871200Y-2283700D02*
X17841200Y-2313700D01*
X17841200Y-11923000D02*
X17871200Y-11953000D01*
X17871200Y-11923000D02*
X17841200Y-11953000D01*
X17866600Y-12354800D02*
X17896600Y-12384800D01*
X17896600Y-12354800D02*
X17866600Y-12384800D01*
X17879300Y-13726400D02*
X17909300Y-13756400D01*
X17909300Y-13726400D02*
X17879300Y-13756400D01*
X17888787Y-9658154D02*
X17918787Y-9688154D01*
X17918787Y-9658154D02*
X17888787Y-9688154D01*
X17904700Y-13180300D02*
X17934700Y-13210300D01*
X17934700Y-13180300D02*
X17904700Y-13210300D01*
X17917400Y-11732500D02*
X17947400Y-11762500D01*
X17947400Y-11732500D02*
X17917400Y-11762500D01*
X17993600Y-11923000D02*
X18023600Y-11953000D01*
X18023600Y-11923000D02*
X17993600Y-11953000D01*
X17993600Y-13320000D02*
X18023600Y-13350000D01*
X18023600Y-13320000D02*
X17993600Y-13350000D01*
X18020348Y-13002882D02*
X18050348Y-13032882D01*
X18050348Y-13002882D02*
X18020348Y-13032882D01*
X18031700Y-13726400D02*
X18061700Y-13756400D01*
X18061700Y-13726400D02*
X18031700Y-13756400D01*
X18043372Y-12372641D02*
X18073372Y-12402641D01*
X18073372Y-12372641D02*
X18043372Y-12402641D01*
X18044400Y-11732500D02*
X18074400Y-11762500D01*
X18074400Y-11732500D02*
X18044400Y-11762500D01*
X18044400Y-13586700D02*
X18074400Y-13616700D01*
X18074400Y-13586700D02*
X18044400Y-13616700D01*
X18044400Y-13828000D02*
X18074400Y-13858000D01*
X18074400Y-13828000D02*
X18044400Y-13858000D01*
X18057100Y-12304000D02*
X18087100Y-12334000D01*
X18087100Y-12304000D02*
X18057100Y-12334000D01*
X18113886Y-13001710D02*
X18143886Y-13031710D01*
X18143886Y-13001710D02*
X18113886Y-13031710D01*
X18120600Y-11923000D02*
X18150600Y-11953000D01*
X18150600Y-11923000D02*
X18120600Y-11953000D01*
X18120600Y-12786600D02*
X18150600Y-12816600D01*
X18150600Y-12786600D02*
X18120600Y-12816600D01*
X18141150Y-2278850D02*
X18171150Y-2308850D01*
X18171150Y-2278850D02*
X18141150Y-2308850D01*
X18144500Y-12927800D02*
X18174500Y-12957800D01*
X18174500Y-12927800D02*
X18144500Y-12957800D01*
X18146000Y-13993100D02*
X18176000Y-14023100D01*
X18176000Y-13993100D02*
X18146000Y-14023100D01*
X18157167Y-13068991D02*
X18187167Y-13098991D01*
X18187167Y-13068991D02*
X18157167Y-13098991D01*
X18158700Y-11732500D02*
X18188700Y-11762500D01*
X18188700Y-11732500D02*
X18158700Y-11762500D01*
X18171400Y-2372600D02*
X18201400Y-2402600D01*
X18201400Y-2372600D02*
X18171400Y-2402600D01*
X18184100Y-13840700D02*
X18214100Y-13870700D01*
X18214100Y-13840700D02*
X18184100Y-13870700D01*
X18196800Y-12509635D02*
X18226800Y-12539635D01*
X18226800Y-12509635D02*
X18196800Y-12539635D01*
X18201880Y-14158200D02*
X18231880Y-14188200D01*
X18231880Y-14158200D02*
X18201880Y-14188200D01*
X18209500Y-13129500D02*
X18239500Y-13159500D01*
X18239500Y-13129500D02*
X18209500Y-13159500D01*
X18234900Y-2271000D02*
X18264900Y-2301000D01*
X18264900Y-2271000D02*
X18234900Y-2301000D01*
X18260300Y-2359900D02*
X18290300Y-2389900D01*
X18290300Y-2359900D02*
X18260300Y-2389900D01*
X18260300Y-13993100D02*
X18290300Y-14023100D01*
X18290300Y-13993100D02*
X18260300Y-14023100D01*
X18273000Y-13828000D02*
X18303000Y-13858000D01*
X18303000Y-13828000D02*
X18273000Y-13858000D01*
X18294074Y-13743426D02*
X18324074Y-13773426D01*
X18324074Y-13743426D02*
X18294074Y-13773426D01*
X18297130Y-11586450D02*
X18327130Y-11616450D01*
X18327130Y-11586450D02*
X18297130Y-11616450D01*
X18322530Y-10405350D02*
X18352530Y-10435350D01*
X18352530Y-10405350D02*
X18322530Y-10435350D01*
X18336500Y-12862800D02*
X18366500Y-12892800D01*
X18366500Y-12862800D02*
X18336500Y-12892800D01*
X18349200Y-2283700D02*
X18379200Y-2313700D01*
X18379200Y-2283700D02*
X18349200Y-2313700D01*
X18349200Y-2385300D02*
X18379200Y-2415300D01*
X18379200Y-2385300D02*
X18349200Y-2415300D01*
X18360400Y-12687100D02*
X18390400Y-12717100D01*
X18390400Y-12687100D02*
X18360400Y-12717100D01*
X18360630Y-11522950D02*
X18390630Y-11552950D01*
X18390630Y-11522950D02*
X18360630Y-11552950D01*
X18385476Y-13841900D02*
X18415476Y-13871900D01*
X18415476Y-13841900D02*
X18385476Y-13871900D01*
X18387300Y-13993100D02*
X18417300Y-14023100D01*
X18417300Y-13993100D02*
X18387300Y-14023100D01*
X18420630Y-11586450D02*
X18450630Y-11616450D01*
X18450630Y-11586450D02*
X18420630Y-11616450D01*
X18425400Y-2334500D02*
X18455400Y-2364500D01*
X18455400Y-2334500D02*
X18425400Y-2364500D01*
X18425400Y-12862800D02*
X18455400Y-12892800D01*
X18455400Y-12862800D02*
X18425400Y-12892800D01*
X18487630Y-11522950D02*
X18517630Y-11552950D01*
X18517630Y-11522950D02*
X18487630Y-11552950D01*
X18501600Y-2398000D02*
X18531600Y-2428000D01*
X18531600Y-2398000D02*
X18501600Y-2428000D01*
X18501600Y-13993100D02*
X18531600Y-14023100D01*
X18531600Y-13993100D02*
X18501600Y-14023100D01*
X18527000Y-11923000D02*
X18557000Y-11953000D01*
X18557000Y-11923000D02*
X18527000Y-11953000D01*
X18540630Y-11587944D02*
X18570630Y-11617944D01*
X18570630Y-11587944D02*
X18540630Y-11617944D01*
X18544538Y-13498500D02*
X18574538Y-13528500D01*
X18574538Y-13498500D02*
X18544538Y-13528500D01*
X18552400Y-13751800D02*
X18582400Y-13781800D01*
X18582400Y-13751800D02*
X18552400Y-13781800D01*
X18577800Y-12342100D02*
X18607800Y-12372100D01*
X18607800Y-12342100D02*
X18577800Y-12372100D01*
X18603200Y-2194800D02*
X18633200Y-2224800D01*
X18633200Y-2194800D02*
X18603200Y-2224800D01*
X18637188Y-13516935D02*
X18667188Y-13546935D01*
X18667188Y-13516935D02*
X18637188Y-13546935D01*
X18657300Y-12255592D02*
X18687300Y-12285592D01*
X18687300Y-12255592D02*
X18657300Y-12285592D01*
X18694800Y-12189700D02*
X18724800Y-12219700D01*
X18724800Y-12189700D02*
X18694800Y-12219700D01*
X18732300Y-12255592D02*
X18762300Y-12285592D01*
X18762300Y-12255592D02*
X18732300Y-12285592D01*
X18764926Y-13590074D02*
X18794926Y-13620074D01*
X18794926Y-13590074D02*
X18764926Y-13620074D01*
X18767188Y-13500412D02*
X18797188Y-13530412D01*
X18797188Y-13500412D02*
X18767188Y-13530412D01*
X18793700Y-12100800D02*
X18823700Y-12130800D01*
X18823700Y-12100800D02*
X18793700Y-12130800D01*
X18805130Y-6595350D02*
X18835130Y-6625350D01*
X18835130Y-6595350D02*
X18805130Y-6625350D01*
X18819100Y-13770709D02*
X18849100Y-13800709D01*
X18849100Y-13770709D02*
X18819100Y-13800709D01*
X18857200Y-13105600D02*
X18887200Y-13135600D01*
X18887200Y-13105600D02*
X18857200Y-13135600D01*
X18857200Y-13498500D02*
X18887200Y-13528500D01*
X18887200Y-13498500D02*
X18857200Y-13528500D01*
X18882600Y-12138900D02*
X18912600Y-12168900D01*
X18912600Y-12138900D02*
X18882600Y-12168900D01*
X18882600Y-13705709D02*
X18912600Y-13735709D01*
X18912600Y-13705709D02*
X18882600Y-13735709D01*
X18946100Y-13640709D02*
X18976100Y-13670709D01*
X18976100Y-13640709D02*
X18946100Y-13670709D01*
X18984200Y-1839200D02*
X19014200Y-1869200D01*
X19014200Y-1839200D02*
X18984200Y-1869200D01*
X18989280Y-12263360D02*
X19019280Y-12293360D01*
X19019280Y-12263360D02*
X18989280Y-12293360D01*
X19009600Y-13574000D02*
X19039600Y-13604000D01*
X19039600Y-13574000D02*
X19009600Y-13604000D01*
X19060610Y-13510709D02*
X19090610Y-13540709D01*
X19090610Y-13510709D02*
X19060610Y-13540709D01*
X19098500Y-12177000D02*
X19128500Y-12207000D01*
X19128500Y-12177000D02*
X19098500Y-12207000D01*
X19098500Y-12953200D02*
X19128500Y-12983200D01*
X19128500Y-12953200D02*
X19098500Y-12983200D01*
X19101040Y-12364960D02*
X19131040Y-12394960D01*
X19131040Y-12364960D02*
X19101040Y-12394960D01*
X19162000Y-12888200D02*
X19192000Y-12918200D01*
X19192000Y-12888200D02*
X19162000Y-12918200D01*
X19177240Y-14153120D02*
X19207240Y-14183120D01*
X19207240Y-14153120D02*
X19177240Y-14183120D01*
X19268680Y-8494000D02*
X19298680Y-8524000D01*
X19298680Y-8494000D02*
X19268680Y-8524000D01*
X19593800Y-12202400D02*
X19623800Y-12232400D01*
X19623800Y-12202400D02*
X19593800Y-12232400D01*
X19682567Y-12250266D02*
X19712567Y-12280266D01*
X19712567Y-12250266D02*
X19682567Y-12280266D01*
X19695400Y-12710400D02*
X19725400Y-12740400D01*
X19725400Y-12710400D02*
X19695400Y-12740400D01*
X19744930Y-2798050D02*
X19774930Y-2828050D01*
X19774930Y-2798050D02*
X19744930Y-2828050D01*
X19744930Y-4690350D02*
X19774930Y-4720350D01*
X19774930Y-4690350D02*
X19744930Y-4720350D01*
X19758900Y-12634200D02*
X19788900Y-12664200D01*
X19788900Y-12634200D02*
X19758900Y-12664200D01*
X19771600Y-12315200D02*
X19801600Y-12345200D01*
X19801600Y-12315200D02*
X19771600Y-12345200D01*
X19847800Y-12595200D02*
X19877800Y-12625200D01*
X19877800Y-12595200D02*
X19847800Y-12625200D01*
X19964640Y-10142460D02*
X19994640Y-10172460D01*
X19994640Y-10142460D02*
X19964640Y-10172460D01*
X20089100Y-11567400D02*
X20119100Y-11597400D01*
X20119100Y-11567400D02*
X20089100Y-11597400D01*
X20444700Y-7947900D02*
X20474700Y-7977900D01*
X20474700Y-7947900D02*
X20444700Y-7977900D01*
X20444700Y-8067900D02*
X20474700Y-8097900D01*
X20474700Y-8067900D02*
X20444700Y-8097900D01*
X20520900Y-7884400D02*
X20550900Y-7914400D01*
X20550900Y-7884400D02*
X20520900Y-7914400D01*
X20520900Y-8007900D02*
X20550900Y-8037900D01*
X20550900Y-8007900D02*
X20520900Y-8037900D01*
X20710130Y-6595350D02*
X20740130Y-6625350D01*
X20740130Y-6595350D02*
X20710130Y-6625350D01*
X20863800Y-9789400D02*
X20893800Y-9819400D01*
X20893800Y-9789400D02*
X20863800Y-9819400D01*
X20863800Y-9919400D02*
X20893800Y-9949400D01*
X20893800Y-9919400D02*
X20863800Y-9949400D01*
X20863800Y-10049400D02*
X20893800Y-10079400D01*
X20893800Y-10049400D02*
X20863800Y-10079400D01*
X20863800Y-10179400D02*
X20893800Y-10209400D01*
X20893800Y-10179400D02*
X20863800Y-10209400D01*
X20940000Y-9854400D02*
X20970000Y-9884400D01*
X20970000Y-9854400D02*
X20940000Y-9884400D01*
X20940000Y-9984400D02*
X20970000Y-10014400D01*
X20970000Y-9984400D02*
X20940000Y-10014400D01*
X20940000Y-10114400D02*
X20970000Y-10144400D01*
X20970000Y-10114400D02*
X20940000Y-10144400D01*
X20940000Y-10259300D02*
X20970000Y-10289300D01*
X20970000Y-10259300D02*
X20940000Y-10289300D01*
X21180030Y-8500350D02*
X21210030Y-8530350D01*
X21210030Y-8500350D02*
X21180030Y-8530350D01*
X21649930Y-2785350D02*
X21679930Y-2815350D01*
X21679930Y-2785350D02*
X21649930Y-2815350D01*
X21649930Y-4703050D02*
X21679930Y-4733050D01*
X21679930Y-4703050D02*
X21649930Y-4733050D01*
X22119830Y-11726150D02*
X22149830Y-11756150D01*
X22149830Y-11726150D02*
X22119830Y-11756150D01*
X22132530Y-10405350D02*
X22162530Y-10435350D01*
X22162530Y-10405350D02*
X22132530Y-10435350D01*
X22602430Y-6620750D02*
X22632430Y-6650750D01*
X22632430Y-6620750D02*
X22602430Y-6650750D01*
X22843730Y-12323050D02*
X22873730Y-12353050D01*
X22873730Y-12323050D02*
X22843730Y-12353050D01*
X23085030Y-8513050D02*
X23115030Y-8543050D01*
X23115030Y-8513050D02*
X23085030Y-8543050D01*
X23554930Y-2785350D02*
X23584930Y-2815350D01*
X23584930Y-2785350D02*
X23554930Y-2815350D01*
X23567630Y-4703050D02*
X23597630Y-4733050D01*
X23597630Y-4703050D02*
X23567630Y-4733050D01*
X24037530Y-10405350D02*
X24067530Y-10435350D01*
X24067530Y-10405350D02*
X24037530Y-10435350D01*
X24342330Y-11776950D02*
X24372330Y-11806950D01*
X24372330Y-11776950D02*
X24342330Y-11806950D01*
X24520130Y-6608050D02*
X24550130Y-6638050D01*
X24550130Y-6608050D02*
X24520130Y-6638050D01*
X24990030Y-8500350D02*
X25020030Y-8530350D01*
X25020030Y-8500350D02*
X24990030Y-8530350D01*
X24990030Y-12310350D02*
X25020030Y-12340350D01*
X25020030Y-12310350D02*
X24990030Y-12340350D01*
X25459930Y-2785350D02*
X25489930Y-2815350D01*
X25489930Y-2785350D02*
X25459930Y-2815350D01*
X25459930Y-4690350D02*
X25489930Y-4720350D01*
X25489930Y-4690350D02*
X25459930Y-4720350D01*
X25929830Y-10405350D02*
X25959830Y-10435350D01*
X25959830Y-10405350D02*
X25929830Y-10435350D01*
X26412430Y-6595350D02*
X26442430Y-6625350D01*
X26442430Y-6595350D02*
X26412430Y-6625350D01*
X26717230Y-11833650D02*
X26747230Y-11863650D01*
X26747230Y-11833650D02*
X26717230Y-11863650D01*
X26895030Y-8500350D02*
X26925030Y-8530350D01*
X26925030Y-8500350D02*
X26895030Y-8530350D01*
X27123630Y-12310350D02*
X27153630Y-12340350D01*
X27153630Y-12310350D02*
X27123630Y-12340350D01*
X27364930Y-2785350D02*
X27394930Y-2815350D01*
X27394930Y-2785350D02*
X27364930Y-2815350D01*
X27364930Y-4690350D02*
X27394930Y-4720350D01*
X27394930Y-4690350D02*
X27364930Y-4720350D01*
X28317430Y-6595350D02*
X28347430Y-6625350D01*
X28347430Y-6595350D02*
X28317430Y-6625350D01*
X28520630Y-11883650D02*
X28550630Y-11913650D01*
X28550630Y-11883650D02*
X28520630Y-11913650D01*
X28558730Y-10405350D02*
X28588730Y-10435350D01*
X28588730Y-10405350D02*
X28558730Y-10435350D01*
X28812730Y-11933650D02*
X28842730Y-11963650D01*
X28842730Y-11933650D02*
X28812730Y-11963650D01*
X29269930Y-2785350D02*
X29299930Y-2815350D01*
X29299930Y-2785350D02*
X29269930Y-2815350D01*
X29282630Y-12310350D02*
X29312630Y-12340350D01*
X29312630Y-12310350D02*
X29282630Y-12340350D01*
X29803330Y-8233650D02*
X29833330Y-8263650D01*
X29833330Y-8233650D02*
X29803330Y-8263650D01*
X30222430Y-4703050D02*
X30252430Y-4733050D01*
X30252430Y-4703050D02*
X30222430Y-4733050D01*
X30705030Y-6595350D02*
X30735030Y-6625350D01*
X30735030Y-6595350D02*
X30705030Y-6625350D01*
X31039040Y-2357360D02*
X31069040Y-2387360D01*
X31069040Y-2357360D02*
X31039040Y-2387360D01*
X31049200Y-4374120D02*
X31079200Y-4404120D01*
X31079200Y-4374120D02*
X31049200Y-4404120D01*
X31059360Y-4160760D02*
X31089360Y-4190760D01*
X31089360Y-4160760D02*
X31059360Y-4190760D01*
X31098730Y-11980150D02*
X31128730Y-12010150D01*
X31128730Y-11980150D02*
X31098730Y-12010150D01*
X31125400Y-7058900D02*
X31155400Y-7088900D01*
X31155400Y-7058900D02*
X31125400Y-7088900D01*
X31125400Y-7300200D02*
X31155400Y-7330200D01*
X31155400Y-7300200D02*
X31125400Y-7330200D01*
X31125400Y-7693900D02*
X31155400Y-7723900D01*
X31155400Y-7693900D02*
X31125400Y-7723900D01*
X31138100Y-6055600D02*
X31168100Y-6085600D01*
X31168100Y-6055600D02*
X31138100Y-6085600D01*
X31174930Y-10405350D02*
X31204930Y-10435350D01*
X31204930Y-10405350D02*
X31174930Y-10435350D01*
X31174930Y-12310350D02*
X31204930Y-12340350D01*
X31204930Y-12310350D02*
X31174930Y-12340350D01*
X31206680Y-2220200D02*
X31236680Y-2250200D01*
X31236680Y-2220200D02*
X31206680Y-2250200D01*
X31265100Y-2779000D02*
X31295100Y-2809000D01*
X31295100Y-2779000D02*
X31265100Y-2809000D01*
X31267640Y-2525000D02*
X31297640Y-2555000D01*
X31297640Y-2525000D02*
X31267640Y-2555000D01*
X31303200Y-4823700D02*
X31333200Y-4853700D01*
X31333200Y-4823700D02*
X31303200Y-4853700D01*
X31379400Y-2382760D02*
X31409400Y-2412760D01*
X31409400Y-2382760D02*
X31379400Y-2412760D01*
X31399720Y-4181080D02*
X31429720Y-4211080D01*
X31429720Y-4181080D02*
X31399720Y-4211080D01*
X31417500Y-7465300D02*
X31447500Y-7495300D01*
X31447500Y-7465300D02*
X31417500Y-7495300D01*
X31482500Y-7541500D02*
X31512500Y-7571500D01*
X31512500Y-7541500D02*
X31482500Y-7571500D01*
X31519100Y-5065000D02*
X31549100Y-5095000D01*
X31549100Y-5065000D02*
X31519100Y-5095000D01*
X31545000Y-5845000D02*
X31575000Y-5875000D01*
X31575000Y-5845000D02*
X31545000Y-5875000D01*
X31547500Y-7465300D02*
X31577500Y-7495300D01*
X31577500Y-7465300D02*
X31547500Y-7495300D01*
X31569900Y-4849100D02*
X31599900Y-4879100D01*
X31599900Y-4849100D02*
X31569900Y-4879100D01*
X31572440Y-3718800D02*
X31602440Y-3748800D01*
X31602440Y-3718800D02*
X31572440Y-3748800D01*
X31572440Y-4181080D02*
X31602440Y-4211080D01*
X31602440Y-4181080D02*
X31572440Y-4211080D01*
X31612500Y-7541500D02*
X31642500Y-7571500D01*
X31642500Y-7541500D02*
X31612500Y-7571500D01*
X31635000Y-5895000D02*
X31665000Y-5925000D01*
X31665000Y-5895000D02*
X31635000Y-5925000D01*
X31638480Y-8240000D02*
X31668480Y-8270000D01*
X31668480Y-8240000D02*
X31638480Y-8270000D01*
X31638480Y-8631160D02*
X31668480Y-8661160D01*
X31668480Y-8631160D02*
X31638480Y-8661160D01*
X31677500Y-7465300D02*
X31707500Y-7495300D01*
X31707500Y-7465300D02*
X31677500Y-7495300D01*
X31684200Y-4849100D02*
X31714200Y-4879100D01*
X31714200Y-4849100D02*
X31684200Y-4879100D01*
X31755320Y-7340840D02*
X31785320Y-7370840D01*
X31785320Y-7340840D02*
X31755320Y-7370840D01*
X31765000Y-5595000D02*
X31795000Y-5625000D01*
X31795000Y-5595000D02*
X31765000Y-5625000D01*
X31785800Y-4849100D02*
X31815800Y-4879100D01*
X31815800Y-4849100D02*
X31785800Y-4879100D01*
X31795000Y-5205000D02*
X31825000Y-5235000D01*
X31825000Y-5205000D02*
X31795000Y-5235000D01*
X31801040Y-9164560D02*
X31831040Y-9194560D01*
X31831040Y-9164560D02*
X31801040Y-9194560D01*
X31811200Y-6949680D02*
X31841200Y-6979680D01*
X31841200Y-6949680D02*
X31811200Y-6979680D01*
X31823900Y-7490700D02*
X31853900Y-7520700D01*
X31853900Y-7490700D02*
X31823900Y-7520700D01*
X31862000Y-5687300D02*
X31892000Y-5717300D01*
X31892000Y-5687300D02*
X31862000Y-5717300D01*
X31867080Y-9057880D02*
X31897080Y-9087880D01*
X31897080Y-9057880D02*
X31867080Y-9087880D01*
X31900100Y-4849100D02*
X31930100Y-4879100D01*
X31930100Y-4849100D02*
X31900100Y-4879100D01*
X32014400Y-4874500D02*
X32044400Y-4904500D01*
X32044400Y-4874500D02*
X32014400Y-4904500D01*
X32039800Y-2829800D02*
X32069800Y-2859800D01*
X32069800Y-2829800D02*
X32039800Y-2859800D01*
X32126160Y-4338560D02*
X32156160Y-4368560D01*
X32156160Y-4338560D02*
X32126160Y-4368560D01*
X32141400Y-4811000D02*
X32171400Y-4841000D01*
X32171400Y-4811000D02*
X32141400Y-4841000D01*
X32166800Y-5738100D02*
X32196800Y-5768100D01*
X32196800Y-5738100D02*
X32166800Y-5768100D01*
X32281100Y-5039600D02*
X32311100Y-5069600D01*
X32311100Y-5039600D02*
X32281100Y-5069600D01*
X32509700Y-4861800D02*
X32539700Y-4891800D01*
X32539700Y-4861800D02*
X32509700Y-4891800D01*
X32522400Y-6754100D02*
X32552400Y-6784100D01*
X32552400Y-6754100D02*
X32522400Y-6784100D01*
X32636700Y-5039600D02*
X32666700Y-5069600D01*
X32666700Y-5039600D02*
X32636700Y-5069600D01*
X32763700Y-6716000D02*
X32793700Y-6746000D01*
X32793700Y-6716000D02*
X32763700Y-6746000D01*
X32814500Y-4722100D02*
X32844500Y-4752100D01*
X32844500Y-4722100D02*
X32814500Y-4752100D01*
X32851330Y-12056350D02*
X32881330Y-12086350D01*
X32881330Y-12056350D02*
X32851330Y-12086350D01*
X32979600Y-5039600D02*
X33009600Y-5069600D01*
X33009600Y-5039600D02*
X32979600Y-5069600D01*
X33017700Y-6716000D02*
X33047700Y-6746000D01*
X33047700Y-6716000D02*
X33017700Y-6746000D01*
X33025320Y-3688320D02*
X33055320Y-3718320D01*
X33055320Y-3688320D02*
X33025320Y-3718320D01*
X33035480Y-3876280D02*
X33065480Y-3906280D01*
X33065480Y-3876280D02*
X33035480Y-3906280D01*
X33243760Y-2936480D02*
X33273760Y-2966480D01*
X33273760Y-2936480D02*
X33243760Y-2966480D01*
X33253920Y-2646920D02*
X33283920Y-2676920D01*
X33283920Y-2646920D02*
X33253920Y-2676920D01*
X33349202Y-4270798D02*
X33379202Y-4300798D01*
X33379202Y-4270798D02*
X33349202Y-4300798D01*
X33370760Y-2438640D02*
X33400760Y-2468640D01*
X33400760Y-2438640D02*
X33370760Y-2468640D01*
X33457120Y-3993120D02*
X33487120Y-4023120D01*
X33487120Y-3993120D02*
X33457120Y-4023120D01*
X33462200Y-2829800D02*
X33492200Y-2859800D01*
X33492200Y-2829800D02*
X33462200Y-2859800D01*
X17450500Y-1650000D02*
G75*
G02*
X17385500Y-1650000I-32500J0D01*
G01*
X17385500Y-1650000D02*
G75*
G02*
X17450500Y-1650000I32500J0D01*
G01*
X17385500Y-1615000D02*
X17385500Y-1685000D01*
X17450500Y-1685000D02*
G75*
G02*
X17385500Y-1685000I-32500J0D01*
G01*
X17450500Y-1685000D02*
X17450500Y-1615000D01*
X17450500Y-1615000D02*
G75*
G03*
X17385500Y-1615000I-32500J0D01*
G01*
X17577500Y-2082000D02*
G75*
G02*
X17512500Y-2082000I-32500J0D01*
G01*
X17512500Y-2082000D02*
G75*
G02*
X17577500Y-2082000I32500J0D01*
G01*
X17512500Y-2062000D02*
X17512500Y-2102000D01*
X17577500Y-2102000D02*
G75*
G02*
X17512500Y-2102000I-32500J0D01*
G01*
X17577500Y-2102000D02*
X17577500Y-2062000D01*
X17577500Y-2062000D02*
G75*
G03*
X17512500Y-2062000I-32500J0D01*
G01*
X18507500Y-2082000D02*
G75*
G02*
X18442500Y-2082000I-32500J0D01*
G01*
X18442500Y-2082000D02*
G75*
G02*
X18507500Y-2082000I32500J0D01*
G01*
X18442500Y-2062000D02*
X18442500Y-2102000D01*
X18507500Y-2102000D02*
G75*
G02*
X18442500Y-2102000I-32500J0D01*
G01*
X18507500Y-2102000D02*
X18507500Y-2062000D01*
X18507500Y-2062000D02*
G75*
G03*
X18442500Y-2062000I-32500J0D01*
G01*
X18634500Y-1650000D02*
G75*
G02*
X18569500Y-1650000I-32500J0D01*
G01*
X18569500Y-1650000D02*
G75*
G02*
X18634500Y-1650000I32500J0D01*
G01*
X18569500Y-1615000D02*
X18569500Y-1685000D01*
X18634500Y-1685000D02*
G75*
G02*
X18569500Y-1685000I-32500J0D01*
G01*
X18634500Y-1685000D02*
X18634500Y-1615000D01*
X18634500Y-1615000D02*
G75*
G03*
X18569500Y-1615000I-32500J0D01*
G01*
D13*
X32810000Y-5415000D02*
X32810000Y-5525000D01*
X32755000Y-5470000D02*
X32865000Y-5470000D01*
X32810000Y-6235900D02*
X32810000Y-6345900D01*
X32755000Y-6290900D02*
X32865000Y-6290900D01*
X32810500Y-7053300D02*
X32810500Y-7163300D01*
X32755500Y-7108300D02*
X32865500Y-7108300D01*
X32810500Y-7870100D02*
X32810500Y-7980100D01*
X32755500Y-7925100D02*
X32865500Y-7925100D01*
X32810500Y-8691600D02*
X32810500Y-8801600D01*
X32755500Y-8746600D02*
X32865500Y-8746600D01*
X32810500Y-9517100D02*
X32810500Y-9627100D01*
X32755500Y-9572100D02*
X32865500Y-9572100D01*
X32810500Y-10342600D02*
X32810500Y-10452600D01*
X32755500Y-10397600D02*
X32865500Y-10397600D01*
X32810500Y-11168100D02*
X32810500Y-11278100D01*
X32755500Y-11223100D02*
X32865500Y-11223100D01*
X33060000Y-5165000D02*
X33060000Y-5275000D01*
X33005000Y-5220000D02*
X33115000Y-5220000D01*
X33060000Y-5985900D02*
X33060000Y-6095900D01*
X33005000Y-6040900D02*
X33115000Y-6040900D01*
X33060500Y-6803300D02*
X33060500Y-6913300D01*
X33005500Y-6858300D02*
X33115500Y-6858300D01*
X33060500Y-7620100D02*
X33060500Y-7730100D01*
X33005500Y-7675100D02*
X33115500Y-7675100D01*
X33060500Y-8441600D02*
X33060500Y-8551600D01*
X33005500Y-8496600D02*
X33115500Y-8496600D01*
X33060500Y-9267100D02*
X33060500Y-9377100D01*
X33005500Y-9322100D02*
X33115500Y-9322100D01*
X33060500Y-10092600D02*
X33060500Y-10202600D01*
X33005500Y-10147600D02*
X33115500Y-10147600D01*
X33060500Y-10918100D02*
X33060500Y-11028100D01*
X33005500Y-10973100D02*
X33115500Y-10973100D01*
D14*
X5163138Y-2063138D02*
X5163138Y-1836862D01*
X4936862Y-1836862D01*
X4936862Y-2063138D01*
X5163138Y-2063138D01*
X5163138Y-13763138D02*
X5163138Y-13536862D01*
X4936862Y-13536862D01*
X4936862Y-13763138D01*
X5163138Y-13763138D01*
X29163138Y-11063138D02*
X29163138Y-10836862D01*
X28936862Y-10836862D01*
X28936862Y-11063138D01*
X29163138Y-11063138D01*
X29563138Y-2063138D02*
X29563138Y-1836862D01*
X29336862Y-1836862D01*
X29336862Y-2063138D01*
X29563138Y-2063138D01*
D11*
X3008277Y-14573984D02*
X3008277Y-14373984D01*
X3008277Y-14373984D02*
X3055896Y-14373984D01*
X3055896Y-14373984D02*
X3084467Y-14383508D01*
X3084467Y-14383508D02*
X3103515Y-14402555D01*
X3103515Y-14402555D02*
X3113039Y-14421603D01*
X3113039Y-14421603D02*
X3122562Y-14459698D01*
X3122562Y-14459698D02*
X3122562Y-14488269D01*
X3122562Y-14488269D02*
X3113039Y-14526365D01*
X3113039Y-14526365D02*
X3103515Y-14545412D01*
X3103515Y-14545412D02*
X3084467Y-14564460D01*
X3084467Y-14564460D02*
X3055896Y-14573984D01*
X3055896Y-14573984D02*
X3008277Y-14573984D01*
X3208277Y-14573984D02*
X3208277Y-14440650D01*
X3208277Y-14478746D02*
X3217801Y-14459698D01*
X3217801Y-14459698D02*
X3227324Y-14450174D01*
X3227324Y-14450174D02*
X3246372Y-14440650D01*
X3246372Y-14440650D02*
X3265420Y-14440650D01*
X3332086Y-14573984D02*
X3332086Y-14440650D01*
X3332086Y-14373984D02*
X3322562Y-14383508D01*
X3322562Y-14383508D02*
X3332086Y-14393031D01*
X3332086Y-14393031D02*
X3341610Y-14383508D01*
X3341610Y-14383508D02*
X3332086Y-14373984D01*
X3332086Y-14373984D02*
X3332086Y-14393031D01*
X3455896Y-14573984D02*
X3436848Y-14564460D01*
X3436848Y-14564460D02*
X3427324Y-14545412D01*
X3427324Y-14545412D02*
X3427324Y-14373984D01*
X3560658Y-14573984D02*
X3541610Y-14564460D01*
X3541610Y-14564460D02*
X3532086Y-14545412D01*
X3532086Y-14545412D02*
X3532086Y-14373984D01*
X3789229Y-14573984D02*
X3789229Y-14373984D01*
X3789229Y-14373984D02*
X3855896Y-14516841D01*
X3855896Y-14516841D02*
X3922562Y-14373984D01*
X3922562Y-14373984D02*
X3922562Y-14573984D01*
X4103515Y-14573984D02*
X4103515Y-14469222D01*
X4103515Y-14469222D02*
X4093991Y-14450174D01*
X4093991Y-14450174D02*
X4074943Y-14440650D01*
X4074943Y-14440650D02*
X4036848Y-14440650D01*
X4036848Y-14440650D02*
X4017801Y-14450174D01*
X4103515Y-14564460D02*
X4084467Y-14573984D01*
X4084467Y-14573984D02*
X4036848Y-14573984D01*
X4036848Y-14573984D02*
X4017801Y-14564460D01*
X4017801Y-14564460D02*
X4008277Y-14545412D01*
X4008277Y-14545412D02*
X4008277Y-14526365D01*
X4008277Y-14526365D02*
X4017801Y-14507317D01*
X4017801Y-14507317D02*
X4036848Y-14497793D01*
X4036848Y-14497793D02*
X4084467Y-14497793D01*
X4084467Y-14497793D02*
X4103515Y-14488269D01*
X4198753Y-14440650D02*
X4198753Y-14640650D01*
X4198753Y-14450174D02*
X4217801Y-14440650D01*
X4217801Y-14440650D02*
X4255896Y-14440650D01*
X4255896Y-14440650D02*
X4274944Y-14450174D01*
X4274944Y-14450174D02*
X4284467Y-14459698D01*
X4284467Y-14459698D02*
X4293991Y-14478746D01*
X4293991Y-14478746D02*
X4293991Y-14535888D01*
X4293991Y-14535888D02*
X4284467Y-14554936D01*
X4284467Y-14554936D02*
X4274944Y-14564460D01*
X4274944Y-14564460D02*
X4255896Y-14573984D01*
X4255896Y-14573984D02*
X4217801Y-14573984D01*
X4217801Y-14573984D02*
X4198753Y-14564460D01*
X4379705Y-14554936D02*
X4389229Y-14564460D01*
X4389229Y-14564460D02*
X4379705Y-14573984D01*
X4379705Y-14573984D02*
X4370182Y-14564460D01*
X4370182Y-14564460D02*
X4379705Y-14554936D01*
X4379705Y-14554936D02*
X4379705Y-14573984D01*
X4379705Y-14450174D02*
X4389229Y-14459698D01*
X4389229Y-14459698D02*
X4379705Y-14469222D01*
X4379705Y-14469222D02*
X4370182Y-14459698D01*
X4370182Y-14459698D02*
X4379705Y-14450174D01*
X4379705Y-14450174D02*
X4379705Y-14469222D01*
D12*
X2717500Y-14887500D02*
X2747500Y-14917500D01*
X2747500Y-14887500D02*
X2717500Y-14917500D01*
D11*
X3046372Y-14793984D02*
X3065420Y-14793984D01*
X3065420Y-14793984D02*
X3084467Y-14803508D01*
X3084467Y-14803508D02*
X3093991Y-14813031D01*
X3093991Y-14813031D02*
X3103515Y-14832079D01*
X3103515Y-14832079D02*
X3113039Y-14870174D01*
X3113039Y-14870174D02*
X3113039Y-14917793D01*
X3113039Y-14917793D02*
X3103515Y-14955888D01*
X3103515Y-14955888D02*
X3093991Y-14974936D01*
X3093991Y-14974936D02*
X3084467Y-14984460D01*
X3084467Y-14984460D02*
X3065420Y-14993984D01*
X3065420Y-14993984D02*
X3046372Y-14993984D01*
X3046372Y-14993984D02*
X3027324Y-14984460D01*
X3027324Y-14984460D02*
X3017801Y-14974936D01*
X3017801Y-14974936D02*
X3008277Y-14955888D01*
X3008277Y-14955888D02*
X2998753Y-14917793D01*
X2998753Y-14917793D02*
X2998753Y-14870174D01*
X2998753Y-14870174D02*
X3008277Y-14832079D01*
X3008277Y-14832079D02*
X3017801Y-14813031D01*
X3017801Y-14813031D02*
X3027324Y-14803508D01*
X3027324Y-14803508D02*
X3046372Y-14793984D01*
X3198753Y-14974936D02*
X3208277Y-14984460D01*
X3208277Y-14984460D02*
X3198753Y-14993984D01*
X3198753Y-14993984D02*
X3189229Y-14984460D01*
X3189229Y-14984460D02*
X3198753Y-14974936D01*
X3198753Y-14974936D02*
X3198753Y-14993984D01*
X3274943Y-14793984D02*
X3398753Y-14793984D01*
X3398753Y-14793984D02*
X3332086Y-14870174D01*
X3332086Y-14870174D02*
X3360658Y-14870174D01*
X3360658Y-14870174D02*
X3379705Y-14879698D01*
X3379705Y-14879698D02*
X3389229Y-14889222D01*
X3389229Y-14889222D02*
X3398753Y-14908269D01*
X3398753Y-14908269D02*
X3398753Y-14955888D01*
X3398753Y-14955888D02*
X3389229Y-14974936D01*
X3389229Y-14974936D02*
X3379705Y-14984460D01*
X3379705Y-14984460D02*
X3360658Y-14993984D01*
X3360658Y-14993984D02*
X3303515Y-14993984D01*
X3303515Y-14993984D02*
X3284467Y-14984460D01*
X3284467Y-14984460D02*
X3274943Y-14974936D01*
X3522562Y-14793984D02*
X3541610Y-14793984D01*
X3541610Y-14793984D02*
X3560658Y-14803508D01*
X3560658Y-14803508D02*
X3570182Y-14813031D01*
X3570182Y-14813031D02*
X3579705Y-14832079D01*
X3579705Y-14832079D02*
X3589229Y-14870174D01*
X3589229Y-14870174D02*
X3589229Y-14917793D01*
X3589229Y-14917793D02*
X3579705Y-14955888D01*
X3579705Y-14955888D02*
X3570182Y-14974936D01*
X3570182Y-14974936D02*
X3560658Y-14984460D01*
X3560658Y-14984460D02*
X3541610Y-14993984D01*
X3541610Y-14993984D02*
X3522562Y-14993984D01*
X3522562Y-14993984D02*
X3503515Y-14984460D01*
X3503515Y-14984460D02*
X3493991Y-14974936D01*
X3493991Y-14974936D02*
X3484467Y-14955888D01*
X3484467Y-14955888D02*
X3474943Y-14917793D01*
X3474943Y-14917793D02*
X3474943Y-14870174D01*
X3474943Y-14870174D02*
X3484467Y-14832079D01*
X3484467Y-14832079D02*
X3493991Y-14813031D01*
X3493991Y-14813031D02*
X3503515Y-14803508D01*
X3503515Y-14803508D02*
X3522562Y-14793984D01*
X3713039Y-14793984D02*
X3732086Y-14793984D01*
X3732086Y-14793984D02*
X3751134Y-14803508D01*
X3751134Y-14803508D02*
X3760658Y-14813031D01*
X3760658Y-14813031D02*
X3770182Y-14832079D01*
X3770182Y-14832079D02*
X3779705Y-14870174D01*
X3779705Y-14870174D02*
X3779705Y-14917793D01*
X3779705Y-14917793D02*
X3770182Y-14955888D01*
X3770182Y-14955888D02*
X3760658Y-14974936D01*
X3760658Y-14974936D02*
X3751134Y-14984460D01*
X3751134Y-14984460D02*
X3732086Y-14993984D01*
X3732086Y-14993984D02*
X3713039Y-14993984D01*
X3713039Y-14993984D02*
X3693991Y-14984460D01*
X3693991Y-14984460D02*
X3684467Y-14974936D01*
X3684467Y-14974936D02*
X3674943Y-14955888D01*
X3674943Y-14955888D02*
X3665420Y-14917793D01*
X3665420Y-14917793D02*
X3665420Y-14870174D01*
X3665420Y-14870174D02*
X3674943Y-14832079D01*
X3674943Y-14832079D02*
X3684467Y-14813031D01*
X3684467Y-14813031D02*
X3693991Y-14803508D01*
X3693991Y-14803508D02*
X3713039Y-14793984D01*
X3865420Y-14993984D02*
X3865420Y-14860650D01*
X3865420Y-14879698D02*
X3874943Y-14870174D01*
X3874943Y-14870174D02*
X3893991Y-14860650D01*
X3893991Y-14860650D02*
X3922563Y-14860650D01*
X3922563Y-14860650D02*
X3941610Y-14870174D01*
X3941610Y-14870174D02*
X3951134Y-14889222D01*
X3951134Y-14889222D02*
X3951134Y-14993984D01*
X3951134Y-14889222D02*
X3960658Y-14870174D01*
X3960658Y-14870174D02*
X3979705Y-14860650D01*
X3979705Y-14860650D02*
X4008277Y-14860650D01*
X4008277Y-14860650D02*
X4027324Y-14870174D01*
X4027324Y-14870174D02*
X4036848Y-14889222D01*
X4036848Y-14889222D02*
X4036848Y-14993984D01*
X4132086Y-14993984D02*
X4132086Y-14860650D01*
X4132086Y-14879698D02*
X4141610Y-14870174D01*
X4141610Y-14870174D02*
X4160658Y-14860650D01*
X4160658Y-14860650D02*
X4189229Y-14860650D01*
X4189229Y-14860650D02*
X4208277Y-14870174D01*
X4208277Y-14870174D02*
X4217801Y-14889222D01*
X4217801Y-14889222D02*
X4217801Y-14993984D01*
X4217801Y-14889222D02*
X4227325Y-14870174D01*
X4227325Y-14870174D02*
X4246372Y-14860650D01*
X4246372Y-14860650D02*
X4274944Y-14860650D01*
X4274944Y-14860650D02*
X4293991Y-14870174D01*
X4293991Y-14870174D02*
X4303515Y-14889222D01*
X4303515Y-14889222D02*
X4303515Y-14993984D01*
X4693991Y-14784460D02*
X4522563Y-15041603D01*
X4951134Y-14793984D02*
X4970182Y-14793984D01*
X4970182Y-14793984D02*
X4989229Y-14803508D01*
X4989229Y-14803508D02*
X4998753Y-14813031D01*
X4998753Y-14813031D02*
X5008277Y-14832079D01*
X5008277Y-14832079D02*
X5017801Y-14870174D01*
X5017801Y-14870174D02*
X5017801Y-14917793D01*
X5017801Y-14917793D02*
X5008277Y-14955888D01*
X5008277Y-14955888D02*
X4998753Y-14974936D01*
X4998753Y-14974936D02*
X4989229Y-14984460D01*
X4989229Y-14984460D02*
X4970182Y-14993984D01*
X4970182Y-14993984D02*
X4951134Y-14993984D01*
X4951134Y-14993984D02*
X4932087Y-14984460D01*
X4932087Y-14984460D02*
X4922563Y-14974936D01*
X4922563Y-14974936D02*
X4913039Y-14955888D01*
X4913039Y-14955888D02*
X4903515Y-14917793D01*
X4903515Y-14917793D02*
X4903515Y-14870174D01*
X4903515Y-14870174D02*
X4913039Y-14832079D01*
X4913039Y-14832079D02*
X4922563Y-14813031D01*
X4922563Y-14813031D02*
X4932087Y-14803508D01*
X4932087Y-14803508D02*
X4951134Y-14793984D01*
X5103515Y-14974936D02*
X5113039Y-14984460D01*
X5113039Y-14984460D02*
X5103515Y-14993984D01*
X5103515Y-14993984D02*
X5093991Y-14984460D01*
X5093991Y-14984460D02*
X5103515Y-14974936D01*
X5103515Y-14974936D02*
X5103515Y-14993984D01*
X5236848Y-14793984D02*
X5255896Y-14793984D01*
X5255896Y-14793984D02*
X5274944Y-14803508D01*
X5274944Y-14803508D02*
X5284468Y-14813031D01*
X5284468Y-14813031D02*
X5293991Y-14832079D01*
X5293991Y-14832079D02*
X5303515Y-14870174D01*
X5303515Y-14870174D02*
X5303515Y-14917793D01*
X5303515Y-14917793D02*
X5293991Y-14955888D01*
X5293991Y-14955888D02*
X5284468Y-14974936D01*
X5284468Y-14974936D02*
X5274944Y-14984460D01*
X5274944Y-14984460D02*
X5255896Y-14993984D01*
X5255896Y-14993984D02*
X5236848Y-14993984D01*
X5236848Y-14993984D02*
X5217801Y-14984460D01*
X5217801Y-14984460D02*
X5208277Y-14974936D01*
X5208277Y-14974936D02*
X5198753Y-14955888D01*
X5198753Y-14955888D02*
X5189229Y-14917793D01*
X5189229Y-14917793D02*
X5189229Y-14870174D01*
X5189229Y-14870174D02*
X5198753Y-14832079D01*
X5198753Y-14832079D02*
X5208277Y-14813031D01*
X5208277Y-14813031D02*
X5217801Y-14803508D01*
X5217801Y-14803508D02*
X5236848Y-14793984D01*
X5493991Y-14993984D02*
X5379706Y-14993984D01*
X5436848Y-14993984D02*
X5436848Y-14793984D01*
X5436848Y-14793984D02*
X5417801Y-14822555D01*
X5417801Y-14822555D02*
X5398753Y-14841603D01*
X5398753Y-14841603D02*
X5379706Y-14851127D01*
X5684467Y-14993984D02*
X5570182Y-14993984D01*
X5627325Y-14993984D02*
X5627325Y-14793984D01*
X5627325Y-14793984D02*
X5608277Y-14822555D01*
X5608277Y-14822555D02*
X5589229Y-14841603D01*
X5589229Y-14841603D02*
X5570182Y-14851127D01*
X5798753Y-14879698D02*
X5779706Y-14870174D01*
X5779706Y-14870174D02*
X5770182Y-14860650D01*
X5770182Y-14860650D02*
X5760658Y-14841603D01*
X5760658Y-14841603D02*
X5760658Y-14832079D01*
X5760658Y-14832079D02*
X5770182Y-14813031D01*
X5770182Y-14813031D02*
X5779706Y-14803508D01*
X5779706Y-14803508D02*
X5798753Y-14793984D01*
X5798753Y-14793984D02*
X5836848Y-14793984D01*
X5836848Y-14793984D02*
X5855896Y-14803508D01*
X5855896Y-14803508D02*
X5865420Y-14813031D01*
X5865420Y-14813031D02*
X5874944Y-14832079D01*
X5874944Y-14832079D02*
X5874944Y-14841603D01*
X5874944Y-14841603D02*
X5865420Y-14860650D01*
X5865420Y-14860650D02*
X5855896Y-14870174D01*
X5855896Y-14870174D02*
X5836848Y-14879698D01*
X5836848Y-14879698D02*
X5798753Y-14879698D01*
X5798753Y-14879698D02*
X5779706Y-14889222D01*
X5779706Y-14889222D02*
X5770182Y-14898746D01*
X5770182Y-14898746D02*
X5760658Y-14917793D01*
X5760658Y-14917793D02*
X5760658Y-14955888D01*
X5760658Y-14955888D02*
X5770182Y-14974936D01*
X5770182Y-14974936D02*
X5779706Y-14984460D01*
X5779706Y-14984460D02*
X5798753Y-14993984D01*
X5798753Y-14993984D02*
X5836848Y-14993984D01*
X5836848Y-14993984D02*
X5855896Y-14984460D01*
X5855896Y-14984460D02*
X5865420Y-14974936D01*
X5865420Y-14974936D02*
X5874944Y-14955888D01*
X5874944Y-14955888D02*
X5874944Y-14917793D01*
X5874944Y-14917793D02*
X5865420Y-14898746D01*
X5865420Y-14898746D02*
X5855896Y-14889222D01*
X5855896Y-14889222D02*
X5836848Y-14879698D01*
X5951134Y-14793984D02*
X5951134Y-14832079D01*
X6027325Y-14793984D02*
X6027325Y-14832079D01*
X6322563Y-15070174D02*
X6313039Y-15060650D01*
X6313039Y-15060650D02*
X6293991Y-15032079D01*
X6293991Y-15032079D02*
X6284468Y-15013031D01*
X6284468Y-15013031D02*
X6274944Y-14984460D01*
X6274944Y-14984460D02*
X6265420Y-14936841D01*
X6265420Y-14936841D02*
X6265420Y-14898746D01*
X6265420Y-14898746D02*
X6274944Y-14851127D01*
X6274944Y-14851127D02*
X6284468Y-14822555D01*
X6284468Y-14822555D02*
X6293991Y-14803508D01*
X6293991Y-14803508D02*
X6313039Y-14774936D01*
X6313039Y-14774936D02*
X6322563Y-14765412D01*
X6379706Y-14793984D02*
X6503515Y-14793984D01*
X6503515Y-14793984D02*
X6436848Y-14870174D01*
X6436848Y-14870174D02*
X6465420Y-14870174D01*
X6465420Y-14870174D02*
X6484468Y-14879698D01*
X6484468Y-14879698D02*
X6493991Y-14889222D01*
X6493991Y-14889222D02*
X6503515Y-14908269D01*
X6503515Y-14908269D02*
X6503515Y-14955888D01*
X6503515Y-14955888D02*
X6493991Y-14974936D01*
X6493991Y-14974936D02*
X6484468Y-14984460D01*
X6484468Y-14984460D02*
X6465420Y-14993984D01*
X6465420Y-14993984D02*
X6408277Y-14993984D01*
X6408277Y-14993984D02*
X6389229Y-14984460D01*
X6389229Y-14984460D02*
X6379706Y-14974936D01*
X6627325Y-14793984D02*
X6646372Y-14793984D01*
X6646372Y-14793984D02*
X6665420Y-14803508D01*
X6665420Y-14803508D02*
X6674944Y-14813031D01*
X6674944Y-14813031D02*
X6684468Y-14832079D01*
X6684468Y-14832079D02*
X6693991Y-14870174D01*
X6693991Y-14870174D02*
X6693991Y-14917793D01*
X6693991Y-14917793D02*
X6684468Y-14955888D01*
X6684468Y-14955888D02*
X6674944Y-14974936D01*
X6674944Y-14974936D02*
X6665420Y-14984460D01*
X6665420Y-14984460D02*
X6646372Y-14993984D01*
X6646372Y-14993984D02*
X6627325Y-14993984D01*
X6627325Y-14993984D02*
X6608277Y-14984460D01*
X6608277Y-14984460D02*
X6598753Y-14974936D01*
X6598753Y-14974936D02*
X6589229Y-14955888D01*
X6589229Y-14955888D02*
X6579706Y-14917793D01*
X6579706Y-14917793D02*
X6579706Y-14870174D01*
X6579706Y-14870174D02*
X6589229Y-14832079D01*
X6589229Y-14832079D02*
X6598753Y-14813031D01*
X6598753Y-14813031D02*
X6608277Y-14803508D01*
X6608277Y-14803508D02*
X6627325Y-14793984D01*
X6817801Y-14793984D02*
X6836849Y-14793984D01*
X6836849Y-14793984D02*
X6855896Y-14803508D01*
X6855896Y-14803508D02*
X6865420Y-14813031D01*
X6865420Y-14813031D02*
X6874944Y-14832079D01*
X6874944Y-14832079D02*
X6884468Y-14870174D01*
X6884468Y-14870174D02*
X6884468Y-14917793D01*
X6884468Y-14917793D02*
X6874944Y-14955888D01*
X6874944Y-14955888D02*
X6865420Y-14974936D01*
X6865420Y-14974936D02*
X6855896Y-14984460D01*
X6855896Y-14984460D02*
X6836849Y-14993984D01*
X6836849Y-14993984D02*
X6817801Y-14993984D01*
X6817801Y-14993984D02*
X6798753Y-14984460D01*
X6798753Y-14984460D02*
X6789229Y-14974936D01*
X6789229Y-14974936D02*
X6779706Y-14955888D01*
X6779706Y-14955888D02*
X6770182Y-14917793D01*
X6770182Y-14917793D02*
X6770182Y-14870174D01*
X6770182Y-14870174D02*
X6779706Y-14832079D01*
X6779706Y-14832079D02*
X6789229Y-14813031D01*
X6789229Y-14813031D02*
X6798753Y-14803508D01*
X6798753Y-14803508D02*
X6817801Y-14793984D01*
X7122563Y-14993984D02*
X7122563Y-14793984D01*
X7208277Y-14993984D02*
X7208277Y-14889222D01*
X7208277Y-14889222D02*
X7198753Y-14870174D01*
X7198753Y-14870174D02*
X7179706Y-14860650D01*
X7179706Y-14860650D02*
X7151134Y-14860650D01*
X7151134Y-14860650D02*
X7132087Y-14870174D01*
X7132087Y-14870174D02*
X7122563Y-14879698D01*
X7332087Y-14993984D02*
X7313039Y-14984460D01*
X7313039Y-14984460D02*
X7303515Y-14974936D01*
X7303515Y-14974936D02*
X7293991Y-14955888D01*
X7293991Y-14955888D02*
X7293991Y-14898746D01*
X7293991Y-14898746D02*
X7303515Y-14879698D01*
X7303515Y-14879698D02*
X7313039Y-14870174D01*
X7313039Y-14870174D02*
X7332087Y-14860650D01*
X7332087Y-14860650D02*
X7360658Y-14860650D01*
X7360658Y-14860650D02*
X7379706Y-14870174D01*
X7379706Y-14870174D02*
X7389230Y-14879698D01*
X7389230Y-14879698D02*
X7398753Y-14898746D01*
X7398753Y-14898746D02*
X7398753Y-14955888D01*
X7398753Y-14955888D02*
X7389230Y-14974936D01*
X7389230Y-14974936D02*
X7379706Y-14984460D01*
X7379706Y-14984460D02*
X7360658Y-14993984D01*
X7360658Y-14993984D02*
X7332087Y-14993984D01*
X7513039Y-14993984D02*
X7493991Y-14984460D01*
X7493991Y-14984460D02*
X7484468Y-14965412D01*
X7484468Y-14965412D02*
X7484468Y-14793984D01*
X7665420Y-14984460D02*
X7646372Y-14993984D01*
X7646372Y-14993984D02*
X7608277Y-14993984D01*
X7608277Y-14993984D02*
X7589230Y-14984460D01*
X7589230Y-14984460D02*
X7579706Y-14965412D01*
X7579706Y-14965412D02*
X7579706Y-14889222D01*
X7579706Y-14889222D02*
X7589230Y-14870174D01*
X7589230Y-14870174D02*
X7608277Y-14860650D01*
X7608277Y-14860650D02*
X7646372Y-14860650D01*
X7646372Y-14860650D02*
X7665420Y-14870174D01*
X7665420Y-14870174D02*
X7674944Y-14889222D01*
X7674944Y-14889222D02*
X7674944Y-14908269D01*
X7674944Y-14908269D02*
X7579706Y-14927317D01*
X7751134Y-14984460D02*
X7770182Y-14993984D01*
X7770182Y-14993984D02*
X7808277Y-14993984D01*
X7808277Y-14993984D02*
X7827325Y-14984460D01*
X7827325Y-14984460D02*
X7836849Y-14965412D01*
X7836849Y-14965412D02*
X7836849Y-14955888D01*
X7836849Y-14955888D02*
X7827325Y-14936841D01*
X7827325Y-14936841D02*
X7808277Y-14927317D01*
X7808277Y-14927317D02*
X7779706Y-14927317D01*
X7779706Y-14927317D02*
X7760658Y-14917793D01*
X7760658Y-14917793D02*
X7751134Y-14898746D01*
X7751134Y-14898746D02*
X7751134Y-14889222D01*
X7751134Y-14889222D02*
X7760658Y-14870174D01*
X7760658Y-14870174D02*
X7779706Y-14860650D01*
X7779706Y-14860650D02*
X7808277Y-14860650D01*
X7808277Y-14860650D02*
X7827325Y-14870174D01*
X7903515Y-15070174D02*
X7913039Y-15060650D01*
X7913039Y-15060650D02*
X7932087Y-15032079D01*
X7932087Y-15032079D02*
X7941611Y-15013031D01*
X7941611Y-15013031D02*
X7951134Y-14984460D01*
X7951134Y-14984460D02*
X7960658Y-14936841D01*
X7960658Y-14936841D02*
X7960658Y-14898746D01*
X7960658Y-14898746D02*
X7951134Y-14851127D01*
X7951134Y-14851127D02*
X7941611Y-14822555D01*
X7941611Y-14822555D02*
X7932087Y-14803508D01*
X7932087Y-14803508D02*
X7913039Y-14774936D01*
X7913039Y-14774936D02*
X7903515Y-14765412D01*
D12*
X2747500Y-15166500D02*
G75*
G02*
X2682500Y-15166500I-32500J0D01*
G01*
X2682500Y-15166500D02*
G75*
G02*
X2747500Y-15166500I32500J0D01*
G01*
D11*
X3046372Y-15057984D02*
X3065420Y-15057984D01*
X3065420Y-15057984D02*
X3084467Y-15067508D01*
X3084467Y-15067508D02*
X3093991Y-15077031D01*
X3093991Y-15077031D02*
X3103515Y-15096079D01*
X3103515Y-15096079D02*
X3113039Y-15134174D01*
X3113039Y-15134174D02*
X3113039Y-15181793D01*
X3113039Y-15181793D02*
X3103515Y-15219888D01*
X3103515Y-15219888D02*
X3093991Y-15238936D01*
X3093991Y-15238936D02*
X3084467Y-15248460D01*
X3084467Y-15248460D02*
X3065420Y-15257984D01*
X3065420Y-15257984D02*
X3046372Y-15257984D01*
X3046372Y-15257984D02*
X3027324Y-15248460D01*
X3027324Y-15248460D02*
X3017801Y-15238936D01*
X3017801Y-15238936D02*
X3008277Y-15219888D01*
X3008277Y-15219888D02*
X2998753Y-15181793D01*
X2998753Y-15181793D02*
X2998753Y-15134174D01*
X2998753Y-15134174D02*
X3008277Y-15096079D01*
X3008277Y-15096079D02*
X3017801Y-15077031D01*
X3017801Y-15077031D02*
X3027324Y-15067508D01*
X3027324Y-15067508D02*
X3046372Y-15057984D01*
X3198753Y-15238936D02*
X3208277Y-15248460D01*
X3208277Y-15248460D02*
X3198753Y-15257984D01*
X3198753Y-15257984D02*
X3189229Y-15248460D01*
X3189229Y-15248460D02*
X3198753Y-15238936D01*
X3198753Y-15238936D02*
X3198753Y-15257984D01*
X3379705Y-15057984D02*
X3341610Y-15057984D01*
X3341610Y-15057984D02*
X3322562Y-15067508D01*
X3322562Y-15067508D02*
X3313039Y-15077031D01*
X3313039Y-15077031D02*
X3293991Y-15105603D01*
X3293991Y-15105603D02*
X3284467Y-15143698D01*
X3284467Y-15143698D02*
X3284467Y-15219888D01*
X3284467Y-15219888D02*
X3293991Y-15238936D01*
X3293991Y-15238936D02*
X3303515Y-15248460D01*
X3303515Y-15248460D02*
X3322562Y-15257984D01*
X3322562Y-15257984D02*
X3360658Y-15257984D01*
X3360658Y-15257984D02*
X3379705Y-15248460D01*
X3379705Y-15248460D02*
X3389229Y-15238936D01*
X3389229Y-15238936D02*
X3398753Y-15219888D01*
X3398753Y-15219888D02*
X3398753Y-15172269D01*
X3398753Y-15172269D02*
X3389229Y-15153222D01*
X3389229Y-15153222D02*
X3379705Y-15143698D01*
X3379705Y-15143698D02*
X3360658Y-15134174D01*
X3360658Y-15134174D02*
X3322562Y-15134174D01*
X3322562Y-15134174D02*
X3303515Y-15143698D01*
X3303515Y-15143698D02*
X3293991Y-15153222D01*
X3293991Y-15153222D02*
X3284467Y-15172269D01*
X3579705Y-15057984D02*
X3484467Y-15057984D01*
X3484467Y-15057984D02*
X3474943Y-15153222D01*
X3474943Y-15153222D02*
X3484467Y-15143698D01*
X3484467Y-15143698D02*
X3503515Y-15134174D01*
X3503515Y-15134174D02*
X3551134Y-15134174D01*
X3551134Y-15134174D02*
X3570182Y-15143698D01*
X3570182Y-15143698D02*
X3579705Y-15153222D01*
X3579705Y-15153222D02*
X3589229Y-15172269D01*
X3589229Y-15172269D02*
X3589229Y-15219888D01*
X3589229Y-15219888D02*
X3579705Y-15238936D01*
X3579705Y-15238936D02*
X3570182Y-15248460D01*
X3570182Y-15248460D02*
X3551134Y-15257984D01*
X3551134Y-15257984D02*
X3503515Y-15257984D01*
X3503515Y-15257984D02*
X3484467Y-15248460D01*
X3484467Y-15248460D02*
X3474943Y-15238936D01*
X3713039Y-15057984D02*
X3732086Y-15057984D01*
X3732086Y-15057984D02*
X3751134Y-15067508D01*
X3751134Y-15067508D02*
X3760658Y-15077031D01*
X3760658Y-15077031D02*
X3770182Y-15096079D01*
X3770182Y-15096079D02*
X3779705Y-15134174D01*
X3779705Y-15134174D02*
X3779705Y-15181793D01*
X3779705Y-15181793D02*
X3770182Y-15219888D01*
X3770182Y-15219888D02*
X3760658Y-15238936D01*
X3760658Y-15238936D02*
X3751134Y-15248460D01*
X3751134Y-15248460D02*
X3732086Y-15257984D01*
X3732086Y-15257984D02*
X3713039Y-15257984D01*
X3713039Y-15257984D02*
X3693991Y-15248460D01*
X3693991Y-15248460D02*
X3684467Y-15238936D01*
X3684467Y-15238936D02*
X3674943Y-15219888D01*
X3674943Y-15219888D02*
X3665420Y-15181793D01*
X3665420Y-15181793D02*
X3665420Y-15134174D01*
X3665420Y-15134174D02*
X3674943Y-15096079D01*
X3674943Y-15096079D02*
X3684467Y-15077031D01*
X3684467Y-15077031D02*
X3693991Y-15067508D01*
X3693991Y-15067508D02*
X3713039Y-15057984D01*
X3865420Y-15257984D02*
X3865420Y-15124650D01*
X3865420Y-15143698D02*
X3874943Y-15134174D01*
X3874943Y-15134174D02*
X3893991Y-15124650D01*
X3893991Y-15124650D02*
X3922563Y-15124650D01*
X3922563Y-15124650D02*
X3941610Y-15134174D01*
X3941610Y-15134174D02*
X3951134Y-15153222D01*
X3951134Y-15153222D02*
X3951134Y-15257984D01*
X3951134Y-15153222D02*
X3960658Y-15134174D01*
X3960658Y-15134174D02*
X3979705Y-15124650D01*
X3979705Y-15124650D02*
X4008277Y-15124650D01*
X4008277Y-15124650D02*
X4027324Y-15134174D01*
X4027324Y-15134174D02*
X4036848Y-15153222D01*
X4036848Y-15153222D02*
X4036848Y-15257984D01*
X4132086Y-15257984D02*
X4132086Y-15124650D01*
X4132086Y-15143698D02*
X4141610Y-15134174D01*
X4141610Y-15134174D02*
X4160658Y-15124650D01*
X4160658Y-15124650D02*
X4189229Y-15124650D01*
X4189229Y-15124650D02*
X4208277Y-15134174D01*
X4208277Y-15134174D02*
X4217801Y-15153222D01*
X4217801Y-15153222D02*
X4217801Y-15257984D01*
X4217801Y-15153222D02*
X4227325Y-15134174D01*
X4227325Y-15134174D02*
X4246372Y-15124650D01*
X4246372Y-15124650D02*
X4274944Y-15124650D01*
X4274944Y-15124650D02*
X4293991Y-15134174D01*
X4293991Y-15134174D02*
X4303515Y-15153222D01*
X4303515Y-15153222D02*
X4303515Y-15257984D01*
X4693991Y-15048460D02*
X4522563Y-15305603D01*
X4951134Y-15057984D02*
X4970182Y-15057984D01*
X4970182Y-15057984D02*
X4989229Y-15067508D01*
X4989229Y-15067508D02*
X4998753Y-15077031D01*
X4998753Y-15077031D02*
X5008277Y-15096079D01*
X5008277Y-15096079D02*
X5017801Y-15134174D01*
X5017801Y-15134174D02*
X5017801Y-15181793D01*
X5017801Y-15181793D02*
X5008277Y-15219888D01*
X5008277Y-15219888D02*
X4998753Y-15238936D01*
X4998753Y-15238936D02*
X4989229Y-15248460D01*
X4989229Y-15248460D02*
X4970182Y-15257984D01*
X4970182Y-15257984D02*
X4951134Y-15257984D01*
X4951134Y-15257984D02*
X4932087Y-15248460D01*
X4932087Y-15248460D02*
X4922563Y-15238936D01*
X4922563Y-15238936D02*
X4913039Y-15219888D01*
X4913039Y-15219888D02*
X4903515Y-15181793D01*
X4903515Y-15181793D02*
X4903515Y-15134174D01*
X4903515Y-15134174D02*
X4913039Y-15096079D01*
X4913039Y-15096079D02*
X4922563Y-15077031D01*
X4922563Y-15077031D02*
X4932087Y-15067508D01*
X4932087Y-15067508D02*
X4951134Y-15057984D01*
X5103515Y-15238936D02*
X5113039Y-15248460D01*
X5113039Y-15248460D02*
X5103515Y-15257984D01*
X5103515Y-15257984D02*
X5093991Y-15248460D01*
X5093991Y-15248460D02*
X5103515Y-15238936D01*
X5103515Y-15238936D02*
X5103515Y-15257984D01*
X5236848Y-15057984D02*
X5255896Y-15057984D01*
X5255896Y-15057984D02*
X5274944Y-15067508D01*
X5274944Y-15067508D02*
X5284468Y-15077031D01*
X5284468Y-15077031D02*
X5293991Y-15096079D01*
X5293991Y-15096079D02*
X5303515Y-15134174D01*
X5303515Y-15134174D02*
X5303515Y-15181793D01*
X5303515Y-15181793D02*
X5293991Y-15219888D01*
X5293991Y-15219888D02*
X5284468Y-15238936D01*
X5284468Y-15238936D02*
X5274944Y-15248460D01*
X5274944Y-15248460D02*
X5255896Y-15257984D01*
X5255896Y-15257984D02*
X5236848Y-15257984D01*
X5236848Y-15257984D02*
X5217801Y-15248460D01*
X5217801Y-15248460D02*
X5208277Y-15238936D01*
X5208277Y-15238936D02*
X5198753Y-15219888D01*
X5198753Y-15219888D02*
X5189229Y-15181793D01*
X5189229Y-15181793D02*
X5189229Y-15134174D01*
X5189229Y-15134174D02*
X5198753Y-15096079D01*
X5198753Y-15096079D02*
X5208277Y-15077031D01*
X5208277Y-15077031D02*
X5217801Y-15067508D01*
X5217801Y-15067508D02*
X5236848Y-15057984D01*
X5379706Y-15077031D02*
X5389229Y-15067508D01*
X5389229Y-15067508D02*
X5408277Y-15057984D01*
X5408277Y-15057984D02*
X5455896Y-15057984D01*
X5455896Y-15057984D02*
X5474944Y-15067508D01*
X5474944Y-15067508D02*
X5484468Y-15077031D01*
X5484468Y-15077031D02*
X5493991Y-15096079D01*
X5493991Y-15096079D02*
X5493991Y-15115127D01*
X5493991Y-15115127D02*
X5484468Y-15143698D01*
X5484468Y-15143698D02*
X5370182Y-15257984D01*
X5370182Y-15257984D02*
X5493991Y-15257984D01*
X5674944Y-15057984D02*
X5579706Y-15057984D01*
X5579706Y-15057984D02*
X5570182Y-15153222D01*
X5570182Y-15153222D02*
X5579706Y-15143698D01*
X5579706Y-15143698D02*
X5598753Y-15134174D01*
X5598753Y-15134174D02*
X5646372Y-15134174D01*
X5646372Y-15134174D02*
X5665420Y-15143698D01*
X5665420Y-15143698D02*
X5674944Y-15153222D01*
X5674944Y-15153222D02*
X5684467Y-15172269D01*
X5684467Y-15172269D02*
X5684467Y-15219888D01*
X5684467Y-15219888D02*
X5674944Y-15238936D01*
X5674944Y-15238936D02*
X5665420Y-15248460D01*
X5665420Y-15248460D02*
X5646372Y-15257984D01*
X5646372Y-15257984D02*
X5598753Y-15257984D01*
X5598753Y-15257984D02*
X5579706Y-15248460D01*
X5579706Y-15248460D02*
X5570182Y-15238936D01*
X5855896Y-15057984D02*
X5817801Y-15057984D01*
X5817801Y-15057984D02*
X5798753Y-15067508D01*
X5798753Y-15067508D02*
X5789229Y-15077031D01*
X5789229Y-15077031D02*
X5770182Y-15105603D01*
X5770182Y-15105603D02*
X5760658Y-15143698D01*
X5760658Y-15143698D02*
X5760658Y-15219888D01*
X5760658Y-15219888D02*
X5770182Y-15238936D01*
X5770182Y-15238936D02*
X5779706Y-15248460D01*
X5779706Y-15248460D02*
X5798753Y-15257984D01*
X5798753Y-15257984D02*
X5836848Y-15257984D01*
X5836848Y-15257984D02*
X5855896Y-15248460D01*
X5855896Y-15248460D02*
X5865420Y-15238936D01*
X5865420Y-15238936D02*
X5874944Y-15219888D01*
X5874944Y-15219888D02*
X5874944Y-15172269D01*
X5874944Y-15172269D02*
X5865420Y-15153222D01*
X5865420Y-15153222D02*
X5855896Y-15143698D01*
X5855896Y-15143698D02*
X5836848Y-15134174D01*
X5836848Y-15134174D02*
X5798753Y-15134174D01*
X5798753Y-15134174D02*
X5779706Y-15143698D01*
X5779706Y-15143698D02*
X5770182Y-15153222D01*
X5770182Y-15153222D02*
X5760658Y-15172269D01*
X5951134Y-15057984D02*
X5951134Y-15096079D01*
X6027325Y-15057984D02*
X6027325Y-15096079D01*
X6322563Y-15334174D02*
X6313039Y-15324650D01*
X6313039Y-15324650D02*
X6293991Y-15296079D01*
X6293991Y-15296079D02*
X6284468Y-15277031D01*
X6284468Y-15277031D02*
X6274944Y-15248460D01*
X6274944Y-15248460D02*
X6265420Y-15200841D01*
X6265420Y-15200841D02*
X6265420Y-15162746D01*
X6265420Y-15162746D02*
X6274944Y-15115127D01*
X6274944Y-15115127D02*
X6284468Y-15086555D01*
X6284468Y-15086555D02*
X6293991Y-15067508D01*
X6293991Y-15067508D02*
X6313039Y-15038936D01*
X6313039Y-15038936D02*
X6322563Y-15029412D01*
X6436848Y-15057984D02*
X6455896Y-15057984D01*
X6455896Y-15057984D02*
X6474944Y-15067508D01*
X6474944Y-15067508D02*
X6484468Y-15077031D01*
X6484468Y-15077031D02*
X6493991Y-15096079D01*
X6493991Y-15096079D02*
X6503515Y-15134174D01*
X6503515Y-15134174D02*
X6503515Y-15181793D01*
X6503515Y-15181793D02*
X6493991Y-15219888D01*
X6493991Y-15219888D02*
X6484468Y-15238936D01*
X6484468Y-15238936D02*
X6474944Y-15248460D01*
X6474944Y-15248460D02*
X6455896Y-15257984D01*
X6455896Y-15257984D02*
X6436848Y-15257984D01*
X6436848Y-15257984D02*
X6417801Y-15248460D01*
X6417801Y-15248460D02*
X6408277Y-15238936D01*
X6408277Y-15238936D02*
X6398753Y-15219888D01*
X6398753Y-15219888D02*
X6389229Y-15181793D01*
X6389229Y-15181793D02*
X6389229Y-15134174D01*
X6389229Y-15134174D02*
X6398753Y-15096079D01*
X6398753Y-15096079D02*
X6408277Y-15077031D01*
X6408277Y-15077031D02*
X6417801Y-15067508D01*
X6417801Y-15067508D02*
X6436848Y-15057984D01*
X6741610Y-15257984D02*
X6741610Y-15057984D01*
X6827325Y-15257984D02*
X6827325Y-15153222D01*
X6827325Y-15153222D02*
X6817801Y-15134174D01*
X6817801Y-15134174D02*
X6798753Y-15124650D01*
X6798753Y-15124650D02*
X6770182Y-15124650D01*
X6770182Y-15124650D02*
X6751134Y-15134174D01*
X6751134Y-15134174D02*
X6741610Y-15143698D01*
X6951134Y-15257984D02*
X6932087Y-15248460D01*
X6932087Y-15248460D02*
X6922563Y-15238936D01*
X6922563Y-15238936D02*
X6913039Y-15219888D01*
X6913039Y-15219888D02*
X6913039Y-15162746D01*
X6913039Y-15162746D02*
X6922563Y-15143698D01*
X6922563Y-15143698D02*
X6932087Y-15134174D01*
X6932087Y-15134174D02*
X6951134Y-15124650D01*
X6951134Y-15124650D02*
X6979706Y-15124650D01*
X6979706Y-15124650D02*
X6998753Y-15134174D01*
X6998753Y-15134174D02*
X7008277Y-15143698D01*
X7008277Y-15143698D02*
X7017801Y-15162746D01*
X7017801Y-15162746D02*
X7017801Y-15219888D01*
X7017801Y-15219888D02*
X7008277Y-15238936D01*
X7008277Y-15238936D02*
X6998753Y-15248460D01*
X6998753Y-15248460D02*
X6979706Y-15257984D01*
X6979706Y-15257984D02*
X6951134Y-15257984D01*
X7132087Y-15257984D02*
X7113039Y-15248460D01*
X7113039Y-15248460D02*
X7103515Y-15229412D01*
X7103515Y-15229412D02*
X7103515Y-15057984D01*
X7284468Y-15248460D02*
X7265420Y-15257984D01*
X7265420Y-15257984D02*
X7227325Y-15257984D01*
X7227325Y-15257984D02*
X7208277Y-15248460D01*
X7208277Y-15248460D02*
X7198753Y-15229412D01*
X7198753Y-15229412D02*
X7198753Y-15153222D01*
X7198753Y-15153222D02*
X7208277Y-15134174D01*
X7208277Y-15134174D02*
X7227325Y-15124650D01*
X7227325Y-15124650D02*
X7265420Y-15124650D01*
X7265420Y-15124650D02*
X7284468Y-15134174D01*
X7284468Y-15134174D02*
X7293991Y-15153222D01*
X7293991Y-15153222D02*
X7293991Y-15172269D01*
X7293991Y-15172269D02*
X7198753Y-15191317D01*
X7370182Y-15248460D02*
X7389230Y-15257984D01*
X7389230Y-15257984D02*
X7427325Y-15257984D01*
X7427325Y-15257984D02*
X7446372Y-15248460D01*
X7446372Y-15248460D02*
X7455896Y-15229412D01*
X7455896Y-15229412D02*
X7455896Y-15219888D01*
X7455896Y-15219888D02*
X7446372Y-15200841D01*
X7446372Y-15200841D02*
X7427325Y-15191317D01*
X7427325Y-15191317D02*
X7398753Y-15191317D01*
X7398753Y-15191317D02*
X7379706Y-15181793D01*
X7379706Y-15181793D02*
X7370182Y-15162746D01*
X7370182Y-15162746D02*
X7370182Y-15153222D01*
X7370182Y-15153222D02*
X7379706Y-15134174D01*
X7379706Y-15134174D02*
X7398753Y-15124650D01*
X7398753Y-15124650D02*
X7427325Y-15124650D01*
X7427325Y-15124650D02*
X7446372Y-15134174D01*
X7693992Y-15181793D02*
X7846373Y-15181793D01*
X7770182Y-15257984D02*
X7770182Y-15105603D01*
X8179706Y-15124650D02*
X8179706Y-15257984D01*
X8132087Y-15048460D02*
X8084468Y-15191317D01*
X8084468Y-15191317D02*
X8208277Y-15191317D01*
X8427325Y-15248460D02*
X8446373Y-15257984D01*
X8446373Y-15257984D02*
X8484468Y-15257984D01*
X8484468Y-15257984D02*
X8503516Y-15248460D01*
X8503516Y-15248460D02*
X8513039Y-15229412D01*
X8513039Y-15229412D02*
X8513039Y-15219888D01*
X8513039Y-15219888D02*
X8503516Y-15200841D01*
X8503516Y-15200841D02*
X8484468Y-15191317D01*
X8484468Y-15191317D02*
X8455896Y-15191317D01*
X8455896Y-15191317D02*
X8436849Y-15181793D01*
X8436849Y-15181793D02*
X8427325Y-15162746D01*
X8427325Y-15162746D02*
X8427325Y-15153222D01*
X8427325Y-15153222D02*
X8436849Y-15134174D01*
X8436849Y-15134174D02*
X8455896Y-15124650D01*
X8455896Y-15124650D02*
X8484468Y-15124650D01*
X8484468Y-15124650D02*
X8503516Y-15134174D01*
X8627325Y-15257984D02*
X8608277Y-15248460D01*
X8608277Y-15248460D02*
X8598754Y-15229412D01*
X8598754Y-15229412D02*
X8598754Y-15057984D01*
X8732087Y-15257984D02*
X8713039Y-15248460D01*
X8713039Y-15248460D02*
X8703516Y-15238936D01*
X8703516Y-15238936D02*
X8693992Y-15219888D01*
X8693992Y-15219888D02*
X8693992Y-15162746D01*
X8693992Y-15162746D02*
X8703516Y-15143698D01*
X8703516Y-15143698D02*
X8713039Y-15134174D01*
X8713039Y-15134174D02*
X8732087Y-15124650D01*
X8732087Y-15124650D02*
X8760658Y-15124650D01*
X8760658Y-15124650D02*
X8779706Y-15134174D01*
X8779706Y-15134174D02*
X8789230Y-15143698D01*
X8789230Y-15143698D02*
X8798754Y-15162746D01*
X8798754Y-15162746D02*
X8798754Y-15219888D01*
X8798754Y-15219888D02*
X8789230Y-15238936D01*
X8789230Y-15238936D02*
X8779706Y-15248460D01*
X8779706Y-15248460D02*
X8760658Y-15257984D01*
X8760658Y-15257984D02*
X8732087Y-15257984D01*
X8855897Y-15124650D02*
X8932087Y-15124650D01*
X8884468Y-15057984D02*
X8884468Y-15229412D01*
X8884468Y-15229412D02*
X8893992Y-15248460D01*
X8893992Y-15248460D02*
X8913039Y-15257984D01*
X8913039Y-15257984D02*
X8932087Y-15257984D01*
X8989230Y-15248460D02*
X9008277Y-15257984D01*
X9008277Y-15257984D02*
X9046373Y-15257984D01*
X9046373Y-15257984D02*
X9065420Y-15248460D01*
X9065420Y-15248460D02*
X9074944Y-15229412D01*
X9074944Y-15229412D02*
X9074944Y-15219888D01*
X9074944Y-15219888D02*
X9065420Y-15200841D01*
X9065420Y-15200841D02*
X9046373Y-15191317D01*
X9046373Y-15191317D02*
X9017801Y-15191317D01*
X9017801Y-15191317D02*
X8998754Y-15181793D01*
X8998754Y-15181793D02*
X8989230Y-15162746D01*
X8989230Y-15162746D02*
X8989230Y-15153222D01*
X8989230Y-15153222D02*
X8998754Y-15134174D01*
X8998754Y-15134174D02*
X9017801Y-15124650D01*
X9017801Y-15124650D02*
X9046373Y-15124650D01*
X9046373Y-15124650D02*
X9065420Y-15134174D01*
X9141611Y-15334174D02*
X9151135Y-15324650D01*
X9151135Y-15324650D02*
X9170182Y-15296079D01*
X9170182Y-15296079D02*
X9179706Y-15277031D01*
X9179706Y-15277031D02*
X9189230Y-15248460D01*
X9189230Y-15248460D02*
X9198754Y-15200841D01*
X9198754Y-15200841D02*
X9198754Y-15162746D01*
X9198754Y-15162746D02*
X9189230Y-15115127D01*
X9189230Y-15115127D02*
X9179706Y-15086555D01*
X9179706Y-15086555D02*
X9170182Y-15067508D01*
X9170182Y-15067508D02*
X9151135Y-15038936D01*
X9151135Y-15038936D02*
X9141611Y-15029412D01*
D13*
X2692500Y-15375500D02*
X2692500Y-15485500D01*
X2637500Y-15430500D02*
X2747500Y-15430500D01*
D11*
X3113039Y-15521984D02*
X2998753Y-15521984D01*
X3055896Y-15521984D02*
X3055896Y-15321984D01*
X3055896Y-15321984D02*
X3036848Y-15350555D01*
X3036848Y-15350555D02*
X3017801Y-15369603D01*
X3017801Y-15369603D02*
X2998753Y-15379127D01*
X3198753Y-15502936D02*
X3208277Y-15512460D01*
X3208277Y-15512460D02*
X3198753Y-15521984D01*
X3198753Y-15521984D02*
X3189229Y-15512460D01*
X3189229Y-15512460D02*
X3198753Y-15502936D01*
X3198753Y-15502936D02*
X3198753Y-15521984D01*
X3398753Y-15521984D02*
X3284467Y-15521984D01*
X3341610Y-15521984D02*
X3341610Y-15321984D01*
X3341610Y-15321984D02*
X3322562Y-15350555D01*
X3322562Y-15350555D02*
X3303515Y-15369603D01*
X3303515Y-15369603D02*
X3284467Y-15379127D01*
X3522562Y-15321984D02*
X3541610Y-15321984D01*
X3541610Y-15321984D02*
X3560658Y-15331508D01*
X3560658Y-15331508D02*
X3570182Y-15341031D01*
X3570182Y-15341031D02*
X3579705Y-15360079D01*
X3579705Y-15360079D02*
X3589229Y-15398174D01*
X3589229Y-15398174D02*
X3589229Y-15445793D01*
X3589229Y-15445793D02*
X3579705Y-15483888D01*
X3579705Y-15483888D02*
X3570182Y-15502936D01*
X3570182Y-15502936D02*
X3560658Y-15512460D01*
X3560658Y-15512460D02*
X3541610Y-15521984D01*
X3541610Y-15521984D02*
X3522562Y-15521984D01*
X3522562Y-15521984D02*
X3503515Y-15512460D01*
X3503515Y-15512460D02*
X3493991Y-15502936D01*
X3493991Y-15502936D02*
X3484467Y-15483888D01*
X3484467Y-15483888D02*
X3474943Y-15445793D01*
X3474943Y-15445793D02*
X3474943Y-15398174D01*
X3474943Y-15398174D02*
X3484467Y-15360079D01*
X3484467Y-15360079D02*
X3493991Y-15341031D01*
X3493991Y-15341031D02*
X3503515Y-15331508D01*
X3503515Y-15331508D02*
X3522562Y-15321984D01*
X3713039Y-15321984D02*
X3732086Y-15321984D01*
X3732086Y-15321984D02*
X3751134Y-15331508D01*
X3751134Y-15331508D02*
X3760658Y-15341031D01*
X3760658Y-15341031D02*
X3770182Y-15360079D01*
X3770182Y-15360079D02*
X3779705Y-15398174D01*
X3779705Y-15398174D02*
X3779705Y-15445793D01*
X3779705Y-15445793D02*
X3770182Y-15483888D01*
X3770182Y-15483888D02*
X3760658Y-15502936D01*
X3760658Y-15502936D02*
X3751134Y-15512460D01*
X3751134Y-15512460D02*
X3732086Y-15521984D01*
X3732086Y-15521984D02*
X3713039Y-15521984D01*
X3713039Y-15521984D02*
X3693991Y-15512460D01*
X3693991Y-15512460D02*
X3684467Y-15502936D01*
X3684467Y-15502936D02*
X3674943Y-15483888D01*
X3674943Y-15483888D02*
X3665420Y-15445793D01*
X3665420Y-15445793D02*
X3665420Y-15398174D01*
X3665420Y-15398174D02*
X3674943Y-15360079D01*
X3674943Y-15360079D02*
X3684467Y-15341031D01*
X3684467Y-15341031D02*
X3693991Y-15331508D01*
X3693991Y-15331508D02*
X3713039Y-15321984D01*
X3865420Y-15521984D02*
X3865420Y-15388650D01*
X3865420Y-15407698D02*
X3874943Y-15398174D01*
X3874943Y-15398174D02*
X3893991Y-15388650D01*
X3893991Y-15388650D02*
X3922563Y-15388650D01*
X3922563Y-15388650D02*
X3941610Y-15398174D01*
X3941610Y-15398174D02*
X3951134Y-15417222D01*
X3951134Y-15417222D02*
X3951134Y-15521984D01*
X3951134Y-15417222D02*
X3960658Y-15398174D01*
X3960658Y-15398174D02*
X3979705Y-15388650D01*
X3979705Y-15388650D02*
X4008277Y-15388650D01*
X4008277Y-15388650D02*
X4027324Y-15398174D01*
X4027324Y-15398174D02*
X4036848Y-15417222D01*
X4036848Y-15417222D02*
X4036848Y-15521984D01*
X4132086Y-15521984D02*
X4132086Y-15388650D01*
X4132086Y-15407698D02*
X4141610Y-15398174D01*
X4141610Y-15398174D02*
X4160658Y-15388650D01*
X4160658Y-15388650D02*
X4189229Y-15388650D01*
X4189229Y-15388650D02*
X4208277Y-15398174D01*
X4208277Y-15398174D02*
X4217801Y-15417222D01*
X4217801Y-15417222D02*
X4217801Y-15521984D01*
X4217801Y-15417222D02*
X4227325Y-15398174D01*
X4227325Y-15398174D02*
X4246372Y-15388650D01*
X4246372Y-15388650D02*
X4274944Y-15388650D01*
X4274944Y-15388650D02*
X4293991Y-15398174D01*
X4293991Y-15398174D02*
X4303515Y-15417222D01*
X4303515Y-15417222D02*
X4303515Y-15521984D01*
X4693991Y-15312460D02*
X4522563Y-15569603D01*
X4951134Y-15321984D02*
X4970182Y-15321984D01*
X4970182Y-15321984D02*
X4989229Y-15331508D01*
X4989229Y-15331508D02*
X4998753Y-15341031D01*
X4998753Y-15341031D02*
X5008277Y-15360079D01*
X5008277Y-15360079D02*
X5017801Y-15398174D01*
X5017801Y-15398174D02*
X5017801Y-15445793D01*
X5017801Y-15445793D02*
X5008277Y-15483888D01*
X5008277Y-15483888D02*
X4998753Y-15502936D01*
X4998753Y-15502936D02*
X4989229Y-15512460D01*
X4989229Y-15512460D02*
X4970182Y-15521984D01*
X4970182Y-15521984D02*
X4951134Y-15521984D01*
X4951134Y-15521984D02*
X4932087Y-15512460D01*
X4932087Y-15512460D02*
X4922563Y-15502936D01*
X4922563Y-15502936D02*
X4913039Y-15483888D01*
X4913039Y-15483888D02*
X4903515Y-15445793D01*
X4903515Y-15445793D02*
X4903515Y-15398174D01*
X4903515Y-15398174D02*
X4913039Y-15360079D01*
X4913039Y-15360079D02*
X4922563Y-15341031D01*
X4922563Y-15341031D02*
X4932087Y-15331508D01*
X4932087Y-15331508D02*
X4951134Y-15321984D01*
X5103515Y-15502936D02*
X5113039Y-15512460D01*
X5113039Y-15512460D02*
X5103515Y-15521984D01*
X5103515Y-15521984D02*
X5093991Y-15512460D01*
X5093991Y-15512460D02*
X5103515Y-15502936D01*
X5103515Y-15502936D02*
X5103515Y-15521984D01*
X5236848Y-15321984D02*
X5255896Y-15321984D01*
X5255896Y-15321984D02*
X5274944Y-15331508D01*
X5274944Y-15331508D02*
X5284468Y-15341031D01*
X5284468Y-15341031D02*
X5293991Y-15360079D01*
X5293991Y-15360079D02*
X5303515Y-15398174D01*
X5303515Y-15398174D02*
X5303515Y-15445793D01*
X5303515Y-15445793D02*
X5293991Y-15483888D01*
X5293991Y-15483888D02*
X5284468Y-15502936D01*
X5284468Y-15502936D02*
X5274944Y-15512460D01*
X5274944Y-15512460D02*
X5255896Y-15521984D01*
X5255896Y-15521984D02*
X5236848Y-15521984D01*
X5236848Y-15521984D02*
X5217801Y-15512460D01*
X5217801Y-15512460D02*
X5208277Y-15502936D01*
X5208277Y-15502936D02*
X5198753Y-15483888D01*
X5198753Y-15483888D02*
X5189229Y-15445793D01*
X5189229Y-15445793D02*
X5189229Y-15398174D01*
X5189229Y-15398174D02*
X5198753Y-15360079D01*
X5198753Y-15360079D02*
X5208277Y-15341031D01*
X5208277Y-15341031D02*
X5217801Y-15331508D01*
X5217801Y-15331508D02*
X5236848Y-15321984D01*
X5474944Y-15388650D02*
X5474944Y-15521984D01*
X5427325Y-15312460D02*
X5379706Y-15455317D01*
X5379706Y-15455317D02*
X5503515Y-15455317D01*
X5560658Y-15321984D02*
X5684467Y-15321984D01*
X5684467Y-15321984D02*
X5617801Y-15398174D01*
X5617801Y-15398174D02*
X5646372Y-15398174D01*
X5646372Y-15398174D02*
X5665420Y-15407698D01*
X5665420Y-15407698D02*
X5674944Y-15417222D01*
X5674944Y-15417222D02*
X5684467Y-15436269D01*
X5684467Y-15436269D02*
X5684467Y-15483888D01*
X5684467Y-15483888D02*
X5674944Y-15502936D01*
X5674944Y-15502936D02*
X5665420Y-15512460D01*
X5665420Y-15512460D02*
X5646372Y-15521984D01*
X5646372Y-15521984D02*
X5589229Y-15521984D01*
X5589229Y-15521984D02*
X5570182Y-15512460D01*
X5570182Y-15512460D02*
X5560658Y-15502936D01*
X5751134Y-15321984D02*
X5874944Y-15321984D01*
X5874944Y-15321984D02*
X5808277Y-15398174D01*
X5808277Y-15398174D02*
X5836848Y-15398174D01*
X5836848Y-15398174D02*
X5855896Y-15407698D01*
X5855896Y-15407698D02*
X5865420Y-15417222D01*
X5865420Y-15417222D02*
X5874944Y-15436269D01*
X5874944Y-15436269D02*
X5874944Y-15483888D01*
X5874944Y-15483888D02*
X5865420Y-15502936D01*
X5865420Y-15502936D02*
X5855896Y-15512460D01*
X5855896Y-15512460D02*
X5836848Y-15521984D01*
X5836848Y-15521984D02*
X5779706Y-15521984D01*
X5779706Y-15521984D02*
X5760658Y-15512460D01*
X5760658Y-15512460D02*
X5751134Y-15502936D01*
X5951134Y-15321984D02*
X5951134Y-15360079D01*
X6027325Y-15321984D02*
X6027325Y-15360079D01*
X6322563Y-15598174D02*
X6313039Y-15588650D01*
X6313039Y-15588650D02*
X6293991Y-15560079D01*
X6293991Y-15560079D02*
X6284468Y-15541031D01*
X6284468Y-15541031D02*
X6274944Y-15512460D01*
X6274944Y-15512460D02*
X6265420Y-15464841D01*
X6265420Y-15464841D02*
X6265420Y-15426746D01*
X6265420Y-15426746D02*
X6274944Y-15379127D01*
X6274944Y-15379127D02*
X6284468Y-15350555D01*
X6284468Y-15350555D02*
X6293991Y-15331508D01*
X6293991Y-15331508D02*
X6313039Y-15302936D01*
X6313039Y-15302936D02*
X6322563Y-15293412D01*
X6503515Y-15521984D02*
X6389229Y-15521984D01*
X6446372Y-15521984D02*
X6446372Y-15321984D01*
X6446372Y-15321984D02*
X6427325Y-15350555D01*
X6427325Y-15350555D02*
X6408277Y-15369603D01*
X6408277Y-15369603D02*
X6389229Y-15379127D01*
X6674944Y-15321984D02*
X6636848Y-15321984D01*
X6636848Y-15321984D02*
X6617801Y-15331508D01*
X6617801Y-15331508D02*
X6608277Y-15341031D01*
X6608277Y-15341031D02*
X6589229Y-15369603D01*
X6589229Y-15369603D02*
X6579706Y-15407698D01*
X6579706Y-15407698D02*
X6579706Y-15483888D01*
X6579706Y-15483888D02*
X6589229Y-15502936D01*
X6589229Y-15502936D02*
X6598753Y-15512460D01*
X6598753Y-15512460D02*
X6617801Y-15521984D01*
X6617801Y-15521984D02*
X6655896Y-15521984D01*
X6655896Y-15521984D02*
X6674944Y-15512460D01*
X6674944Y-15512460D02*
X6684468Y-15502936D01*
X6684468Y-15502936D02*
X6693991Y-15483888D01*
X6693991Y-15483888D02*
X6693991Y-15436269D01*
X6693991Y-15436269D02*
X6684468Y-15417222D01*
X6684468Y-15417222D02*
X6674944Y-15407698D01*
X6674944Y-15407698D02*
X6655896Y-15398174D01*
X6655896Y-15398174D02*
X6617801Y-15398174D01*
X6617801Y-15398174D02*
X6598753Y-15407698D01*
X6598753Y-15407698D02*
X6589229Y-15417222D01*
X6589229Y-15417222D02*
X6579706Y-15436269D01*
X6932087Y-15521984D02*
X6932087Y-15321984D01*
X7017801Y-15521984D02*
X7017801Y-15417222D01*
X7017801Y-15417222D02*
X7008277Y-15398174D01*
X7008277Y-15398174D02*
X6989230Y-15388650D01*
X6989230Y-15388650D02*
X6960658Y-15388650D01*
X6960658Y-15388650D02*
X6941610Y-15398174D01*
X6941610Y-15398174D02*
X6932087Y-15407698D01*
X7141610Y-15521984D02*
X7122563Y-15512460D01*
X7122563Y-15512460D02*
X7113039Y-15502936D01*
X7113039Y-15502936D02*
X7103515Y-15483888D01*
X7103515Y-15483888D02*
X7103515Y-15426746D01*
X7103515Y-15426746D02*
X7113039Y-15407698D01*
X7113039Y-15407698D02*
X7122563Y-15398174D01*
X7122563Y-15398174D02*
X7141610Y-15388650D01*
X7141610Y-15388650D02*
X7170182Y-15388650D01*
X7170182Y-15388650D02*
X7189230Y-15398174D01*
X7189230Y-15398174D02*
X7198753Y-15407698D01*
X7198753Y-15407698D02*
X7208277Y-15426746D01*
X7208277Y-15426746D02*
X7208277Y-15483888D01*
X7208277Y-15483888D02*
X7198753Y-15502936D01*
X7198753Y-15502936D02*
X7189230Y-15512460D01*
X7189230Y-15512460D02*
X7170182Y-15521984D01*
X7170182Y-15521984D02*
X7141610Y-15521984D01*
X7322563Y-15521984D02*
X7303515Y-15512460D01*
X7303515Y-15512460D02*
X7293991Y-15493412D01*
X7293991Y-15493412D02*
X7293991Y-15321984D01*
X7474944Y-15512460D02*
X7455896Y-15521984D01*
X7455896Y-15521984D02*
X7417801Y-15521984D01*
X7417801Y-15521984D02*
X7398753Y-15512460D01*
X7398753Y-15512460D02*
X7389230Y-15493412D01*
X7389230Y-15493412D02*
X7389230Y-15417222D01*
X7389230Y-15417222D02*
X7398753Y-15398174D01*
X7398753Y-15398174D02*
X7417801Y-15388650D01*
X7417801Y-15388650D02*
X7455896Y-15388650D01*
X7455896Y-15388650D02*
X7474944Y-15398174D01*
X7474944Y-15398174D02*
X7484468Y-15417222D01*
X7484468Y-15417222D02*
X7484468Y-15436269D01*
X7484468Y-15436269D02*
X7389230Y-15455317D01*
X7560658Y-15512460D02*
X7579706Y-15521984D01*
X7579706Y-15521984D02*
X7617801Y-15521984D01*
X7617801Y-15521984D02*
X7636849Y-15512460D01*
X7636849Y-15512460D02*
X7646372Y-15493412D01*
X7646372Y-15493412D02*
X7646372Y-15483888D01*
X7646372Y-15483888D02*
X7636849Y-15464841D01*
X7636849Y-15464841D02*
X7617801Y-15455317D01*
X7617801Y-15455317D02*
X7589230Y-15455317D01*
X7589230Y-15455317D02*
X7570182Y-15445793D01*
X7570182Y-15445793D02*
X7560658Y-15426746D01*
X7560658Y-15426746D02*
X7560658Y-15417222D01*
X7560658Y-15417222D02*
X7570182Y-15398174D01*
X7570182Y-15398174D02*
X7589230Y-15388650D01*
X7589230Y-15388650D02*
X7617801Y-15388650D01*
X7617801Y-15388650D02*
X7636849Y-15398174D01*
X7713039Y-15598174D02*
X7722563Y-15588650D01*
X7722563Y-15588650D02*
X7741611Y-15560079D01*
X7741611Y-15560079D02*
X7751134Y-15541031D01*
X7751134Y-15541031D02*
X7760658Y-15512460D01*
X7760658Y-15512460D02*
X7770182Y-15464841D01*
X7770182Y-15464841D02*
X7770182Y-15426746D01*
X7770182Y-15426746D02*
X7760658Y-15379127D01*
X7760658Y-15379127D02*
X7751134Y-15350555D01*
X7751134Y-15350555D02*
X7741611Y-15331508D01*
X7741611Y-15331508D02*
X7722563Y-15302936D01*
X7722563Y-15302936D02*
X7713039Y-15293412D01*
X2718211Y-15765211D02*
X2718211Y-15623789D01*
X2576789Y-15623789D01*
X2576789Y-15765211D01*
X2718211Y-15765211D01*
X2989229Y-15585984D02*
X3113039Y-15585984D01*
X3113039Y-15585984D02*
X3046372Y-15662174D01*
X3046372Y-15662174D02*
X3074943Y-15662174D01*
X3074943Y-15662174D02*
X3093991Y-15671698D01*
X3093991Y-15671698D02*
X3103515Y-15681222D01*
X3103515Y-15681222D02*
X3113039Y-15700269D01*
X3113039Y-15700269D02*
X3113039Y-15747888D01*
X3113039Y-15747888D02*
X3103515Y-15766936D01*
X3103515Y-15766936D02*
X3093991Y-15776460D01*
X3093991Y-15776460D02*
X3074943Y-15785984D01*
X3074943Y-15785984D02*
X3017801Y-15785984D01*
X3017801Y-15785984D02*
X2998753Y-15776460D01*
X2998753Y-15776460D02*
X2989229Y-15766936D01*
X3198753Y-15766936D02*
X3208277Y-15776460D01*
X3208277Y-15776460D02*
X3198753Y-15785984D01*
X3198753Y-15785984D02*
X3189229Y-15776460D01*
X3189229Y-15776460D02*
X3198753Y-15766936D01*
X3198753Y-15766936D02*
X3198753Y-15785984D01*
X3284467Y-15605031D02*
X3293991Y-15595508D01*
X3293991Y-15595508D02*
X3313039Y-15585984D01*
X3313039Y-15585984D02*
X3360658Y-15585984D01*
X3360658Y-15585984D02*
X3379705Y-15595508D01*
X3379705Y-15595508D02*
X3389229Y-15605031D01*
X3389229Y-15605031D02*
X3398753Y-15624079D01*
X3398753Y-15624079D02*
X3398753Y-15643127D01*
X3398753Y-15643127D02*
X3389229Y-15671698D01*
X3389229Y-15671698D02*
X3274943Y-15785984D01*
X3274943Y-15785984D02*
X3398753Y-15785984D01*
X3522562Y-15585984D02*
X3541610Y-15585984D01*
X3541610Y-15585984D02*
X3560658Y-15595508D01*
X3560658Y-15595508D02*
X3570182Y-15605031D01*
X3570182Y-15605031D02*
X3579705Y-15624079D01*
X3579705Y-15624079D02*
X3589229Y-15662174D01*
X3589229Y-15662174D02*
X3589229Y-15709793D01*
X3589229Y-15709793D02*
X3579705Y-15747888D01*
X3579705Y-15747888D02*
X3570182Y-15766936D01*
X3570182Y-15766936D02*
X3560658Y-15776460D01*
X3560658Y-15776460D02*
X3541610Y-15785984D01*
X3541610Y-15785984D02*
X3522562Y-15785984D01*
X3522562Y-15785984D02*
X3503515Y-15776460D01*
X3503515Y-15776460D02*
X3493991Y-15766936D01*
X3493991Y-15766936D02*
X3484467Y-15747888D01*
X3484467Y-15747888D02*
X3474943Y-15709793D01*
X3474943Y-15709793D02*
X3474943Y-15662174D01*
X3474943Y-15662174D02*
X3484467Y-15624079D01*
X3484467Y-15624079D02*
X3493991Y-15605031D01*
X3493991Y-15605031D02*
X3503515Y-15595508D01*
X3503515Y-15595508D02*
X3522562Y-15585984D01*
X3713039Y-15585984D02*
X3732086Y-15585984D01*
X3732086Y-15585984D02*
X3751134Y-15595508D01*
X3751134Y-15595508D02*
X3760658Y-15605031D01*
X3760658Y-15605031D02*
X3770182Y-15624079D01*
X3770182Y-15624079D02*
X3779705Y-15662174D01*
X3779705Y-15662174D02*
X3779705Y-15709793D01*
X3779705Y-15709793D02*
X3770182Y-15747888D01*
X3770182Y-15747888D02*
X3760658Y-15766936D01*
X3760658Y-15766936D02*
X3751134Y-15776460D01*
X3751134Y-15776460D02*
X3732086Y-15785984D01*
X3732086Y-15785984D02*
X3713039Y-15785984D01*
X3713039Y-15785984D02*
X3693991Y-15776460D01*
X3693991Y-15776460D02*
X3684467Y-15766936D01*
X3684467Y-15766936D02*
X3674943Y-15747888D01*
X3674943Y-15747888D02*
X3665420Y-15709793D01*
X3665420Y-15709793D02*
X3665420Y-15662174D01*
X3665420Y-15662174D02*
X3674943Y-15624079D01*
X3674943Y-15624079D02*
X3684467Y-15605031D01*
X3684467Y-15605031D02*
X3693991Y-15595508D01*
X3693991Y-15595508D02*
X3713039Y-15585984D01*
X3865420Y-15785984D02*
X3865420Y-15652650D01*
X3865420Y-15671698D02*
X3874943Y-15662174D01*
X3874943Y-15662174D02*
X3893991Y-15652650D01*
X3893991Y-15652650D02*
X3922563Y-15652650D01*
X3922563Y-15652650D02*
X3941610Y-15662174D01*
X3941610Y-15662174D02*
X3951134Y-15681222D01*
X3951134Y-15681222D02*
X3951134Y-15785984D01*
X3951134Y-15681222D02*
X3960658Y-15662174D01*
X3960658Y-15662174D02*
X3979705Y-15652650D01*
X3979705Y-15652650D02*
X4008277Y-15652650D01*
X4008277Y-15652650D02*
X4027324Y-15662174D01*
X4027324Y-15662174D02*
X4036848Y-15681222D01*
X4036848Y-15681222D02*
X4036848Y-15785984D01*
X4132086Y-15785984D02*
X4132086Y-15652650D01*
X4132086Y-15671698D02*
X4141610Y-15662174D01*
X4141610Y-15662174D02*
X4160658Y-15652650D01*
X4160658Y-15652650D02*
X4189229Y-15652650D01*
X4189229Y-15652650D02*
X4208277Y-15662174D01*
X4208277Y-15662174D02*
X4217801Y-15681222D01*
X4217801Y-15681222D02*
X4217801Y-15785984D01*
X4217801Y-15681222D02*
X4227325Y-15662174D01*
X4227325Y-15662174D02*
X4246372Y-15652650D01*
X4246372Y-15652650D02*
X4274944Y-15652650D01*
X4274944Y-15652650D02*
X4293991Y-15662174D01*
X4293991Y-15662174D02*
X4303515Y-15681222D01*
X4303515Y-15681222D02*
X4303515Y-15785984D01*
X4693991Y-15576460D02*
X4522563Y-15833603D01*
X4951134Y-15585984D02*
X4970182Y-15585984D01*
X4970182Y-15585984D02*
X4989229Y-15595508D01*
X4989229Y-15595508D02*
X4998753Y-15605031D01*
X4998753Y-15605031D02*
X5008277Y-15624079D01*
X5008277Y-15624079D02*
X5017801Y-15662174D01*
X5017801Y-15662174D02*
X5017801Y-15709793D01*
X5017801Y-15709793D02*
X5008277Y-15747888D01*
X5008277Y-15747888D02*
X4998753Y-15766936D01*
X4998753Y-15766936D02*
X4989229Y-15776460D01*
X4989229Y-15776460D02*
X4970182Y-15785984D01*
X4970182Y-15785984D02*
X4951134Y-15785984D01*
X4951134Y-15785984D02*
X4932087Y-15776460D01*
X4932087Y-15776460D02*
X4922563Y-15766936D01*
X4922563Y-15766936D02*
X4913039Y-15747888D01*
X4913039Y-15747888D02*
X4903515Y-15709793D01*
X4903515Y-15709793D02*
X4903515Y-15662174D01*
X4903515Y-15662174D02*
X4913039Y-15624079D01*
X4913039Y-15624079D02*
X4922563Y-15605031D01*
X4922563Y-15605031D02*
X4932087Y-15595508D01*
X4932087Y-15595508D02*
X4951134Y-15585984D01*
X5103515Y-15766936D02*
X5113039Y-15776460D01*
X5113039Y-15776460D02*
X5103515Y-15785984D01*
X5103515Y-15785984D02*
X5093991Y-15776460D01*
X5093991Y-15776460D02*
X5103515Y-15766936D01*
X5103515Y-15766936D02*
X5103515Y-15785984D01*
X5303515Y-15785984D02*
X5189229Y-15785984D01*
X5246372Y-15785984D02*
X5246372Y-15585984D01*
X5246372Y-15585984D02*
X5227325Y-15614555D01*
X5227325Y-15614555D02*
X5208277Y-15633603D01*
X5208277Y-15633603D02*
X5189229Y-15643127D01*
X5379706Y-15605031D02*
X5389229Y-15595508D01*
X5389229Y-15595508D02*
X5408277Y-15585984D01*
X5408277Y-15585984D02*
X5455896Y-15585984D01*
X5455896Y-15585984D02*
X5474944Y-15595508D01*
X5474944Y-15595508D02*
X5484468Y-15605031D01*
X5484468Y-15605031D02*
X5493991Y-15624079D01*
X5493991Y-15624079D02*
X5493991Y-15643127D01*
X5493991Y-15643127D02*
X5484468Y-15671698D01*
X5484468Y-15671698D02*
X5370182Y-15785984D01*
X5370182Y-15785984D02*
X5493991Y-15785984D01*
X5665420Y-15585984D02*
X5627325Y-15585984D01*
X5627325Y-15585984D02*
X5608277Y-15595508D01*
X5608277Y-15595508D02*
X5598753Y-15605031D01*
X5598753Y-15605031D02*
X5579706Y-15633603D01*
X5579706Y-15633603D02*
X5570182Y-15671698D01*
X5570182Y-15671698D02*
X5570182Y-15747888D01*
X5570182Y-15747888D02*
X5579706Y-15766936D01*
X5579706Y-15766936D02*
X5589229Y-15776460D01*
X5589229Y-15776460D02*
X5608277Y-15785984D01*
X5608277Y-15785984D02*
X5646372Y-15785984D01*
X5646372Y-15785984D02*
X5665420Y-15776460D01*
X5665420Y-15776460D02*
X5674944Y-15766936D01*
X5674944Y-15766936D02*
X5684467Y-15747888D01*
X5684467Y-15747888D02*
X5684467Y-15700269D01*
X5684467Y-15700269D02*
X5674944Y-15681222D01*
X5674944Y-15681222D02*
X5665420Y-15671698D01*
X5665420Y-15671698D02*
X5646372Y-15662174D01*
X5646372Y-15662174D02*
X5608277Y-15662174D01*
X5608277Y-15662174D02*
X5589229Y-15671698D01*
X5589229Y-15671698D02*
X5579706Y-15681222D01*
X5579706Y-15681222D02*
X5570182Y-15700269D01*
X5808277Y-15585984D02*
X5827325Y-15585984D01*
X5827325Y-15585984D02*
X5846372Y-15595508D01*
X5846372Y-15595508D02*
X5855896Y-15605031D01*
X5855896Y-15605031D02*
X5865420Y-15624079D01*
X5865420Y-15624079D02*
X5874944Y-15662174D01*
X5874944Y-15662174D02*
X5874944Y-15709793D01*
X5874944Y-15709793D02*
X5865420Y-15747888D01*
X5865420Y-15747888D02*
X5855896Y-15766936D01*
X5855896Y-15766936D02*
X5846372Y-15776460D01*
X5846372Y-15776460D02*
X5827325Y-15785984D01*
X5827325Y-15785984D02*
X5808277Y-15785984D01*
X5808277Y-15785984D02*
X5789229Y-15776460D01*
X5789229Y-15776460D02*
X5779706Y-15766936D01*
X5779706Y-15766936D02*
X5770182Y-15747888D01*
X5770182Y-15747888D02*
X5760658Y-15709793D01*
X5760658Y-15709793D02*
X5760658Y-15662174D01*
X5760658Y-15662174D02*
X5770182Y-15624079D01*
X5770182Y-15624079D02*
X5779706Y-15605031D01*
X5779706Y-15605031D02*
X5789229Y-15595508D01*
X5789229Y-15595508D02*
X5808277Y-15585984D01*
X5951134Y-15585984D02*
X5951134Y-15624079D01*
X6027325Y-15585984D02*
X6027325Y-15624079D01*
X6322563Y-15862174D02*
X6313039Y-15852650D01*
X6313039Y-15852650D02*
X6293991Y-15824079D01*
X6293991Y-15824079D02*
X6284468Y-15805031D01*
X6284468Y-15805031D02*
X6274944Y-15776460D01*
X6274944Y-15776460D02*
X6265420Y-15728841D01*
X6265420Y-15728841D02*
X6265420Y-15690746D01*
X6265420Y-15690746D02*
X6274944Y-15643127D01*
X6274944Y-15643127D02*
X6284468Y-15614555D01*
X6284468Y-15614555D02*
X6293991Y-15595508D01*
X6293991Y-15595508D02*
X6313039Y-15566936D01*
X6313039Y-15566936D02*
X6322563Y-15557412D01*
X6484468Y-15652650D02*
X6484468Y-15785984D01*
X6436848Y-15576460D02*
X6389229Y-15719317D01*
X6389229Y-15719317D02*
X6513039Y-15719317D01*
X6741610Y-15785984D02*
X6741610Y-15585984D01*
X6827325Y-15785984D02*
X6827325Y-15681222D01*
X6827325Y-15681222D02*
X6817801Y-15662174D01*
X6817801Y-15662174D02*
X6798753Y-15652650D01*
X6798753Y-15652650D02*
X6770182Y-15652650D01*
X6770182Y-15652650D02*
X6751134Y-15662174D01*
X6751134Y-15662174D02*
X6741610Y-15671698D01*
X6951134Y-15785984D02*
X6932087Y-15776460D01*
X6932087Y-15776460D02*
X6922563Y-15766936D01*
X6922563Y-15766936D02*
X6913039Y-15747888D01*
X6913039Y-15747888D02*
X6913039Y-15690746D01*
X6913039Y-15690746D02*
X6922563Y-15671698D01*
X6922563Y-15671698D02*
X6932087Y-15662174D01*
X6932087Y-15662174D02*
X6951134Y-15652650D01*
X6951134Y-15652650D02*
X6979706Y-15652650D01*
X6979706Y-15652650D02*
X6998753Y-15662174D01*
X6998753Y-15662174D02*
X7008277Y-15671698D01*
X7008277Y-15671698D02*
X7017801Y-15690746D01*
X7017801Y-15690746D02*
X7017801Y-15747888D01*
X7017801Y-15747888D02*
X7008277Y-15766936D01*
X7008277Y-15766936D02*
X6998753Y-15776460D01*
X6998753Y-15776460D02*
X6979706Y-15785984D01*
X6979706Y-15785984D02*
X6951134Y-15785984D01*
X7132087Y-15785984D02*
X7113039Y-15776460D01*
X7113039Y-15776460D02*
X7103515Y-15757412D01*
X7103515Y-15757412D02*
X7103515Y-15585984D01*
X7284468Y-15776460D02*
X7265420Y-15785984D01*
X7265420Y-15785984D02*
X7227325Y-15785984D01*
X7227325Y-15785984D02*
X7208277Y-15776460D01*
X7208277Y-15776460D02*
X7198753Y-15757412D01*
X7198753Y-15757412D02*
X7198753Y-15681222D01*
X7198753Y-15681222D02*
X7208277Y-15662174D01*
X7208277Y-15662174D02*
X7227325Y-15652650D01*
X7227325Y-15652650D02*
X7265420Y-15652650D01*
X7265420Y-15652650D02*
X7284468Y-15662174D01*
X7284468Y-15662174D02*
X7293991Y-15681222D01*
X7293991Y-15681222D02*
X7293991Y-15700269D01*
X7293991Y-15700269D02*
X7198753Y-15719317D01*
X7370182Y-15776460D02*
X7389230Y-15785984D01*
X7389230Y-15785984D02*
X7427325Y-15785984D01*
X7427325Y-15785984D02*
X7446372Y-15776460D01*
X7446372Y-15776460D02*
X7455896Y-15757412D01*
X7455896Y-15757412D02*
X7455896Y-15747888D01*
X7455896Y-15747888D02*
X7446372Y-15728841D01*
X7446372Y-15728841D02*
X7427325Y-15719317D01*
X7427325Y-15719317D02*
X7398753Y-15719317D01*
X7398753Y-15719317D02*
X7379706Y-15709793D01*
X7379706Y-15709793D02*
X7370182Y-15690746D01*
X7370182Y-15690746D02*
X7370182Y-15681222D01*
X7370182Y-15681222D02*
X7379706Y-15662174D01*
X7379706Y-15662174D02*
X7398753Y-15652650D01*
X7398753Y-15652650D02*
X7427325Y-15652650D01*
X7427325Y-15652650D02*
X7446372Y-15662174D01*
X7522563Y-15862174D02*
X7532087Y-15852650D01*
X7532087Y-15852650D02*
X7551134Y-15824079D01*
X7551134Y-15824079D02*
X7560658Y-15805031D01*
X7560658Y-15805031D02*
X7570182Y-15776460D01*
X7570182Y-15776460D02*
X7579706Y-15728841D01*
X7579706Y-15728841D02*
X7579706Y-15690746D01*
X7579706Y-15690746D02*
X7570182Y-15643127D01*
X7570182Y-15643127D02*
X7560658Y-15614555D01*
X7560658Y-15614555D02*
X7551134Y-15595508D01*
X7551134Y-15595508D02*
X7532087Y-15566936D01*
X7532087Y-15566936D02*
X7522563Y-15557412D01*
M02*
