%TF.GenerationSoftware,KiCad,Pcbnew,8.0.3*%
%TF.CreationDate,2024-07-13T16:12:33+02:00*%
%TF.ProjectId,DevKeyboard,4465764b-6579-4626-9f61-72642e6b6963,1.0*%
%TF.SameCoordinates,Original*%
%TF.FileFunction,Paste,Top*%
%TF.FilePolarity,Positive*%
%FSLAX46Y46*%
G04 Gerber Fmt 4.6, Leading zero omitted, Abs format (unit mm)*
G04 Created by KiCad (PCBNEW 8.0.3) date 2024-07-13 16:12:33*
%MOMM*%
%LPD*%
G01*
G04 APERTURE LIST*
G04 Aperture macros list*
%AMRoundRect*
0 Rectangle with rounded corners*
0 $1 Rounding radius*
0 $2 $3 $4 $5 $6 $7 $8 $9 X,Y pos of 4 corners*
0 Add a 4 corners polygon primitive as box body*
4,1,4,$2,$3,$4,$5,$6,$7,$8,$9,$2,$3,0*
0 Add four circle primitives for the rounded corners*
1,1,$1+$1,$2,$3*
1,1,$1+$1,$4,$5*
1,1,$1+$1,$6,$7*
1,1,$1+$1,$8,$9*
0 Add four rect primitives between the rounded corners*
20,1,$1+$1,$2,$3,$4,$5,0*
20,1,$1+$1,$4,$5,$6,$7,0*
20,1,$1+$1,$6,$7,$8,$9,0*
20,1,$1+$1,$8,$9,$2,$3,0*%
G04 Aperture macros list end*
%ADD10RoundRect,0.140000X-0.170000X0.140000X-0.170000X-0.140000X0.170000X-0.140000X0.170000X0.140000X0*%
%ADD11RoundRect,0.218750X0.256250X-0.218750X0.256250X0.218750X-0.256250X0.218750X-0.256250X-0.218750X0*%
%ADD12R,3.759200X3.987800*%
%ADD13R,2.514600X3.200400*%
%ADD14R,1.397000X2.489200*%
%ADD15RoundRect,0.135000X0.135000X0.185000X-0.135000X0.185000X-0.135000X-0.185000X0.135000X-0.185000X0*%
%ADD16RoundRect,0.135000X0.185000X-0.135000X0.185000X0.135000X-0.185000X0.135000X-0.185000X-0.135000X0*%
%ADD17RoundRect,0.300000X0.600000X-0.300000X0.600000X0.300000X-0.600000X0.300000X-0.600000X-0.300000X0*%
%ADD18RoundRect,0.150000X0.625000X-0.150000X0.625000X0.150000X-0.625000X0.150000X-0.625000X-0.150000X0*%
%ADD19RoundRect,0.135000X-0.135000X-0.185000X0.135000X-0.185000X0.135000X0.185000X-0.135000X0.185000X0*%
G04 APERTURE END LIST*
D10*
%TO.C,C313*%
X318008000Y-46637000D03*
X318008000Y-47597000D03*
%TD*%
D11*
%TO.C,D301*%
X333375000Y-46126501D03*
X333375000Y-44551499D03*
%TD*%
%TO.C,D403*%
X326644000Y-46126501D03*
X326644000Y-44551499D03*
%TD*%
D12*
%TO.C,SW302*%
X316763799Y-33170012D03*
D13*
X318141350Y-25270013D03*
X318141350Y-41070012D03*
X328136250Y-25270013D03*
X328136250Y-41070012D03*
D12*
X329513801Y-33170012D03*
D14*
X320638800Y-40320013D03*
X325638800Y-40320013D03*
X323138800Y-40320013D03*
X320638800Y-26020011D03*
X325638800Y-26020011D03*
%TD*%
D15*
%TO.C,R313*%
X333859599Y-41783000D03*
X332839601Y-41783000D03*
%TD*%
D16*
%TO.C,R308*%
X319151000Y-47626999D03*
X319151000Y-46607001D03*
%TD*%
D17*
%TO.C,J302*%
X318600000Y-58410000D03*
X318600000Y-50810000D03*
D18*
X316075000Y-52109999D03*
X316075000Y-53110000D03*
X316075000Y-54110000D03*
X316075000Y-55110000D03*
X316075001Y-56110000D03*
X316075000Y-57110000D03*
%TD*%
D16*
%TO.C,R309*%
X320292000Y-47626999D03*
X320292000Y-46607001D03*
%TD*%
D19*
%TO.C,R401*%
X332839601Y-38354000D03*
X333859599Y-38354000D03*
%TD*%
D11*
%TO.C,D402*%
X329565000Y-46126501D03*
X329565000Y-44551499D03*
%TD*%
D16*
%TO.C,R306*%
X314792000Y-47626999D03*
X314792000Y-46607001D03*
%TD*%
D19*
%TO.C,R403*%
X332839601Y-39497000D03*
X333859599Y-39497000D03*
%TD*%
D17*
%TO.C,J309*%
X318090400Y-95036800D03*
X318090400Y-87436800D03*
D18*
X315565400Y-88736799D03*
X315565400Y-89736800D03*
X315565400Y-90736800D03*
X315565400Y-91736800D03*
X315565401Y-92736800D03*
X315565400Y-93736800D03*
%TD*%
D11*
%TO.C,D401*%
X323850000Y-46126500D03*
X323850000Y-44551498D03*
%TD*%
D10*
%TO.C,C312*%
X316992000Y-46637000D03*
X316992000Y-47597000D03*
%TD*%
D19*
%TO.C,R402*%
X332839601Y-40640000D03*
X333859599Y-40640000D03*
%TD*%
D16*
%TO.C,R307*%
X315849000Y-47626999D03*
X315849000Y-46607001D03*
%TD*%
M02*
